%TF.GenerationSoftware,KiCad,Pcbnew,6.0.5-a6ca702e91~116~ubuntu22.04.1*%
%TF.CreationDate,2022-06-15T11:28:33-07:00*%
%TF.ProjectId,aprs-esp32,61707273-2d65-4737-9033-322e6b696361,v1.0.0*%
%TF.SameCoordinates,Original*%
%TF.FileFunction,Soldermask,Bot*%
%TF.FilePolarity,Negative*%
%FSLAX46Y46*%
G04 Gerber Fmt 4.6, Leading zero omitted, Abs format (unit mm)*
G04 Created by KiCad (PCBNEW 6.0.5-a6ca702e91~116~ubuntu22.04.1) date 2022-06-15 11:28:33*
%MOMM*%
%LPD*%
G01*
G04 APERTURE LIST*
G04 Aperture macros list*
%AMRoundRect*
0 Rectangle with rounded corners*
0 $1 Rounding radius*
0 $2 $3 $4 $5 $6 $7 $8 $9 X,Y pos of 4 corners*
0 Add a 4 corners polygon primitive as box body*
4,1,4,$2,$3,$4,$5,$6,$7,$8,$9,$2,$3,0*
0 Add four circle primitives for the rounded corners*
1,1,$1+$1,$2,$3*
1,1,$1+$1,$4,$5*
1,1,$1+$1,$6,$7*
1,1,$1+$1,$8,$9*
0 Add four rect primitives between the rounded corners*
20,1,$1+$1,$2,$3,$4,$5,0*
20,1,$1+$1,$4,$5,$6,$7,0*
20,1,$1+$1,$6,$7,$8,$9,0*
20,1,$1+$1,$8,$9,$2,$3,0*%
G04 Aperture macros list end*
%ADD10C,2.100000*%
%ADD11C,1.825000*%
%ADD12RoundRect,0.050000X0.862500X0.862500X-0.862500X0.862500X-0.862500X-0.862500X0.862500X-0.862500X0*%
%ADD13C,2.150000*%
%ADD14C,2.350000*%
%ADD15RoundRect,0.050000X-1.980000X0.990000X-1.980000X-0.990000X1.980000X-0.990000X1.980000X0.990000X0*%
%ADD16O,4.060000X2.080000*%
%ADD17RoundRect,0.050000X-0.850000X-0.850000X0.850000X-0.850000X0.850000X0.850000X-0.850000X0.850000X0*%
%ADD18O,1.800000X1.800000*%
%ADD19C,1.000000*%
%ADD20C,8.700000*%
%ADD21C,0.710000*%
G04 APERTURE END LIST*
D10*
%TO.C,SW2*%
X28065000Y-97715000D03*
X28065000Y-104215000D03*
X23565000Y-97715000D03*
X23565000Y-104215000D03*
%TD*%
D11*
%TO.C,J5*%
X46740000Y-32540000D03*
X46740000Y-30000000D03*
X49280000Y-32540000D03*
X49280000Y-30000000D03*
X51820000Y-32540000D03*
X51820000Y-30000000D03*
X54360000Y-32540000D03*
X54360000Y-30000000D03*
X56900000Y-32540000D03*
X56900000Y-30000000D03*
X59440000Y-32540000D03*
X59440000Y-30000000D03*
X61980000Y-32540000D03*
X61980000Y-30000000D03*
X64520000Y-32540000D03*
X64520000Y-30000000D03*
X67060000Y-32540000D03*
X67060000Y-30000000D03*
X69600000Y-32540000D03*
X69600000Y-30000000D03*
X72140000Y-32540000D03*
X72140000Y-30000000D03*
X74680000Y-32540000D03*
X74680000Y-30000000D03*
X77220000Y-32540000D03*
X77220000Y-30000000D03*
X79760000Y-32540000D03*
X79760000Y-30000000D03*
X82300000Y-32540000D03*
X82300000Y-30000000D03*
X84840000Y-32540000D03*
X84840000Y-30000000D03*
X87380000Y-32540000D03*
X87380000Y-30000000D03*
X89920000Y-32540000D03*
X89920000Y-30000000D03*
X92460000Y-32540000D03*
X92460000Y-30000000D03*
X95000000Y-32540000D03*
D12*
X95000000Y-30000000D03*
%TD*%
D13*
%TO.C,J7*%
X112186370Y-70945645D03*
D14*
X114726370Y-73485645D03*
X109646370Y-73485645D03*
X114726370Y-68405645D03*
X109646370Y-68405645D03*
%TD*%
D15*
%TO.C,J3*%
X113345000Y-38545000D03*
D16*
X113345000Y-43545000D03*
X113345000Y-48545000D03*
X113345000Y-53545000D03*
%TD*%
D17*
%TO.C,J8*%
X25798507Y-85003164D03*
D18*
X25798507Y-87543164D03*
X25798507Y-90083164D03*
%TD*%
D17*
%TO.C,J6*%
X77940218Y-58596018D03*
D18*
X77940218Y-61136018D03*
X77940218Y-63676018D03*
%TD*%
D19*
%TO.C,H4*%
X118145000Y-114920000D03*
D20*
X114920000Y-114920000D03*
D19*
X112639581Y-117200419D03*
X111695000Y-114920000D03*
X117200419Y-117200419D03*
X114920000Y-111695000D03*
X117200419Y-112639581D03*
X114920000Y-118145000D03*
X112639581Y-112639581D03*
%TD*%
D21*
%TO.C,FL1*%
X110051659Y-61761266D03*
X110051659Y-63971266D03*
%TD*%
D20*
%TO.C,H3*%
X25080000Y-114920000D03*
D19*
X21855000Y-114920000D03*
X25080000Y-118145000D03*
X27360419Y-112639581D03*
X27360419Y-117200419D03*
X22799581Y-117200419D03*
X22799581Y-112639581D03*
X28305000Y-114920000D03*
X25080000Y-111695000D03*
%TD*%
D17*
%TO.C,J2*%
X25885000Y-59025000D03*
D18*
X25885000Y-61565000D03*
X25885000Y-64105000D03*
%TD*%
D17*
%TO.C,J4*%
X25592860Y-39985000D03*
D18*
X25592860Y-42525000D03*
X25592860Y-45065000D03*
X25592860Y-47605000D03*
%TD*%
D19*
%TO.C,H2*%
X27360419Y-22799581D03*
D20*
X25080000Y-25080000D03*
D19*
X21855000Y-25080000D03*
X27360419Y-27360419D03*
X22799581Y-27360419D03*
X25080000Y-28305000D03*
X22799581Y-22799581D03*
X25080000Y-21855000D03*
X28305000Y-25080000D03*
%TD*%
%TO.C,H1*%
X118145000Y-25080000D03*
X111695000Y-25080000D03*
D20*
X114920000Y-25080000D03*
D19*
X117200419Y-27360419D03*
X114920000Y-28305000D03*
X117200419Y-22799581D03*
X114920000Y-21855000D03*
X112639581Y-27360419D03*
X112639581Y-22799581D03*
%TD*%
D17*
%TO.C,J1*%
X25885000Y-70455000D03*
D18*
X25885000Y-72995000D03*
X25885000Y-75535000D03*
X25885000Y-78075000D03*
%TD*%
D10*
%TO.C,SW1*%
X81299009Y-111952171D03*
X74799009Y-111952171D03*
X74799009Y-116452171D03*
X81299009Y-116452171D03*
%TD*%
M02*
