%TF.GenerationSoftware,KiCad,Pcbnew,6.0.8-f2edbf62ab~116~ubuntu22.04.1*%
%TF.CreationDate,2022-10-21T16:06:30-07:00*%
%TF.ProjectId,aprs-esp32,61707273-2d65-4737-9033-322e6b696361,v1.0.0*%
%TF.SameCoordinates,Original*%
%TF.FileFunction,Paste,Top*%
%TF.FilePolarity,Positive*%
%FSLAX46Y46*%
G04 Gerber Fmt 4.6, Leading zero omitted, Abs format (unit mm)*
G04 Created by KiCad (PCBNEW 6.0.8-f2edbf62ab~116~ubuntu22.04.1) date 2022-10-21 16:06:30*
%MOMM*%
%LPD*%
G01*
G04 APERTURE LIST*
G04 Aperture macros list*
%AMRoundRect*
0 Rectangle with rounded corners*
0 $1 Rounding radius*
0 $2 $3 $4 $5 $6 $7 $8 $9 X,Y pos of 4 corners*
0 Add a 4 corners polygon primitive as box body*
4,1,4,$2,$3,$4,$5,$6,$7,$8,$9,$2,$3,0*
0 Add four circle primitives for the rounded corners*
1,1,$1+$1,$2,$3*
1,1,$1+$1,$4,$5*
1,1,$1+$1,$6,$7*
1,1,$1+$1,$8,$9*
0 Add four rect primitives between the rounded corners*
20,1,$1+$1,$2,$3,$4,$5,0*
20,1,$1+$1,$4,$5,$6,$7,0*
20,1,$1+$1,$6,$7,$8,$9,0*
20,1,$1+$1,$8,$9,$2,$3,0*%
G04 Aperture macros list end*
%ADD10RoundRect,0.250000X0.400000X0.625000X-0.400000X0.625000X-0.400000X-0.625000X0.400000X-0.625000X0*%
%ADD11RoundRect,0.250000X-0.412500X-0.650000X0.412500X-0.650000X0.412500X0.650000X-0.412500X0.650000X0*%
%ADD12RoundRect,0.250000X1.450000X-0.537500X1.450000X0.537500X-1.450000X0.537500X-1.450000X-0.537500X0*%
%ADD13RoundRect,0.237500X-0.287500X-0.237500X0.287500X-0.237500X0.287500X0.237500X-0.287500X0.237500X0*%
%ADD14RoundRect,0.150000X-0.150000X0.587500X-0.150000X-0.587500X0.150000X-0.587500X0.150000X0.587500X0*%
%ADD15R,2.470000X1.880000*%
%ADD16R,1.880000X2.470000*%
%ADD17R,6.600000X1.800000*%
%ADD18R,8.000000X1.800000*%
%ADD19RoundRect,0.249600X-0.270400X-0.650400X0.270400X-0.650400X0.270400X0.650400X-0.270400X0.650400X0*%
%ADD20RoundRect,0.152500X-0.152500X-0.470000X0.152500X-0.470000X0.152500X0.470000X-0.152500X0.470000X0*%
%ADD21RoundRect,0.250001X0.924999X-0.499999X0.924999X0.499999X-0.924999X0.499999X-0.924999X-0.499999X0*%
%ADD22R,2.000000X0.900000*%
%ADD23R,0.900000X2.000000*%
%ADD24R,5.000000X5.000000*%
%ADD25RoundRect,0.250000X0.412500X0.650000X-0.412500X0.650000X-0.412500X-0.650000X0.412500X-0.650000X0*%
%ADD26RoundRect,0.250000X-0.625000X0.400000X-0.625000X-0.400000X0.625000X-0.400000X0.625000X0.400000X0*%
%ADD27RoundRect,0.250000X-0.400000X-0.625000X0.400000X-0.625000X0.400000X0.625000X-0.400000X0.625000X0*%
G04 APERTURE END LIST*
D10*
%TO.C,R4*%
X56835000Y-62815000D03*
X53735000Y-62815000D03*
%TD*%
D11*
%TO.C,C2*%
X87555000Y-55485000D03*
X90680000Y-55485000D03*
%TD*%
D10*
%TO.C,R10*%
X67775000Y-62775000D03*
X64675000Y-62775000D03*
%TD*%
%TO.C,R3*%
X56845000Y-52285000D03*
X53745000Y-52285000D03*
%TD*%
D12*
%TO.C,C3*%
X86679587Y-116330713D03*
X86679587Y-112055713D03*
%TD*%
D13*
%TO.C,D1*%
X55810000Y-87055000D03*
X57560000Y-87055000D03*
%TD*%
D14*
%TO.C,Q4*%
X67175000Y-65532500D03*
X65275000Y-65532500D03*
X66225000Y-67407500D03*
%TD*%
D10*
%TO.C,R14*%
X50725000Y-87035000D03*
X47625000Y-87035000D03*
%TD*%
D12*
%TO.C,C4*%
X67875000Y-117130000D03*
X67875000Y-112855000D03*
%TD*%
D13*
%TO.C,D2*%
X55760000Y-82515000D03*
X57510000Y-82515000D03*
%TD*%
D11*
%TO.C,C1*%
X87455000Y-52145000D03*
X90580000Y-52145000D03*
%TD*%
D14*
%TO.C,Q1*%
X56285000Y-65547500D03*
X54385000Y-65547500D03*
X55335000Y-67422500D03*
%TD*%
D13*
%TO.C,D3*%
X55760000Y-77945000D03*
X57510000Y-77945000D03*
%TD*%
D10*
%TO.C,R15*%
X50715000Y-82565000D03*
X47615000Y-82565000D03*
%TD*%
D14*
%TO.C,Q2*%
X56245000Y-55186500D03*
X54345000Y-55186500D03*
X55295000Y-57061500D03*
%TD*%
D15*
%TO.C,U1*%
X85640000Y-90155000D03*
X85640000Y-85705000D03*
X85640000Y-81255000D03*
X85640000Y-76805000D03*
X85640000Y-72355000D03*
X85640000Y-67905000D03*
X85640000Y-63455000D03*
D16*
X87565000Y-59680000D03*
X92165000Y-59680000D03*
X96765000Y-59680000D03*
X101365000Y-59680000D03*
D15*
X103290000Y-63455000D03*
X103290000Y-67905000D03*
X103290000Y-72355000D03*
X103290000Y-76805000D03*
X103290000Y-81255000D03*
X103290000Y-85705000D03*
X103290000Y-90155000D03*
D17*
X88265000Y-93930000D03*
D18*
X99965000Y-93930000D03*
%TD*%
D19*
%TO.C,FL1*%
X108426659Y-62866266D03*
D20*
X110051659Y-63793766D03*
D19*
X111676659Y-62866266D03*
D20*
X110051659Y-61938766D03*
%TD*%
D21*
%TO.C,C5*%
X63655000Y-117040000D03*
X63655000Y-113790000D03*
%TD*%
D22*
%TO.C,U2*%
X59235000Y-118350000D03*
X59235000Y-117080000D03*
X59235000Y-115810000D03*
X59235000Y-114540000D03*
X59235000Y-113270000D03*
X59235000Y-112000000D03*
X59235000Y-110730000D03*
X59235000Y-109460000D03*
X59235000Y-108190000D03*
X59235000Y-106920000D03*
X59235000Y-105650000D03*
X59235000Y-104380000D03*
X59235000Y-103110000D03*
X59235000Y-101840000D03*
D23*
X56450000Y-100840000D03*
X55180000Y-100840000D03*
X53910000Y-100840000D03*
X52640000Y-100840000D03*
X51370000Y-100840000D03*
X50100000Y-100840000D03*
X48830000Y-100840000D03*
X47560000Y-100840000D03*
X46290000Y-100840000D03*
X45020000Y-100840000D03*
D22*
X42235000Y-101840000D03*
X42235000Y-103110000D03*
X42235000Y-104380000D03*
X42235000Y-105650000D03*
X42235000Y-106920000D03*
X42235000Y-108190000D03*
X42235000Y-109460000D03*
X42235000Y-110730000D03*
X42235000Y-112000000D03*
X42235000Y-113270000D03*
X42235000Y-114540000D03*
X42235000Y-115810000D03*
X42235000Y-117080000D03*
X42235000Y-118350000D03*
D24*
X51735000Y-110850000D03*
%TD*%
D10*
%TO.C,R9*%
X80205000Y-104235000D03*
X77105000Y-104235000D03*
%TD*%
%TO.C,R11*%
X79705000Y-73805000D03*
X76605000Y-73805000D03*
%TD*%
D25*
%TO.C,C6*%
X80307500Y-101105000D03*
X77182500Y-101105000D03*
%TD*%
D10*
%TO.C,R16*%
X50675000Y-77955000D03*
X47575000Y-77955000D03*
%TD*%
%TO.C,R13*%
X33535000Y-36625000D03*
X30435000Y-36625000D03*
%TD*%
D26*
%TO.C,R8*%
X92179187Y-113529917D03*
X92179187Y-116629917D03*
%TD*%
D10*
%TO.C,R5*%
X79705000Y-68985000D03*
X76605000Y-68985000D03*
%TD*%
D27*
%TO.C,R1*%
X25025000Y-53125000D03*
X28125000Y-53125000D03*
%TD*%
D14*
%TO.C,Q3*%
X66975000Y-54827500D03*
X65075000Y-54827500D03*
X66025000Y-56702500D03*
%TD*%
D10*
%TO.C,R6*%
X79705000Y-78015000D03*
X76605000Y-78015000D03*
%TD*%
D25*
%TO.C,C7*%
X80243050Y-107175205D03*
X77118050Y-107175205D03*
%TD*%
D10*
%TO.C,R7*%
X79705000Y-85525000D03*
X76605000Y-85525000D03*
%TD*%
%TO.C,R2*%
X67695000Y-52305000D03*
X64595000Y-52305000D03*
%TD*%
%TO.C,R12*%
X33495000Y-32825000D03*
X30395000Y-32825000D03*
%TD*%
M02*
