%TF.GenerationSoftware,KiCad,Pcbnew,6.0.8-f2edbf62ab~116~ubuntu22.04.1*%
%TF.CreationDate,2022-10-21T16:06:30-07:00*%
%TF.ProjectId,aprs-esp32,61707273-2d65-4737-9033-322e6b696361,v1.0.0*%
%TF.SameCoordinates,Original*%
%TF.FileFunction,Legend,Top*%
%TF.FilePolarity,Positive*%
%FSLAX46Y46*%
G04 Gerber Fmt 4.6, Leading zero omitted, Abs format (unit mm)*
G04 Created by KiCad (PCBNEW 6.0.8-f2edbf62ab~116~ubuntu22.04.1) date 2022-10-21 16:06:30*
%MOMM*%
%LPD*%
G01*
G04 APERTURE LIST*
%ADD10C,0.150000*%
%ADD11C,0.250000*%
%ADD12C,0.254000*%
%ADD13C,0.120000*%
%ADD14C,0.127000*%
%ADD15C,0.300000*%
%ADD16C,0.200000*%
G04 APERTURE END LIST*
D10*
X70985000Y-28340000D02*
X75745000Y-28340000D01*
X75745000Y-28340000D02*
X75745000Y-40930000D01*
X75745000Y-40930000D02*
X70985000Y-40930000D01*
X70985000Y-40930000D02*
X70985000Y-28340000D01*
X75935000Y-28305000D02*
X80935000Y-28305000D01*
X80935000Y-28305000D02*
X80935000Y-40955000D01*
X80935000Y-40955000D02*
X75935000Y-40955000D01*
X75935000Y-40955000D02*
X75935000Y-28305000D01*
X86125000Y-28260000D02*
X91015000Y-28260000D01*
X91015000Y-28260000D02*
X91015000Y-40885000D01*
X91015000Y-40885000D02*
X86125000Y-40885000D01*
X86125000Y-40885000D02*
X86125000Y-28260000D01*
X81065000Y-28260000D02*
X85925000Y-28260000D01*
X85925000Y-28260000D02*
X85925000Y-40935000D01*
X85925000Y-40935000D02*
X81065000Y-40935000D01*
X81065000Y-40935000D02*
X81065000Y-28260000D01*
X91135000Y-28275000D02*
X96745000Y-28275000D01*
X96745000Y-28275000D02*
X96745000Y-40865000D01*
X96745000Y-40865000D02*
X91135000Y-40865000D01*
X91135000Y-40865000D02*
X91135000Y-28275000D01*
X64075000Y-39658333D02*
X64027380Y-39753571D01*
X64027380Y-39896428D01*
X64075000Y-40039285D01*
X64170238Y-40134523D01*
X64265476Y-40182142D01*
X64455952Y-40229761D01*
X64598809Y-40229761D01*
X64789285Y-40182142D01*
X64884523Y-40134523D01*
X64979761Y-40039285D01*
X65027380Y-39896428D01*
X65027380Y-39801190D01*
X64979761Y-39658333D01*
X64932142Y-39610714D01*
X64598809Y-39610714D01*
X64598809Y-39801190D01*
X65027380Y-39182142D02*
X64027380Y-39182142D01*
X64027380Y-38801190D01*
X64075000Y-38705952D01*
X64122619Y-38658333D01*
X64217857Y-38610714D01*
X64360714Y-38610714D01*
X64455952Y-38658333D01*
X64503571Y-38705952D01*
X64551190Y-38801190D01*
X64551190Y-39182142D01*
X65027380Y-38182142D02*
X64027380Y-38182142D01*
X64027380Y-37515476D02*
X64027380Y-37325000D01*
X64075000Y-37229761D01*
X64170238Y-37134523D01*
X64360714Y-37086904D01*
X64694047Y-37086904D01*
X64884523Y-37134523D01*
X64979761Y-37229761D01*
X65027380Y-37325000D01*
X65027380Y-37515476D01*
X64979761Y-37610714D01*
X64884523Y-37705952D01*
X64694047Y-37753571D01*
X64360714Y-37753571D01*
X64170238Y-37705952D01*
X64075000Y-37610714D01*
X64027380Y-37515476D01*
X64027380Y-35991666D02*
X64027380Y-35372619D01*
X64408333Y-35705952D01*
X64408333Y-35563095D01*
X64455952Y-35467857D01*
X64503571Y-35420238D01*
X64598809Y-35372619D01*
X64836904Y-35372619D01*
X64932142Y-35420238D01*
X64979761Y-35467857D01*
X65027380Y-35563095D01*
X65027380Y-35848809D01*
X64979761Y-35944047D01*
X64932142Y-35991666D01*
X64360714Y-34515476D02*
X65027380Y-34515476D01*
X63979761Y-34753571D02*
X64694047Y-34991666D01*
X64694047Y-34372619D01*
X59015000Y-27509761D02*
X58967380Y-27604999D01*
X58967380Y-27747856D01*
X59015000Y-27890713D01*
X59110238Y-27985951D01*
X59205476Y-28033570D01*
X59395952Y-28081189D01*
X59538809Y-28081189D01*
X59729285Y-28033570D01*
X59824523Y-27985951D01*
X59919761Y-27890713D01*
X59967380Y-27747856D01*
X59967380Y-27652618D01*
X59919761Y-27509761D01*
X59872142Y-27462142D01*
X59538809Y-27462142D01*
X59538809Y-27652618D01*
X59967380Y-27033570D02*
X58967380Y-27033570D01*
X58967380Y-26652618D01*
X59015000Y-26557380D01*
X59062619Y-26509761D01*
X59157857Y-26462142D01*
X59300714Y-26462142D01*
X59395952Y-26509761D01*
X59443571Y-26557380D01*
X59491190Y-26652618D01*
X59491190Y-27033570D01*
X59967380Y-26033570D02*
X58967380Y-26033570D01*
X58967380Y-25366904D02*
X58967380Y-25176428D01*
X59015000Y-25081189D01*
X59110238Y-24985951D01*
X59300714Y-24938332D01*
X59634047Y-24938332D01*
X59824523Y-24985951D01*
X59919761Y-25081189D01*
X59967380Y-25176428D01*
X59967380Y-25366904D01*
X59919761Y-25462142D01*
X59824523Y-25557380D01*
X59634047Y-25604999D01*
X59300714Y-25604999D01*
X59110238Y-25557380D01*
X59015000Y-25462142D01*
X58967380Y-25366904D01*
X59062619Y-23795475D02*
X59015000Y-23747856D01*
X58967380Y-23652618D01*
X58967380Y-23414523D01*
X59015000Y-23319285D01*
X59062619Y-23271666D01*
X59157857Y-23224047D01*
X59253095Y-23224047D01*
X59395952Y-23271666D01*
X59967380Y-23843094D01*
X59967380Y-23224047D01*
X59967380Y-22747856D02*
X59967380Y-22557380D01*
X59919761Y-22462142D01*
X59872142Y-22414523D01*
X59729285Y-22319285D01*
X59538809Y-22271666D01*
X59157857Y-22271666D01*
X59062619Y-22319285D01*
X59015000Y-22366904D01*
X58967380Y-22462142D01*
X58967380Y-22652618D01*
X59015000Y-22747856D01*
X59062619Y-22795475D01*
X59157857Y-22843094D01*
X59395952Y-22843094D01*
X59491190Y-22795475D01*
X59538809Y-22747856D01*
X59586428Y-22652618D01*
X59586428Y-22462142D01*
X59538809Y-22366904D01*
X59491190Y-22319285D01*
X59395952Y-22271666D01*
X48817380Y-27843094D02*
X48817380Y-27652618D01*
X48865000Y-27557380D01*
X48960238Y-27462142D01*
X49150714Y-27414523D01*
X49484047Y-27414523D01*
X49674523Y-27462142D01*
X49769761Y-27557380D01*
X49817380Y-27652618D01*
X49817380Y-27843094D01*
X49769761Y-27938332D01*
X49674523Y-28033570D01*
X49484047Y-28081189D01*
X49150714Y-28081189D01*
X48960238Y-28033570D01*
X48865000Y-27938332D01*
X48817380Y-27843094D01*
X49817380Y-26985951D02*
X48817380Y-26985951D01*
X49817380Y-26414523D01*
X48817380Y-26414523D01*
X49293571Y-25938332D02*
X49293571Y-25604999D01*
X49817380Y-25462142D02*
X49817380Y-25938332D01*
X48817380Y-25938332D01*
X48817380Y-25462142D01*
X48817380Y-24366904D02*
X49817380Y-24128809D01*
X49103095Y-23938332D01*
X49817380Y-23747856D01*
X48817380Y-23509761D01*
X49817380Y-23128809D02*
X48817380Y-23128809D01*
X49817380Y-22081189D02*
X49341190Y-22414523D01*
X49817380Y-22652618D02*
X48817380Y-22652618D01*
X48817380Y-22271666D01*
X48865000Y-22176428D01*
X48912619Y-22128809D01*
X49007857Y-22081189D01*
X49150714Y-22081189D01*
X49245952Y-22128809D01*
X49293571Y-22176428D01*
X49341190Y-22271666D01*
X49341190Y-22652618D01*
X49293571Y-21652618D02*
X49293571Y-21319285D01*
X49817380Y-21176428D02*
X49817380Y-21652618D01*
X48817380Y-21652618D01*
X48817380Y-21176428D01*
X77647380Y-40706904D02*
X77647380Y-40087857D01*
X78028333Y-40421190D01*
X78028333Y-40278333D01*
X78075952Y-40183095D01*
X78123571Y-40135476D01*
X78218809Y-40087857D01*
X78456904Y-40087857D01*
X78552142Y-40135476D01*
X78599761Y-40183095D01*
X78647380Y-40278333D01*
X78647380Y-40564047D01*
X78599761Y-40659285D01*
X78552142Y-40706904D01*
X78552142Y-39659285D02*
X78599761Y-39611666D01*
X78647380Y-39659285D01*
X78599761Y-39706904D01*
X78552142Y-39659285D01*
X78647380Y-39659285D01*
X77647380Y-39278333D02*
X77647380Y-38659285D01*
X78028333Y-38992619D01*
X78028333Y-38849761D01*
X78075952Y-38754523D01*
X78123571Y-38706904D01*
X78218809Y-38659285D01*
X78456904Y-38659285D01*
X78552142Y-38706904D01*
X78599761Y-38754523D01*
X78647380Y-38849761D01*
X78647380Y-39135476D01*
X78599761Y-39230714D01*
X78552142Y-39278333D01*
X77647380Y-38373571D02*
X78647380Y-38040238D01*
X77647380Y-37706904D01*
X78123571Y-36611666D02*
X78123571Y-36278333D01*
X78647380Y-36135476D02*
X78647380Y-36611666D01*
X77647380Y-36611666D01*
X77647380Y-36135476D01*
X78647380Y-35706904D02*
X77647380Y-35706904D01*
X78647380Y-35135476D01*
X77647380Y-35135476D01*
X78361666Y-34706904D02*
X78361666Y-34230714D01*
X78647380Y-34802142D02*
X77647380Y-34468809D01*
X78647380Y-34135476D01*
X53865000Y-39658333D02*
X53817380Y-39753571D01*
X53817380Y-39896428D01*
X53865000Y-40039285D01*
X53960238Y-40134523D01*
X54055476Y-40182142D01*
X54245952Y-40229761D01*
X54388809Y-40229761D01*
X54579285Y-40182142D01*
X54674523Y-40134523D01*
X54769761Y-40039285D01*
X54817380Y-39896428D01*
X54817380Y-39801190D01*
X54769761Y-39658333D01*
X54722142Y-39610714D01*
X54388809Y-39610714D01*
X54388809Y-39801190D01*
X54817380Y-39182142D02*
X53817380Y-39182142D01*
X53817380Y-38801190D01*
X53865000Y-38705952D01*
X53912619Y-38658333D01*
X54007857Y-38610714D01*
X54150714Y-38610714D01*
X54245952Y-38658333D01*
X54293571Y-38705952D01*
X54341190Y-38801190D01*
X54341190Y-39182142D01*
X54817380Y-38182142D02*
X53817380Y-38182142D01*
X53817380Y-37515476D02*
X53817380Y-37325000D01*
X53865000Y-37229761D01*
X53960238Y-37134523D01*
X54150714Y-37086904D01*
X54484047Y-37086904D01*
X54674523Y-37134523D01*
X54769761Y-37229761D01*
X54817380Y-37325000D01*
X54817380Y-37515476D01*
X54769761Y-37610714D01*
X54674523Y-37705952D01*
X54484047Y-37753571D01*
X54150714Y-37753571D01*
X53960238Y-37705952D01*
X53865000Y-37610714D01*
X53817380Y-37515476D01*
X54817380Y-35372619D02*
X54817380Y-35944047D01*
X54817380Y-35658333D02*
X53817380Y-35658333D01*
X53960238Y-35753571D01*
X54055476Y-35848809D01*
X54103095Y-35944047D01*
X53912619Y-34991666D02*
X53865000Y-34944047D01*
X53817380Y-34848809D01*
X53817380Y-34610714D01*
X53865000Y-34515476D01*
X53912619Y-34467857D01*
X54007857Y-34420238D01*
X54103095Y-34420238D01*
X54245952Y-34467857D01*
X54817380Y-35039285D01*
X54817380Y-34420238D01*
X29011474Y-77968963D02*
X28916236Y-77921343D01*
X28773379Y-77921343D01*
X28630521Y-77968963D01*
X28535283Y-78064201D01*
X28487664Y-78159439D01*
X28440045Y-78349915D01*
X28440045Y-78492772D01*
X28487664Y-78683248D01*
X28535283Y-78778486D01*
X28630521Y-78873724D01*
X28773379Y-78921343D01*
X28868617Y-78921343D01*
X29011474Y-78873724D01*
X29059093Y-78826105D01*
X29059093Y-78492772D01*
X28868617Y-78492772D01*
X29487664Y-78921343D02*
X29487664Y-77921343D01*
X30059093Y-78921343D01*
X30059093Y-77921343D01*
X30535283Y-78921343D02*
X30535283Y-77921343D01*
X30773379Y-77921343D01*
X30916236Y-77968963D01*
X31011474Y-78064201D01*
X31059093Y-78159439D01*
X31106712Y-78349915D01*
X31106712Y-78492772D01*
X31059093Y-78683248D01*
X31011474Y-78778486D01*
X30916236Y-78873724D01*
X30773379Y-78921343D01*
X30535283Y-78921343D01*
X29059093Y-76134699D02*
X28725760Y-75658509D01*
X28487664Y-76134699D02*
X28487664Y-75134699D01*
X28868617Y-75134699D01*
X28963855Y-75182319D01*
X29011474Y-75229938D01*
X29059093Y-75325176D01*
X29059093Y-75468033D01*
X29011474Y-75563271D01*
X28963855Y-75610890D01*
X28868617Y-75658509D01*
X28487664Y-75658509D01*
X29392426Y-75134699D02*
X30059093Y-76134699D01*
X30059093Y-75134699D02*
X29392426Y-76134699D01*
X28900714Y-88082036D02*
X28567381Y-87605846D01*
X28329285Y-88082036D02*
X28329285Y-87082036D01*
X28710238Y-87082036D01*
X28805476Y-87129656D01*
X28853095Y-87177275D01*
X28900714Y-87272513D01*
X28900714Y-87415370D01*
X28853095Y-87510608D01*
X28805476Y-87558227D01*
X28710238Y-87605846D01*
X28329285Y-87605846D01*
X29234047Y-87082036D02*
X29900714Y-88082036D01*
X29900714Y-87082036D02*
X29234047Y-88082036D01*
X54649761Y-61457380D02*
X54078333Y-61457380D01*
X54364047Y-61457380D02*
X54364047Y-60457380D01*
X54268809Y-60600238D01*
X54173571Y-60695476D01*
X54078333Y-60743095D01*
X55268809Y-60457380D02*
X55364047Y-60457380D01*
X55459285Y-60505000D01*
X55506904Y-60552619D01*
X55554523Y-60647857D01*
X55602142Y-60838333D01*
X55602142Y-61076428D01*
X55554523Y-61266904D01*
X55506904Y-61362142D01*
X55459285Y-61409761D01*
X55364047Y-61457380D01*
X55268809Y-61457380D01*
X55173571Y-61409761D01*
X55125952Y-61362142D01*
X55078333Y-61266904D01*
X55030714Y-61076428D01*
X55030714Y-60838333D01*
X55078333Y-60647857D01*
X55125952Y-60552619D01*
X55173571Y-60505000D01*
X55268809Y-60457380D01*
X56030714Y-61457380D02*
X56030714Y-60457380D01*
X56125952Y-61076428D02*
X56411666Y-61457380D01*
X56411666Y-60790714D02*
X56030714Y-61171666D01*
X82187380Y-52787380D02*
X81615952Y-52787380D01*
X81901666Y-52787380D02*
X81901666Y-51787380D01*
X81806428Y-51930238D01*
X81711190Y-52025476D01*
X81615952Y-52073095D01*
X82806428Y-51787380D02*
X82901666Y-51787380D01*
X82996904Y-51835000D01*
X83044523Y-51882619D01*
X83092142Y-51977857D01*
X83139761Y-52168333D01*
X83139761Y-52406428D01*
X83092142Y-52596904D01*
X83044523Y-52692142D01*
X82996904Y-52739761D01*
X82901666Y-52787380D01*
X82806428Y-52787380D01*
X82711190Y-52739761D01*
X82663571Y-52692142D01*
X82615952Y-52596904D01*
X82568333Y-52406428D01*
X82568333Y-52168333D01*
X82615952Y-51977857D01*
X82663571Y-51882619D01*
X82711190Y-51835000D01*
X82806428Y-51787380D01*
X83758809Y-51787380D02*
X83854047Y-51787380D01*
X83949285Y-51835000D01*
X83996904Y-51882619D01*
X84044523Y-51977857D01*
X84092142Y-52168333D01*
X84092142Y-52406428D01*
X84044523Y-52596904D01*
X83996904Y-52692142D01*
X83949285Y-52739761D01*
X83854047Y-52787380D01*
X83758809Y-52787380D01*
X83663571Y-52739761D01*
X83615952Y-52692142D01*
X83568333Y-52596904D01*
X83520714Y-52406428D01*
X83520714Y-52168333D01*
X83568333Y-51977857D01*
X83615952Y-51882619D01*
X83663571Y-51835000D01*
X83758809Y-51787380D01*
X84520714Y-52120714D02*
X84520714Y-52787380D01*
X84520714Y-52215952D02*
X84568333Y-52168333D01*
X84663571Y-52120714D01*
X84806428Y-52120714D01*
X84901666Y-52168333D01*
X84949285Y-52263571D01*
X84949285Y-52787380D01*
X85758809Y-52263571D02*
X85425476Y-52263571D01*
X85425476Y-52787380D02*
X85425476Y-51787380D01*
X85901666Y-51787380D01*
X92848333Y-100662380D02*
X93181666Y-101662380D01*
X93515000Y-100662380D01*
X93800714Y-101376666D02*
X94276904Y-101376666D01*
X93705476Y-101662380D02*
X94038809Y-100662380D01*
X94372142Y-101662380D01*
X94610238Y-100662380D02*
X95276904Y-100662380D01*
X94848333Y-101662380D01*
X96229285Y-101662380D02*
X95895952Y-101186190D01*
X95657857Y-101662380D02*
X95657857Y-100662380D01*
X96038809Y-100662380D01*
X96134047Y-100710000D01*
X96181666Y-100757619D01*
X96229285Y-100852857D01*
X96229285Y-100995714D01*
X96181666Y-101090952D01*
X96134047Y-101138571D01*
X96038809Y-101186190D01*
X95657857Y-101186190D01*
X97229285Y-101567142D02*
X97181666Y-101614761D01*
X97038809Y-101662380D01*
X96943571Y-101662380D01*
X96800714Y-101614761D01*
X96705476Y-101519523D01*
X96657857Y-101424285D01*
X96610238Y-101233809D01*
X96610238Y-101090952D01*
X96657857Y-100900476D01*
X96705476Y-100805238D01*
X96800714Y-100710000D01*
X96943571Y-100662380D01*
X97038809Y-100662380D01*
X97181666Y-100710000D01*
X97229285Y-100757619D01*
X97515000Y-100662380D02*
X97848333Y-101662380D01*
X98181666Y-100662380D01*
X88848333Y-102748571D02*
X89181666Y-102748571D01*
X89324523Y-103272380D02*
X88848333Y-103272380D01*
X88848333Y-102272380D01*
X89324523Y-102272380D01*
X89705476Y-103224761D02*
X89848333Y-103272380D01*
X90086428Y-103272380D01*
X90181666Y-103224761D01*
X90229285Y-103177142D01*
X90276904Y-103081904D01*
X90276904Y-102986666D01*
X90229285Y-102891428D01*
X90181666Y-102843809D01*
X90086428Y-102796190D01*
X89895952Y-102748571D01*
X89800714Y-102700952D01*
X89753095Y-102653333D01*
X89705476Y-102558095D01*
X89705476Y-102462857D01*
X89753095Y-102367619D01*
X89800714Y-102320000D01*
X89895952Y-102272380D01*
X90134047Y-102272380D01*
X90276904Y-102320000D01*
X90705476Y-103272380D02*
X90705476Y-102272380D01*
X91086428Y-102272380D01*
X91181666Y-102320000D01*
X91229285Y-102367619D01*
X91276904Y-102462857D01*
X91276904Y-102605714D01*
X91229285Y-102700952D01*
X91181666Y-102748571D01*
X91086428Y-102796190D01*
X90705476Y-102796190D01*
X91610238Y-102272380D02*
X92229285Y-102272380D01*
X91895952Y-102653333D01*
X92038809Y-102653333D01*
X92134047Y-102700952D01*
X92181666Y-102748571D01*
X92229285Y-102843809D01*
X92229285Y-103081904D01*
X92181666Y-103177142D01*
X92134047Y-103224761D01*
X92038809Y-103272380D01*
X91753095Y-103272380D01*
X91657857Y-103224761D01*
X91610238Y-103177142D01*
X92610238Y-102367619D02*
X92657857Y-102320000D01*
X92753095Y-102272380D01*
X92991190Y-102272380D01*
X93086428Y-102320000D01*
X93134047Y-102367619D01*
X93181666Y-102462857D01*
X93181666Y-102558095D01*
X93134047Y-102700952D01*
X92562619Y-103272380D01*
X93181666Y-103272380D01*
X93610238Y-102891428D02*
X94372142Y-102891428D01*
X94800714Y-102986666D02*
X95276904Y-102986666D01*
X94705476Y-103272380D02*
X95038809Y-102272380D01*
X95372142Y-103272380D01*
X95705476Y-103272380D02*
X95705476Y-102272380D01*
X96086428Y-102272380D01*
X96181666Y-102320000D01*
X96229285Y-102367619D01*
X96276904Y-102462857D01*
X96276904Y-102605714D01*
X96229285Y-102700952D01*
X96181666Y-102748571D01*
X96086428Y-102796190D01*
X95705476Y-102796190D01*
X97276904Y-103272380D02*
X96943571Y-102796190D01*
X96705476Y-103272380D02*
X96705476Y-102272380D01*
X97086428Y-102272380D01*
X97181666Y-102320000D01*
X97229285Y-102367619D01*
X97276904Y-102462857D01*
X97276904Y-102605714D01*
X97229285Y-102700952D01*
X97181666Y-102748571D01*
X97086428Y-102796190D01*
X96705476Y-102796190D01*
X97657857Y-103224761D02*
X97800714Y-103272380D01*
X98038809Y-103272380D01*
X98134047Y-103224761D01*
X98181666Y-103177142D01*
X98229285Y-103081904D01*
X98229285Y-102986666D01*
X98181666Y-102891428D01*
X98134047Y-102843809D01*
X98038809Y-102796190D01*
X97848333Y-102748571D01*
X97753095Y-102700952D01*
X97705476Y-102653333D01*
X97657857Y-102558095D01*
X97657857Y-102462857D01*
X97705476Y-102367619D01*
X97753095Y-102320000D01*
X97848333Y-102272380D01*
X98086428Y-102272380D01*
X98229285Y-102320000D01*
X99276904Y-102272380D02*
X99610238Y-103272380D01*
X99943571Y-102272380D01*
X100800714Y-103272380D02*
X100229285Y-103272380D01*
X100514999Y-103272380D02*
X100514999Y-102272380D01*
X100419761Y-102415238D01*
X100324523Y-102510476D01*
X100229285Y-102558095D01*
X101229285Y-103177142D02*
X101276904Y-103224761D01*
X101229285Y-103272380D01*
X101181666Y-103224761D01*
X101229285Y-103177142D01*
X101229285Y-103272380D01*
X101895952Y-102272380D02*
X101991190Y-102272380D01*
X102086428Y-102320000D01*
X102134047Y-102367619D01*
X102181666Y-102462857D01*
X102229285Y-102653333D01*
X102229285Y-102891428D01*
X102181666Y-103081904D01*
X102134047Y-103177142D01*
X102086428Y-103224761D01*
X101991190Y-103272380D01*
X101895952Y-103272380D01*
X101800714Y-103224761D01*
X101753095Y-103177142D01*
X101705476Y-103081904D01*
X101657857Y-102891428D01*
X101657857Y-102653333D01*
X101705476Y-102462857D01*
X101753095Y-102367619D01*
X101800714Y-102320000D01*
X101895952Y-102272380D01*
X103243095Y-43205000D02*
X103147857Y-43157380D01*
X103005000Y-43157380D01*
X102862142Y-43205000D01*
X102766904Y-43300238D01*
X102719285Y-43395476D01*
X102671666Y-43585952D01*
X102671666Y-43728809D01*
X102719285Y-43919285D01*
X102766904Y-44014523D01*
X102862142Y-44109761D01*
X103005000Y-44157380D01*
X103100238Y-44157380D01*
X103243095Y-44109761D01*
X103290714Y-44062142D01*
X103290714Y-43728809D01*
X103100238Y-43728809D01*
X103719285Y-44157380D02*
X103719285Y-43157380D01*
X104290714Y-44157380D01*
X104290714Y-43157380D01*
X104766904Y-44157380D02*
X104766904Y-43157380D01*
X105005000Y-43157380D01*
X105147857Y-43205000D01*
X105243095Y-43300238D01*
X105290714Y-43395476D01*
X105338333Y-43585952D01*
X105338333Y-43728809D01*
X105290714Y-43919285D01*
X105243095Y-44014523D01*
X105147857Y-44109761D01*
X105005000Y-44157380D01*
X104766904Y-44157380D01*
X73410714Y-39398809D02*
X74077380Y-39398809D01*
X73029761Y-39636904D02*
X73744047Y-39875000D01*
X73744047Y-39255952D01*
X73077380Y-39017857D02*
X74077380Y-38684523D01*
X73077380Y-38351190D01*
X73553571Y-37255952D02*
X73553571Y-36922619D01*
X74077380Y-36779761D02*
X74077380Y-37255952D01*
X73077380Y-37255952D01*
X73077380Y-36779761D01*
X74077380Y-36351190D02*
X73077380Y-36351190D01*
X74077380Y-35779761D01*
X73077380Y-35779761D01*
X73791666Y-35351190D02*
X73791666Y-34875000D01*
X74077380Y-35446428D02*
X73077380Y-35113095D01*
X74077380Y-34779761D01*
X62121666Y-28081190D02*
X62121666Y-27605000D01*
X62407380Y-28176428D02*
X61407380Y-27843095D01*
X62407380Y-27509761D01*
X61883571Y-26843095D02*
X61883571Y-27176428D01*
X62407380Y-27176428D02*
X61407380Y-27176428D01*
X61407380Y-26700238D01*
X61407380Y-25366904D02*
X61407380Y-25176428D01*
X61455000Y-25081190D01*
X61550238Y-24985952D01*
X61740714Y-24938333D01*
X62074047Y-24938333D01*
X62264523Y-24985952D01*
X62359761Y-25081190D01*
X62407380Y-25176428D01*
X62407380Y-25366904D01*
X62359761Y-25462142D01*
X62264523Y-25557380D01*
X62074047Y-25605000D01*
X61740714Y-25605000D01*
X61550238Y-25557380D01*
X61455000Y-25462142D01*
X61407380Y-25366904D01*
X61407380Y-24509761D02*
X62216904Y-24509761D01*
X62312142Y-24462142D01*
X62359761Y-24414523D01*
X62407380Y-24319285D01*
X62407380Y-24128809D01*
X62359761Y-24033571D01*
X62312142Y-23985952D01*
X62216904Y-23938333D01*
X61407380Y-23938333D01*
X61407380Y-23605000D02*
X61407380Y-23033571D01*
X62407380Y-23319285D02*
X61407380Y-23319285D01*
X28344808Y-72572267D02*
X28916236Y-72572267D01*
X28630522Y-73572267D02*
X28630522Y-72572267D01*
X29154332Y-72572267D02*
X29820998Y-73572267D01*
X29820998Y-72572267D02*
X29154332Y-73572267D01*
X93710714Y-37413095D02*
X94377380Y-37413095D01*
X93329761Y-37651190D02*
X94044047Y-37889285D01*
X94044047Y-37270238D01*
X93377380Y-37032142D02*
X94377380Y-36698809D01*
X93377380Y-36365476D01*
X28063094Y-42917380D02*
X28063094Y-41917380D01*
X28491666Y-42012619D02*
X28539285Y-41965000D01*
X28634523Y-41917380D01*
X28872618Y-41917380D01*
X28967856Y-41965000D01*
X29015475Y-42012619D01*
X29063094Y-42107857D01*
X29063094Y-42203095D01*
X29015475Y-42345952D01*
X28444047Y-42917380D01*
X29063094Y-42917380D01*
X30063094Y-42822142D02*
X30015475Y-42869761D01*
X29872618Y-42917380D01*
X29777380Y-42917380D01*
X29634523Y-42869761D01*
X29539285Y-42774523D01*
X29491666Y-42679285D01*
X29444047Y-42488809D01*
X29444047Y-42345952D01*
X29491666Y-42155476D01*
X29539285Y-42060238D01*
X29634523Y-41965000D01*
X29777380Y-41917380D01*
X29872618Y-41917380D01*
X30015475Y-41965000D01*
X30063094Y-42012619D01*
X30253570Y-43012619D02*
X31015475Y-43012619D01*
X31205951Y-42869761D02*
X31348809Y-42917380D01*
X31586904Y-42917380D01*
X31682142Y-42869761D01*
X31729761Y-42822142D01*
X31777380Y-42726904D01*
X31777380Y-42631666D01*
X31729761Y-42536428D01*
X31682142Y-42488809D01*
X31586904Y-42441190D01*
X31396428Y-42393571D01*
X31301190Y-42345952D01*
X31253570Y-42298333D01*
X31205951Y-42203095D01*
X31205951Y-42107857D01*
X31253570Y-42012619D01*
X31301190Y-41965000D01*
X31396428Y-41917380D01*
X31634523Y-41917380D01*
X31777380Y-41965000D01*
X32682142Y-42917380D02*
X32205951Y-42917380D01*
X32205951Y-41917380D01*
D11*
X59419285Y-77477380D02*
X59419285Y-78286904D01*
X59466904Y-78382142D01*
X59514523Y-78429761D01*
X59609761Y-78477380D01*
X59800238Y-78477380D01*
X59895476Y-78429761D01*
X59943095Y-78382142D01*
X59990714Y-78286904D01*
X59990714Y-77477380D01*
X60466904Y-78477380D02*
X60466904Y-77477380D01*
X60705000Y-77477380D01*
X60847857Y-77525000D01*
X60943095Y-77620238D01*
X60990714Y-77715476D01*
X61038333Y-77905952D01*
X61038333Y-78048809D01*
X60990714Y-78239285D01*
X60943095Y-78334523D01*
X60847857Y-78429761D01*
X60705000Y-78477380D01*
X60466904Y-78477380D01*
D10*
X72118333Y-101667380D02*
X71546905Y-101667380D01*
X71832619Y-101667380D02*
X71832619Y-100667380D01*
X71737381Y-100810238D01*
X71642143Y-100905476D01*
X71546905Y-100953095D01*
X72737381Y-100667380D02*
X72832619Y-100667380D01*
X72927857Y-100715000D01*
X72975476Y-100762619D01*
X73023095Y-100857857D01*
X73070714Y-101048333D01*
X73070714Y-101286428D01*
X73023095Y-101476904D01*
X72975476Y-101572142D01*
X72927857Y-101619761D01*
X72832619Y-101667380D01*
X72737381Y-101667380D01*
X72642143Y-101619761D01*
X72594524Y-101572142D01*
X72546905Y-101476904D01*
X72499286Y-101286428D01*
X72499286Y-101048333D01*
X72546905Y-100857857D01*
X72594524Y-100762619D01*
X72642143Y-100715000D01*
X72737381Y-100667380D01*
X73689762Y-100667380D02*
X73785000Y-100667380D01*
X73880238Y-100715000D01*
X73927857Y-100762619D01*
X73975476Y-100857857D01*
X74023095Y-101048333D01*
X74023095Y-101286428D01*
X73975476Y-101476904D01*
X73927857Y-101572142D01*
X73880238Y-101619761D01*
X73785000Y-101667380D01*
X73689762Y-101667380D01*
X73594524Y-101619761D01*
X73546905Y-101572142D01*
X73499286Y-101476904D01*
X73451667Y-101286428D01*
X73451667Y-101048333D01*
X73499286Y-100857857D01*
X73546905Y-100762619D01*
X73594524Y-100715000D01*
X73689762Y-100667380D01*
X74451667Y-101000714D02*
X74451667Y-101667380D01*
X74451667Y-101095952D02*
X74499286Y-101048333D01*
X74594524Y-101000714D01*
X74737381Y-101000714D01*
X74832619Y-101048333D01*
X74880238Y-101143571D01*
X74880238Y-101667380D01*
X75689762Y-101143571D02*
X75356429Y-101143571D01*
X75356429Y-101667380D02*
X75356429Y-100667380D01*
X75832619Y-100667380D01*
X51405000Y-39658333D02*
X51357380Y-39753571D01*
X51357380Y-39896428D01*
X51405000Y-40039285D01*
X51500238Y-40134523D01*
X51595476Y-40182142D01*
X51785952Y-40229761D01*
X51928809Y-40229761D01*
X52119285Y-40182142D01*
X52214523Y-40134523D01*
X52309761Y-40039285D01*
X52357380Y-39896428D01*
X52357380Y-39801190D01*
X52309761Y-39658333D01*
X52262142Y-39610714D01*
X51928809Y-39610714D01*
X51928809Y-39801190D01*
X52357380Y-39182142D02*
X51357380Y-39182142D01*
X51357380Y-38801190D01*
X51405000Y-38705952D01*
X51452619Y-38658333D01*
X51547857Y-38610714D01*
X51690714Y-38610714D01*
X51785952Y-38658333D01*
X51833571Y-38705952D01*
X51881190Y-38801190D01*
X51881190Y-39182142D01*
X52357380Y-38182142D02*
X51357380Y-38182142D01*
X51357380Y-37515476D02*
X51357380Y-37325000D01*
X51405000Y-37229761D01*
X51500238Y-37134523D01*
X51690714Y-37086904D01*
X52024047Y-37086904D01*
X52214523Y-37134523D01*
X52309761Y-37229761D01*
X52357380Y-37325000D01*
X52357380Y-37515476D01*
X52309761Y-37610714D01*
X52214523Y-37705952D01*
X52024047Y-37753571D01*
X51690714Y-37753571D01*
X51500238Y-37705952D01*
X51405000Y-37610714D01*
X51357380Y-37515476D01*
X52357380Y-35372619D02*
X52357380Y-35944047D01*
X52357380Y-35658333D02*
X51357380Y-35658333D01*
X51500238Y-35753571D01*
X51595476Y-35848809D01*
X51643095Y-35944047D01*
X51357380Y-34467857D02*
X51357380Y-34944047D01*
X51833571Y-34991666D01*
X51785952Y-34944047D01*
X51738333Y-34848809D01*
X51738333Y-34610714D01*
X51785952Y-34515476D01*
X51833571Y-34467857D01*
X51928809Y-34420238D01*
X52166904Y-34420238D01*
X52262142Y-34467857D01*
X52309761Y-34515476D01*
X52357380Y-34610714D01*
X52357380Y-34848809D01*
X52309761Y-34944047D01*
X52262142Y-34991666D01*
X30101190Y-52930714D02*
X30101190Y-53597380D01*
X29863095Y-52549761D02*
X29625000Y-53264047D01*
X30244047Y-53264047D01*
X30625000Y-53502142D02*
X30672619Y-53549761D01*
X30625000Y-53597380D01*
X30577380Y-53549761D01*
X30625000Y-53502142D01*
X30625000Y-53597380D01*
X31005952Y-52597380D02*
X31672619Y-52597380D01*
X31244047Y-53597380D01*
X32053571Y-53597380D02*
X32053571Y-52597380D01*
X32625000Y-53597380D02*
X32196428Y-53025952D01*
X32625000Y-52597380D02*
X32053571Y-53168809D01*
X28853095Y-89785000D02*
X28757857Y-89737380D01*
X28615000Y-89737380D01*
X28472142Y-89785000D01*
X28376904Y-89880238D01*
X28329285Y-89975476D01*
X28281666Y-90165952D01*
X28281666Y-90308809D01*
X28329285Y-90499285D01*
X28376904Y-90594523D01*
X28472142Y-90689761D01*
X28615000Y-90737380D01*
X28710238Y-90737380D01*
X28853095Y-90689761D01*
X28900714Y-90642142D01*
X28900714Y-90308809D01*
X28710238Y-90308809D01*
X29329285Y-90737380D02*
X29329285Y-89737380D01*
X29900714Y-90737380D01*
X29900714Y-89737380D01*
X30376904Y-90737380D02*
X30376904Y-89737380D01*
X30615000Y-89737380D01*
X30757857Y-89785000D01*
X30853095Y-89880238D01*
X30900714Y-89975476D01*
X30948333Y-90165952D01*
X30948333Y-90308809D01*
X30900714Y-90499285D01*
X30853095Y-90594523D01*
X30757857Y-90689761D01*
X30615000Y-90737380D01*
X30376904Y-90737380D01*
X101290715Y-53536428D02*
X102052619Y-53536428D01*
X101671667Y-53917380D02*
X101671667Y-53155476D01*
X102433572Y-52917380D02*
X103052619Y-52917380D01*
X102719286Y-53298333D01*
X102862143Y-53298333D01*
X102957381Y-53345952D01*
X103005000Y-53393571D01*
X103052619Y-53488809D01*
X103052619Y-53726904D01*
X103005000Y-53822142D01*
X102957381Y-53869761D01*
X102862143Y-53917380D01*
X102576429Y-53917380D01*
X102481191Y-53869761D01*
X102433572Y-53822142D01*
X103481191Y-53822142D02*
X103528810Y-53869761D01*
X103481191Y-53917380D01*
X103433572Y-53869761D01*
X103481191Y-53822142D01*
X103481191Y-53917380D01*
X103862143Y-52917380D02*
X104481191Y-52917380D01*
X104147857Y-53298333D01*
X104290715Y-53298333D01*
X104385953Y-53345952D01*
X104433572Y-53393571D01*
X104481191Y-53488809D01*
X104481191Y-53726904D01*
X104433572Y-53822142D01*
X104385953Y-53869761D01*
X104290715Y-53917380D01*
X104005000Y-53917380D01*
X103909762Y-53869761D01*
X103862143Y-53822142D01*
X104766905Y-52917380D02*
X105100238Y-53917380D01*
X105433572Y-52917380D01*
X36206428Y-36390714D02*
X36206428Y-37057380D01*
X35968333Y-36009761D02*
X35730238Y-36724047D01*
X36349285Y-36724047D01*
X36730238Y-36962142D02*
X36777857Y-37009761D01*
X36730238Y-37057380D01*
X36682619Y-37009761D01*
X36730238Y-36962142D01*
X36730238Y-37057380D01*
X37111190Y-36057380D02*
X37777857Y-36057380D01*
X37349285Y-37057380D01*
X38158809Y-37057380D02*
X38158809Y-36057380D01*
X38254047Y-36676428D02*
X38539761Y-37057380D01*
X38539761Y-36390714D02*
X38158809Y-36771666D01*
D11*
X60019285Y-87417380D02*
X59685952Y-86941190D01*
X59447857Y-87417380D02*
X59447857Y-86417380D01*
X59828809Y-86417380D01*
X59924047Y-86465000D01*
X59971666Y-86512619D01*
X60019285Y-86607857D01*
X60019285Y-86750714D01*
X59971666Y-86845952D01*
X59924047Y-86893571D01*
X59828809Y-86941190D01*
X59447857Y-86941190D01*
X60400238Y-87131666D02*
X60876428Y-87131666D01*
X60305000Y-87417380D02*
X60638333Y-86417380D01*
X60971666Y-87417380D01*
X61305000Y-87417380D02*
X61305000Y-86417380D01*
X61543095Y-86417380D01*
X61685952Y-86465000D01*
X61781190Y-86560238D01*
X61828809Y-86655476D01*
X61876428Y-86845952D01*
X61876428Y-86988809D01*
X61828809Y-87179285D01*
X61781190Y-87274523D01*
X61685952Y-87369761D01*
X61543095Y-87417380D01*
X61305000Y-87417380D01*
X62305000Y-87417380D02*
X62305000Y-86417380D01*
X62971666Y-86417380D02*
X63162142Y-86417380D01*
X63257380Y-86465000D01*
X63352619Y-86560238D01*
X63400238Y-86750714D01*
X63400238Y-87084047D01*
X63352619Y-87274523D01*
X63257380Y-87369761D01*
X63162142Y-87417380D01*
X62971666Y-87417380D01*
X62876428Y-87369761D01*
X62781190Y-87274523D01*
X62733571Y-87084047D01*
X62733571Y-86750714D01*
X62781190Y-86560238D01*
X62876428Y-86465000D01*
X62971666Y-86417380D01*
X64781190Y-86417380D02*
X64971666Y-86417380D01*
X65066904Y-86465000D01*
X65162142Y-86560238D01*
X65209761Y-86750714D01*
X65209761Y-87084047D01*
X65162142Y-87274523D01*
X65066904Y-87369761D01*
X64971666Y-87417380D01*
X64781190Y-87417380D01*
X64685952Y-87369761D01*
X64590714Y-87274523D01*
X64543095Y-87084047D01*
X64543095Y-86750714D01*
X64590714Y-86560238D01*
X64685952Y-86465000D01*
X64781190Y-86417380D01*
X65638333Y-87417380D02*
X65638333Y-86417380D01*
X66209761Y-87417380D02*
X65781190Y-86845952D01*
X66209761Y-86417380D02*
X65638333Y-86988809D01*
D10*
X65659761Y-61427380D02*
X65088333Y-61427380D01*
X65374047Y-61427380D02*
X65374047Y-60427380D01*
X65278809Y-60570238D01*
X65183571Y-60665476D01*
X65088333Y-60713095D01*
X66278809Y-60427380D02*
X66374047Y-60427380D01*
X66469285Y-60475000D01*
X66516904Y-60522619D01*
X66564523Y-60617857D01*
X66612142Y-60808333D01*
X66612142Y-61046428D01*
X66564523Y-61236904D01*
X66516904Y-61332142D01*
X66469285Y-61379761D01*
X66374047Y-61427380D01*
X66278809Y-61427380D01*
X66183571Y-61379761D01*
X66135952Y-61332142D01*
X66088333Y-61236904D01*
X66040714Y-61046428D01*
X66040714Y-60808333D01*
X66088333Y-60617857D01*
X66135952Y-60522619D01*
X66183571Y-60475000D01*
X66278809Y-60427380D01*
X67040714Y-61427380D02*
X67040714Y-60427380D01*
X67135952Y-61046428D02*
X67421666Y-61427380D01*
X67421666Y-60760714D02*
X67040714Y-61141666D01*
X67211666Y-40753571D02*
X67211666Y-40277381D01*
X67497380Y-40848809D02*
X66497380Y-40515476D01*
X67497380Y-40182143D01*
X66497380Y-39848809D02*
X67306904Y-39848809D01*
X67402142Y-39801190D01*
X67449761Y-39753571D01*
X67497380Y-39658333D01*
X67497380Y-39467857D01*
X67449761Y-39372619D01*
X67402142Y-39325000D01*
X67306904Y-39277381D01*
X66497380Y-39277381D01*
X67497380Y-38801190D02*
X66497380Y-38801190D01*
X66497380Y-38563095D01*
X66545000Y-38420238D01*
X66640238Y-38325000D01*
X66735476Y-38277381D01*
X66925952Y-38229762D01*
X67068809Y-38229762D01*
X67259285Y-38277381D01*
X67354523Y-38325000D01*
X67449761Y-38420238D01*
X67497380Y-38563095D01*
X67497380Y-38801190D01*
X67497380Y-37801190D02*
X66497380Y-37801190D01*
X66497380Y-37134524D02*
X66497380Y-36944047D01*
X66545000Y-36848809D01*
X66640238Y-36753571D01*
X66830714Y-36705952D01*
X67164047Y-36705952D01*
X67354523Y-36753571D01*
X67449761Y-36848809D01*
X67497380Y-36944047D01*
X67497380Y-37134524D01*
X67449761Y-37229762D01*
X67354523Y-37325000D01*
X67164047Y-37372619D01*
X66830714Y-37372619D01*
X66640238Y-37325000D01*
X66545000Y-37229762D01*
X66497380Y-37134524D01*
X67497380Y-35515476D02*
X66497380Y-35515476D01*
X67497380Y-35039285D02*
X66497380Y-35039285D01*
X67497380Y-34467857D01*
X66497380Y-34467857D01*
X54679761Y-50957380D02*
X54108333Y-50957380D01*
X54394047Y-50957380D02*
X54394047Y-49957380D01*
X54298809Y-50100238D01*
X54203571Y-50195476D01*
X54108333Y-50243095D01*
X55298809Y-49957380D02*
X55394047Y-49957380D01*
X55489285Y-50005000D01*
X55536904Y-50052619D01*
X55584523Y-50147857D01*
X55632142Y-50338333D01*
X55632142Y-50576428D01*
X55584523Y-50766904D01*
X55536904Y-50862142D01*
X55489285Y-50909761D01*
X55394047Y-50957380D01*
X55298809Y-50957380D01*
X55203571Y-50909761D01*
X55155952Y-50862142D01*
X55108333Y-50766904D01*
X55060714Y-50576428D01*
X55060714Y-50338333D01*
X55108333Y-50147857D01*
X55155952Y-50052619D01*
X55203571Y-50005000D01*
X55298809Y-49957380D01*
X56060714Y-50957380D02*
X56060714Y-49957380D01*
X56155952Y-50576428D02*
X56441666Y-50957380D01*
X56441666Y-50290714D02*
X56060714Y-50671666D01*
X72284523Y-78527380D02*
X71713095Y-78527380D01*
X71998809Y-78527380D02*
X71998809Y-77527380D01*
X71903571Y-77670238D01*
X71808333Y-77765476D01*
X71713095Y-77813095D01*
X72903571Y-77527380D02*
X72998809Y-77527380D01*
X73094047Y-77575000D01*
X73141666Y-77622619D01*
X73189285Y-77717857D01*
X73236904Y-77908333D01*
X73236904Y-78146428D01*
X73189285Y-78336904D01*
X73141666Y-78432142D01*
X73094047Y-78479761D01*
X72998809Y-78527380D01*
X72903571Y-78527380D01*
X72808333Y-78479761D01*
X72760714Y-78432142D01*
X72713095Y-78336904D01*
X72665476Y-78146428D01*
X72665476Y-77908333D01*
X72713095Y-77717857D01*
X72760714Y-77622619D01*
X72808333Y-77575000D01*
X72903571Y-77527380D01*
X73665476Y-78527380D02*
X73665476Y-77527380D01*
X74236904Y-78527380D02*
X73808333Y-77955952D01*
X74236904Y-77527380D02*
X73665476Y-78098809D01*
X82647380Y-38791190D02*
X82647380Y-38172142D01*
X83028333Y-38505476D01*
X83028333Y-38362619D01*
X83075952Y-38267380D01*
X83123571Y-38219761D01*
X83218809Y-38172142D01*
X83456904Y-38172142D01*
X83552142Y-38219761D01*
X83599761Y-38267380D01*
X83647380Y-38362619D01*
X83647380Y-38648333D01*
X83599761Y-38743571D01*
X83552142Y-38791190D01*
X83552142Y-37743571D02*
X83599761Y-37695952D01*
X83647380Y-37743571D01*
X83599761Y-37791190D01*
X83552142Y-37743571D01*
X83647380Y-37743571D01*
X82647380Y-37362619D02*
X82647380Y-36743571D01*
X83028333Y-37076904D01*
X83028333Y-36934047D01*
X83075952Y-36838809D01*
X83123571Y-36791190D01*
X83218809Y-36743571D01*
X83456904Y-36743571D01*
X83552142Y-36791190D01*
X83599761Y-36838809D01*
X83647380Y-36934047D01*
X83647380Y-37219761D01*
X83599761Y-37315000D01*
X83552142Y-37362619D01*
X82647380Y-36457857D02*
X83647380Y-36124523D01*
X82647380Y-35791190D01*
X72284523Y-69287380D02*
X71713095Y-69287380D01*
X71998809Y-69287380D02*
X71998809Y-68287380D01*
X71903571Y-68430238D01*
X71808333Y-68525476D01*
X71713095Y-68573095D01*
X72903571Y-68287380D02*
X72998809Y-68287380D01*
X73094047Y-68335000D01*
X73141666Y-68382619D01*
X73189285Y-68477857D01*
X73236904Y-68668333D01*
X73236904Y-68906428D01*
X73189285Y-69096904D01*
X73141666Y-69192142D01*
X73094047Y-69239761D01*
X72998809Y-69287380D01*
X72903571Y-69287380D01*
X72808333Y-69239761D01*
X72760714Y-69192142D01*
X72713095Y-69096904D01*
X72665476Y-68906428D01*
X72665476Y-68668333D01*
X72713095Y-68477857D01*
X72760714Y-68382619D01*
X72808333Y-68335000D01*
X72903571Y-68287380D01*
X73665476Y-69287380D02*
X73665476Y-68287380D01*
X74236904Y-69287380D02*
X73808333Y-68715952D01*
X74236904Y-68287380D02*
X73665476Y-68858809D01*
X36236428Y-32540714D02*
X36236428Y-33207380D01*
X35998333Y-32159761D02*
X35760238Y-32874047D01*
X36379285Y-32874047D01*
X36760238Y-33112142D02*
X36807857Y-33159761D01*
X36760238Y-33207380D01*
X36712619Y-33159761D01*
X36760238Y-33112142D01*
X36760238Y-33207380D01*
X37141190Y-32207380D02*
X37807857Y-32207380D01*
X37379285Y-33207380D01*
X38188809Y-33207380D02*
X38188809Y-32207380D01*
X38284047Y-32826428D02*
X38569761Y-33207380D01*
X38569761Y-32540714D02*
X38188809Y-32921666D01*
X28586904Y-47295000D02*
X28491666Y-47247380D01*
X28348809Y-47247380D01*
X28205951Y-47295000D01*
X28110713Y-47390238D01*
X28063094Y-47485476D01*
X28015475Y-47675952D01*
X28015475Y-47818809D01*
X28063094Y-48009285D01*
X28110713Y-48104523D01*
X28205951Y-48199761D01*
X28348809Y-48247380D01*
X28444047Y-48247380D01*
X28586904Y-48199761D01*
X28634523Y-48152142D01*
X28634523Y-47818809D01*
X28444047Y-47818809D01*
X29063094Y-48247380D02*
X29063094Y-47247380D01*
X29634523Y-48247380D01*
X29634523Y-47247380D01*
X30110713Y-48247380D02*
X30110713Y-47247380D01*
X30348809Y-47247380D01*
X30491666Y-47295000D01*
X30586904Y-47390238D01*
X30634523Y-47485476D01*
X30682142Y-47675952D01*
X30682142Y-47818809D01*
X30634523Y-48009285D01*
X30586904Y-48104523D01*
X30491666Y-48199761D01*
X30348809Y-48247380D01*
X30110713Y-48247380D01*
X73789285Y-58827380D02*
X73313095Y-58827380D01*
X73313095Y-57827380D01*
X74313095Y-57827380D02*
X74503571Y-57827380D01*
X74598809Y-57875000D01*
X74694047Y-57970238D01*
X74741666Y-58160714D01*
X74741666Y-58494047D01*
X74694047Y-58684523D01*
X74598809Y-58779761D01*
X74503571Y-58827380D01*
X74313095Y-58827380D01*
X74217857Y-58779761D01*
X74122619Y-58684523D01*
X74075000Y-58494047D01*
X74075000Y-58160714D01*
X74122619Y-57970238D01*
X74217857Y-57875000D01*
X74313095Y-57827380D01*
X75075000Y-57827380D02*
X75313095Y-58827380D01*
X75503571Y-58113095D01*
X75694047Y-58827380D01*
X75932142Y-57827380D01*
X27967856Y-39457380D02*
X28586904Y-39457380D01*
X28253570Y-39838333D01*
X28396427Y-39838333D01*
X28491666Y-39885952D01*
X28539285Y-39933571D01*
X28586904Y-40028809D01*
X28586904Y-40266904D01*
X28539285Y-40362142D01*
X28491666Y-40409761D01*
X28396427Y-40457380D01*
X28110713Y-40457380D01*
X28015475Y-40409761D01*
X27967856Y-40362142D01*
X29015475Y-40362142D02*
X29063094Y-40409761D01*
X29015475Y-40457380D01*
X28967856Y-40409761D01*
X29015475Y-40362142D01*
X29015475Y-40457380D01*
X29396427Y-39457380D02*
X30015475Y-39457380D01*
X29682142Y-39838333D01*
X29824999Y-39838333D01*
X29920237Y-39885952D01*
X29967856Y-39933571D01*
X30015475Y-40028809D01*
X30015475Y-40266904D01*
X29967856Y-40362142D01*
X29920237Y-40409761D01*
X29824999Y-40457380D01*
X29539285Y-40457380D01*
X29444047Y-40409761D01*
X29396427Y-40362142D01*
X30301189Y-39457380D02*
X30634523Y-40457380D01*
X30967856Y-39457380D01*
X72284523Y-74177380D02*
X71713095Y-74177380D01*
X71998809Y-74177380D02*
X71998809Y-73177380D01*
X71903571Y-73320238D01*
X71808333Y-73415476D01*
X71713095Y-73463095D01*
X72903571Y-73177380D02*
X72998809Y-73177380D01*
X73094047Y-73225000D01*
X73141666Y-73272619D01*
X73189285Y-73367857D01*
X73236904Y-73558333D01*
X73236904Y-73796428D01*
X73189285Y-73986904D01*
X73141666Y-74082142D01*
X73094047Y-74129761D01*
X72998809Y-74177380D01*
X72903571Y-74177380D01*
X72808333Y-74129761D01*
X72760714Y-74082142D01*
X72713095Y-73986904D01*
X72665476Y-73796428D01*
X72665476Y-73558333D01*
X72713095Y-73367857D01*
X72760714Y-73272619D01*
X72808333Y-73225000D01*
X72903571Y-73177380D01*
X73665476Y-74177380D02*
X73665476Y-73177380D01*
X74236904Y-74177380D02*
X73808333Y-73605952D01*
X74236904Y-73177380D02*
X73665476Y-73748809D01*
X28336478Y-58283580D02*
X28955526Y-58283580D01*
X28622192Y-58664533D01*
X28765049Y-58664533D01*
X28860288Y-58712152D01*
X28907907Y-58759771D01*
X28955526Y-58855009D01*
X28955526Y-59093104D01*
X28907907Y-59188342D01*
X28860288Y-59235961D01*
X28765049Y-59283580D01*
X28479335Y-59283580D01*
X28384097Y-59235961D01*
X28336478Y-59188342D01*
X29384097Y-59188342D02*
X29431716Y-59235961D01*
X29384097Y-59283580D01*
X29336478Y-59235961D01*
X29384097Y-59188342D01*
X29384097Y-59283580D01*
X29765049Y-58283580D02*
X30384097Y-58283580D01*
X30050764Y-58664533D01*
X30193621Y-58664533D01*
X30288859Y-58712152D01*
X30336478Y-58759771D01*
X30384097Y-58855009D01*
X30384097Y-59093104D01*
X30336478Y-59188342D01*
X30288859Y-59235961D01*
X30193621Y-59283580D01*
X29907907Y-59283580D01*
X29812669Y-59235961D01*
X29765049Y-59188342D01*
X30669811Y-58283580D02*
X31003145Y-59283580D01*
X31336478Y-58283580D01*
X28955526Y-64862207D02*
X28384097Y-64862207D01*
X28669812Y-64862207D02*
X28669812Y-63862207D01*
X28574574Y-64005065D01*
X28479336Y-64100303D01*
X28384097Y-64147922D01*
X29288859Y-63862207D02*
X29526955Y-64862207D01*
X29717431Y-64147922D01*
X29907907Y-64862207D01*
X30146002Y-63862207D01*
X30526955Y-64862207D02*
X30526955Y-63862207D01*
X31574574Y-64862207D02*
X31241240Y-64386017D01*
X31003145Y-64862207D02*
X31003145Y-63862207D01*
X31384097Y-63862207D01*
X31479336Y-63909827D01*
X31526955Y-63957446D01*
X31574574Y-64052684D01*
X31574574Y-64195541D01*
X31526955Y-64290779D01*
X31479336Y-64338398D01*
X31384097Y-64386017D01*
X31003145Y-64386017D01*
X32003145Y-64338398D02*
X32336478Y-64338398D01*
X32479336Y-64862207D02*
X32003145Y-64862207D01*
X32003145Y-63862207D01*
X32479336Y-63862207D01*
X70069761Y-28081189D02*
X70117380Y-27938332D01*
X70117380Y-27700237D01*
X70069761Y-27604999D01*
X70022142Y-27557380D01*
X69926904Y-27509761D01*
X69831666Y-27509761D01*
X69736428Y-27557380D01*
X69688809Y-27604999D01*
X69641190Y-27700237D01*
X69593571Y-27890713D01*
X69545952Y-27985951D01*
X69498333Y-28033570D01*
X69403095Y-28081189D01*
X69307857Y-28081189D01*
X69212619Y-28033570D01*
X69165000Y-27985951D01*
X69117380Y-27890713D01*
X69117380Y-27652618D01*
X69165000Y-27509761D01*
X70212619Y-26414523D02*
X70165000Y-26509761D01*
X70069761Y-26604999D01*
X69926904Y-26747856D01*
X69879285Y-26843094D01*
X69879285Y-26938332D01*
X70117380Y-26890713D02*
X70069761Y-26985951D01*
X69974523Y-27081189D01*
X69784047Y-27128808D01*
X69450714Y-27128808D01*
X69260238Y-27081189D01*
X69165000Y-26985951D01*
X69117380Y-26890713D01*
X69117380Y-26700237D01*
X69165000Y-26604999D01*
X69260238Y-26509761D01*
X69450714Y-26462142D01*
X69784047Y-26462142D01*
X69974523Y-26509761D01*
X70069761Y-26604999D01*
X70117380Y-26700237D01*
X70117380Y-26890713D01*
X54897380Y-28033571D02*
X53897380Y-28033571D01*
X53992619Y-27604999D02*
X53945000Y-27557380D01*
X53897380Y-27462142D01*
X53897380Y-27224047D01*
X53945000Y-27128809D01*
X53992619Y-27081190D01*
X54087857Y-27033571D01*
X54183095Y-27033571D01*
X54325952Y-27081190D01*
X54897380Y-27652618D01*
X54897380Y-27033571D01*
X54802142Y-26033571D02*
X54849761Y-26081190D01*
X54897380Y-26224047D01*
X54897380Y-26319285D01*
X54849761Y-26462142D01*
X54754523Y-26557380D01*
X54659285Y-26604999D01*
X54468809Y-26652618D01*
X54325952Y-26652618D01*
X54135476Y-26604999D01*
X54040238Y-26557380D01*
X53945000Y-26462142D01*
X53897380Y-26319285D01*
X53897380Y-26224047D01*
X53945000Y-26081190D01*
X53992619Y-26033571D01*
X54849761Y-24890714D02*
X54897380Y-24747856D01*
X54897380Y-24509761D01*
X54849761Y-24414523D01*
X54802142Y-24366904D01*
X54706904Y-24319285D01*
X54611666Y-24319285D01*
X54516428Y-24366904D01*
X54468809Y-24414523D01*
X54421190Y-24509761D01*
X54373571Y-24700237D01*
X54325952Y-24795476D01*
X54278333Y-24843095D01*
X54183095Y-24890714D01*
X54087857Y-24890714D01*
X53992619Y-24843095D01*
X53945000Y-24795476D01*
X53897380Y-24700237D01*
X53897380Y-24462142D01*
X53945000Y-24319285D01*
X54802142Y-23319285D02*
X54849761Y-23366904D01*
X54897380Y-23509761D01*
X54897380Y-23604999D01*
X54849761Y-23747856D01*
X54754523Y-23843095D01*
X54659285Y-23890714D01*
X54468809Y-23938333D01*
X54325952Y-23938333D01*
X54135476Y-23890714D01*
X54040238Y-23843095D01*
X53945000Y-23747856D01*
X53897380Y-23604999D01*
X53897380Y-23509761D01*
X53945000Y-23366904D01*
X53992619Y-23319285D01*
X54897380Y-22414523D02*
X54897380Y-22890714D01*
X53897380Y-22890714D01*
X72284523Y-85987380D02*
X71713095Y-85987380D01*
X71998809Y-85987380D02*
X71998809Y-84987380D01*
X71903571Y-85130238D01*
X71808333Y-85225476D01*
X71713095Y-85273095D01*
X72903571Y-84987380D02*
X72998809Y-84987380D01*
X73094047Y-85035000D01*
X73141666Y-85082619D01*
X73189285Y-85177857D01*
X73236904Y-85368333D01*
X73236904Y-85606428D01*
X73189285Y-85796904D01*
X73141666Y-85892142D01*
X73094047Y-85939761D01*
X72998809Y-85987380D01*
X72903571Y-85987380D01*
X72808333Y-85939761D01*
X72760714Y-85892142D01*
X72713095Y-85796904D01*
X72665476Y-85606428D01*
X72665476Y-85368333D01*
X72713095Y-85177857D01*
X72760714Y-85082619D01*
X72808333Y-85035000D01*
X72903571Y-84987380D01*
X73665476Y-85987380D02*
X73665476Y-84987380D01*
X74236904Y-85987380D02*
X73808333Y-85415952D01*
X74236904Y-84987380D02*
X73665476Y-85558809D01*
X103243095Y-48375000D02*
X103147857Y-48327380D01*
X103005000Y-48327380D01*
X102862142Y-48375000D01*
X102766904Y-48470238D01*
X102719285Y-48565476D01*
X102671666Y-48755952D01*
X102671666Y-48898809D01*
X102719285Y-49089285D01*
X102766904Y-49184523D01*
X102862142Y-49279761D01*
X103005000Y-49327380D01*
X103100238Y-49327380D01*
X103243095Y-49279761D01*
X103290714Y-49232142D01*
X103290714Y-48898809D01*
X103100238Y-48898809D01*
X103719285Y-49327380D02*
X103719285Y-48327380D01*
X104290714Y-49327380D01*
X104290714Y-48327380D01*
X104766904Y-49327380D02*
X104766904Y-48327380D01*
X105005000Y-48327380D01*
X105147857Y-48375000D01*
X105243095Y-48470238D01*
X105290714Y-48565476D01*
X105338333Y-48755952D01*
X105338333Y-48898809D01*
X105290714Y-49089285D01*
X105243095Y-49184523D01*
X105147857Y-49279761D01*
X105005000Y-49327380D01*
X104766904Y-49327380D01*
D11*
X59975952Y-82877380D02*
X59642619Y-82401190D01*
X59404523Y-82877380D02*
X59404523Y-81877380D01*
X59785476Y-81877380D01*
X59880714Y-81925000D01*
X59928333Y-81972619D01*
X59975952Y-82067857D01*
X59975952Y-82210714D01*
X59928333Y-82305952D01*
X59880714Y-82353571D01*
X59785476Y-82401190D01*
X59404523Y-82401190D01*
X60356904Y-82591666D02*
X60833095Y-82591666D01*
X60261666Y-82877380D02*
X60595000Y-81877380D01*
X60928333Y-82877380D01*
X61261666Y-82877380D02*
X61261666Y-81877380D01*
X61499761Y-81877380D01*
X61642619Y-81925000D01*
X61737857Y-82020238D01*
X61785476Y-82115476D01*
X61833095Y-82305952D01*
X61833095Y-82448809D01*
X61785476Y-82639285D01*
X61737857Y-82734523D01*
X61642619Y-82829761D01*
X61499761Y-82877380D01*
X61261666Y-82877380D01*
X62261666Y-82877380D02*
X62261666Y-81877380D01*
X62928333Y-81877380D02*
X63118809Y-81877380D01*
X63214047Y-81925000D01*
X63309285Y-82020238D01*
X63356904Y-82210714D01*
X63356904Y-82544047D01*
X63309285Y-82734523D01*
X63214047Y-82829761D01*
X63118809Y-82877380D01*
X62928333Y-82877380D01*
X62833095Y-82829761D01*
X62737857Y-82734523D01*
X62690238Y-82544047D01*
X62690238Y-82210714D01*
X62737857Y-82020238D01*
X62833095Y-81925000D01*
X62928333Y-81877380D01*
X64404523Y-81877380D02*
X64975952Y-81877380D01*
X64690238Y-82877380D02*
X64690238Y-81877380D01*
X65214047Y-81877380D02*
X65880714Y-82877380D01*
X65880714Y-81877380D02*
X65214047Y-82877380D01*
D10*
X28063095Y-45487380D02*
X28063095Y-44487380D01*
X28491666Y-44582619D02*
X28539285Y-44535000D01*
X28634523Y-44487380D01*
X28872619Y-44487380D01*
X28967857Y-44535000D01*
X29015476Y-44582619D01*
X29063095Y-44677857D01*
X29063095Y-44773095D01*
X29015476Y-44915952D01*
X28444047Y-45487380D01*
X29063095Y-45487380D01*
X30063095Y-45392142D02*
X30015476Y-45439761D01*
X29872619Y-45487380D01*
X29777380Y-45487380D01*
X29634523Y-45439761D01*
X29539285Y-45344523D01*
X29491666Y-45249285D01*
X29444047Y-45058809D01*
X29444047Y-44915952D01*
X29491666Y-44725476D01*
X29539285Y-44630238D01*
X29634523Y-44535000D01*
X29777380Y-44487380D01*
X29872619Y-44487380D01*
X30015476Y-44535000D01*
X30063095Y-44582619D01*
X30253571Y-45582619D02*
X31015476Y-45582619D01*
X31205952Y-45439761D02*
X31348809Y-45487380D01*
X31586904Y-45487380D01*
X31682142Y-45439761D01*
X31729761Y-45392142D01*
X31777380Y-45296904D01*
X31777380Y-45201666D01*
X31729761Y-45106428D01*
X31682142Y-45058809D01*
X31586904Y-45011190D01*
X31396428Y-44963571D01*
X31301190Y-44915952D01*
X31253571Y-44868333D01*
X31205952Y-44773095D01*
X31205952Y-44677857D01*
X31253571Y-44582619D01*
X31301190Y-44535000D01*
X31396428Y-44487380D01*
X31634523Y-44487380D01*
X31777380Y-44535000D01*
X32158333Y-45201666D02*
X32634523Y-45201666D01*
X32063095Y-45487380D02*
X32396428Y-44487380D01*
X32729761Y-45487380D01*
X74761190Y-64117380D02*
X74761190Y-63117380D01*
X74761190Y-63593571D02*
X75332619Y-63593571D01*
X75332619Y-64117380D02*
X75332619Y-63117380D01*
X75808809Y-64117380D02*
X75808809Y-63117380D01*
X56225000Y-39658333D02*
X56177380Y-39753571D01*
X56177380Y-39896428D01*
X56225000Y-40039285D01*
X56320238Y-40134523D01*
X56415476Y-40182142D01*
X56605952Y-40229761D01*
X56748809Y-40229761D01*
X56939285Y-40182142D01*
X57034523Y-40134523D01*
X57129761Y-40039285D01*
X57177380Y-39896428D01*
X57177380Y-39801190D01*
X57129761Y-39658333D01*
X57082142Y-39610714D01*
X56748809Y-39610714D01*
X56748809Y-39801190D01*
X57177380Y-39182142D02*
X56177380Y-39182142D01*
X56177380Y-38801190D01*
X56225000Y-38705952D01*
X56272619Y-38658333D01*
X56367857Y-38610714D01*
X56510714Y-38610714D01*
X56605952Y-38658333D01*
X56653571Y-38705952D01*
X56701190Y-38801190D01*
X56701190Y-39182142D01*
X57177380Y-38182142D02*
X56177380Y-38182142D01*
X56177380Y-37515476D02*
X56177380Y-37325000D01*
X56225000Y-37229761D01*
X56320238Y-37134523D01*
X56510714Y-37086904D01*
X56844047Y-37086904D01*
X57034523Y-37134523D01*
X57129761Y-37229761D01*
X57177380Y-37325000D01*
X57177380Y-37515476D01*
X57129761Y-37610714D01*
X57034523Y-37705952D01*
X56844047Y-37753571D01*
X56510714Y-37753571D01*
X56320238Y-37705952D01*
X56225000Y-37610714D01*
X56177380Y-37515476D01*
X56272619Y-35944047D02*
X56225000Y-35896428D01*
X56177380Y-35801190D01*
X56177380Y-35563095D01*
X56225000Y-35467857D01*
X56272619Y-35420238D01*
X56367857Y-35372619D01*
X56463095Y-35372619D01*
X56605952Y-35420238D01*
X57177380Y-35991666D01*
X57177380Y-35372619D01*
X56177380Y-35039285D02*
X56177380Y-34372619D01*
X57177380Y-34801190D01*
X59025000Y-39658333D02*
X58977380Y-39753571D01*
X58977380Y-39896428D01*
X59025000Y-40039285D01*
X59120238Y-40134523D01*
X59215476Y-40182142D01*
X59405952Y-40229761D01*
X59548809Y-40229761D01*
X59739285Y-40182142D01*
X59834523Y-40134523D01*
X59929761Y-40039285D01*
X59977380Y-39896428D01*
X59977380Y-39801190D01*
X59929761Y-39658333D01*
X59882142Y-39610714D01*
X59548809Y-39610714D01*
X59548809Y-39801190D01*
X59977380Y-39182142D02*
X58977380Y-39182142D01*
X58977380Y-38801190D01*
X59025000Y-38705952D01*
X59072619Y-38658333D01*
X59167857Y-38610714D01*
X59310714Y-38610714D01*
X59405952Y-38658333D01*
X59453571Y-38705952D01*
X59501190Y-38801190D01*
X59501190Y-39182142D01*
X59977380Y-38182142D02*
X58977380Y-38182142D01*
X58977380Y-37515476D02*
X58977380Y-37325000D01*
X59025000Y-37229761D01*
X59120238Y-37134523D01*
X59310714Y-37086904D01*
X59644047Y-37086904D01*
X59834523Y-37134523D01*
X59929761Y-37229761D01*
X59977380Y-37325000D01*
X59977380Y-37515476D01*
X59929761Y-37610714D01*
X59834523Y-37705952D01*
X59644047Y-37753571D01*
X59310714Y-37753571D01*
X59120238Y-37705952D01*
X59025000Y-37610714D01*
X58977380Y-37515476D01*
X59072619Y-35944047D02*
X59025000Y-35896428D01*
X58977380Y-35801190D01*
X58977380Y-35563095D01*
X59025000Y-35467857D01*
X59072619Y-35420238D01*
X59167857Y-35372619D01*
X59263095Y-35372619D01*
X59405952Y-35420238D01*
X59977380Y-35991666D01*
X59977380Y-35372619D01*
X58977380Y-34515476D02*
X58977380Y-34705952D01*
X59025000Y-34801190D01*
X59072619Y-34848809D01*
X59215476Y-34944047D01*
X59405952Y-34991666D01*
X59786904Y-34991666D01*
X59882142Y-34944047D01*
X59929761Y-34896428D01*
X59977380Y-34801190D01*
X59977380Y-34610714D01*
X59929761Y-34515476D01*
X59882142Y-34467857D01*
X59786904Y-34420238D01*
X59548809Y-34420238D01*
X59453571Y-34467857D01*
X59405952Y-34515476D01*
X59358333Y-34610714D01*
X59358333Y-34801190D01*
X59405952Y-34896428D01*
X59453571Y-34944047D01*
X59548809Y-34991666D01*
X61545000Y-39658333D02*
X61497380Y-39753571D01*
X61497380Y-39896428D01*
X61545000Y-40039285D01*
X61640238Y-40134523D01*
X61735476Y-40182142D01*
X61925952Y-40229761D01*
X62068809Y-40229761D01*
X62259285Y-40182142D01*
X62354523Y-40134523D01*
X62449761Y-40039285D01*
X62497380Y-39896428D01*
X62497380Y-39801190D01*
X62449761Y-39658333D01*
X62402142Y-39610714D01*
X62068809Y-39610714D01*
X62068809Y-39801190D01*
X62497380Y-39182142D02*
X61497380Y-39182142D01*
X61497380Y-38801190D01*
X61545000Y-38705952D01*
X61592619Y-38658333D01*
X61687857Y-38610714D01*
X61830714Y-38610714D01*
X61925952Y-38658333D01*
X61973571Y-38705952D01*
X62021190Y-38801190D01*
X62021190Y-39182142D01*
X62497380Y-38182142D02*
X61497380Y-38182142D01*
X61497380Y-37515476D02*
X61497380Y-37325000D01*
X61545000Y-37229761D01*
X61640238Y-37134523D01*
X61830714Y-37086904D01*
X62164047Y-37086904D01*
X62354523Y-37134523D01*
X62449761Y-37229761D01*
X62497380Y-37325000D01*
X62497380Y-37515476D01*
X62449761Y-37610714D01*
X62354523Y-37705952D01*
X62164047Y-37753571D01*
X61830714Y-37753571D01*
X61640238Y-37705952D01*
X61545000Y-37610714D01*
X61497380Y-37515476D01*
X61497380Y-35991666D02*
X61497380Y-35372619D01*
X61878333Y-35705952D01*
X61878333Y-35563095D01*
X61925952Y-35467857D01*
X61973571Y-35420238D01*
X62068809Y-35372619D01*
X62306904Y-35372619D01*
X62402142Y-35420238D01*
X62449761Y-35467857D01*
X62497380Y-35563095D01*
X62497380Y-35848809D01*
X62449761Y-35944047D01*
X62402142Y-35991666D01*
X61592619Y-34991666D02*
X61545000Y-34944047D01*
X61497380Y-34848809D01*
X61497380Y-34610714D01*
X61545000Y-34515476D01*
X61592619Y-34467857D01*
X61687857Y-34420238D01*
X61783095Y-34420238D01*
X61925952Y-34467857D01*
X62497380Y-35039285D01*
X62497380Y-34420238D01*
X28392426Y-69907380D02*
X29011474Y-69907380D01*
X28678140Y-70288333D01*
X28820997Y-70288333D01*
X28916236Y-70335952D01*
X28963855Y-70383571D01*
X29011474Y-70478809D01*
X29011474Y-70716904D01*
X28963855Y-70812142D01*
X28916236Y-70859761D01*
X28820997Y-70907380D01*
X28535283Y-70907380D01*
X28440045Y-70859761D01*
X28392426Y-70812142D01*
X29440045Y-70812142D02*
X29487664Y-70859761D01*
X29440045Y-70907380D01*
X29392426Y-70859761D01*
X29440045Y-70812142D01*
X29440045Y-70907380D01*
X29820997Y-69907380D02*
X30440045Y-69907380D01*
X30106712Y-70288333D01*
X30249569Y-70288333D01*
X30344807Y-70335952D01*
X30392426Y-70383571D01*
X30440045Y-70478809D01*
X30440045Y-70716904D01*
X30392426Y-70812142D01*
X30344807Y-70859761D01*
X30249569Y-70907380D01*
X29963855Y-70907380D01*
X29868617Y-70859761D01*
X29820997Y-70812142D01*
X30725759Y-69907380D02*
X31059093Y-70907380D01*
X31392426Y-69907380D01*
X102719285Y-38146428D02*
X103481190Y-38146428D01*
X103100238Y-38527380D02*
X103100238Y-37765476D01*
X104385952Y-37860714D02*
X104385952Y-38527380D01*
X104147857Y-37479761D02*
X103909761Y-38194047D01*
X104528809Y-38194047D01*
X104766904Y-37527380D02*
X105100238Y-38527380D01*
X105433571Y-37527380D01*
X28186429Y-84657380D02*
X28757857Y-84657380D01*
X28472143Y-85657380D02*
X28472143Y-84657380D01*
X28995953Y-84657380D02*
X29662619Y-85657380D01*
X29662619Y-84657380D02*
X28995953Y-85657380D01*
X52357380Y-28033570D02*
X51357380Y-28033570D01*
X51452619Y-27604999D02*
X51405000Y-27557380D01*
X51357380Y-27462142D01*
X51357380Y-27224046D01*
X51405000Y-27128808D01*
X51452619Y-27081189D01*
X51547857Y-27033570D01*
X51643095Y-27033570D01*
X51785952Y-27081189D01*
X52357380Y-27652618D01*
X52357380Y-27033570D01*
X52262142Y-26033570D02*
X52309761Y-26081189D01*
X52357380Y-26224046D01*
X52357380Y-26319285D01*
X52309761Y-26462142D01*
X52214523Y-26557380D01*
X52119285Y-26604999D01*
X51928809Y-26652618D01*
X51785952Y-26652618D01*
X51595476Y-26604999D01*
X51500238Y-26557380D01*
X51405000Y-26462142D01*
X51357380Y-26319285D01*
X51357380Y-26224046D01*
X51405000Y-26081189D01*
X51452619Y-26033570D01*
X52309761Y-24890713D02*
X52357380Y-24747856D01*
X52357380Y-24509761D01*
X52309761Y-24414523D01*
X52262142Y-24366904D01*
X52166904Y-24319285D01*
X52071666Y-24319285D01*
X51976428Y-24366904D01*
X51928809Y-24414523D01*
X51881190Y-24509761D01*
X51833571Y-24700237D01*
X51785952Y-24795475D01*
X51738333Y-24843094D01*
X51643095Y-24890713D01*
X51547857Y-24890713D01*
X51452619Y-24843094D01*
X51405000Y-24795475D01*
X51357380Y-24700237D01*
X51357380Y-24462142D01*
X51405000Y-24319285D01*
X52071666Y-23938332D02*
X52071666Y-23462142D01*
X52357380Y-24033570D02*
X51357380Y-23700237D01*
X52357380Y-23366904D01*
X28955526Y-61053784D02*
X28860288Y-61006164D01*
X28717431Y-61006164D01*
X28574573Y-61053784D01*
X28479335Y-61149022D01*
X28431716Y-61244260D01*
X28384097Y-61434736D01*
X28384097Y-61577593D01*
X28431716Y-61768069D01*
X28479335Y-61863307D01*
X28574573Y-61958545D01*
X28717431Y-62006164D01*
X28812669Y-62006164D01*
X28955526Y-61958545D01*
X29003145Y-61910926D01*
X29003145Y-61577593D01*
X28812669Y-61577593D01*
X29431716Y-62006164D02*
X29431716Y-61006164D01*
X30003145Y-62006164D01*
X30003145Y-61006164D01*
X30479335Y-62006164D02*
X30479335Y-61006164D01*
X30717431Y-61006164D01*
X30860288Y-61053784D01*
X30955526Y-61149022D01*
X31003145Y-61244260D01*
X31050764Y-61434736D01*
X31050764Y-61577593D01*
X31003145Y-61768069D01*
X30955526Y-61863307D01*
X30860288Y-61958545D01*
X30717431Y-62006164D01*
X30479335Y-62006164D01*
X65579761Y-50897380D02*
X65008333Y-50897380D01*
X65294047Y-50897380D02*
X65294047Y-49897380D01*
X65198809Y-50040238D01*
X65103571Y-50135476D01*
X65008333Y-50183095D01*
X66198809Y-49897380D02*
X66294047Y-49897380D01*
X66389285Y-49945000D01*
X66436904Y-49992619D01*
X66484523Y-50087857D01*
X66532142Y-50278333D01*
X66532142Y-50516428D01*
X66484523Y-50706904D01*
X66436904Y-50802142D01*
X66389285Y-50849761D01*
X66294047Y-50897380D01*
X66198809Y-50897380D01*
X66103571Y-50849761D01*
X66055952Y-50802142D01*
X66008333Y-50706904D01*
X65960714Y-50516428D01*
X65960714Y-50278333D01*
X66008333Y-50087857D01*
X66055952Y-49992619D01*
X66103571Y-49945000D01*
X66198809Y-49897380D01*
X66960714Y-50897380D02*
X66960714Y-49897380D01*
X67055952Y-50516428D02*
X67341666Y-50897380D01*
X67341666Y-50230714D02*
X66960714Y-50611666D01*
X88045000Y-37896904D02*
X87997380Y-37992142D01*
X87997380Y-38135000D01*
X88045000Y-38277857D01*
X88140238Y-38373095D01*
X88235476Y-38420714D01*
X88425952Y-38468333D01*
X88568809Y-38468333D01*
X88759285Y-38420714D01*
X88854523Y-38373095D01*
X88949761Y-38277857D01*
X88997380Y-38135000D01*
X88997380Y-38039761D01*
X88949761Y-37896904D01*
X88902142Y-37849285D01*
X88568809Y-37849285D01*
X88568809Y-38039761D01*
X88997380Y-37420714D02*
X87997380Y-37420714D01*
X88997380Y-36849285D01*
X87997380Y-36849285D01*
X88997380Y-36373095D02*
X87997380Y-36373095D01*
X87997380Y-36135000D01*
X88045000Y-35992142D01*
X88140238Y-35896904D01*
X88235476Y-35849285D01*
X88425952Y-35801666D01*
X88568809Y-35801666D01*
X88759285Y-35849285D01*
X88854523Y-35896904D01*
X88949761Y-35992142D01*
X88997380Y-36135000D01*
X88997380Y-36373095D01*
X46255000Y-27509761D02*
X46207380Y-27605000D01*
X46207380Y-27747857D01*
X46255000Y-27890714D01*
X46350238Y-27985952D01*
X46445476Y-28033571D01*
X46635952Y-28081190D01*
X46778809Y-28081190D01*
X46969285Y-28033571D01*
X47064523Y-27985952D01*
X47159761Y-27890714D01*
X47207380Y-27747857D01*
X47207380Y-27652619D01*
X47159761Y-27509761D01*
X47112142Y-27462142D01*
X46778809Y-27462142D01*
X46778809Y-27652619D01*
X47207380Y-27033571D02*
X46207380Y-27033571D01*
X46207380Y-26652619D01*
X46255000Y-26557381D01*
X46302619Y-26509761D01*
X46397857Y-26462142D01*
X46540714Y-26462142D01*
X46635952Y-26509761D01*
X46683571Y-26557381D01*
X46731190Y-26652619D01*
X46731190Y-27033571D01*
X47159761Y-26081190D02*
X47207380Y-25938333D01*
X47207380Y-25700238D01*
X47159761Y-25605000D01*
X47112142Y-25557381D01*
X47016904Y-25509761D01*
X46921666Y-25509761D01*
X46826428Y-25557381D01*
X46778809Y-25605000D01*
X46731190Y-25700238D01*
X46683571Y-25890714D01*
X46635952Y-25985952D01*
X46588333Y-26033571D01*
X46493095Y-26081190D01*
X46397857Y-26081190D01*
X46302619Y-26033571D01*
X46255000Y-25985952D01*
X46207380Y-25890714D01*
X46207380Y-25652619D01*
X46255000Y-25509761D01*
X46207380Y-24462142D02*
X46207380Y-23890714D01*
X47207380Y-24176428D02*
X46207380Y-24176428D01*
X46207380Y-23652619D02*
X47207380Y-22985952D01*
X46207380Y-22985952D02*
X47207380Y-23652619D01*
X90717380Y-97287380D02*
X90717380Y-96287380D01*
X90955476Y-96287380D01*
X91098333Y-96335000D01*
X91193571Y-96430238D01*
X91241190Y-96525476D01*
X91288809Y-96715952D01*
X91288809Y-96858809D01*
X91241190Y-97049285D01*
X91193571Y-97144523D01*
X91098333Y-97239761D01*
X90955476Y-97287380D01*
X90717380Y-97287380D01*
X92288809Y-97287380D02*
X91955476Y-96811190D01*
X91717380Y-97287380D02*
X91717380Y-96287380D01*
X92098333Y-96287380D01*
X92193571Y-96335000D01*
X92241190Y-96382619D01*
X92288809Y-96477857D01*
X92288809Y-96620714D01*
X92241190Y-96715952D01*
X92193571Y-96763571D01*
X92098333Y-96811190D01*
X91717380Y-96811190D01*
X92669761Y-97001666D02*
X93145952Y-97001666D01*
X92574523Y-97287380D02*
X92907857Y-96287380D01*
X93241190Y-97287380D01*
X93717380Y-96715952D02*
X93622142Y-96668333D01*
X93574523Y-96620714D01*
X93526904Y-96525476D01*
X93526904Y-96477857D01*
X93574523Y-96382619D01*
X93622142Y-96335000D01*
X93717380Y-96287380D01*
X93907857Y-96287380D01*
X94003095Y-96335000D01*
X94050714Y-96382619D01*
X94098333Y-96477857D01*
X94098333Y-96525476D01*
X94050714Y-96620714D01*
X94003095Y-96668333D01*
X93907857Y-96715952D01*
X93717380Y-96715952D01*
X93622142Y-96763571D01*
X93574523Y-96811190D01*
X93526904Y-96906428D01*
X93526904Y-97096904D01*
X93574523Y-97192142D01*
X93622142Y-97239761D01*
X93717380Y-97287380D01*
X93907857Y-97287380D01*
X94003095Y-97239761D01*
X94050714Y-97192142D01*
X94098333Y-97096904D01*
X94098333Y-96906428D01*
X94050714Y-96811190D01*
X94003095Y-96763571D01*
X93907857Y-96715952D01*
X95050714Y-97287380D02*
X94479285Y-97287380D01*
X94765000Y-97287380D02*
X94765000Y-96287380D01*
X94669761Y-96430238D01*
X94574523Y-96525476D01*
X94479285Y-96573095D01*
X95622142Y-96715952D02*
X95526904Y-96668333D01*
X95479285Y-96620714D01*
X95431666Y-96525476D01*
X95431666Y-96477857D01*
X95479285Y-96382619D01*
X95526904Y-96335000D01*
X95622142Y-96287380D01*
X95812619Y-96287380D01*
X95907857Y-96335000D01*
X95955476Y-96382619D01*
X96003095Y-96477857D01*
X96003095Y-96525476D01*
X95955476Y-96620714D01*
X95907857Y-96668333D01*
X95812619Y-96715952D01*
X95622142Y-96715952D01*
X95526904Y-96763571D01*
X95479285Y-96811190D01*
X95431666Y-96906428D01*
X95431666Y-97096904D01*
X95479285Y-97192142D01*
X95526904Y-97239761D01*
X95622142Y-97287380D01*
X95812619Y-97287380D01*
X95907857Y-97239761D01*
X95955476Y-97192142D01*
X96003095Y-97096904D01*
X96003095Y-96906428D01*
X95955476Y-96811190D01*
X95907857Y-96763571D01*
X95812619Y-96715952D01*
X96288809Y-96287380D02*
X96622142Y-97287380D01*
X96955476Y-96287380D01*
X48835000Y-39658333D02*
X48787380Y-39753571D01*
X48787380Y-39896428D01*
X48835000Y-40039285D01*
X48930238Y-40134523D01*
X49025476Y-40182142D01*
X49215952Y-40229761D01*
X49358809Y-40229761D01*
X49549285Y-40182142D01*
X49644523Y-40134523D01*
X49739761Y-40039285D01*
X49787380Y-39896428D01*
X49787380Y-39801190D01*
X49739761Y-39658333D01*
X49692142Y-39610714D01*
X49358809Y-39610714D01*
X49358809Y-39801190D01*
X49787380Y-39182142D02*
X48787380Y-39182142D01*
X48787380Y-38801190D01*
X48835000Y-38705952D01*
X48882619Y-38658333D01*
X48977857Y-38610714D01*
X49120714Y-38610714D01*
X49215952Y-38658333D01*
X49263571Y-38705952D01*
X49311190Y-38801190D01*
X49311190Y-39182142D01*
X49787380Y-38182142D02*
X48787380Y-38182142D01*
X48787380Y-37515476D02*
X48787380Y-37325000D01*
X48835000Y-37229761D01*
X48930238Y-37134523D01*
X49120714Y-37086904D01*
X49454047Y-37086904D01*
X49644523Y-37134523D01*
X49739761Y-37229761D01*
X49787380Y-37325000D01*
X49787380Y-37515476D01*
X49739761Y-37610714D01*
X49644523Y-37705952D01*
X49454047Y-37753571D01*
X49120714Y-37753571D01*
X48930238Y-37705952D01*
X48835000Y-37610714D01*
X48787380Y-37515476D01*
X48882619Y-35944047D02*
X48835000Y-35896428D01*
X48787380Y-35801190D01*
X48787380Y-35563095D01*
X48835000Y-35467857D01*
X48882619Y-35420238D01*
X48977857Y-35372619D01*
X49073095Y-35372619D01*
X49215952Y-35420238D01*
X49787380Y-35991666D01*
X49787380Y-35372619D01*
X48787380Y-35039285D02*
X48787380Y-34420238D01*
X49168333Y-34753571D01*
X49168333Y-34610714D01*
X49215952Y-34515476D01*
X49263571Y-34467857D01*
X49358809Y-34420238D01*
X49596904Y-34420238D01*
X49692142Y-34467857D01*
X49739761Y-34515476D01*
X49787380Y-34610714D01*
X49787380Y-34896428D01*
X49739761Y-34991666D01*
X49692142Y-35039285D01*
X46275000Y-39134524D02*
X46227380Y-39229762D01*
X46227380Y-39372619D01*
X46275000Y-39515476D01*
X46370238Y-39610715D01*
X46465476Y-39658334D01*
X46655952Y-39705953D01*
X46798809Y-39705953D01*
X46989285Y-39658334D01*
X47084523Y-39610715D01*
X47179761Y-39515476D01*
X47227380Y-39372619D01*
X47227380Y-39277381D01*
X47179761Y-39134524D01*
X47132142Y-39086905D01*
X46798809Y-39086905D01*
X46798809Y-39277381D01*
X47227380Y-38658334D02*
X46227380Y-38658334D01*
X46227380Y-38277381D01*
X46275000Y-38182143D01*
X46322619Y-38134524D01*
X46417857Y-38086905D01*
X46560714Y-38086905D01*
X46655952Y-38134524D01*
X46703571Y-38182143D01*
X46751190Y-38277381D01*
X46751190Y-38658334D01*
X47179761Y-37705953D02*
X47227380Y-37563096D01*
X47227380Y-37325000D01*
X47179761Y-37229762D01*
X47132142Y-37182143D01*
X47036904Y-37134524D01*
X46941666Y-37134524D01*
X46846428Y-37182143D01*
X46798809Y-37229762D01*
X46751190Y-37325000D01*
X46703571Y-37515476D01*
X46655952Y-37610715D01*
X46608333Y-37658334D01*
X46513095Y-37705953D01*
X46417857Y-37705953D01*
X46322619Y-37658334D01*
X46275000Y-37610715D01*
X46227380Y-37515476D01*
X46227380Y-37277381D01*
X46275000Y-37134524D01*
X47227380Y-35372619D02*
X46751190Y-35705953D01*
X47227380Y-35944048D02*
X46227380Y-35944048D01*
X46227380Y-35563096D01*
X46275000Y-35467857D01*
X46322619Y-35420238D01*
X46417857Y-35372619D01*
X46560714Y-35372619D01*
X46655952Y-35420238D01*
X46703571Y-35467857D01*
X46751190Y-35563096D01*
X46751190Y-35944048D01*
X46227380Y-35039286D02*
X47227380Y-34372619D01*
X46227380Y-34372619D02*
X47227380Y-35039286D01*
%TO.C,SW2*%
X30619761Y-101988333D02*
X30667380Y-101845476D01*
X30667380Y-101607380D01*
X30619761Y-101512142D01*
X30572142Y-101464523D01*
X30476904Y-101416904D01*
X30381666Y-101416904D01*
X30286428Y-101464523D01*
X30238809Y-101512142D01*
X30191190Y-101607380D01*
X30143571Y-101797857D01*
X30095952Y-101893095D01*
X30048333Y-101940714D01*
X29953095Y-101988333D01*
X29857857Y-101988333D01*
X29762619Y-101940714D01*
X29715000Y-101893095D01*
X29667380Y-101797857D01*
X29667380Y-101559761D01*
X29715000Y-101416904D01*
X29667380Y-101083571D02*
X30667380Y-100845476D01*
X29953095Y-100655000D01*
X30667380Y-100464523D01*
X29667380Y-100226428D01*
X29762619Y-99893095D02*
X29715000Y-99845476D01*
X29667380Y-99750238D01*
X29667380Y-99512142D01*
X29715000Y-99416904D01*
X29762619Y-99369285D01*
X29857857Y-99321666D01*
X29953095Y-99321666D01*
X30095952Y-99369285D01*
X30667380Y-99940714D01*
X30667380Y-99321666D01*
X21890714Y-93943571D02*
X22224047Y-93943571D01*
X22366904Y-94467380D02*
X21890714Y-94467380D01*
X21890714Y-93467380D01*
X22366904Y-93467380D01*
X22747857Y-94419761D02*
X22890714Y-94467380D01*
X23128809Y-94467380D01*
X23224047Y-94419761D01*
X23271666Y-94372142D01*
X23319285Y-94276904D01*
X23319285Y-94181666D01*
X23271666Y-94086428D01*
X23224047Y-94038809D01*
X23128809Y-93991190D01*
X22938333Y-93943571D01*
X22843095Y-93895952D01*
X22795476Y-93848333D01*
X22747857Y-93753095D01*
X22747857Y-93657857D01*
X22795476Y-93562619D01*
X22843095Y-93515000D01*
X22938333Y-93467380D01*
X23176428Y-93467380D01*
X23319285Y-93515000D01*
X23747857Y-94467380D02*
X23747857Y-93467380D01*
X24128809Y-93467380D01*
X24224047Y-93515000D01*
X24271666Y-93562619D01*
X24319285Y-93657857D01*
X24319285Y-93800714D01*
X24271666Y-93895952D01*
X24224047Y-93943571D01*
X24128809Y-93991190D01*
X23747857Y-93991190D01*
X25509761Y-94467380D02*
X25509761Y-93467380D01*
X25890714Y-93467380D01*
X25985952Y-93515000D01*
X26033571Y-93562619D01*
X26081190Y-93657857D01*
X26081190Y-93800714D01*
X26033571Y-93895952D01*
X25985952Y-93943571D01*
X25890714Y-93991190D01*
X25509761Y-93991190D01*
X26509761Y-94467380D02*
X26509761Y-93800714D01*
X26509761Y-93991190D02*
X26557380Y-93895952D01*
X26605000Y-93848333D01*
X26700238Y-93800714D01*
X26795476Y-93800714D01*
X27271666Y-94467380D02*
X27176428Y-94419761D01*
X27128809Y-94372142D01*
X27081190Y-94276904D01*
X27081190Y-93991190D01*
X27128809Y-93895952D01*
X27176428Y-93848333D01*
X27271666Y-93800714D01*
X27414523Y-93800714D01*
X27509761Y-93848333D01*
X27557380Y-93895952D01*
X27605000Y-93991190D01*
X27605000Y-94276904D01*
X27557380Y-94372142D01*
X27509761Y-94419761D01*
X27414523Y-94467380D01*
X27271666Y-94467380D01*
X28462142Y-93800714D02*
X28462142Y-94610238D01*
X28414523Y-94705476D01*
X28366904Y-94753095D01*
X28271666Y-94800714D01*
X28128809Y-94800714D01*
X28033571Y-94753095D01*
X28462142Y-94419761D02*
X28366904Y-94467380D01*
X28176428Y-94467380D01*
X28081190Y-94419761D01*
X28033571Y-94372142D01*
X27985952Y-94276904D01*
X27985952Y-93991190D01*
X28033571Y-93895952D01*
X28081190Y-93848333D01*
X28176428Y-93800714D01*
X28366904Y-93800714D01*
X28462142Y-93848333D01*
X28938333Y-94467380D02*
X28938333Y-93800714D01*
X28938333Y-93991190D02*
X28985952Y-93895952D01*
X29033571Y-93848333D01*
X29128809Y-93800714D01*
X29224047Y-93800714D01*
X29985952Y-94467380D02*
X29985952Y-93943571D01*
X29938333Y-93848333D01*
X29843095Y-93800714D01*
X29652619Y-93800714D01*
X29557380Y-93848333D01*
X29985952Y-94419761D02*
X29890714Y-94467380D01*
X29652619Y-94467380D01*
X29557380Y-94419761D01*
X29509761Y-94324523D01*
X29509761Y-94229285D01*
X29557380Y-94134047D01*
X29652619Y-94086428D01*
X29890714Y-94086428D01*
X29985952Y-94038809D01*
X30462142Y-94467380D02*
X30462142Y-93800714D01*
X30462142Y-93895952D02*
X30509761Y-93848333D01*
X30605000Y-93800714D01*
X30747857Y-93800714D01*
X30843095Y-93848333D01*
X30890714Y-93943571D01*
X30890714Y-94467380D01*
X30890714Y-93943571D02*
X30938333Y-93848333D01*
X31033571Y-93800714D01*
X31176428Y-93800714D01*
X31271666Y-93848333D01*
X31319285Y-93943571D01*
X31319285Y-94467380D01*
%TO.C,R4*%
X51588333Y-63227380D02*
X51255000Y-62751190D01*
X51016904Y-63227380D02*
X51016904Y-62227380D01*
X51397857Y-62227380D01*
X51493095Y-62275000D01*
X51540714Y-62322619D01*
X51588333Y-62417857D01*
X51588333Y-62560714D01*
X51540714Y-62655952D01*
X51493095Y-62703571D01*
X51397857Y-62751190D01*
X51016904Y-62751190D01*
X52445476Y-62560714D02*
X52445476Y-63227380D01*
X52207380Y-62179761D02*
X51969285Y-62894047D01*
X52588333Y-62894047D01*
%TO.C,C2*%
X93258333Y-55792142D02*
X93210714Y-55839761D01*
X93067857Y-55887380D01*
X92972619Y-55887380D01*
X92829761Y-55839761D01*
X92734523Y-55744523D01*
X92686904Y-55649285D01*
X92639285Y-55458809D01*
X92639285Y-55315952D01*
X92686904Y-55125476D01*
X92734523Y-55030238D01*
X92829761Y-54935000D01*
X92972619Y-54887380D01*
X93067857Y-54887380D01*
X93210714Y-54935000D01*
X93258333Y-54982619D01*
X93639285Y-54982619D02*
X93686904Y-54935000D01*
X93782142Y-54887380D01*
X94020238Y-54887380D01*
X94115476Y-54935000D01*
X94163095Y-54982619D01*
X94210714Y-55077857D01*
X94210714Y-55173095D01*
X94163095Y-55315952D01*
X93591666Y-55887380D01*
X94210714Y-55887380D01*
X82367380Y-55817380D02*
X81795952Y-55817380D01*
X82081666Y-55817380D02*
X82081666Y-54817380D01*
X81986428Y-54960238D01*
X81891190Y-55055476D01*
X81795952Y-55103095D01*
X82986428Y-54817380D02*
X83081666Y-54817380D01*
X83176904Y-54865000D01*
X83224523Y-54912619D01*
X83272142Y-55007857D01*
X83319761Y-55198333D01*
X83319761Y-55436428D01*
X83272142Y-55626904D01*
X83224523Y-55722142D01*
X83176904Y-55769761D01*
X83081666Y-55817380D01*
X82986428Y-55817380D01*
X82891190Y-55769761D01*
X82843571Y-55722142D01*
X82795952Y-55626904D01*
X82748333Y-55436428D01*
X82748333Y-55198333D01*
X82795952Y-55007857D01*
X82843571Y-54912619D01*
X82891190Y-54865000D01*
X82986428Y-54817380D01*
X83938809Y-54817380D02*
X84034047Y-54817380D01*
X84129285Y-54865000D01*
X84176904Y-54912619D01*
X84224523Y-55007857D01*
X84272142Y-55198333D01*
X84272142Y-55436428D01*
X84224523Y-55626904D01*
X84176904Y-55722142D01*
X84129285Y-55769761D01*
X84034047Y-55817380D01*
X83938809Y-55817380D01*
X83843571Y-55769761D01*
X83795952Y-55722142D01*
X83748333Y-55626904D01*
X83700714Y-55436428D01*
X83700714Y-55198333D01*
X83748333Y-55007857D01*
X83795952Y-54912619D01*
X83843571Y-54865000D01*
X83938809Y-54817380D01*
X84700714Y-55150714D02*
X84700714Y-55817380D01*
X84700714Y-55245952D02*
X84748333Y-55198333D01*
X84843571Y-55150714D01*
X84986428Y-55150714D01*
X85081666Y-55198333D01*
X85129285Y-55293571D01*
X85129285Y-55817380D01*
X85938809Y-55293571D02*
X85605476Y-55293571D01*
X85605476Y-55817380D02*
X85605476Y-54817380D01*
X86081666Y-54817380D01*
%TO.C,R10*%
X61502142Y-63227380D02*
X61168809Y-62751190D01*
X60930714Y-63227380D02*
X60930714Y-62227380D01*
X61311666Y-62227380D01*
X61406904Y-62275000D01*
X61454523Y-62322619D01*
X61502142Y-62417857D01*
X61502142Y-62560714D01*
X61454523Y-62655952D01*
X61406904Y-62703571D01*
X61311666Y-62751190D01*
X60930714Y-62751190D01*
X62454523Y-63227380D02*
X61883095Y-63227380D01*
X62168809Y-63227380D02*
X62168809Y-62227380D01*
X62073571Y-62370238D01*
X61978333Y-62465476D01*
X61883095Y-62513095D01*
X63073571Y-62227380D02*
X63168809Y-62227380D01*
X63264047Y-62275000D01*
X63311666Y-62322619D01*
X63359285Y-62417857D01*
X63406904Y-62608333D01*
X63406904Y-62846428D01*
X63359285Y-63036904D01*
X63311666Y-63132142D01*
X63264047Y-63179761D01*
X63168809Y-63227380D01*
X63073571Y-63227380D01*
X62978333Y-63179761D01*
X62930714Y-63132142D01*
X62883095Y-63036904D01*
X62835476Y-62846428D01*
X62835476Y-62608333D01*
X62883095Y-62417857D01*
X62930714Y-62322619D01*
X62978333Y-62275000D01*
X63073571Y-62227380D01*
%TO.C,R3*%
X51638333Y-52837380D02*
X51305000Y-52361190D01*
X51066904Y-52837380D02*
X51066904Y-51837380D01*
X51447857Y-51837380D01*
X51543095Y-51885000D01*
X51590714Y-51932619D01*
X51638333Y-52027857D01*
X51638333Y-52170714D01*
X51590714Y-52265952D01*
X51543095Y-52313571D01*
X51447857Y-52361190D01*
X51066904Y-52361190D01*
X51971666Y-51837380D02*
X52590714Y-51837380D01*
X52257380Y-52218333D01*
X52400238Y-52218333D01*
X52495476Y-52265952D01*
X52543095Y-52313571D01*
X52590714Y-52408809D01*
X52590714Y-52646904D01*
X52543095Y-52742142D01*
X52495476Y-52789761D01*
X52400238Y-52837380D01*
X52114523Y-52837380D01*
X52019285Y-52789761D01*
X51971666Y-52742142D01*
%TO.C,C3*%
X86290487Y-110524312D02*
X86242868Y-110571931D01*
X86100011Y-110619550D01*
X86004773Y-110619550D01*
X85861915Y-110571931D01*
X85766677Y-110476693D01*
X85719058Y-110381455D01*
X85671439Y-110190979D01*
X85671439Y-110048122D01*
X85719058Y-109857646D01*
X85766677Y-109762408D01*
X85861915Y-109667170D01*
X86004773Y-109619550D01*
X86100011Y-109619550D01*
X86242868Y-109667170D01*
X86290487Y-109714789D01*
X86623820Y-109619550D02*
X87242868Y-109619550D01*
X86909534Y-110000503D01*
X87052392Y-110000503D01*
X87147630Y-110048122D01*
X87195249Y-110095741D01*
X87242868Y-110190979D01*
X87242868Y-110429074D01*
X87195249Y-110524312D01*
X87147630Y-110571931D01*
X87052392Y-110619550D01*
X86766677Y-110619550D01*
X86671439Y-110571931D01*
X86623820Y-110524312D01*
X86017618Y-118827339D02*
X85446190Y-118827339D01*
X85731904Y-118827339D02*
X85731904Y-117827339D01*
X85636666Y-117970197D01*
X85541428Y-118065435D01*
X85446190Y-118113054D01*
X86874761Y-118160673D02*
X86874761Y-118827339D01*
X86446190Y-118160673D02*
X86446190Y-118684482D01*
X86493809Y-118779720D01*
X86589047Y-118827339D01*
X86731904Y-118827339D01*
X86827142Y-118779720D01*
X86874761Y-118732101D01*
X87684285Y-118303530D02*
X87350952Y-118303530D01*
X87350952Y-118827339D02*
X87350952Y-117827339D01*
X87827142Y-117827339D01*
%TO.C,D1*%
X56206904Y-75237380D02*
X56206904Y-74237380D01*
X56445000Y-74237380D01*
X56587857Y-74285000D01*
X56683095Y-74380238D01*
X56730714Y-74475476D01*
X56778333Y-74665952D01*
X56778333Y-74808809D01*
X56730714Y-74999285D01*
X56683095Y-75094523D01*
X56587857Y-75189761D01*
X56445000Y-75237380D01*
X56206904Y-75237380D01*
X57730714Y-75237380D02*
X57159285Y-75237380D01*
X57445000Y-75237380D02*
X57445000Y-74237380D01*
X57349761Y-74380238D01*
X57254523Y-74475476D01*
X57159285Y-74523095D01*
%TO.C,Q4*%
X69172619Y-66565238D02*
X69125000Y-66660476D01*
X69029761Y-66755714D01*
X68886904Y-66898571D01*
X68839285Y-66993809D01*
X68839285Y-67089047D01*
X69077380Y-67041428D02*
X69029761Y-67136666D01*
X68934523Y-67231904D01*
X68744047Y-67279523D01*
X68410714Y-67279523D01*
X68220238Y-67231904D01*
X68125000Y-67136666D01*
X68077380Y-67041428D01*
X68077380Y-66850952D01*
X68125000Y-66755714D01*
X68220238Y-66660476D01*
X68410714Y-66612857D01*
X68744047Y-66612857D01*
X68934523Y-66660476D01*
X69029761Y-66755714D01*
X69077380Y-66850952D01*
X69077380Y-67041428D01*
X68410714Y-65755714D02*
X69077380Y-65755714D01*
X68029761Y-65993809D02*
X68744047Y-66231904D01*
X68744047Y-65612857D01*
%TO.C,J7*%
X116872804Y-68290240D02*
X116872804Y-69004526D01*
X116825185Y-69147383D01*
X116729947Y-69242621D01*
X116587090Y-69290240D01*
X116491852Y-69290240D01*
X117253757Y-68290240D02*
X117920423Y-68290240D01*
X117491852Y-69290240D01*
X110257798Y-76398025D02*
X109924465Y-75921835D01*
X109686370Y-76398025D02*
X109686370Y-75398025D01*
X110067322Y-75398025D01*
X110162560Y-75445645D01*
X110210179Y-75493264D01*
X110257798Y-75588502D01*
X110257798Y-75731359D01*
X110210179Y-75826597D01*
X110162560Y-75874216D01*
X110067322Y-75921835D01*
X109686370Y-75921835D01*
X111019703Y-75874216D02*
X110686370Y-75874216D01*
X110686370Y-76398025D02*
X110686370Y-75398025D01*
X111162560Y-75398025D01*
X111305417Y-76493264D02*
X112067322Y-76493264D01*
X112495893Y-75398025D02*
X112686370Y-75398025D01*
X112781608Y-75445645D01*
X112876846Y-75540883D01*
X112924465Y-75731359D01*
X112924465Y-76064692D01*
X112876846Y-76255168D01*
X112781608Y-76350406D01*
X112686370Y-76398025D01*
X112495893Y-76398025D01*
X112400655Y-76350406D01*
X112305417Y-76255168D01*
X112257798Y-76064692D01*
X112257798Y-75731359D01*
X112305417Y-75540883D01*
X112400655Y-75445645D01*
X112495893Y-75398025D01*
X113353036Y-75398025D02*
X113353036Y-76207549D01*
X113400655Y-76302787D01*
X113448274Y-76350406D01*
X113543512Y-76398025D01*
X113733989Y-76398025D01*
X113829227Y-76350406D01*
X113876846Y-76302787D01*
X113924465Y-76207549D01*
X113924465Y-75398025D01*
X114257798Y-75398025D02*
X114829227Y-75398025D01*
X114543512Y-76398025D02*
X114543512Y-75398025D01*
%TO.C,R14*%
X46962142Y-75187380D02*
X46628809Y-74711190D01*
X46390714Y-75187380D02*
X46390714Y-74187380D01*
X46771666Y-74187380D01*
X46866904Y-74235000D01*
X46914523Y-74282619D01*
X46962142Y-74377857D01*
X46962142Y-74520714D01*
X46914523Y-74615952D01*
X46866904Y-74663571D01*
X46771666Y-74711190D01*
X46390714Y-74711190D01*
X47914523Y-75187380D02*
X47343095Y-75187380D01*
X47628809Y-75187380D02*
X47628809Y-74187380D01*
X47533571Y-74330238D01*
X47438333Y-74425476D01*
X47343095Y-74473095D01*
X48771666Y-74520714D02*
X48771666Y-75187380D01*
X48533571Y-74139761D02*
X48295476Y-74854047D01*
X48914523Y-74854047D01*
X50276428Y-75137380D02*
X49705000Y-75137380D01*
X49990714Y-75137380D02*
X49990714Y-74137380D01*
X49895476Y-74280238D01*
X49800238Y-74375476D01*
X49705000Y-74423095D01*
X50705000Y-75042142D02*
X50752619Y-75089761D01*
X50705000Y-75137380D01*
X50657380Y-75089761D01*
X50705000Y-75042142D01*
X50705000Y-75137380D01*
X51705000Y-75137380D02*
X51133571Y-75137380D01*
X51419285Y-75137380D02*
X51419285Y-74137380D01*
X51324047Y-74280238D01*
X51228809Y-74375476D01*
X51133571Y-74423095D01*
X52133571Y-75137380D02*
X52133571Y-74137380D01*
X52705000Y-75137380D02*
X52276428Y-74565952D01*
X52705000Y-74137380D02*
X52133571Y-74708809D01*
%TO.C,C4*%
X70948333Y-113102142D02*
X70900714Y-113149761D01*
X70757857Y-113197380D01*
X70662619Y-113197380D01*
X70519761Y-113149761D01*
X70424523Y-113054523D01*
X70376904Y-112959285D01*
X70329285Y-112768809D01*
X70329285Y-112625952D01*
X70376904Y-112435476D01*
X70424523Y-112340238D01*
X70519761Y-112245000D01*
X70662619Y-112197380D01*
X70757857Y-112197380D01*
X70900714Y-112245000D01*
X70948333Y-112292619D01*
X71805476Y-112530714D02*
X71805476Y-113197380D01*
X71567380Y-112149761D02*
X71329285Y-112864047D01*
X71948333Y-112864047D01*
X66332142Y-118287380D02*
X66427380Y-118287380D01*
X66522619Y-118335000D01*
X66570238Y-118382619D01*
X66617857Y-118477857D01*
X66665476Y-118668333D01*
X66665476Y-118906428D01*
X66617857Y-119096904D01*
X66570238Y-119192142D01*
X66522619Y-119239761D01*
X66427380Y-119287380D01*
X66332142Y-119287380D01*
X66236904Y-119239761D01*
X66189285Y-119192142D01*
X66141666Y-119096904D01*
X66094047Y-118906428D01*
X66094047Y-118668333D01*
X66141666Y-118477857D01*
X66189285Y-118382619D01*
X66236904Y-118335000D01*
X66332142Y-118287380D01*
X67094047Y-119192142D02*
X67141666Y-119239761D01*
X67094047Y-119287380D01*
X67046428Y-119239761D01*
X67094047Y-119192142D01*
X67094047Y-119287380D01*
X68094047Y-119287380D02*
X67522619Y-119287380D01*
X67808333Y-119287380D02*
X67808333Y-118287380D01*
X67713095Y-118430238D01*
X67617857Y-118525476D01*
X67522619Y-118573095D01*
X68951190Y-118620714D02*
X68951190Y-119287380D01*
X68522619Y-118620714D02*
X68522619Y-119144523D01*
X68570238Y-119239761D01*
X68665476Y-119287380D01*
X68808333Y-119287380D01*
X68903571Y-119239761D01*
X68951190Y-119192142D01*
X69760714Y-118763571D02*
X69427380Y-118763571D01*
X69427380Y-119287380D02*
X69427380Y-118287380D01*
X69903571Y-118287380D01*
%TO.C,J1*%
X25551666Y-67577380D02*
X25551666Y-68291666D01*
X25504047Y-68434523D01*
X25408809Y-68529761D01*
X25265952Y-68577380D01*
X25170714Y-68577380D01*
X26551666Y-68577380D02*
X25980238Y-68577380D01*
X26265952Y-68577380D02*
X26265952Y-67577380D01*
X26170714Y-67720238D01*
X26075476Y-67815476D01*
X25980238Y-67863095D01*
%TO.C,D2*%
X56226904Y-73627380D02*
X56226904Y-72627380D01*
X56465000Y-72627380D01*
X56607857Y-72675000D01*
X56703095Y-72770238D01*
X56750714Y-72865476D01*
X56798333Y-73055952D01*
X56798333Y-73198809D01*
X56750714Y-73389285D01*
X56703095Y-73484523D01*
X56607857Y-73579761D01*
X56465000Y-73627380D01*
X56226904Y-73627380D01*
X57179285Y-72722619D02*
X57226904Y-72675000D01*
X57322142Y-72627380D01*
X57560238Y-72627380D01*
X57655476Y-72675000D01*
X57703095Y-72722619D01*
X57750714Y-72817857D01*
X57750714Y-72913095D01*
X57703095Y-73055952D01*
X57131666Y-73627380D01*
X57750714Y-73627380D01*
%TO.C,C1*%
X93198333Y-52512142D02*
X93150714Y-52559761D01*
X93007857Y-52607380D01*
X92912619Y-52607380D01*
X92769761Y-52559761D01*
X92674523Y-52464523D01*
X92626904Y-52369285D01*
X92579285Y-52178809D01*
X92579285Y-52035952D01*
X92626904Y-51845476D01*
X92674523Y-51750238D01*
X92769761Y-51655000D01*
X92912619Y-51607380D01*
X93007857Y-51607380D01*
X93150714Y-51655000D01*
X93198333Y-51702619D01*
X94150714Y-52607380D02*
X93579285Y-52607380D01*
X93865000Y-52607380D02*
X93865000Y-51607380D01*
X93769761Y-51750238D01*
X93674523Y-51845476D01*
X93579285Y-51893095D01*
%TO.C,Q1*%
X58282619Y-66580238D02*
X58235000Y-66675476D01*
X58139761Y-66770714D01*
X57996904Y-66913571D01*
X57949285Y-67008809D01*
X57949285Y-67104047D01*
X58187380Y-67056428D02*
X58139761Y-67151666D01*
X58044523Y-67246904D01*
X57854047Y-67294523D01*
X57520714Y-67294523D01*
X57330238Y-67246904D01*
X57235000Y-67151666D01*
X57187380Y-67056428D01*
X57187380Y-66865952D01*
X57235000Y-66770714D01*
X57330238Y-66675476D01*
X57520714Y-66627857D01*
X57854047Y-66627857D01*
X58044523Y-66675476D01*
X58139761Y-66770714D01*
X58187380Y-66865952D01*
X58187380Y-67056428D01*
X58187380Y-65675476D02*
X58187380Y-66246904D01*
X58187380Y-65961190D02*
X57187380Y-65961190D01*
X57330238Y-66056428D01*
X57425476Y-66151666D01*
X57473095Y-66246904D01*
%TO.C,D3*%
X56196904Y-71767380D02*
X56196904Y-70767380D01*
X56435000Y-70767380D01*
X56577857Y-70815000D01*
X56673095Y-70910238D01*
X56720714Y-71005476D01*
X56768333Y-71195952D01*
X56768333Y-71338809D01*
X56720714Y-71529285D01*
X56673095Y-71624523D01*
X56577857Y-71719761D01*
X56435000Y-71767380D01*
X56196904Y-71767380D01*
X57101666Y-70767380D02*
X57720714Y-70767380D01*
X57387380Y-71148333D01*
X57530238Y-71148333D01*
X57625476Y-71195952D01*
X57673095Y-71243571D01*
X57720714Y-71338809D01*
X57720714Y-71576904D01*
X57673095Y-71672142D01*
X57625476Y-71719761D01*
X57530238Y-71767380D01*
X57244523Y-71767380D01*
X57149285Y-71719761D01*
X57101666Y-71672142D01*
%TO.C,J3*%
X104927380Y-35838333D02*
X105641666Y-35838333D01*
X105784523Y-35885952D01*
X105879761Y-35981190D01*
X105927380Y-36124047D01*
X105927380Y-36219285D01*
X104927380Y-35457380D02*
X104927380Y-34838333D01*
X105308333Y-35171666D01*
X105308333Y-35028809D01*
X105355952Y-34933571D01*
X105403571Y-34885952D01*
X105498809Y-34838333D01*
X105736904Y-34838333D01*
X105832142Y-34885952D01*
X105879761Y-34933571D01*
X105927380Y-35028809D01*
X105927380Y-35314523D01*
X105879761Y-35409761D01*
X105832142Y-35457380D01*
%TO.C,R15*%
X46972142Y-73517380D02*
X46638809Y-73041190D01*
X46400714Y-73517380D02*
X46400714Y-72517380D01*
X46781666Y-72517380D01*
X46876904Y-72565000D01*
X46924523Y-72612619D01*
X46972142Y-72707857D01*
X46972142Y-72850714D01*
X46924523Y-72945952D01*
X46876904Y-72993571D01*
X46781666Y-73041190D01*
X46400714Y-73041190D01*
X47924523Y-73517380D02*
X47353095Y-73517380D01*
X47638809Y-73517380D02*
X47638809Y-72517380D01*
X47543571Y-72660238D01*
X47448333Y-72755476D01*
X47353095Y-72803095D01*
X48829285Y-72517380D02*
X48353095Y-72517380D01*
X48305476Y-72993571D01*
X48353095Y-72945952D01*
X48448333Y-72898333D01*
X48686428Y-72898333D01*
X48781666Y-72945952D01*
X48829285Y-72993571D01*
X48876904Y-73088809D01*
X48876904Y-73326904D01*
X48829285Y-73422142D01*
X48781666Y-73469761D01*
X48686428Y-73517380D01*
X48448333Y-73517380D01*
X48353095Y-73469761D01*
X48305476Y-73422142D01*
X50256428Y-73527380D02*
X49685000Y-73527380D01*
X49970714Y-73527380D02*
X49970714Y-72527380D01*
X49875476Y-72670238D01*
X49780238Y-72765476D01*
X49685000Y-72813095D01*
X50685000Y-73432142D02*
X50732619Y-73479761D01*
X50685000Y-73527380D01*
X50637380Y-73479761D01*
X50685000Y-73432142D01*
X50685000Y-73527380D01*
X51685000Y-73527380D02*
X51113571Y-73527380D01*
X51399285Y-73527380D02*
X51399285Y-72527380D01*
X51304047Y-72670238D01*
X51208809Y-72765476D01*
X51113571Y-72813095D01*
X52113571Y-73527380D02*
X52113571Y-72527380D01*
X52685000Y-73527380D02*
X52256428Y-72955952D01*
X52685000Y-72527380D02*
X52113571Y-73098809D01*
%TO.C,J8*%
X22711666Y-84157380D02*
X22711666Y-84871666D01*
X22664047Y-85014523D01*
X22568809Y-85109761D01*
X22425952Y-85157380D01*
X22330714Y-85157380D01*
X23330714Y-84585952D02*
X23235476Y-84538333D01*
X23187857Y-84490714D01*
X23140238Y-84395476D01*
X23140238Y-84347857D01*
X23187857Y-84252619D01*
X23235476Y-84205000D01*
X23330714Y-84157380D01*
X23521190Y-84157380D01*
X23616428Y-84205000D01*
X23664047Y-84252619D01*
X23711666Y-84347857D01*
X23711666Y-84395476D01*
X23664047Y-84490714D01*
X23616428Y-84538333D01*
X23521190Y-84585952D01*
X23330714Y-84585952D01*
X23235476Y-84633571D01*
X23187857Y-84681190D01*
X23140238Y-84776428D01*
X23140238Y-84966904D01*
X23187857Y-85062142D01*
X23235476Y-85109761D01*
X23330714Y-85157380D01*
X23521190Y-85157380D01*
X23616428Y-85109761D01*
X23664047Y-85062142D01*
X23711666Y-84966904D01*
X23711666Y-84776428D01*
X23664047Y-84681190D01*
X23616428Y-84633571D01*
X23521190Y-84585952D01*
%TO.C,J6*%
X77606884Y-55718398D02*
X77606884Y-56432684D01*
X77559265Y-56575541D01*
X77464027Y-56670779D01*
X77321170Y-56718398D01*
X77225932Y-56718398D01*
X78511646Y-55718398D02*
X78321170Y-55718398D01*
X78225932Y-55766018D01*
X78178313Y-55813637D01*
X78083075Y-55956494D01*
X78035456Y-56146970D01*
X78035456Y-56527922D01*
X78083075Y-56623160D01*
X78130694Y-56670779D01*
X78225932Y-56718398D01*
X78416408Y-56718398D01*
X78511646Y-56670779D01*
X78559265Y-56623160D01*
X78606884Y-56527922D01*
X78606884Y-56289827D01*
X78559265Y-56194589D01*
X78511646Y-56146970D01*
X78416408Y-56099351D01*
X78225932Y-56099351D01*
X78130694Y-56146970D01*
X78083075Y-56194589D01*
X78035456Y-56289827D01*
X71792142Y-55057380D02*
X71458809Y-54581190D01*
X71220714Y-55057380D02*
X71220714Y-54057380D01*
X71601666Y-54057380D01*
X71696904Y-54105000D01*
X71744523Y-54152619D01*
X71792142Y-54247857D01*
X71792142Y-54390714D01*
X71744523Y-54485952D01*
X71696904Y-54533571D01*
X71601666Y-54581190D01*
X71220714Y-54581190D01*
X72554047Y-54533571D02*
X72220714Y-54533571D01*
X72220714Y-55057380D02*
X72220714Y-54057380D01*
X72696904Y-54057380D01*
X72839761Y-55152619D02*
X73601666Y-55152619D01*
X73839761Y-55057380D02*
X73839761Y-54057380D01*
X73839761Y-54533571D02*
X74411190Y-54533571D01*
X74411190Y-55057380D02*
X74411190Y-54057380D01*
X74887380Y-55057380D02*
X74887380Y-54057380D01*
X75125476Y-55152619D02*
X75887380Y-55152619D01*
X76601666Y-55057380D02*
X76125476Y-55057380D01*
X76125476Y-54057380D01*
X77125476Y-54057380D02*
X77315952Y-54057380D01*
X77411190Y-54105000D01*
X77506428Y-54200238D01*
X77554047Y-54390714D01*
X77554047Y-54724047D01*
X77506428Y-54914523D01*
X77411190Y-55009761D01*
X77315952Y-55057380D01*
X77125476Y-55057380D01*
X77030238Y-55009761D01*
X76935000Y-54914523D01*
X76887380Y-54724047D01*
X76887380Y-54390714D01*
X76935000Y-54200238D01*
X77030238Y-54105000D01*
X77125476Y-54057380D01*
X77887380Y-54057380D02*
X78125476Y-55057380D01*
X78315952Y-54343095D01*
X78506428Y-55057380D01*
X78744523Y-54057380D01*
%TO.C,J4*%
X25221666Y-37117380D02*
X25221666Y-37831666D01*
X25174047Y-37974523D01*
X25078809Y-38069761D01*
X24935952Y-38117380D01*
X24840714Y-38117380D01*
X26126428Y-37450714D02*
X26126428Y-38117380D01*
X25888333Y-37069761D02*
X25650238Y-37784047D01*
X26269285Y-37784047D01*
%TO.C,Q2*%
X58242619Y-56219238D02*
X58195000Y-56314476D01*
X58099761Y-56409714D01*
X57956904Y-56552571D01*
X57909285Y-56647809D01*
X57909285Y-56743047D01*
X58147380Y-56695428D02*
X58099761Y-56790666D01*
X58004523Y-56885904D01*
X57814047Y-56933523D01*
X57480714Y-56933523D01*
X57290238Y-56885904D01*
X57195000Y-56790666D01*
X57147380Y-56695428D01*
X57147380Y-56504952D01*
X57195000Y-56409714D01*
X57290238Y-56314476D01*
X57480714Y-56266857D01*
X57814047Y-56266857D01*
X58004523Y-56314476D01*
X58099761Y-56409714D01*
X58147380Y-56504952D01*
X58147380Y-56695428D01*
X57242619Y-55885904D02*
X57195000Y-55838285D01*
X57147380Y-55743047D01*
X57147380Y-55504952D01*
X57195000Y-55409714D01*
X57242619Y-55362095D01*
X57337857Y-55314476D01*
X57433095Y-55314476D01*
X57575952Y-55362095D01*
X58147380Y-55933523D01*
X58147380Y-55314476D01*
%TO.C,U1*%
X81023717Y-93402646D02*
X81833763Y-93402646D01*
X81929063Y-93354997D01*
X81976713Y-93307347D01*
X82024363Y-93212047D01*
X82024363Y-93021448D01*
X81976713Y-92926148D01*
X81929063Y-92878499D01*
X81833763Y-92830849D01*
X81023717Y-92830849D01*
X82024363Y-91830203D02*
X82024363Y-92402000D01*
X82024363Y-92116102D02*
X81023717Y-92116102D01*
X81166666Y-92211401D01*
X81261966Y-92306701D01*
X81309616Y-92402000D01*
%TO.C,FL1*%
X113216904Y-62613571D02*
X112883571Y-62613571D01*
X112883571Y-63137380D02*
X112883571Y-62137380D01*
X113359761Y-62137380D01*
X114216904Y-63137380D02*
X113740714Y-63137380D01*
X113740714Y-62137380D01*
X115074047Y-63137380D02*
X114502619Y-63137380D01*
X114788333Y-63137380D02*
X114788333Y-62137380D01*
X114693095Y-62280238D01*
X114597857Y-62375476D01*
X114502619Y-62423095D01*
X107524523Y-60697380D02*
X107048333Y-60697380D01*
X107048333Y-59697380D01*
X108191190Y-60173571D02*
X107857857Y-60173571D01*
X107857857Y-60697380D02*
X107857857Y-59697380D01*
X108334047Y-59697380D01*
X109286428Y-60602142D02*
X109238809Y-60649761D01*
X109095952Y-60697380D01*
X109000714Y-60697380D01*
X108857857Y-60649761D01*
X108762619Y-60554523D01*
X108715000Y-60459285D01*
X108667380Y-60268809D01*
X108667380Y-60125952D01*
X108715000Y-59935476D01*
X108762619Y-59840238D01*
X108857857Y-59745000D01*
X109000714Y-59697380D01*
X109095952Y-59697380D01*
X109238809Y-59745000D01*
X109286428Y-59792619D01*
X109715000Y-60697380D02*
X109715000Y-59697380D01*
X110286428Y-60697380D01*
X110286428Y-59697380D01*
X110762619Y-60316428D02*
X111524523Y-60316428D01*
X112524523Y-60697380D02*
X111953095Y-60697380D01*
X112238809Y-60697380D02*
X112238809Y-59697380D01*
X112143571Y-59840238D01*
X112048333Y-59935476D01*
X111953095Y-59983095D01*
X113381666Y-59697380D02*
X113191190Y-59697380D01*
X113095952Y-59745000D01*
X113048333Y-59792619D01*
X112953095Y-59935476D01*
X112905476Y-60125952D01*
X112905476Y-60506904D01*
X112953095Y-60602142D01*
X113000714Y-60649761D01*
X113095952Y-60697380D01*
X113286428Y-60697380D01*
X113381666Y-60649761D01*
X113429285Y-60602142D01*
X113476904Y-60506904D01*
X113476904Y-60268809D01*
X113429285Y-60173571D01*
X113381666Y-60125952D01*
X113286428Y-60078333D01*
X113095952Y-60078333D01*
X113000714Y-60125952D01*
X112953095Y-60173571D01*
X112905476Y-60268809D01*
X114095952Y-59697380D02*
X114191190Y-59697380D01*
X114286428Y-59745000D01*
X114334047Y-59792619D01*
X114381666Y-59887857D01*
X114429285Y-60078333D01*
X114429285Y-60316428D01*
X114381666Y-60506904D01*
X114334047Y-60602142D01*
X114286428Y-60649761D01*
X114191190Y-60697380D01*
X114095952Y-60697380D01*
X114000714Y-60649761D01*
X113953095Y-60602142D01*
X113905476Y-60506904D01*
X113857857Y-60316428D01*
X113857857Y-60078333D01*
X113905476Y-59887857D01*
X113953095Y-59792619D01*
X114000714Y-59745000D01*
X114095952Y-59697380D01*
%TO.C,J2*%
X25391666Y-56092380D02*
X25391666Y-56806666D01*
X25344047Y-56949523D01*
X25248809Y-57044761D01*
X25105952Y-57092380D01*
X25010714Y-57092380D01*
X25820238Y-56187619D02*
X25867857Y-56140000D01*
X25963095Y-56092380D01*
X26201190Y-56092380D01*
X26296428Y-56140000D01*
X26344047Y-56187619D01*
X26391666Y-56282857D01*
X26391666Y-56378095D01*
X26344047Y-56520952D01*
X25772619Y-57092380D01*
X26391666Y-57092380D01*
%TO.C,C5*%
X63458333Y-111702142D02*
X63410714Y-111749761D01*
X63267857Y-111797380D01*
X63172619Y-111797380D01*
X63029761Y-111749761D01*
X62934523Y-111654523D01*
X62886904Y-111559285D01*
X62839285Y-111368809D01*
X62839285Y-111225952D01*
X62886904Y-111035476D01*
X62934523Y-110940238D01*
X63029761Y-110845000D01*
X63172619Y-110797380D01*
X63267857Y-110797380D01*
X63410714Y-110845000D01*
X63458333Y-110892619D01*
X64363095Y-110797380D02*
X63886904Y-110797380D01*
X63839285Y-111273571D01*
X63886904Y-111225952D01*
X63982142Y-111178333D01*
X64220238Y-111178333D01*
X64315476Y-111225952D01*
X64363095Y-111273571D01*
X64410714Y-111368809D01*
X64410714Y-111606904D01*
X64363095Y-111702142D01*
X64315476Y-111749761D01*
X64220238Y-111797380D01*
X63982142Y-111797380D01*
X63886904Y-111749761D01*
X63839285Y-111702142D01*
X61952142Y-118412619D02*
X61999761Y-118365000D01*
X62095000Y-118317380D01*
X62333095Y-118317380D01*
X62428333Y-118365000D01*
X62475952Y-118412619D01*
X62523571Y-118507857D01*
X62523571Y-118603095D01*
X62475952Y-118745952D01*
X61904523Y-119317380D01*
X62523571Y-119317380D01*
X62904523Y-118412619D02*
X62952142Y-118365000D01*
X63047380Y-118317380D01*
X63285476Y-118317380D01*
X63380714Y-118365000D01*
X63428333Y-118412619D01*
X63475952Y-118507857D01*
X63475952Y-118603095D01*
X63428333Y-118745952D01*
X62856904Y-119317380D01*
X63475952Y-119317380D01*
X64333095Y-118650714D02*
X64333095Y-119317380D01*
X63904523Y-118650714D02*
X63904523Y-119174523D01*
X63952142Y-119269761D01*
X64047380Y-119317380D01*
X64190238Y-119317380D01*
X64285476Y-119269761D01*
X64333095Y-119222142D01*
X65142619Y-118793571D02*
X64809285Y-118793571D01*
X64809285Y-119317380D02*
X64809285Y-118317380D01*
X65285476Y-118317380D01*
%TO.C,U2*%
X50507820Y-97446308D02*
X50507820Y-98255832D01*
X50555439Y-98351070D01*
X50603058Y-98398689D01*
X50698296Y-98446308D01*
X50888772Y-98446308D01*
X50984010Y-98398689D01*
X51031629Y-98351070D01*
X51079248Y-98255832D01*
X51079248Y-97446308D01*
X51507820Y-97541547D02*
X51555439Y-97493928D01*
X51650677Y-97446308D01*
X51888772Y-97446308D01*
X51984010Y-97493928D01*
X52031629Y-97541547D01*
X52079248Y-97636785D01*
X52079248Y-97732023D01*
X52031629Y-97874880D01*
X51460201Y-98446308D01*
X52079248Y-98446308D01*
%TO.C,R9*%
X82868333Y-104737380D02*
X82535000Y-104261190D01*
X82296904Y-104737380D02*
X82296904Y-103737380D01*
X82677857Y-103737380D01*
X82773095Y-103785000D01*
X82820714Y-103832619D01*
X82868333Y-103927857D01*
X82868333Y-104070714D01*
X82820714Y-104165952D01*
X82773095Y-104213571D01*
X82677857Y-104261190D01*
X82296904Y-104261190D01*
X83344523Y-104737380D02*
X83535000Y-104737380D01*
X83630238Y-104689761D01*
X83677857Y-104642142D01*
X83773095Y-104499285D01*
X83820714Y-104308809D01*
X83820714Y-103927857D01*
X83773095Y-103832619D01*
X83725476Y-103785000D01*
X83630238Y-103737380D01*
X83439761Y-103737380D01*
X83344523Y-103785000D01*
X83296904Y-103832619D01*
X83249285Y-103927857D01*
X83249285Y-104165952D01*
X83296904Y-104261190D01*
X83344523Y-104308809D01*
X83439761Y-104356428D01*
X83630238Y-104356428D01*
X83725476Y-104308809D01*
X83773095Y-104261190D01*
X83820714Y-104165952D01*
X71546904Y-103782619D02*
X71594523Y-103735000D01*
X71689761Y-103687380D01*
X71927857Y-103687380D01*
X72023095Y-103735000D01*
X72070714Y-103782619D01*
X72118333Y-103877857D01*
X72118333Y-103973095D01*
X72070714Y-104115952D01*
X71499285Y-104687380D01*
X72118333Y-104687380D01*
X72451666Y-103687380D02*
X73118333Y-103687380D01*
X72689761Y-104687380D01*
X73689761Y-103687380D02*
X73785000Y-103687380D01*
X73880238Y-103735000D01*
X73927857Y-103782619D01*
X73975476Y-103877857D01*
X74023095Y-104068333D01*
X74023095Y-104306428D01*
X73975476Y-104496904D01*
X73927857Y-104592142D01*
X73880238Y-104639761D01*
X73785000Y-104687380D01*
X73689761Y-104687380D01*
X73594523Y-104639761D01*
X73546904Y-104592142D01*
X73499285Y-104496904D01*
X73451666Y-104306428D01*
X73451666Y-104068333D01*
X73499285Y-103877857D01*
X73546904Y-103782619D01*
X73594523Y-103735000D01*
X73689761Y-103687380D01*
X75023095Y-104687380D02*
X74689761Y-104211190D01*
X74451666Y-104687380D02*
X74451666Y-103687380D01*
X74832619Y-103687380D01*
X74927857Y-103735000D01*
X74975476Y-103782619D01*
X75023095Y-103877857D01*
X75023095Y-104020714D01*
X74975476Y-104115952D01*
X74927857Y-104163571D01*
X74832619Y-104211190D01*
X74451666Y-104211190D01*
%TO.C,R11*%
X81412142Y-75587380D02*
X81078809Y-75111190D01*
X80840714Y-75587380D02*
X80840714Y-74587380D01*
X81221666Y-74587380D01*
X81316904Y-74635000D01*
X81364523Y-74682619D01*
X81412142Y-74777857D01*
X81412142Y-74920714D01*
X81364523Y-75015952D01*
X81316904Y-75063571D01*
X81221666Y-75111190D01*
X80840714Y-75111190D01*
X82364523Y-75587380D02*
X81793095Y-75587380D01*
X82078809Y-75587380D02*
X82078809Y-74587380D01*
X81983571Y-74730238D01*
X81888333Y-74825476D01*
X81793095Y-74873095D01*
X83316904Y-75587380D02*
X82745476Y-75587380D01*
X83031190Y-75587380D02*
X83031190Y-74587380D01*
X82935952Y-74730238D01*
X82840714Y-74825476D01*
X82745476Y-74873095D01*
%TO.C,C6*%
X82928333Y-101432142D02*
X82880714Y-101479761D01*
X82737857Y-101527380D01*
X82642619Y-101527380D01*
X82499761Y-101479761D01*
X82404523Y-101384523D01*
X82356904Y-101289285D01*
X82309285Y-101098809D01*
X82309285Y-100955952D01*
X82356904Y-100765476D01*
X82404523Y-100670238D01*
X82499761Y-100575000D01*
X82642619Y-100527380D01*
X82737857Y-100527380D01*
X82880714Y-100575000D01*
X82928333Y-100622619D01*
X83785476Y-100527380D02*
X83595000Y-100527380D01*
X83499761Y-100575000D01*
X83452142Y-100622619D01*
X83356904Y-100765476D01*
X83309285Y-100955952D01*
X83309285Y-101336904D01*
X83356904Y-101432142D01*
X83404523Y-101479761D01*
X83499761Y-101527380D01*
X83690238Y-101527380D01*
X83785476Y-101479761D01*
X83833095Y-101432142D01*
X83880714Y-101336904D01*
X83880714Y-101098809D01*
X83833095Y-101003571D01*
X83785476Y-100955952D01*
X83690238Y-100908333D01*
X83499761Y-100908333D01*
X83404523Y-100955952D01*
X83356904Y-101003571D01*
X83309285Y-101098809D01*
%TO.C,R16*%
X46972142Y-71687380D02*
X46638809Y-71211190D01*
X46400714Y-71687380D02*
X46400714Y-70687380D01*
X46781666Y-70687380D01*
X46876904Y-70735000D01*
X46924523Y-70782619D01*
X46972142Y-70877857D01*
X46972142Y-71020714D01*
X46924523Y-71115952D01*
X46876904Y-71163571D01*
X46781666Y-71211190D01*
X46400714Y-71211190D01*
X47924523Y-71687380D02*
X47353095Y-71687380D01*
X47638809Y-71687380D02*
X47638809Y-70687380D01*
X47543571Y-70830238D01*
X47448333Y-70925476D01*
X47353095Y-70973095D01*
X48781666Y-70687380D02*
X48591190Y-70687380D01*
X48495952Y-70735000D01*
X48448333Y-70782619D01*
X48353095Y-70925476D01*
X48305476Y-71115952D01*
X48305476Y-71496904D01*
X48353095Y-71592142D01*
X48400714Y-71639761D01*
X48495952Y-71687380D01*
X48686428Y-71687380D01*
X48781666Y-71639761D01*
X48829285Y-71592142D01*
X48876904Y-71496904D01*
X48876904Y-71258809D01*
X48829285Y-71163571D01*
X48781666Y-71115952D01*
X48686428Y-71068333D01*
X48495952Y-71068333D01*
X48400714Y-71115952D01*
X48353095Y-71163571D01*
X48305476Y-71258809D01*
X50276428Y-71687380D02*
X49705000Y-71687380D01*
X49990714Y-71687380D02*
X49990714Y-70687380D01*
X49895476Y-70830238D01*
X49800238Y-70925476D01*
X49705000Y-70973095D01*
X50705000Y-71592142D02*
X50752619Y-71639761D01*
X50705000Y-71687380D01*
X50657380Y-71639761D01*
X50705000Y-71592142D01*
X50705000Y-71687380D01*
X51705000Y-71687380D02*
X51133571Y-71687380D01*
X51419285Y-71687380D02*
X51419285Y-70687380D01*
X51324047Y-70830238D01*
X51228809Y-70925476D01*
X51133571Y-70973095D01*
X52133571Y-71687380D02*
X52133571Y-70687380D01*
X52705000Y-71687380D02*
X52276428Y-71115952D01*
X52705000Y-70687380D02*
X52133571Y-71258809D01*
%TO.C,R13*%
X27122142Y-37167380D02*
X26788809Y-36691190D01*
X26550714Y-37167380D02*
X26550714Y-36167380D01*
X26931666Y-36167380D01*
X27026904Y-36215000D01*
X27074523Y-36262619D01*
X27122142Y-36357857D01*
X27122142Y-36500714D01*
X27074523Y-36595952D01*
X27026904Y-36643571D01*
X26931666Y-36691190D01*
X26550714Y-36691190D01*
X28074523Y-37167380D02*
X27503095Y-37167380D01*
X27788809Y-37167380D02*
X27788809Y-36167380D01*
X27693571Y-36310238D01*
X27598333Y-36405476D01*
X27503095Y-36453095D01*
X28407857Y-36167380D02*
X29026904Y-36167380D01*
X28693571Y-36548333D01*
X28836428Y-36548333D01*
X28931666Y-36595952D01*
X28979285Y-36643571D01*
X29026904Y-36738809D01*
X29026904Y-36976904D01*
X28979285Y-37072142D01*
X28931666Y-37119761D01*
X28836428Y-37167380D01*
X28550714Y-37167380D01*
X28455476Y-37119761D01*
X28407857Y-37072142D01*
%TO.C,R8*%
X92058644Y-112165261D02*
X91725311Y-111689071D01*
X91487215Y-112165261D02*
X91487215Y-111165261D01*
X91868168Y-111165261D01*
X91963406Y-111212881D01*
X92011025Y-111260500D01*
X92058644Y-111355738D01*
X92058644Y-111498595D01*
X92011025Y-111593833D01*
X91963406Y-111641452D01*
X91868168Y-111689071D01*
X91487215Y-111689071D01*
X92630072Y-111593833D02*
X92534834Y-111546214D01*
X92487215Y-111498595D01*
X92439596Y-111403357D01*
X92439596Y-111355738D01*
X92487215Y-111260500D01*
X92534834Y-111212881D01*
X92630072Y-111165261D01*
X92820549Y-111165261D01*
X92915787Y-111212881D01*
X92963406Y-111260500D01*
X93011025Y-111355738D01*
X93011025Y-111403357D01*
X92963406Y-111498595D01*
X92915787Y-111546214D01*
X92820549Y-111593833D01*
X92630072Y-111593833D01*
X92534834Y-111641452D01*
X92487215Y-111689071D01*
X92439596Y-111784309D01*
X92439596Y-111974785D01*
X92487215Y-112070023D01*
X92534834Y-112117642D01*
X92630072Y-112165261D01*
X92820549Y-112165261D01*
X92915787Y-112117642D01*
X92963406Y-112070023D01*
X93011025Y-111974785D01*
X93011025Y-111784309D01*
X92963406Y-111689071D01*
X92915787Y-111641452D01*
X92820549Y-111593833D01*
X91488710Y-118853208D02*
X90917282Y-118853208D01*
X91202996Y-118853208D02*
X91202996Y-117853208D01*
X91107758Y-117996066D01*
X91012520Y-118091304D01*
X90917282Y-118138923D01*
X92107758Y-117853208D02*
X92202996Y-117853208D01*
X92298234Y-117900828D01*
X92345853Y-117948447D01*
X92393472Y-118043685D01*
X92441091Y-118234161D01*
X92441091Y-118472256D01*
X92393472Y-118662732D01*
X92345853Y-118757970D01*
X92298234Y-118805589D01*
X92202996Y-118853208D01*
X92107758Y-118853208D01*
X92012520Y-118805589D01*
X91964901Y-118757970D01*
X91917282Y-118662732D01*
X91869663Y-118472256D01*
X91869663Y-118234161D01*
X91917282Y-118043685D01*
X91964901Y-117948447D01*
X92012520Y-117900828D01*
X92107758Y-117853208D01*
X92869663Y-118853208D02*
X92869663Y-117853208D01*
X93441091Y-118853208D02*
X93012520Y-118281780D01*
X93441091Y-117853208D02*
X92869663Y-118424637D01*
%TO.C,R5*%
X81588333Y-70717380D02*
X81255000Y-70241190D01*
X81016904Y-70717380D02*
X81016904Y-69717380D01*
X81397857Y-69717380D01*
X81493095Y-69765000D01*
X81540714Y-69812619D01*
X81588333Y-69907857D01*
X81588333Y-70050714D01*
X81540714Y-70145952D01*
X81493095Y-70193571D01*
X81397857Y-70241190D01*
X81016904Y-70241190D01*
X82493095Y-69717380D02*
X82016904Y-69717380D01*
X81969285Y-70193571D01*
X82016904Y-70145952D01*
X82112142Y-70098333D01*
X82350238Y-70098333D01*
X82445476Y-70145952D01*
X82493095Y-70193571D01*
X82540714Y-70288809D01*
X82540714Y-70526904D01*
X82493095Y-70622142D01*
X82445476Y-70669761D01*
X82350238Y-70717380D01*
X82112142Y-70717380D01*
X82016904Y-70669761D01*
X81969285Y-70622142D01*
%TO.C,R1*%
X26408333Y-51757380D02*
X26075000Y-51281190D01*
X25836904Y-51757380D02*
X25836904Y-50757380D01*
X26217857Y-50757380D01*
X26313095Y-50805000D01*
X26360714Y-50852619D01*
X26408333Y-50947857D01*
X26408333Y-51090714D01*
X26360714Y-51185952D01*
X26313095Y-51233571D01*
X26217857Y-51281190D01*
X25836904Y-51281190D01*
X27360714Y-51757380D02*
X26789285Y-51757380D01*
X27075000Y-51757380D02*
X27075000Y-50757380D01*
X26979761Y-50900238D01*
X26884523Y-50995476D01*
X26789285Y-51043095D01*
%TO.C,Q3*%
X68972619Y-55860238D02*
X68925000Y-55955476D01*
X68829761Y-56050714D01*
X68686904Y-56193571D01*
X68639285Y-56288809D01*
X68639285Y-56384047D01*
X68877380Y-56336428D02*
X68829761Y-56431666D01*
X68734523Y-56526904D01*
X68544047Y-56574523D01*
X68210714Y-56574523D01*
X68020238Y-56526904D01*
X67925000Y-56431666D01*
X67877380Y-56336428D01*
X67877380Y-56145952D01*
X67925000Y-56050714D01*
X68020238Y-55955476D01*
X68210714Y-55907857D01*
X68544047Y-55907857D01*
X68734523Y-55955476D01*
X68829761Y-56050714D01*
X68877380Y-56145952D01*
X68877380Y-56336428D01*
X67877380Y-55574523D02*
X67877380Y-54955476D01*
X68258333Y-55288809D01*
X68258333Y-55145952D01*
X68305952Y-55050714D01*
X68353571Y-55003095D01*
X68448809Y-54955476D01*
X68686904Y-54955476D01*
X68782142Y-55003095D01*
X68829761Y-55050714D01*
X68877380Y-55145952D01*
X68877380Y-55431666D01*
X68829761Y-55526904D01*
X68782142Y-55574523D01*
D12*
%TO.C,J5*%
X97691666Y-28559523D02*
X97691666Y-29466666D01*
X97631190Y-29648095D01*
X97510238Y-29769047D01*
X97328809Y-29829523D01*
X97207857Y-29829523D01*
X98901190Y-28559523D02*
X98296428Y-28559523D01*
X98235952Y-29164285D01*
X98296428Y-29103809D01*
X98417380Y-29043333D01*
X98719761Y-29043333D01*
X98840714Y-29103809D01*
X98901190Y-29164285D01*
X98961666Y-29285238D01*
X98961666Y-29587619D01*
X98901190Y-29708571D01*
X98840714Y-29769047D01*
X98719761Y-29829523D01*
X98417380Y-29829523D01*
X98296428Y-29769047D01*
X98235952Y-29708571D01*
D10*
%TO.C,R6*%
X81698333Y-79667380D02*
X81365000Y-79191190D01*
X81126904Y-79667380D02*
X81126904Y-78667380D01*
X81507857Y-78667380D01*
X81603095Y-78715000D01*
X81650714Y-78762619D01*
X81698333Y-78857857D01*
X81698333Y-79000714D01*
X81650714Y-79095952D01*
X81603095Y-79143571D01*
X81507857Y-79191190D01*
X81126904Y-79191190D01*
X82555476Y-78667380D02*
X82365000Y-78667380D01*
X82269761Y-78715000D01*
X82222142Y-78762619D01*
X82126904Y-78905476D01*
X82079285Y-79095952D01*
X82079285Y-79476904D01*
X82126904Y-79572142D01*
X82174523Y-79619761D01*
X82269761Y-79667380D01*
X82460238Y-79667380D01*
X82555476Y-79619761D01*
X82603095Y-79572142D01*
X82650714Y-79476904D01*
X82650714Y-79238809D01*
X82603095Y-79143571D01*
X82555476Y-79095952D01*
X82460238Y-79048333D01*
X82269761Y-79048333D01*
X82174523Y-79095952D01*
X82126904Y-79143571D01*
X82079285Y-79238809D01*
%TO.C,C7*%
X82368333Y-107742142D02*
X82320714Y-107789761D01*
X82177857Y-107837380D01*
X82082619Y-107837380D01*
X81939761Y-107789761D01*
X81844523Y-107694523D01*
X81796904Y-107599285D01*
X81749285Y-107408809D01*
X81749285Y-107265952D01*
X81796904Y-107075476D01*
X81844523Y-106980238D01*
X81939761Y-106885000D01*
X82082619Y-106837380D01*
X82177857Y-106837380D01*
X82320714Y-106885000D01*
X82368333Y-106932619D01*
X82701666Y-106837380D02*
X83368333Y-106837380D01*
X82939761Y-107837380D01*
X72023095Y-106960714D02*
X72023095Y-107627380D01*
X71784999Y-106579761D02*
X71546904Y-107294047D01*
X72165952Y-107294047D01*
X72546904Y-107532142D02*
X72594523Y-107579761D01*
X72546904Y-107627380D01*
X72499285Y-107579761D01*
X72546904Y-107532142D01*
X72546904Y-107627380D01*
X72927857Y-106627380D02*
X73594523Y-106627380D01*
X73165952Y-107627380D01*
X74404047Y-106960714D02*
X74404047Y-107627380D01*
X73975476Y-106960714D02*
X73975476Y-107484523D01*
X74023095Y-107579761D01*
X74118333Y-107627380D01*
X74261190Y-107627380D01*
X74356428Y-107579761D01*
X74404047Y-107532142D01*
X75213571Y-107103571D02*
X74880237Y-107103571D01*
X74880237Y-107627380D02*
X74880237Y-106627380D01*
X75356428Y-106627380D01*
%TO.C,R7*%
X81388333Y-87227380D02*
X81055000Y-86751190D01*
X80816904Y-87227380D02*
X80816904Y-86227380D01*
X81197857Y-86227380D01*
X81293095Y-86275000D01*
X81340714Y-86322619D01*
X81388333Y-86417857D01*
X81388333Y-86560714D01*
X81340714Y-86655952D01*
X81293095Y-86703571D01*
X81197857Y-86751190D01*
X80816904Y-86751190D01*
X81721666Y-86227380D02*
X82388333Y-86227380D01*
X81959761Y-87227380D01*
%TO.C,R2*%
X62418333Y-52717380D02*
X62085000Y-52241190D01*
X61846904Y-52717380D02*
X61846904Y-51717380D01*
X62227857Y-51717380D01*
X62323095Y-51765000D01*
X62370714Y-51812619D01*
X62418333Y-51907857D01*
X62418333Y-52050714D01*
X62370714Y-52145952D01*
X62323095Y-52193571D01*
X62227857Y-52241190D01*
X61846904Y-52241190D01*
X62799285Y-51812619D02*
X62846904Y-51765000D01*
X62942142Y-51717380D01*
X63180238Y-51717380D01*
X63275476Y-51765000D01*
X63323095Y-51812619D01*
X63370714Y-51907857D01*
X63370714Y-52003095D01*
X63323095Y-52145952D01*
X62751666Y-52717380D01*
X63370714Y-52717380D01*
%TO.C,R12*%
X27302142Y-33247380D02*
X26968809Y-32771190D01*
X26730714Y-33247380D02*
X26730714Y-32247380D01*
X27111666Y-32247380D01*
X27206904Y-32295000D01*
X27254523Y-32342619D01*
X27302142Y-32437857D01*
X27302142Y-32580714D01*
X27254523Y-32675952D01*
X27206904Y-32723571D01*
X27111666Y-32771190D01*
X26730714Y-32771190D01*
X28254523Y-33247380D02*
X27683095Y-33247380D01*
X27968809Y-33247380D02*
X27968809Y-32247380D01*
X27873571Y-32390238D01*
X27778333Y-32485476D01*
X27683095Y-32533095D01*
X28635476Y-32342619D02*
X28683095Y-32295000D01*
X28778333Y-32247380D01*
X29016428Y-32247380D01*
X29111666Y-32295000D01*
X29159285Y-32342619D01*
X29206904Y-32437857D01*
X29206904Y-32533095D01*
X29159285Y-32675952D01*
X28587857Y-33247380D01*
X29206904Y-33247380D01*
%TO.C,SW1*%
X76715675Y-110356932D02*
X76858532Y-110404551D01*
X77096628Y-110404551D01*
X77191866Y-110356932D01*
X77239485Y-110309313D01*
X77287104Y-110214075D01*
X77287104Y-110118837D01*
X77239485Y-110023599D01*
X77191866Y-109975980D01*
X77096628Y-109928361D01*
X76906151Y-109880742D01*
X76810913Y-109833123D01*
X76763294Y-109785504D01*
X76715675Y-109690266D01*
X76715675Y-109595028D01*
X76763294Y-109499790D01*
X76810913Y-109452171D01*
X76906151Y-109404551D01*
X77144247Y-109404551D01*
X77287104Y-109452171D01*
X77620437Y-109404551D02*
X77858532Y-110404551D01*
X78049009Y-109690266D01*
X78239485Y-110404551D01*
X78477580Y-109404551D01*
X79382342Y-110404551D02*
X78810913Y-110404551D01*
X79096628Y-110404551D02*
X79096628Y-109404551D01*
X79001389Y-109547409D01*
X78906151Y-109642647D01*
X78810913Y-109690266D01*
X77096628Y-119104551D02*
X76763294Y-118628361D01*
X76525199Y-119104551D02*
X76525199Y-118104551D01*
X76906151Y-118104551D01*
X77001389Y-118152171D01*
X77049009Y-118199790D01*
X77096628Y-118295028D01*
X77096628Y-118437885D01*
X77049009Y-118533123D01*
X77001389Y-118580742D01*
X76906151Y-118628361D01*
X76525199Y-118628361D01*
X77525199Y-118580742D02*
X77858532Y-118580742D01*
X78001389Y-119104551D02*
X77525199Y-119104551D01*
X77525199Y-118104551D01*
X78001389Y-118104551D01*
X78382342Y-119056932D02*
X78525199Y-119104551D01*
X78763294Y-119104551D01*
X78858532Y-119056932D01*
X78906151Y-119009313D01*
X78953770Y-118914075D01*
X78953770Y-118818837D01*
X78906151Y-118723599D01*
X78858532Y-118675980D01*
X78763294Y-118628361D01*
X78572818Y-118580742D01*
X78477580Y-118533123D01*
X78429961Y-118485504D01*
X78382342Y-118390266D01*
X78382342Y-118295028D01*
X78429961Y-118199790D01*
X78477580Y-118152171D01*
X78572818Y-118104551D01*
X78810913Y-118104551D01*
X78953770Y-118152171D01*
X79382342Y-118580742D02*
X79715675Y-118580742D01*
X79858532Y-119104551D02*
X79382342Y-119104551D01*
X79382342Y-118104551D01*
X79858532Y-118104551D01*
X80144247Y-118104551D02*
X80715675Y-118104551D01*
X80429961Y-119104551D02*
X80429961Y-118104551D01*
D13*
%TO.C,SW2*%
X22565000Y-98715000D02*
X22565000Y-103215000D01*
X26565000Y-97465000D02*
X25065000Y-97465000D01*
X29065000Y-103215000D02*
X29065000Y-98715000D01*
X25065000Y-104465000D02*
X26565000Y-104465000D01*
%TO.C,R4*%
X56012064Y-61905000D02*
X54557936Y-61905000D01*
X56012064Y-63725000D02*
X54557936Y-63725000D01*
%TO.C,C2*%
X88406248Y-56395000D02*
X89828752Y-56395000D01*
X88406248Y-54575000D02*
X89828752Y-54575000D01*
%TO.C,R10*%
X66952064Y-63685000D02*
X65497936Y-63685000D01*
X66952064Y-61865000D02*
X65497936Y-61865000D01*
%TO.C,R3*%
X56022064Y-51375000D02*
X54567936Y-51375000D01*
X56022064Y-53195000D02*
X54567936Y-53195000D01*
%TO.C,C3*%
X88389587Y-115354465D02*
X88389587Y-113031961D01*
X84969587Y-115354465D02*
X84969587Y-113031961D01*
%TO.C,D1*%
X57485000Y-86320000D02*
X55025000Y-86320000D01*
X55025000Y-87790000D02*
X57485000Y-87790000D01*
X55025000Y-86320000D02*
X55025000Y-87790000D01*
%TO.C,Q4*%
X67785000Y-66470000D02*
X67785000Y-64795000D01*
X64665000Y-66470000D02*
X64665000Y-67120000D01*
X67785000Y-66470000D02*
X67785000Y-67120000D01*
X64665000Y-66470000D02*
X64665000Y-65820000D01*
%TO.C,J7*%
X115796370Y-69285645D02*
X115796370Y-72605645D01*
X110526370Y-74555645D02*
X113846370Y-74555645D01*
X108576370Y-69285645D02*
X108576370Y-72605645D01*
X110526370Y-67335645D02*
X113846370Y-67335645D01*
%TO.C,R14*%
X49902064Y-87945000D02*
X48447936Y-87945000D01*
X49902064Y-86125000D02*
X48447936Y-86125000D01*
%TO.C,C4*%
X69585000Y-116153752D02*
X69585000Y-113831248D01*
X66165000Y-116153752D02*
X66165000Y-113831248D01*
%TO.C,J1*%
X24555000Y-70455000D02*
X24555000Y-69125000D01*
X24555000Y-79405000D02*
X27215000Y-79405000D01*
X24555000Y-71725000D02*
X24555000Y-79405000D01*
X24555000Y-71725000D02*
X27215000Y-71725000D01*
X27215000Y-71725000D02*
X27215000Y-79405000D01*
X24555000Y-69125000D02*
X25885000Y-69125000D01*
%TO.C,D2*%
X54975000Y-81780000D02*
X54975000Y-83250000D01*
X57435000Y-81780000D02*
X54975000Y-81780000D01*
X54975000Y-83250000D02*
X57435000Y-83250000D01*
%TO.C,C1*%
X88306248Y-51235000D02*
X89728752Y-51235000D01*
X88306248Y-53055000D02*
X89728752Y-53055000D01*
%TO.C,Q1*%
X53775000Y-66485000D02*
X53775000Y-65835000D01*
X56895000Y-66485000D02*
X56895000Y-64810000D01*
X53775000Y-66485000D02*
X53775000Y-67135000D01*
X56895000Y-66485000D02*
X56895000Y-67135000D01*
%TO.C,D3*%
X54975000Y-78680000D02*
X57435000Y-78680000D01*
X57435000Y-77210000D02*
X54975000Y-77210000D01*
X54975000Y-77210000D02*
X54975000Y-78680000D01*
%TO.C,J3*%
X107985000Y-56425000D02*
X107035000Y-56425000D01*
X114585000Y-56925000D02*
X114835000Y-56425000D01*
X119635000Y-56925000D02*
X114585000Y-56925000D01*
X119635000Y-36125000D02*
X119635000Y-56925000D01*
X107035000Y-56425000D02*
X107035000Y-36125000D01*
X107035000Y-36125000D02*
X119635000Y-36125000D01*
X107685000Y-56975000D02*
X107985000Y-56425000D01*
X109435000Y-56425000D02*
X109735000Y-56975000D01*
X114835000Y-56425000D02*
X109435000Y-56425000D01*
X109735000Y-56975000D02*
X107685000Y-56975000D01*
%TO.C,R15*%
X49892064Y-83475000D02*
X48437936Y-83475000D01*
X49892064Y-81655000D02*
X48437936Y-81655000D01*
%TO.C,J8*%
X24365000Y-86410000D02*
X24365000Y-91550000D01*
X24365000Y-83810000D02*
X25695000Y-83810000D01*
X27025000Y-86410000D02*
X27025000Y-91550000D01*
X24365000Y-91550000D02*
X27025000Y-91550000D01*
X24365000Y-85140000D02*
X24365000Y-83810000D01*
X24365000Y-86410000D02*
X27025000Y-86410000D01*
%TO.C,J6*%
X76610218Y-65006018D02*
X79270218Y-65006018D01*
X76610218Y-59866018D02*
X76610218Y-65006018D01*
X76610218Y-57266018D02*
X77940218Y-57266018D01*
X76610218Y-58596018D02*
X76610218Y-57266018D01*
X76610218Y-59866018D02*
X79270218Y-59866018D01*
X79270218Y-59866018D02*
X79270218Y-65006018D01*
%TO.C,J4*%
X24225000Y-38665000D02*
X25555000Y-38665000D01*
X24225000Y-48945000D02*
X26885000Y-48945000D01*
X26885000Y-41265000D02*
X26885000Y-48945000D01*
X24225000Y-41265000D02*
X24225000Y-48945000D01*
X24225000Y-41265000D02*
X26885000Y-41265000D01*
X24225000Y-39995000D02*
X24225000Y-38665000D01*
%TO.C,Q2*%
X53735000Y-56124000D02*
X53735000Y-56774000D01*
X53735000Y-56124000D02*
X53735000Y-55474000D01*
X56855000Y-56124000D02*
X56855000Y-54449000D01*
X56855000Y-56124000D02*
X56855000Y-56774000D01*
D14*
%TO.C,U1*%
X102665000Y-59005000D02*
X103965000Y-59005000D01*
X84965000Y-62205000D02*
X84965000Y-59005000D01*
X84965000Y-59005000D02*
X86265000Y-59005000D01*
X103965000Y-59005000D02*
X103965000Y-62205000D01*
X91865000Y-94605000D02*
X95665000Y-94605000D01*
D15*
X83055000Y-89825000D02*
G75*
G03*
X83055000Y-89825000I-150000J0D01*
G01*
D13*
%TO.C,FL1*%
X109141659Y-63776266D02*
X109481659Y-63776266D01*
X109141659Y-61956266D02*
X109141659Y-61706266D01*
X109141659Y-61956266D02*
X109481659Y-61956266D01*
X110621659Y-61956266D02*
X110961659Y-61956266D01*
X109141659Y-61706266D02*
X107911659Y-61706266D01*
X110621659Y-63776266D02*
X110961659Y-63776266D01*
%TO.C,J2*%
X24395000Y-58970000D02*
X24395000Y-57640000D01*
X24395000Y-60240000D02*
X24395000Y-65380000D01*
X24395000Y-60240000D02*
X27055000Y-60240000D01*
X27055000Y-60240000D02*
X27055000Y-65380000D01*
X24395000Y-65380000D02*
X27055000Y-65380000D01*
X24395000Y-57640000D02*
X25725000Y-57640000D01*
%TO.C,C5*%
X62145000Y-118050000D02*
X65165000Y-118050000D01*
X62145000Y-113665000D02*
X62145000Y-118050000D01*
X65165000Y-118050000D02*
X65165000Y-113665000D01*
%TO.C,U2*%
X59855000Y-125960000D02*
X59855000Y-119540000D01*
X59855000Y-100215000D02*
X58855000Y-100215000D01*
X59855000Y-100995000D02*
X59855000Y-100215000D01*
X41615000Y-100995000D02*
X41615000Y-100215000D01*
X59855000Y-125960000D02*
X41615000Y-125960000D01*
X41615000Y-125960000D02*
X41615000Y-119540000D01*
X41615000Y-100215000D02*
X42615000Y-100215000D01*
X59855000Y-119540000D02*
X60235000Y-119540000D01*
%TO.C,R9*%
X79382064Y-105145000D02*
X77927936Y-105145000D01*
X79382064Y-103325000D02*
X77927936Y-103325000D01*
%TO.C,R11*%
X78882064Y-72895000D02*
X77427936Y-72895000D01*
X78882064Y-74715000D02*
X77427936Y-74715000D01*
%TO.C,C6*%
X79456252Y-100195000D02*
X78033748Y-100195000D01*
X79456252Y-102015000D02*
X78033748Y-102015000D01*
%TO.C,R16*%
X49852064Y-78865000D02*
X48397936Y-78865000D01*
X49852064Y-77045000D02*
X48397936Y-77045000D01*
%TO.C,R13*%
X32712064Y-37535000D02*
X31257936Y-37535000D01*
X32712064Y-35715000D02*
X31257936Y-35715000D01*
%TO.C,R8*%
X91269187Y-114352853D02*
X91269187Y-115806981D01*
X93089187Y-114352853D02*
X93089187Y-115806981D01*
%TO.C,R5*%
X78882064Y-68075000D02*
X77427936Y-68075000D01*
X78882064Y-69895000D02*
X77427936Y-69895000D01*
%TO.C,R1*%
X25847936Y-54035000D02*
X27302064Y-54035000D01*
X25847936Y-52215000D02*
X27302064Y-52215000D01*
%TO.C,Q3*%
X64465000Y-55765000D02*
X64465000Y-55115000D01*
X67585000Y-55765000D02*
X67585000Y-54090000D01*
X64465000Y-55765000D02*
X64465000Y-56415000D01*
X67585000Y-55765000D02*
X67585000Y-56415000D01*
D16*
%TO.C,J5*%
X44840000Y-33770000D02*
X96600000Y-33770000D01*
X96600000Y-33770000D02*
X96600000Y-30000000D01*
X44840000Y-28770000D02*
X44840000Y-33770000D01*
X95000000Y-28770000D02*
X44840000Y-28770000D01*
D13*
%TO.C,R6*%
X78882064Y-78925000D02*
X77427936Y-78925000D01*
X78882064Y-77105000D02*
X77427936Y-77105000D01*
%TO.C,C7*%
X79391802Y-108085205D02*
X77969298Y-108085205D01*
X79391802Y-106265205D02*
X77969298Y-106265205D01*
%TO.C,R7*%
X78882064Y-84615000D02*
X77427936Y-84615000D01*
X78882064Y-86435000D02*
X77427936Y-86435000D01*
%TO.C,R2*%
X66872064Y-53215000D02*
X65417936Y-53215000D01*
X66872064Y-51395000D02*
X65417936Y-51395000D01*
%TO.C,R12*%
X32672064Y-31915000D02*
X31217936Y-31915000D01*
X32672064Y-33735000D02*
X31217936Y-33735000D01*
%TO.C,SW1*%
X75799009Y-117452171D02*
X80299009Y-117452171D01*
X74549009Y-113452171D02*
X74549009Y-114952171D01*
X81549009Y-114952171D02*
X81549009Y-113452171D01*
X80299009Y-110952171D02*
X75799009Y-110952171D01*
%TD*%
M02*
