%TF.GenerationSoftware,KiCad,Pcbnew,6.0.5-a6ca702e91~116~ubuntu22.04.1*%
%TF.CreationDate,2022-06-15T11:28:33-07:00*%
%TF.ProjectId,aprs-esp32,61707273-2d65-4737-9033-322e6b696361,v1.0.0*%
%TF.SameCoordinates,Original*%
%TF.FileFunction,Copper,L2,Inr*%
%TF.FilePolarity,Positive*%
%FSLAX46Y46*%
G04 Gerber Fmt 4.6, Leading zero omitted, Abs format (unit mm)*
G04 Created by KiCad (PCBNEW 6.0.5-a6ca702e91~116~ubuntu22.04.1) date 2022-06-15 11:28:33*
%MOMM*%
%LPD*%
G01*
G04 APERTURE LIST*
%TA.AperFunction,ComponentPad*%
%ADD10C,2.000000*%
%TD*%
%TA.AperFunction,ComponentPad*%
%ADD11C,1.725000*%
%TD*%
%TA.AperFunction,ComponentPad*%
%ADD12R,1.725000X1.725000*%
%TD*%
%TA.AperFunction,ComponentPad*%
%ADD13C,2.050000*%
%TD*%
%TA.AperFunction,ComponentPad*%
%ADD14C,2.250000*%
%TD*%
%TA.AperFunction,ComponentPad*%
%ADD15R,3.960000X1.980000*%
%TD*%
%TA.AperFunction,ComponentPad*%
%ADD16O,3.960000X1.980000*%
%TD*%
%TA.AperFunction,ComponentPad*%
%ADD17R,1.700000X1.700000*%
%TD*%
%TA.AperFunction,ComponentPad*%
%ADD18O,1.700000X1.700000*%
%TD*%
%TA.AperFunction,ComponentPad*%
%ADD19C,0.900000*%
%TD*%
%TA.AperFunction,ComponentPad*%
%ADD20C,8.600000*%
%TD*%
%TA.AperFunction,ComponentPad*%
%ADD21C,0.610000*%
%TD*%
%TA.AperFunction,ViaPad*%
%ADD22C,0.800000*%
%TD*%
G04 APERTURE END LIST*
D10*
%TO.N,ESP_PROG*%
%TO.C,SW2*%
X28065000Y-97715000D03*
X28065000Y-104215000D03*
%TO.N,GND*%
X23565000Y-97715000D03*
X23565000Y-104215000D03*
%TD*%
D11*
%TO.N,GPS_RX*%
%TO.C,J5*%
X46740000Y-32540000D03*
%TO.N,GPS_TX*%
X46740000Y-30000000D03*
%TO.N,GPIO23*%
X49280000Y-32540000D03*
%TO.N,ONE_WIRE*%
X49280000Y-30000000D03*
%TO.N,GPIO015*%
X51820000Y-32540000D03*
%TO.N,I2C_SA*%
X51820000Y-30000000D03*
%TO.N,GPIO012*%
X54360000Y-32540000D03*
%TO.N,I2C_SCL*%
X54360000Y-30000000D03*
%TO.N,GPIO27*%
X56900000Y-32540000D03*
%TO.N,unconnected-(J5-Pad31)*%
X56900000Y-30000000D03*
%TO.N,GPIO26*%
X59440000Y-32540000D03*
%TO.N,GPIO35*%
X59440000Y-30000000D03*
%TO.N,GPIO032*%
X61980000Y-32540000D03*
%TO.N,AF_OUT*%
X61980000Y-30000000D03*
%TO.N,GPIO34*%
X64520000Y-32540000D03*
%TO.N,unconnected-(J5-Pad25)*%
X64520000Y-30000000D03*
%TO.N,AUDIO_IN*%
X67060000Y-32540000D03*
%TO.N,unconnected-(J5-Pad23)*%
X67060000Y-30000000D03*
%TO.N,unconnected-(J5-Pad22)*%
X69600000Y-32540000D03*
%TO.N,SQ*%
X69600000Y-30000000D03*
%TO.N,4V_E*%
X72140000Y-32540000D03*
X72140000Y-30000000D03*
X74680000Y-32540000D03*
X74680000Y-30000000D03*
%TO.N,+3V3_E*%
X77220000Y-32540000D03*
X77220000Y-30000000D03*
X79760000Y-32540000D03*
X79760000Y-30000000D03*
%TO.N,+3V3*%
X82300000Y-32540000D03*
X82300000Y-30000000D03*
X84840000Y-32540000D03*
X84840000Y-30000000D03*
%TO.N,GND*%
X87380000Y-32540000D03*
X87380000Y-30000000D03*
X89920000Y-32540000D03*
X89920000Y-30000000D03*
%TO.N,+4V*%
X92460000Y-32540000D03*
X92460000Y-30000000D03*
X95000000Y-32540000D03*
D12*
X95000000Y-30000000D03*
%TD*%
D13*
%TO.N,/RF_OUT*%
%TO.C,J7*%
X112186370Y-70945645D03*
D14*
%TO.N,GND*%
X114726370Y-73485645D03*
X109646370Y-73485645D03*
X114726370Y-68405645D03*
X109646370Y-68405645D03*
%TD*%
D15*
%TO.N,+4V*%
%TO.C,J3*%
X113345000Y-38545000D03*
D16*
%TO.N,GND*%
X113345000Y-43545000D03*
X113345000Y-48545000D03*
%TO.N,+3V3*%
X113345000Y-53545000D03*
%TD*%
D17*
%TO.N,ESP_TX*%
%TO.C,J8*%
X25798507Y-85003164D03*
D18*
%TO.N,ESP_RX*%
X25798507Y-87543164D03*
%TO.N,GND*%
X25798507Y-90083164D03*
%TD*%
D17*
%TO.N,unconnected-(J6-Pad1)*%
%TO.C,J6*%
X77940218Y-58596018D03*
D18*
%TO.N,GND*%
X77940218Y-61136018D03*
%TO.N,/RF_HI_ENA*%
X77940218Y-63676018D03*
%TD*%
D19*
%TO.N,GND*%
%TO.C,H4*%
X118145000Y-114920000D03*
D20*
X114920000Y-114920000D03*
D19*
X112639581Y-117200419D03*
X111695000Y-114920000D03*
X117200419Y-117200419D03*
X114920000Y-111695000D03*
X117200419Y-112639581D03*
X114920000Y-118145000D03*
X112639581Y-112639581D03*
%TD*%
D21*
%TO.N,GND*%
%TO.C,FL1*%
X110051659Y-61761266D03*
X110051659Y-63971266D03*
%TD*%
D20*
%TO.N,GND*%
%TO.C,H3*%
X25080000Y-114920000D03*
D19*
X21855000Y-114920000D03*
X25080000Y-118145000D03*
X27360419Y-112639581D03*
X27360419Y-117200419D03*
X22799581Y-117200419D03*
X22799581Y-112639581D03*
X28305000Y-114920000D03*
X25080000Y-111695000D03*
%TD*%
D17*
%TO.N,+3V3*%
%TO.C,J2*%
X25885000Y-59025000D03*
D18*
%TO.N,GND*%
X25885000Y-61565000D03*
%TO.N,ONE_WIRE*%
X25885000Y-64105000D03*
%TD*%
D17*
%TO.N,+3V3*%
%TO.C,J4*%
X25592860Y-39985000D03*
D18*
%TO.N,I2C_SCL*%
X25592860Y-42525000D03*
%TO.N,I2C_SA*%
X25592860Y-45065000D03*
%TO.N,GND*%
X25592860Y-47605000D03*
%TD*%
D19*
%TO.N,GND*%
%TO.C,H2*%
X27360419Y-22799581D03*
D20*
X25080000Y-25080000D03*
D19*
X21855000Y-25080000D03*
X27360419Y-27360419D03*
X22799581Y-27360419D03*
X25080000Y-28305000D03*
X22799581Y-22799581D03*
X25080000Y-21855000D03*
X28305000Y-25080000D03*
%TD*%
%TO.N,GND*%
%TO.C,H1*%
X118145000Y-25080000D03*
X111695000Y-25080000D03*
D20*
X114920000Y-25080000D03*
D19*
X117200419Y-27360419D03*
X114920000Y-28305000D03*
X117200419Y-22799581D03*
X114920000Y-21855000D03*
X112639581Y-27360419D03*
X112639581Y-22799581D03*
%TD*%
D17*
%TO.N,+3V3*%
%TO.C,J1*%
X25885000Y-70455000D03*
D18*
%TO.N,GPS_TX*%
X25885000Y-72995000D03*
%TO.N,GPS_RX*%
X25885000Y-75535000D03*
%TO.N,GND*%
X25885000Y-78075000D03*
%TD*%
D10*
%TO.N,GND*%
%TO.C,SW1*%
X81299009Y-111952171D03*
X74799009Y-111952171D03*
%TO.N,ESP_ENA*%
X74799009Y-116452171D03*
X81299009Y-116452171D03*
%TD*%
D22*
%TO.N,+3V3*%
X24105000Y-51365000D03*
X66245000Y-79465000D03*
X60905000Y-74815000D03*
%TO.N,GND*%
X43615000Y-118835000D03*
X81595000Y-102945000D03*
X81985000Y-97475000D03*
X95615000Y-57545000D03*
%TO.N,+3V3*%
X41535000Y-61135000D03*
X41485000Y-49855000D03*
X42745000Y-39505000D03*
X24125000Y-31305000D03*
X30585000Y-30395000D03*
X46865000Y-44735000D03*
X40685000Y-57675000D03*
X45485000Y-68605000D03*
%TO.N,AF_OUT*%
X63635000Y-52585000D03*
%TO.N,RADIO_RX_LOW*%
X54265000Y-83665000D03*
X32695000Y-91765000D03*
%TO.N,SQ*%
X63895000Y-90015000D03*
%TO.N,GPIO015*%
X53965000Y-52685000D03*
%TO.N,ONE_WIRE*%
X55095275Y-99024725D03*
%TO.N,PTT_LOW*%
X68845000Y-51045000D03*
%TO.N,+4V*%
X75185000Y-67445000D03*
%TO.N,GND*%
X56485000Y-99645000D03*
X46305000Y-90525000D03*
%TO.N,GPIO23*%
X37305000Y-99185000D03*
%TO.N,AUDIO_IN*%
X71755000Y-110595000D03*
%TO.N,PTT_LOW*%
X60759200Y-108707400D03*
%TO.N,GPIO27*%
X65005000Y-103945000D03*
%TO.N,ESP_PROG*%
X41205000Y-97295000D03*
%TO.N,GND*%
X60905000Y-92105000D03*
X51745000Y-114305000D03*
X98255000Y-57435000D03*
X92035000Y-51065000D03*
X93495000Y-57535000D03*
X53494800Y-109367800D03*
X65375000Y-118825000D03*
X92135000Y-53275000D03*
X66685000Y-118785000D03*
X91945000Y-52185000D03*
X97095000Y-57515000D03*
X51589800Y-111247400D03*
X51412000Y-109393200D03*
X91375000Y-57645000D03*
X71195000Y-118715000D03*
X87965000Y-110755000D03*
X63855000Y-118765000D03*
X92315000Y-55805000D03*
X49761000Y-109418600D03*
X32065000Y-74845000D03*
X68585000Y-118665000D03*
X52745000Y-114315000D03*
X60615000Y-118935000D03*
X92435000Y-57605000D03*
%TO.N,+4V*%
X85895000Y-55555000D03*
X85895000Y-52205000D03*
X85955000Y-50895000D03*
X75295000Y-84035000D03*
X85955000Y-54425000D03*
X85975000Y-53345000D03*
X74885000Y-78175000D03*
X86545000Y-57405000D03*
X88995000Y-57435000D03*
X87545000Y-57405000D03*
X85565000Y-56585000D03*
X74908800Y-73130400D03*
%TO.N,GPIO34*%
X60638928Y-112491072D03*
%TO.N,GPIO032*%
X60718928Y-109951072D03*
%TO.N,GPIO012*%
X56805000Y-52545000D03*
%TO.N,GPIO26*%
X67225000Y-105745000D03*
%TO.N,GPIO35*%
X60628928Y-111221072D03*
%TO.N,+3V3*%
X71285000Y-114185000D03*
X60675000Y-117545000D03*
X68145000Y-114195000D03*
X64185000Y-112055000D03*
X93345000Y-112635000D03*
X66335000Y-112045000D03*
%TO.N,GPIO23*%
X40495000Y-117325000D03*
%TD*%
%TA.AperFunction,Conductor*%
%TO.N,GND*%
G36*
X119141621Y-20820502D02*
G01*
X119188114Y-20874158D01*
X119199500Y-20926500D01*
X119199500Y-119073500D01*
X119179498Y-119141621D01*
X119125842Y-119188114D01*
X119073500Y-119199500D01*
X20926500Y-119199500D01*
X20858379Y-119179498D01*
X20811886Y-119125842D01*
X20800500Y-119073500D01*
X20800500Y-117293440D01*
X39289770Y-117293440D01*
X39304200Y-117513604D01*
X39305621Y-117519200D01*
X39305622Y-117519205D01*
X39334517Y-117632978D01*
X39358511Y-117727452D01*
X39360928Y-117732694D01*
X39360928Y-117732695D01*
X39399046Y-117815379D01*
X39450883Y-117927821D01*
X39578222Y-118108002D01*
X39736264Y-118261961D01*
X39741060Y-118265166D01*
X39741063Y-118265168D01*
X39841128Y-118332029D01*
X39919717Y-118384540D01*
X39925020Y-118386818D01*
X39925023Y-118386820D01*
X40117129Y-118469355D01*
X40122436Y-118471635D01*
X40182243Y-118485168D01*
X40331995Y-118519054D01*
X40332001Y-118519055D01*
X40337632Y-118520329D01*
X40343403Y-118520556D01*
X40343405Y-118520556D01*
X40411211Y-118523220D01*
X40558098Y-118528991D01*
X40667275Y-118513161D01*
X40770738Y-118498160D01*
X40770743Y-118498159D01*
X40776452Y-118497331D01*
X40781916Y-118495476D01*
X40781921Y-118495475D01*
X40979907Y-118428268D01*
X40979912Y-118428266D01*
X40985379Y-118426410D01*
X41036970Y-118397518D01*
X41169518Y-118323287D01*
X41177884Y-118318602D01*
X41288871Y-118226295D01*
X41343086Y-118181204D01*
X41347518Y-118177518D01*
X41405334Y-118108002D01*
X41484908Y-118012326D01*
X41484910Y-118012323D01*
X41488602Y-118007884D01*
X41596410Y-117815379D01*
X41598266Y-117809912D01*
X41598268Y-117809907D01*
X41665475Y-117611921D01*
X41665476Y-117611916D01*
X41667331Y-117606452D01*
X41668159Y-117600743D01*
X41668160Y-117600738D01*
X41680817Y-117513440D01*
X59469770Y-117513440D01*
X59484200Y-117733604D01*
X59485621Y-117739200D01*
X59485622Y-117739205D01*
X59530358Y-117915350D01*
X59538511Y-117947452D01*
X59540928Y-117952694D01*
X59540928Y-117952695D01*
X59579046Y-118035379D01*
X59630883Y-118147821D01*
X59758222Y-118328002D01*
X59916264Y-118481961D01*
X59921060Y-118485166D01*
X59921063Y-118485168D01*
X60005261Y-118541427D01*
X60099717Y-118604540D01*
X60105020Y-118606818D01*
X60105023Y-118606820D01*
X60297129Y-118689355D01*
X60302436Y-118691635D01*
X60382088Y-118709658D01*
X60511995Y-118739054D01*
X60512001Y-118739055D01*
X60517632Y-118740329D01*
X60523403Y-118740556D01*
X60523405Y-118740556D01*
X60591211Y-118743220D01*
X60738098Y-118748991D01*
X60847275Y-118733161D01*
X60950738Y-118718160D01*
X60950743Y-118718159D01*
X60956452Y-118717331D01*
X60961916Y-118715476D01*
X60961921Y-118715475D01*
X61159907Y-118648268D01*
X61159912Y-118648266D01*
X61165379Y-118646410D01*
X61357884Y-118538602D01*
X61409739Y-118495475D01*
X61523086Y-118401204D01*
X61527518Y-118397518D01*
X61593152Y-118318602D01*
X61664908Y-118232326D01*
X61664910Y-118232323D01*
X61668602Y-118227884D01*
X61765107Y-118055562D01*
X61773586Y-118040422D01*
X61773587Y-118040420D01*
X61776410Y-118035379D01*
X61778266Y-118029912D01*
X61778268Y-118029907D01*
X61845475Y-117831921D01*
X61845476Y-117831916D01*
X61847331Y-117826452D01*
X61848159Y-117820743D01*
X61848160Y-117820738D01*
X61874841Y-117636718D01*
X61878991Y-117608098D01*
X61880643Y-117545000D01*
X61860454Y-117325289D01*
X61800565Y-117112936D01*
X61702980Y-116915053D01*
X61686465Y-116892936D01*
X61574420Y-116742891D01*
X61574420Y-116742890D01*
X61570967Y-116738267D01*
X61408949Y-116588499D01*
X61222350Y-116470764D01*
X61057277Y-116404907D01*
X72994079Y-116404907D01*
X72994303Y-116409574D01*
X72994303Y-116409579D01*
X72998629Y-116499632D01*
X73006918Y-116672212D01*
X73059127Y-116934683D01*
X73149558Y-117186554D01*
X73151774Y-117190678D01*
X73225938Y-117328704D01*
X73276224Y-117422292D01*
X73279019Y-117426035D01*
X73279021Y-117426038D01*
X73409476Y-117600738D01*
X73436344Y-117636718D01*
X73439651Y-117639996D01*
X73439656Y-117640002D01*
X73623083Y-117821834D01*
X73626399Y-117825121D01*
X73630165Y-117827883D01*
X73630167Y-117827884D01*
X73800388Y-117952695D01*
X73842214Y-117983363D01*
X73846349Y-117985539D01*
X73846353Y-117985541D01*
X73975927Y-118053713D01*
X74079048Y-118107968D01*
X74083467Y-118109511D01*
X74327282Y-118194655D01*
X74327288Y-118194657D01*
X74331699Y-118196197D01*
X74336292Y-118197069D01*
X74521993Y-118232326D01*
X74594615Y-118246114D01*
X74721625Y-118251104D01*
X74857354Y-118256437D01*
X74857359Y-118256437D01*
X74862022Y-118256620D01*
X74957952Y-118246114D01*
X75123391Y-118227996D01*
X75123396Y-118227995D01*
X75128044Y-118227486D01*
X75145695Y-118222839D01*
X75382318Y-118160541D01*
X75386838Y-118159351D01*
X75517332Y-118103287D01*
X75628416Y-118055562D01*
X75628419Y-118055560D01*
X75632719Y-118053713D01*
X75636699Y-118051250D01*
X75636703Y-118051248D01*
X75856311Y-117915350D01*
X75856315Y-117915347D01*
X75860284Y-117912891D01*
X75955930Y-117831921D01*
X76060969Y-117742999D01*
X76060970Y-117742998D01*
X76064535Y-117739980D01*
X76180193Y-117608098D01*
X76237903Y-117542293D01*
X76237907Y-117542288D01*
X76240985Y-117538778D01*
X76253575Y-117519205D01*
X76383228Y-117317636D01*
X76383231Y-117317631D01*
X76385756Y-117313705D01*
X76495670Y-117069705D01*
X76537825Y-116920234D01*
X76567041Y-116816644D01*
X76567042Y-116816641D01*
X76568311Y-116812140D01*
X76580080Y-116719632D01*
X76601686Y-116549796D01*
X76601686Y-116549792D01*
X76602084Y-116546666D01*
X76602707Y-116522891D01*
X76603534Y-116491278D01*
X76604558Y-116452171D01*
X76601046Y-116404907D01*
X79494079Y-116404907D01*
X79494303Y-116409574D01*
X79494303Y-116409579D01*
X79498629Y-116499632D01*
X79506918Y-116672212D01*
X79559127Y-116934683D01*
X79649558Y-117186554D01*
X79651774Y-117190678D01*
X79725938Y-117328704D01*
X79776224Y-117422292D01*
X79779019Y-117426035D01*
X79779021Y-117426038D01*
X79909476Y-117600738D01*
X79936344Y-117636718D01*
X79939651Y-117639996D01*
X79939656Y-117640002D01*
X80123083Y-117821834D01*
X80126399Y-117825121D01*
X80130165Y-117827883D01*
X80130167Y-117827884D01*
X80300388Y-117952695D01*
X80342214Y-117983363D01*
X80346349Y-117985539D01*
X80346353Y-117985541D01*
X80475927Y-118053713D01*
X80579048Y-118107968D01*
X80583467Y-118109511D01*
X80827282Y-118194655D01*
X80827288Y-118194657D01*
X80831699Y-118196197D01*
X80836292Y-118197069D01*
X81021993Y-118232326D01*
X81094615Y-118246114D01*
X81221625Y-118251104D01*
X81357354Y-118256437D01*
X81357359Y-118256437D01*
X81362022Y-118256620D01*
X81457952Y-118246114D01*
X81623391Y-118227996D01*
X81623396Y-118227995D01*
X81628044Y-118227486D01*
X81645695Y-118222839D01*
X81882318Y-118160541D01*
X81886838Y-118159351D01*
X82017332Y-118103287D01*
X82128416Y-118055562D01*
X82128419Y-118055560D01*
X82132719Y-118053713D01*
X82136699Y-118051250D01*
X82136703Y-118051248D01*
X82356311Y-117915350D01*
X82356315Y-117915347D01*
X82360284Y-117912891D01*
X82455930Y-117831921D01*
X82560969Y-117742999D01*
X82560970Y-117742998D01*
X82564535Y-117739980D01*
X82680193Y-117608098D01*
X82737903Y-117542293D01*
X82737907Y-117542288D01*
X82740985Y-117538778D01*
X82753575Y-117519205D01*
X82883228Y-117317636D01*
X82883231Y-117317631D01*
X82885756Y-117313705D01*
X82995670Y-117069705D01*
X83037825Y-116920234D01*
X83067041Y-116816644D01*
X83067042Y-116816641D01*
X83068311Y-116812140D01*
X83080080Y-116719632D01*
X83101686Y-116549796D01*
X83101686Y-116549792D01*
X83102084Y-116546666D01*
X83102707Y-116522891D01*
X83103534Y-116491278D01*
X83104558Y-116452171D01*
X83099864Y-116389006D01*
X83085073Y-116189959D01*
X83085072Y-116189955D01*
X83084726Y-116185294D01*
X83081041Y-116169006D01*
X83026695Y-115928837D01*
X83025664Y-115924280D01*
X82928671Y-115674862D01*
X82795877Y-115442521D01*
X82630199Y-115232360D01*
X82435278Y-115048996D01*
X82215394Y-114896457D01*
X82211203Y-114894390D01*
X81979568Y-114780160D01*
X81979565Y-114780159D01*
X81975380Y-114778095D01*
X81720506Y-114696509D01*
X81557161Y-114669907D01*
X81460985Y-114654244D01*
X81460984Y-114654244D01*
X81456373Y-114653493D01*
X81322578Y-114651741D01*
X81193460Y-114650051D01*
X81193457Y-114650051D01*
X81188783Y-114649990D01*
X80923614Y-114686078D01*
X80919127Y-114687386D01*
X80919126Y-114687386D01*
X80887826Y-114696509D01*
X80666692Y-114760963D01*
X80662439Y-114762923D01*
X80662438Y-114762924D01*
X80619810Y-114782576D01*
X80423661Y-114873002D01*
X80419752Y-114875565D01*
X80203773Y-115017167D01*
X80203768Y-115017171D01*
X80199860Y-115019733D01*
X80000206Y-115197931D01*
X79955795Y-115251330D01*
X79848319Y-115380556D01*
X79829084Y-115403683D01*
X79690253Y-115632469D01*
X79586764Y-115879262D01*
X79585613Y-115883794D01*
X79585612Y-115883797D01*
X79524824Y-116123150D01*
X79520890Y-116138641D01*
X79494079Y-116404907D01*
X76601046Y-116404907D01*
X76599864Y-116389006D01*
X76585073Y-116189959D01*
X76585072Y-116189955D01*
X76584726Y-116185294D01*
X76581041Y-116169006D01*
X76526695Y-115928837D01*
X76525664Y-115924280D01*
X76428671Y-115674862D01*
X76295877Y-115442521D01*
X76130199Y-115232360D01*
X75935278Y-115048996D01*
X75715394Y-114896457D01*
X75711203Y-114894390D01*
X75479568Y-114780160D01*
X75479565Y-114780159D01*
X75475380Y-114778095D01*
X75220506Y-114696509D01*
X75057161Y-114669907D01*
X74960985Y-114654244D01*
X74960984Y-114654244D01*
X74956373Y-114653493D01*
X74822578Y-114651741D01*
X74693460Y-114650051D01*
X74693457Y-114650051D01*
X74688783Y-114649990D01*
X74423614Y-114686078D01*
X74419127Y-114687386D01*
X74419126Y-114687386D01*
X74387826Y-114696509D01*
X74166692Y-114760963D01*
X74162439Y-114762923D01*
X74162438Y-114762924D01*
X74119810Y-114782576D01*
X73923661Y-114873002D01*
X73919752Y-114875565D01*
X73703773Y-115017167D01*
X73703768Y-115017171D01*
X73699860Y-115019733D01*
X73500206Y-115197931D01*
X73455795Y-115251330D01*
X73348319Y-115380556D01*
X73329084Y-115403683D01*
X73190253Y-115632469D01*
X73086764Y-115879262D01*
X73085613Y-115883794D01*
X73085612Y-115883797D01*
X73024824Y-116123150D01*
X73020890Y-116138641D01*
X72994079Y-116404907D01*
X61057277Y-116404907D01*
X61017421Y-116389006D01*
X61011761Y-116387880D01*
X61011757Y-116387879D01*
X60806691Y-116347089D01*
X60806688Y-116347089D01*
X60801024Y-116345962D01*
X60795249Y-116345886D01*
X60795245Y-116345886D01*
X60684504Y-116344437D01*
X60580406Y-116343074D01*
X60574709Y-116344053D01*
X60574708Y-116344053D01*
X60368654Y-116379459D01*
X60368653Y-116379459D01*
X60362957Y-116380438D01*
X60155957Y-116456804D01*
X60150996Y-116459756D01*
X60150995Y-116459756D01*
X60098012Y-116491278D01*
X59966341Y-116569614D01*
X59800457Y-116715090D01*
X59663863Y-116888360D01*
X59561131Y-117083620D01*
X59495703Y-117294333D01*
X59469770Y-117513440D01*
X41680817Y-117513440D01*
X41698458Y-117391772D01*
X41698991Y-117388098D01*
X41700643Y-117325000D01*
X41680454Y-117105289D01*
X41670419Y-117069705D01*
X41628264Y-116920234D01*
X41620565Y-116892936D01*
X41522980Y-116695053D01*
X41502437Y-116667542D01*
X41394420Y-116522891D01*
X41394420Y-116522890D01*
X41390967Y-116518267D01*
X41263299Y-116400252D01*
X41233189Y-116372418D01*
X41233186Y-116372416D01*
X41228949Y-116368499D01*
X41042350Y-116250764D01*
X40837421Y-116169006D01*
X40831761Y-116167880D01*
X40831757Y-116167879D01*
X40626691Y-116127089D01*
X40626688Y-116127089D01*
X40621024Y-116125962D01*
X40615249Y-116125886D01*
X40615245Y-116125886D01*
X40504504Y-116124437D01*
X40400406Y-116123074D01*
X40394709Y-116124053D01*
X40394708Y-116124053D01*
X40188654Y-116159459D01*
X40188653Y-116159459D01*
X40182957Y-116160438D01*
X39975957Y-116236804D01*
X39786341Y-116349614D01*
X39620457Y-116495090D01*
X39483863Y-116668360D01*
X39381131Y-116863620D01*
X39315703Y-117074333D01*
X39289770Y-117293440D01*
X20800500Y-117293440D01*
X20800500Y-114163440D01*
X66939770Y-114163440D01*
X66954200Y-114383604D01*
X66955621Y-114389200D01*
X66955622Y-114389205D01*
X67004550Y-114581857D01*
X67008511Y-114597452D01*
X67010928Y-114602694D01*
X67010928Y-114602695D01*
X67046761Y-114680422D01*
X67100883Y-114797821D01*
X67228222Y-114978002D01*
X67386264Y-115131961D01*
X67391060Y-115135166D01*
X67391063Y-115135168D01*
X67531733Y-115229160D01*
X67569717Y-115254540D01*
X67575020Y-115256818D01*
X67575023Y-115256820D01*
X67749160Y-115331635D01*
X67772436Y-115341635D01*
X67833600Y-115355475D01*
X67981995Y-115389054D01*
X67982001Y-115389055D01*
X67987632Y-115390329D01*
X67993403Y-115390556D01*
X67993405Y-115390556D01*
X68061211Y-115393220D01*
X68208098Y-115398991D01*
X68317275Y-115383161D01*
X68420738Y-115368160D01*
X68420743Y-115368159D01*
X68426452Y-115367331D01*
X68431916Y-115365476D01*
X68431921Y-115365475D01*
X68629907Y-115298268D01*
X68629912Y-115298266D01*
X68635379Y-115296410D01*
X68653236Y-115286410D01*
X68723928Y-115246820D01*
X68827884Y-115188602D01*
X68844350Y-115174908D01*
X68966397Y-115073402D01*
X68997518Y-115047518D01*
X69138602Y-114877884D01*
X69246410Y-114685379D01*
X69248266Y-114679912D01*
X69248268Y-114679907D01*
X69315475Y-114481921D01*
X69315476Y-114481916D01*
X69317331Y-114476452D01*
X69318159Y-114470743D01*
X69318160Y-114470738D01*
X69348458Y-114261772D01*
X69348991Y-114258098D01*
X69350643Y-114195000D01*
X69346824Y-114153440D01*
X70079770Y-114153440D01*
X70094200Y-114373604D01*
X70095621Y-114379200D01*
X70095622Y-114379205D01*
X70120320Y-114476452D01*
X70148511Y-114587452D01*
X70150928Y-114592694D01*
X70150928Y-114592695D01*
X70195981Y-114690422D01*
X70240883Y-114787821D01*
X70368222Y-114968002D01*
X70526264Y-115121961D01*
X70531060Y-115125166D01*
X70531063Y-115125168D01*
X70639961Y-115197931D01*
X70709717Y-115244540D01*
X70715020Y-115246818D01*
X70715023Y-115246820D01*
X70834772Y-115298268D01*
X70912436Y-115331635D01*
X70992088Y-115349658D01*
X71121995Y-115379054D01*
X71122001Y-115379055D01*
X71127632Y-115380329D01*
X71133403Y-115380556D01*
X71133405Y-115380556D01*
X71201211Y-115383220D01*
X71348098Y-115388991D01*
X71457275Y-115373161D01*
X71560738Y-115358160D01*
X71560743Y-115358159D01*
X71566452Y-115357331D01*
X71571916Y-115355476D01*
X71571921Y-115355475D01*
X71769907Y-115288268D01*
X71769912Y-115288266D01*
X71775379Y-115286410D01*
X71967884Y-115178602D01*
X72020108Y-115135168D01*
X72133086Y-115041204D01*
X72137518Y-115037518D01*
X72272214Y-114875565D01*
X72274908Y-114872326D01*
X72274910Y-114872323D01*
X72278602Y-114867884D01*
X72386410Y-114675379D01*
X72388266Y-114669912D01*
X72388268Y-114669907D01*
X72455475Y-114471921D01*
X72455476Y-114471916D01*
X72457331Y-114466452D01*
X72458159Y-114460743D01*
X72458160Y-114460738D01*
X72488458Y-114251772D01*
X72488991Y-114248098D01*
X72490643Y-114185000D01*
X72470454Y-113965289D01*
X72410565Y-113752936D01*
X72312980Y-113555053D01*
X72297128Y-113533824D01*
X72184420Y-113382891D01*
X72184420Y-113382890D01*
X72180967Y-113378267D01*
X72051935Y-113258991D01*
X72023189Y-113232418D01*
X72023186Y-113232416D01*
X72018949Y-113228499D01*
X71832350Y-113110764D01*
X71627421Y-113029006D01*
X71621761Y-113027880D01*
X71621757Y-113027879D01*
X71416691Y-112987089D01*
X71416688Y-112987089D01*
X71411024Y-112985962D01*
X71405249Y-112985886D01*
X71405245Y-112985886D01*
X71294504Y-112984437D01*
X71190406Y-112983074D01*
X71184709Y-112984053D01*
X71184708Y-112984053D01*
X70978654Y-113019459D01*
X70978653Y-113019459D01*
X70972957Y-113020438D01*
X70765957Y-113096804D01*
X70760996Y-113099756D01*
X70760995Y-113099756D01*
X70636277Y-113173956D01*
X70576341Y-113209614D01*
X70410457Y-113355090D01*
X70273863Y-113528360D01*
X70171131Y-113723620D01*
X70105703Y-113934333D01*
X70079770Y-114153440D01*
X69346824Y-114153440D01*
X69330454Y-113975289D01*
X69317348Y-113928816D01*
X69289636Y-113830556D01*
X69270565Y-113762936D01*
X69172980Y-113565053D01*
X69169382Y-113560234D01*
X69044420Y-113392891D01*
X69044420Y-113392890D01*
X69040967Y-113388267D01*
X68900872Y-113258764D01*
X68883189Y-113242418D01*
X68883186Y-113242416D01*
X68878949Y-113238499D01*
X68692350Y-113120764D01*
X68487421Y-113039006D01*
X68481761Y-113037880D01*
X68481757Y-113037879D01*
X68276691Y-112997089D01*
X68276688Y-112997089D01*
X68271024Y-112995962D01*
X68265249Y-112995886D01*
X68265245Y-112995886D01*
X68154504Y-112994437D01*
X68050406Y-112993074D01*
X68044709Y-112994053D01*
X68044708Y-112994053D01*
X67838654Y-113029459D01*
X67838653Y-113029459D01*
X67832957Y-113030438D01*
X67625957Y-113106804D01*
X67620996Y-113109756D01*
X67620995Y-113109756D01*
X67458115Y-113206660D01*
X67436341Y-113219614D01*
X67270457Y-113365090D01*
X67133863Y-113538360D01*
X67031131Y-113733620D01*
X66965703Y-113944333D01*
X66939770Y-114163440D01*
X20800500Y-114163440D01*
X20800500Y-111189512D01*
X59423698Y-111189512D01*
X59438128Y-111409676D01*
X59439549Y-111415272D01*
X59439550Y-111415277D01*
X59464851Y-111514899D01*
X59492439Y-111623524D01*
X59494856Y-111628766D01*
X59494856Y-111628767D01*
X59581459Y-111816622D01*
X59591814Y-111886859D01*
X59578541Y-111928041D01*
X59525059Y-112029692D01*
X59459631Y-112240405D01*
X59433698Y-112459512D01*
X59448128Y-112679676D01*
X59449549Y-112685272D01*
X59449550Y-112685277D01*
X59488338Y-112838002D01*
X59502439Y-112893524D01*
X59504856Y-112898766D01*
X59504856Y-112898767D01*
X59548784Y-112994053D01*
X59594811Y-113093893D01*
X59722150Y-113274074D01*
X59880192Y-113428033D01*
X59884988Y-113431238D01*
X59884991Y-113431240D01*
X59969189Y-113487499D01*
X60063645Y-113550612D01*
X60068948Y-113552890D01*
X60068951Y-113552892D01*
X60251747Y-113631427D01*
X60266364Y-113637707D01*
X60346016Y-113655730D01*
X60475923Y-113685126D01*
X60475929Y-113685127D01*
X60481560Y-113686401D01*
X60487331Y-113686628D01*
X60487333Y-113686628D01*
X60555139Y-113689292D01*
X60702026Y-113695063D01*
X60811203Y-113679233D01*
X60914666Y-113664232D01*
X60914671Y-113664231D01*
X60920380Y-113663403D01*
X60925844Y-113661548D01*
X60925849Y-113661547D01*
X61123835Y-113594340D01*
X61123840Y-113594338D01*
X61129307Y-113592482D01*
X61160224Y-113575168D01*
X61243805Y-113528360D01*
X61321812Y-113484674D01*
X61491446Y-113343590D01*
X61561807Y-113258991D01*
X61628836Y-113178398D01*
X61628838Y-113178395D01*
X61632530Y-113173956D01*
X61712109Y-113031857D01*
X61737514Y-112986494D01*
X61737515Y-112986492D01*
X61740338Y-112981451D01*
X61742194Y-112975984D01*
X61742196Y-112975979D01*
X61809403Y-112777993D01*
X61809404Y-112777988D01*
X61811259Y-112772524D01*
X61812087Y-112766815D01*
X61812088Y-112766810D01*
X61842386Y-112557844D01*
X61842919Y-112554170D01*
X61844571Y-112491072D01*
X61824382Y-112271361D01*
X61818134Y-112249205D01*
X61778338Y-112108098D01*
X61764493Y-112059008D01*
X61746953Y-112023440D01*
X62979770Y-112023440D01*
X62994200Y-112243604D01*
X62995621Y-112249200D01*
X62995622Y-112249205D01*
X63015241Y-112326452D01*
X63048511Y-112457452D01*
X63140883Y-112657821D01*
X63268222Y-112838002D01*
X63426264Y-112991961D01*
X63431060Y-112995166D01*
X63431063Y-112995168D01*
X63604911Y-113111329D01*
X63609717Y-113114540D01*
X63615020Y-113116818D01*
X63615023Y-113116820D01*
X63789160Y-113191635D01*
X63812436Y-113201635D01*
X63864536Y-113213424D01*
X64021995Y-113249054D01*
X64022001Y-113249055D01*
X64027632Y-113250329D01*
X64033403Y-113250556D01*
X64033405Y-113250556D01*
X64101211Y-113253220D01*
X64248098Y-113258991D01*
X64361579Y-113242537D01*
X64460738Y-113228160D01*
X64460743Y-113228159D01*
X64466452Y-113227331D01*
X64471916Y-113225476D01*
X64471921Y-113225475D01*
X64669907Y-113158268D01*
X64669912Y-113158266D01*
X64675379Y-113156410D01*
X64693236Y-113146410D01*
X64763957Y-113106804D01*
X64867884Y-113048602D01*
X64874987Y-113042695D01*
X65033086Y-112911204D01*
X65037518Y-112907518D01*
X65168713Y-112749774D01*
X65227651Y-112710191D01*
X65298633Y-112708755D01*
X65359123Y-112745922D01*
X65368483Y-112757623D01*
X65418222Y-112828002D01*
X65576264Y-112981961D01*
X65581060Y-112985166D01*
X65581063Y-112985168D01*
X65752557Y-113099756D01*
X65759717Y-113104540D01*
X65765020Y-113106818D01*
X65765023Y-113106820D01*
X65884772Y-113158268D01*
X65962436Y-113191635D01*
X66028837Y-113206660D01*
X66171995Y-113239054D01*
X66172001Y-113239055D01*
X66177632Y-113240329D01*
X66183403Y-113240556D01*
X66183405Y-113240556D01*
X66251211Y-113243220D01*
X66398098Y-113248991D01*
X66511310Y-113232576D01*
X66610738Y-113218160D01*
X66610743Y-113218159D01*
X66616452Y-113217331D01*
X66621916Y-113215476D01*
X66621921Y-113215475D01*
X66819907Y-113148268D01*
X66819912Y-113148266D01*
X66825379Y-113146410D01*
X66874995Y-113118624D01*
X66913957Y-113096804D01*
X67017884Y-113038602D01*
X67025295Y-113032439D01*
X67183086Y-112901204D01*
X67187518Y-112897518D01*
X67249256Y-112823287D01*
X67324908Y-112732326D01*
X67324910Y-112732323D01*
X67328602Y-112727884D01*
X67398294Y-112603440D01*
X92139770Y-112603440D01*
X92154200Y-112823604D01*
X92155621Y-112829200D01*
X92155622Y-112829205D01*
X92197489Y-112994053D01*
X92208511Y-113037452D01*
X92210928Y-113042694D01*
X92210928Y-113042695D01*
X92246919Y-113120764D01*
X92300883Y-113237821D01*
X92428222Y-113418002D01*
X92586264Y-113571961D01*
X92591060Y-113575166D01*
X92591063Y-113575168D01*
X92675261Y-113631427D01*
X92769717Y-113694540D01*
X92775020Y-113696818D01*
X92775023Y-113696820D01*
X92905637Y-113752936D01*
X92972436Y-113781635D01*
X93052088Y-113799658D01*
X93181995Y-113829054D01*
X93182001Y-113829055D01*
X93187632Y-113830329D01*
X93193403Y-113830556D01*
X93193405Y-113830556D01*
X93261211Y-113833220D01*
X93408098Y-113838991D01*
X93517275Y-113823161D01*
X93620738Y-113808160D01*
X93620743Y-113808159D01*
X93626452Y-113807331D01*
X93631916Y-113805476D01*
X93631921Y-113805475D01*
X93829907Y-113738268D01*
X93829912Y-113738266D01*
X93835379Y-113736410D01*
X93849497Y-113728504D01*
X94009349Y-113638982D01*
X94027884Y-113628602D01*
X94069080Y-113594340D01*
X94193086Y-113491204D01*
X94197518Y-113487518D01*
X94244324Y-113431240D01*
X94334908Y-113322326D01*
X94334910Y-113322323D01*
X94338602Y-113317884D01*
X94446410Y-113125379D01*
X94448266Y-113119912D01*
X94448268Y-113119907D01*
X94515475Y-112921921D01*
X94515476Y-112921916D01*
X94517331Y-112916452D01*
X94518159Y-112910743D01*
X94518160Y-112910738D01*
X94544672Y-112727884D01*
X94548991Y-112698098D01*
X94550643Y-112635000D01*
X94530454Y-112415289D01*
X94470565Y-112202936D01*
X94372980Y-112005053D01*
X94267093Y-111863253D01*
X94244420Y-111832891D01*
X94244420Y-111832890D01*
X94240967Y-111828267D01*
X94078949Y-111678499D01*
X93892350Y-111560764D01*
X93687421Y-111479006D01*
X93681761Y-111477880D01*
X93681757Y-111477879D01*
X93476691Y-111437089D01*
X93476688Y-111437089D01*
X93471024Y-111435962D01*
X93465249Y-111435886D01*
X93465245Y-111435886D01*
X93354504Y-111434437D01*
X93250406Y-111433074D01*
X93244709Y-111434053D01*
X93244708Y-111434053D01*
X93038654Y-111469459D01*
X93038653Y-111469459D01*
X93032957Y-111470438D01*
X92825957Y-111546804D01*
X92820996Y-111549756D01*
X92820995Y-111549756D01*
X92644870Y-111654540D01*
X92636341Y-111659614D01*
X92470457Y-111805090D01*
X92333863Y-111978360D01*
X92231131Y-112173620D01*
X92165703Y-112384333D01*
X92139770Y-112603440D01*
X67398294Y-112603440D01*
X67436410Y-112535379D01*
X67438266Y-112529912D01*
X67438268Y-112529907D01*
X67505475Y-112331921D01*
X67505476Y-112331916D01*
X67507331Y-112326452D01*
X67508159Y-112320743D01*
X67508160Y-112320738D01*
X67538458Y-112111772D01*
X67538991Y-112108098D01*
X67540643Y-112045000D01*
X67520454Y-111825289D01*
X67514758Y-111805090D01*
X67488349Y-111711451D01*
X67460565Y-111612936D01*
X67362980Y-111415053D01*
X67347128Y-111393824D01*
X67234420Y-111242891D01*
X67234420Y-111242890D01*
X67230967Y-111238267D01*
X67133586Y-111148249D01*
X67073189Y-111092418D01*
X67073186Y-111092416D01*
X67068949Y-111088499D01*
X66882350Y-110970764D01*
X66677421Y-110889006D01*
X66671761Y-110887880D01*
X66671757Y-110887879D01*
X66466691Y-110847089D01*
X66466688Y-110847089D01*
X66461024Y-110845962D01*
X66455249Y-110845886D01*
X66455245Y-110845886D01*
X66344504Y-110844437D01*
X66240406Y-110843074D01*
X66234709Y-110844053D01*
X66234708Y-110844053D01*
X66028654Y-110879459D01*
X66028653Y-110879459D01*
X66022957Y-110880438D01*
X65815957Y-110956804D01*
X65810996Y-110959756D01*
X65810995Y-110959756D01*
X65741064Y-111001361D01*
X65626341Y-111069614D01*
X65460457Y-111215090D01*
X65414932Y-111272839D01*
X65354507Y-111349488D01*
X65296626Y-111390602D01*
X65225706Y-111393896D01*
X65164263Y-111358325D01*
X65154599Y-111346872D01*
X65084420Y-111252891D01*
X65084420Y-111252890D01*
X65080967Y-111248267D01*
X64918949Y-111098499D01*
X64732350Y-110980764D01*
X64527421Y-110899006D01*
X64521761Y-110897880D01*
X64521757Y-110897879D01*
X64316691Y-110857089D01*
X64316688Y-110857089D01*
X64311024Y-110855962D01*
X64305249Y-110855886D01*
X64305245Y-110855886D01*
X64194504Y-110854437D01*
X64090406Y-110853074D01*
X64084709Y-110854053D01*
X64084708Y-110854053D01*
X63878654Y-110889459D01*
X63878653Y-110889459D01*
X63872957Y-110890438D01*
X63665957Y-110966804D01*
X63660996Y-110969756D01*
X63660995Y-110969756D01*
X63498115Y-111066660D01*
X63476341Y-111079614D01*
X63310457Y-111225090D01*
X63173863Y-111398360D01*
X63071131Y-111593620D01*
X63005703Y-111804333D01*
X62979770Y-112023440D01*
X61746953Y-112023440D01*
X61722485Y-111973824D01*
X61686680Y-111901218D01*
X61674490Y-111831276D01*
X61689751Y-111783924D01*
X61714711Y-111739355D01*
X61730338Y-111711451D01*
X61732194Y-111705984D01*
X61732196Y-111705979D01*
X61799403Y-111507993D01*
X61799404Y-111507988D01*
X61801259Y-111502524D01*
X61802087Y-111496815D01*
X61802088Y-111496810D01*
X61832386Y-111287844D01*
X61832919Y-111284170D01*
X61834571Y-111221072D01*
X61814382Y-111001361D01*
X61754493Y-110789008D01*
X61723504Y-110726167D01*
X61711314Y-110656227D01*
X61726576Y-110608875D01*
X61752021Y-110563440D01*
X70549770Y-110563440D01*
X70564200Y-110783604D01*
X70565621Y-110789200D01*
X70565622Y-110789205D01*
X70613099Y-110976142D01*
X70618511Y-110997452D01*
X70620928Y-111002694D01*
X70620928Y-111002695D01*
X70661371Y-111090422D01*
X70710883Y-111197821D01*
X70838222Y-111378002D01*
X70996264Y-111531961D01*
X71001060Y-111535166D01*
X71001063Y-111535168D01*
X71085261Y-111591427D01*
X71179717Y-111654540D01*
X71185020Y-111656818D01*
X71185023Y-111656820D01*
X71323907Y-111716489D01*
X71382436Y-111741635D01*
X71462088Y-111759658D01*
X71591995Y-111789054D01*
X71592001Y-111789055D01*
X71597632Y-111790329D01*
X71603403Y-111790556D01*
X71603405Y-111790556D01*
X71671211Y-111793220D01*
X71818098Y-111798991D01*
X71927275Y-111783161D01*
X72030738Y-111768160D01*
X72030743Y-111768159D01*
X72036452Y-111767331D01*
X72041916Y-111765476D01*
X72041921Y-111765475D01*
X72239907Y-111698268D01*
X72239912Y-111698266D01*
X72245379Y-111696410D01*
X72277362Y-111678499D01*
X72385517Y-111617929D01*
X72437884Y-111588602D01*
X72471356Y-111560764D01*
X72603086Y-111451204D01*
X72607518Y-111447518D01*
X72691225Y-111346872D01*
X72744908Y-111282326D01*
X72744910Y-111282323D01*
X72748602Y-111277884D01*
X72846868Y-111102418D01*
X72853586Y-111090422D01*
X72853587Y-111090420D01*
X72856410Y-111085379D01*
X72858266Y-111079912D01*
X72858268Y-111079907D01*
X72925475Y-110881921D01*
X72925476Y-110881916D01*
X72927331Y-110876452D01*
X72928159Y-110870743D01*
X72928160Y-110870738D01*
X72958458Y-110661772D01*
X72958991Y-110658098D01*
X72960643Y-110595000D01*
X72940454Y-110375289D01*
X72935795Y-110358767D01*
X72882134Y-110168500D01*
X72880565Y-110162936D01*
X72782980Y-109965053D01*
X72753279Y-109925278D01*
X72654420Y-109792891D01*
X72654420Y-109792890D01*
X72650967Y-109788267D01*
X72488949Y-109638499D01*
X72302350Y-109520764D01*
X72097421Y-109439006D01*
X72091761Y-109437880D01*
X72091757Y-109437879D01*
X71886691Y-109397089D01*
X71886688Y-109397089D01*
X71881024Y-109395962D01*
X71875249Y-109395886D01*
X71875245Y-109395886D01*
X71764504Y-109394437D01*
X71660406Y-109393074D01*
X71654709Y-109394053D01*
X71654708Y-109394053D01*
X71448654Y-109429459D01*
X71448653Y-109429459D01*
X71442957Y-109430438D01*
X71235957Y-109506804D01*
X71046341Y-109619614D01*
X70880457Y-109765090D01*
X70743863Y-109938360D01*
X70641131Y-110133620D01*
X70575703Y-110344333D01*
X70549770Y-110563440D01*
X61752021Y-110563440D01*
X61817514Y-110446494D01*
X61817515Y-110446492D01*
X61820338Y-110441451D01*
X61822194Y-110435984D01*
X61822196Y-110435979D01*
X61889403Y-110237993D01*
X61889404Y-110237988D01*
X61891259Y-110232524D01*
X61892087Y-110226815D01*
X61892088Y-110226810D01*
X61922386Y-110017844D01*
X61922919Y-110014170D01*
X61924571Y-109951072D01*
X61904382Y-109731361D01*
X61844493Y-109519008D01*
X61839931Y-109509756D01*
X61804484Y-109437879D01*
X61797123Y-109422951D01*
X61784933Y-109353011D01*
X61800195Y-109305657D01*
X61857787Y-109202820D01*
X61857787Y-109202819D01*
X61860610Y-109197779D01*
X61862466Y-109192312D01*
X61862468Y-109192307D01*
X61929675Y-108994321D01*
X61929676Y-108994316D01*
X61931531Y-108988852D01*
X61932359Y-108983143D01*
X61932360Y-108983138D01*
X61962658Y-108774172D01*
X61963191Y-108770498D01*
X61964843Y-108707400D01*
X61944654Y-108487689D01*
X61884765Y-108275336D01*
X61787180Y-108077453D01*
X61655167Y-107900667D01*
X61493149Y-107750899D01*
X61306550Y-107633164D01*
X61101621Y-107551406D01*
X61095961Y-107550280D01*
X61095957Y-107550279D01*
X60890891Y-107509489D01*
X60890888Y-107509489D01*
X60885224Y-107508362D01*
X60879449Y-107508286D01*
X60879445Y-107508286D01*
X60768704Y-107506837D01*
X60664606Y-107505474D01*
X60658909Y-107506453D01*
X60658908Y-107506453D01*
X60452854Y-107541859D01*
X60452853Y-107541859D01*
X60447157Y-107542838D01*
X60240157Y-107619204D01*
X60050541Y-107732014D01*
X59884657Y-107877490D01*
X59748063Y-108050760D01*
X59645331Y-108246020D01*
X59579903Y-108456733D01*
X59553970Y-108675840D01*
X59568400Y-108896004D01*
X59569821Y-108901600D01*
X59569822Y-108901605D01*
X59621290Y-109104257D01*
X59622711Y-109109852D01*
X59681784Y-109237991D01*
X59692139Y-109308227D01*
X59678866Y-109349409D01*
X59605059Y-109489692D01*
X59539631Y-109700405D01*
X59513698Y-109919512D01*
X59528128Y-110139676D01*
X59529549Y-110145272D01*
X59529550Y-110145277D01*
X59578704Y-110338816D01*
X59582439Y-110353524D01*
X59584856Y-110358766D01*
X59584856Y-110358767D01*
X59625151Y-110446173D01*
X59635506Y-110516410D01*
X59617599Y-110564331D01*
X59617791Y-110564432D01*
X59515059Y-110759692D01*
X59461048Y-110933635D01*
X59451370Y-110964806D01*
X59449631Y-110970405D01*
X59423698Y-111189512D01*
X20800500Y-111189512D01*
X20800500Y-104167736D01*
X26260070Y-104167736D01*
X26260294Y-104172403D01*
X26260294Y-104172408D01*
X26262890Y-104226452D01*
X26272909Y-104435041D01*
X26325118Y-104697512D01*
X26415549Y-104949383D01*
X26417765Y-104953507D01*
X26518148Y-105140329D01*
X26542215Y-105185121D01*
X26545010Y-105188864D01*
X26545012Y-105188867D01*
X26629199Y-105301607D01*
X26702335Y-105399547D01*
X26705642Y-105402825D01*
X26705647Y-105402831D01*
X26834987Y-105531046D01*
X26892390Y-105587950D01*
X27108205Y-105746192D01*
X27112340Y-105748368D01*
X27112344Y-105748370D01*
X27241918Y-105816542D01*
X27345039Y-105870797D01*
X27349458Y-105872340D01*
X27593273Y-105957484D01*
X27593279Y-105957486D01*
X27597690Y-105959026D01*
X27860606Y-106008943D01*
X27987616Y-106013933D01*
X28123345Y-106019266D01*
X28123350Y-106019266D01*
X28128013Y-106019449D01*
X28223943Y-106008943D01*
X28389382Y-105990825D01*
X28389387Y-105990824D01*
X28394035Y-105990315D01*
X28509567Y-105959898D01*
X28648309Y-105923370D01*
X28652829Y-105922180D01*
X28777501Y-105868617D01*
X28894407Y-105818391D01*
X28894410Y-105818389D01*
X28898710Y-105816542D01*
X28902690Y-105814079D01*
X28902694Y-105814077D01*
X29065321Y-105713440D01*
X66019770Y-105713440D01*
X66034200Y-105933604D01*
X66035621Y-105939200D01*
X66035622Y-105939205D01*
X66087090Y-106141857D01*
X66088511Y-106147452D01*
X66090928Y-106152694D01*
X66090928Y-106152695D01*
X66129046Y-106235379D01*
X66180883Y-106347821D01*
X66308222Y-106528002D01*
X66466264Y-106681961D01*
X66471060Y-106685166D01*
X66471063Y-106685168D01*
X66555261Y-106741427D01*
X66649717Y-106804540D01*
X66655020Y-106806818D01*
X66655023Y-106806820D01*
X66847129Y-106889355D01*
X66852436Y-106891635D01*
X66932088Y-106909658D01*
X67061995Y-106939054D01*
X67062001Y-106939055D01*
X67067632Y-106940329D01*
X67073403Y-106940556D01*
X67073405Y-106940556D01*
X67141211Y-106943220D01*
X67288098Y-106948991D01*
X67397275Y-106933161D01*
X67500738Y-106918160D01*
X67500743Y-106918159D01*
X67506452Y-106917331D01*
X67511916Y-106915476D01*
X67511921Y-106915475D01*
X67709907Y-106848268D01*
X67709912Y-106848266D01*
X67715379Y-106846410D01*
X67907884Y-106738602D01*
X68077518Y-106597518D01*
X68218602Y-106427884D01*
X68326410Y-106235379D01*
X68328266Y-106229912D01*
X68328268Y-106229907D01*
X68395475Y-106031921D01*
X68395476Y-106031916D01*
X68397331Y-106026452D01*
X68398159Y-106020743D01*
X68398160Y-106020738D01*
X68420216Y-105868617D01*
X68428991Y-105808098D01*
X68430643Y-105745000D01*
X68410454Y-105525289D01*
X68404966Y-105505828D01*
X68375918Y-105402831D01*
X68350565Y-105312936D01*
X68252980Y-105115053D01*
X68224217Y-105076534D01*
X68124420Y-104942891D01*
X68124420Y-104942890D01*
X68120967Y-104938267D01*
X68006586Y-104832534D01*
X67963189Y-104792418D01*
X67963186Y-104792416D01*
X67958949Y-104788499D01*
X67772350Y-104670764D01*
X67567421Y-104589006D01*
X67561761Y-104587880D01*
X67561757Y-104587879D01*
X67356691Y-104547089D01*
X67356688Y-104547089D01*
X67351024Y-104545962D01*
X67345249Y-104545886D01*
X67345245Y-104545886D01*
X67234504Y-104544437D01*
X67130406Y-104543074D01*
X67124709Y-104544053D01*
X67124708Y-104544053D01*
X66918654Y-104579459D01*
X66918653Y-104579459D01*
X66912957Y-104580438D01*
X66705957Y-104656804D01*
X66700996Y-104659756D01*
X66700995Y-104659756D01*
X66579516Y-104732029D01*
X66516341Y-104769614D01*
X66350457Y-104915090D01*
X66213863Y-105088360D01*
X66111131Y-105283620D01*
X66045703Y-105494333D01*
X66019770Y-105713440D01*
X29065321Y-105713440D01*
X29122302Y-105678179D01*
X29122306Y-105678176D01*
X29126275Y-105675720D01*
X29140010Y-105664092D01*
X29326960Y-105505828D01*
X29326961Y-105505827D01*
X29330526Y-105502809D01*
X29424365Y-105395807D01*
X29503894Y-105305122D01*
X29503898Y-105305117D01*
X29506976Y-105301607D01*
X29509506Y-105297674D01*
X29649219Y-105080465D01*
X29649222Y-105080460D01*
X29651747Y-105076534D01*
X29761661Y-104832534D01*
X29779406Y-104769614D01*
X29833032Y-104579473D01*
X29833033Y-104579470D01*
X29834302Y-104574969D01*
X29852103Y-104435041D01*
X29867677Y-104312625D01*
X29867677Y-104312621D01*
X29868075Y-104309495D01*
X29870549Y-104215000D01*
X29864917Y-104139205D01*
X29851064Y-103952788D01*
X29851063Y-103952784D01*
X29850717Y-103948123D01*
X29842869Y-103913440D01*
X63799770Y-103913440D01*
X63814200Y-104133604D01*
X63815621Y-104139200D01*
X63815622Y-104139205D01*
X63858069Y-104306338D01*
X63868511Y-104347452D01*
X63870928Y-104352694D01*
X63870928Y-104352695D01*
X63906737Y-104430371D01*
X63960883Y-104547821D01*
X64088222Y-104728002D01*
X64246264Y-104881961D01*
X64251060Y-104885166D01*
X64251063Y-104885168D01*
X64335261Y-104941427D01*
X64429717Y-105004540D01*
X64435020Y-105006818D01*
X64435023Y-105006820D01*
X64597287Y-105076534D01*
X64632436Y-105091635D01*
X64712088Y-105109658D01*
X64841995Y-105139054D01*
X64842001Y-105139055D01*
X64847632Y-105140329D01*
X64853403Y-105140556D01*
X64853405Y-105140556D01*
X64921211Y-105143220D01*
X65068098Y-105148991D01*
X65177275Y-105133161D01*
X65280738Y-105118160D01*
X65280743Y-105118159D01*
X65286452Y-105117331D01*
X65291916Y-105115476D01*
X65291921Y-105115475D01*
X65489907Y-105048268D01*
X65489912Y-105048266D01*
X65495379Y-105046410D01*
X65687884Y-104938602D01*
X65692996Y-104934351D01*
X65853086Y-104801204D01*
X65857518Y-104797518D01*
X65919256Y-104723287D01*
X65994908Y-104632326D01*
X65994910Y-104632323D01*
X65998602Y-104627884D01*
X66106410Y-104435379D01*
X66108266Y-104429912D01*
X66108268Y-104429907D01*
X66175475Y-104231921D01*
X66175476Y-104231916D01*
X66177331Y-104226452D01*
X66178159Y-104220743D01*
X66178160Y-104220738D01*
X66208458Y-104011772D01*
X66208991Y-104008098D01*
X66210643Y-103945000D01*
X66190454Y-103725289D01*
X66180972Y-103691666D01*
X66132134Y-103518500D01*
X66130565Y-103512936D01*
X66032980Y-103315053D01*
X65951061Y-103205350D01*
X65904420Y-103142891D01*
X65904420Y-103142890D01*
X65900967Y-103138267D01*
X65803586Y-103048249D01*
X65743189Y-102992418D01*
X65743186Y-102992416D01*
X65738949Y-102988499D01*
X65552350Y-102870764D01*
X65347421Y-102789006D01*
X65341761Y-102787880D01*
X65341757Y-102787879D01*
X65136691Y-102747089D01*
X65136688Y-102747089D01*
X65131024Y-102745962D01*
X65125249Y-102745886D01*
X65125245Y-102745886D01*
X65014504Y-102744437D01*
X64910406Y-102743074D01*
X64904709Y-102744053D01*
X64904708Y-102744053D01*
X64698654Y-102779459D01*
X64698653Y-102779459D01*
X64692957Y-102780438D01*
X64485957Y-102856804D01*
X64296341Y-102969614D01*
X64130457Y-103115090D01*
X63993863Y-103288360D01*
X63891131Y-103483620D01*
X63825703Y-103694333D01*
X63799770Y-103913440D01*
X29842869Y-103913440D01*
X29840161Y-103901470D01*
X29794588Y-103700070D01*
X29791655Y-103687109D01*
X29694662Y-103437691D01*
X29561868Y-103205350D01*
X29396190Y-102995189D01*
X29201269Y-102811825D01*
X28981385Y-102659286D01*
X28977194Y-102657219D01*
X28745559Y-102542989D01*
X28745556Y-102542988D01*
X28741371Y-102540924D01*
X28486497Y-102459338D01*
X28341134Y-102435665D01*
X28226976Y-102417073D01*
X28226975Y-102417073D01*
X28222364Y-102416322D01*
X28088569Y-102414570D01*
X27959451Y-102412880D01*
X27959448Y-102412880D01*
X27954774Y-102412819D01*
X27689605Y-102448907D01*
X27685118Y-102450215D01*
X27685117Y-102450215D01*
X27653817Y-102459338D01*
X27432683Y-102523792D01*
X27428430Y-102525752D01*
X27428429Y-102525753D01*
X27376512Y-102549687D01*
X27189652Y-102635831D01*
X27185743Y-102638394D01*
X26969764Y-102779996D01*
X26969759Y-102780000D01*
X26965851Y-102782562D01*
X26766197Y-102960760D01*
X26595075Y-103166512D01*
X26592652Y-103170505D01*
X26507746Y-103310426D01*
X26456244Y-103395298D01*
X26454437Y-103399606D01*
X26454437Y-103399607D01*
X26409088Y-103507753D01*
X26352755Y-103642091D01*
X26351604Y-103646623D01*
X26351603Y-103646626D01*
X26339487Y-103694333D01*
X26286881Y-103901470D01*
X26260070Y-104167736D01*
X20800500Y-104167736D01*
X20800500Y-97667736D01*
X26260070Y-97667736D01*
X26260294Y-97672403D01*
X26260294Y-97672408D01*
X26265963Y-97790422D01*
X26272909Y-97935041D01*
X26325118Y-98197512D01*
X26326698Y-98201912D01*
X26326698Y-98201913D01*
X26338638Y-98235168D01*
X26415549Y-98449383D01*
X26417765Y-98453507D01*
X26485982Y-98580465D01*
X26542215Y-98685121D01*
X26545010Y-98688864D01*
X26545012Y-98688867D01*
X26699542Y-98895807D01*
X26702335Y-98899547D01*
X26705642Y-98902825D01*
X26705647Y-98902831D01*
X26832347Y-99028429D01*
X26892390Y-99087950D01*
X26896156Y-99090712D01*
X26896158Y-99090713D01*
X27029801Y-99188704D01*
X27108205Y-99246192D01*
X27112340Y-99248368D01*
X27112344Y-99248370D01*
X27241918Y-99316542D01*
X27345039Y-99370797D01*
X27369116Y-99379205D01*
X27593273Y-99457484D01*
X27593279Y-99457486D01*
X27597690Y-99459026D01*
X27860606Y-99508943D01*
X27987616Y-99513933D01*
X28123345Y-99519266D01*
X28123350Y-99519266D01*
X28128013Y-99519449D01*
X28223943Y-99508943D01*
X28389382Y-99490825D01*
X28389387Y-99490824D01*
X28394035Y-99490315D01*
X28509567Y-99459898D01*
X28648309Y-99423370D01*
X28652829Y-99422180D01*
X28779317Y-99367837D01*
X28894407Y-99318391D01*
X28894410Y-99318389D01*
X28898710Y-99316542D01*
X28902690Y-99314079D01*
X28902694Y-99314077D01*
X29122302Y-99178179D01*
X29122306Y-99178176D01*
X29126275Y-99175720D01*
X29152593Y-99153440D01*
X36099770Y-99153440D01*
X36114200Y-99373604D01*
X36115621Y-99379200D01*
X36115622Y-99379205D01*
X36167090Y-99581857D01*
X36168511Y-99587452D01*
X36170928Y-99592694D01*
X36170928Y-99592695D01*
X36225952Y-99712051D01*
X36260883Y-99787821D01*
X36388222Y-99968002D01*
X36546264Y-100121961D01*
X36551060Y-100125166D01*
X36551063Y-100125168D01*
X36691163Y-100218779D01*
X36729717Y-100244540D01*
X36735020Y-100246818D01*
X36735023Y-100246820D01*
X36927129Y-100329355D01*
X36932436Y-100331635D01*
X37012088Y-100349658D01*
X37141995Y-100379054D01*
X37142001Y-100379055D01*
X37147632Y-100380329D01*
X37153403Y-100380556D01*
X37153405Y-100380556D01*
X37221211Y-100383220D01*
X37368098Y-100388991D01*
X37477275Y-100373161D01*
X37580738Y-100358160D01*
X37580743Y-100358159D01*
X37586452Y-100357331D01*
X37591916Y-100355476D01*
X37591921Y-100355475D01*
X37789907Y-100288268D01*
X37789912Y-100288266D01*
X37795379Y-100286410D01*
X37987884Y-100178602D01*
X37995059Y-100172635D01*
X38153086Y-100041204D01*
X38157518Y-100037518D01*
X38220587Y-99961686D01*
X38294908Y-99872326D01*
X38294910Y-99872323D01*
X38298602Y-99867884D01*
X38406410Y-99675379D01*
X38408266Y-99669912D01*
X38408268Y-99669907D01*
X38475475Y-99471921D01*
X38475476Y-99471916D01*
X38477331Y-99466452D01*
X38478159Y-99460743D01*
X38478160Y-99460738D01*
X38508458Y-99251772D01*
X38508991Y-99248098D01*
X38510643Y-99185000D01*
X38493015Y-98993165D01*
X53890045Y-98993165D01*
X53904475Y-99213329D01*
X53905896Y-99218925D01*
X53905897Y-99218930D01*
X53957048Y-99420334D01*
X53958786Y-99427177D01*
X53961203Y-99432419D01*
X53961203Y-99432420D01*
X53999321Y-99515104D01*
X54051158Y-99627546D01*
X54178497Y-99807727D01*
X54336539Y-99961686D01*
X54341335Y-99964891D01*
X54341338Y-99964893D01*
X54425536Y-100021152D01*
X54519992Y-100084265D01*
X54525295Y-100086543D01*
X54525298Y-100086545D01*
X54717404Y-100169080D01*
X54722711Y-100171360D01*
X54767201Y-100181427D01*
X54932270Y-100218779D01*
X54932276Y-100218780D01*
X54937907Y-100220054D01*
X54943678Y-100220281D01*
X54943680Y-100220281D01*
X55011486Y-100222945D01*
X55158373Y-100228716D01*
X55267550Y-100212886D01*
X55371013Y-100197885D01*
X55371018Y-100197884D01*
X55376727Y-100197056D01*
X55382191Y-100195201D01*
X55382196Y-100195200D01*
X55580182Y-100127993D01*
X55580187Y-100127991D01*
X55585654Y-100126135D01*
X55593108Y-100121961D01*
X55743891Y-100037518D01*
X55778159Y-100018327D01*
X55947793Y-99877243D01*
X56088877Y-99707609D01*
X56196685Y-99515104D01*
X56198541Y-99509637D01*
X56198543Y-99509632D01*
X56265750Y-99311646D01*
X56265751Y-99311641D01*
X56267606Y-99306177D01*
X56268434Y-99300468D01*
X56268435Y-99300463D01*
X56298733Y-99091497D01*
X56299266Y-99087823D01*
X56300918Y-99024725D01*
X56280729Y-98805014D01*
X56220840Y-98592661D01*
X56123255Y-98394778D01*
X56108002Y-98374351D01*
X55994695Y-98222616D01*
X55994695Y-98222615D01*
X55991242Y-98217992D01*
X55893861Y-98127974D01*
X55833464Y-98072143D01*
X55833461Y-98072141D01*
X55829224Y-98068224D01*
X55642625Y-97950489D01*
X55437696Y-97868731D01*
X55432036Y-97867605D01*
X55432032Y-97867604D01*
X55226966Y-97826814D01*
X55226963Y-97826814D01*
X55221299Y-97825687D01*
X55215524Y-97825611D01*
X55215520Y-97825611D01*
X55104779Y-97824162D01*
X55000681Y-97822799D01*
X54994984Y-97823778D01*
X54994983Y-97823778D01*
X54788929Y-97859184D01*
X54788928Y-97859184D01*
X54783232Y-97860163D01*
X54576232Y-97936529D01*
X54571271Y-97939481D01*
X54571270Y-97939481D01*
X54417196Y-98031146D01*
X54386616Y-98049339D01*
X54220732Y-98194815D01*
X54084138Y-98368085D01*
X53981406Y-98563345D01*
X53915978Y-98774058D01*
X53890045Y-98993165D01*
X38493015Y-98993165D01*
X38490454Y-98965289D01*
X38430565Y-98752936D01*
X38332980Y-98555053D01*
X38250784Y-98444979D01*
X38204420Y-98382891D01*
X38204420Y-98382890D01*
X38200967Y-98378267D01*
X38099972Y-98284908D01*
X38043189Y-98232418D01*
X38043186Y-98232416D01*
X38038949Y-98228499D01*
X37852350Y-98110764D01*
X37647421Y-98029006D01*
X37641761Y-98027880D01*
X37641757Y-98027879D01*
X37436691Y-97987089D01*
X37436688Y-97987089D01*
X37431024Y-97985962D01*
X37425249Y-97985886D01*
X37425245Y-97985886D01*
X37314504Y-97984437D01*
X37210406Y-97983074D01*
X37204709Y-97984053D01*
X37204708Y-97984053D01*
X36998654Y-98019459D01*
X36998653Y-98019459D01*
X36992957Y-98020438D01*
X36785957Y-98096804D01*
X36780996Y-98099756D01*
X36780995Y-98099756D01*
X36616683Y-98197512D01*
X36596341Y-98209614D01*
X36430457Y-98355090D01*
X36293863Y-98528360D01*
X36191131Y-98723620D01*
X36125703Y-98934333D01*
X36099770Y-99153440D01*
X29152593Y-99153440D01*
X29225763Y-99091497D01*
X29326960Y-99005828D01*
X29326961Y-99005827D01*
X29330526Y-99002809D01*
X29352920Y-98977274D01*
X29503894Y-98805122D01*
X29503898Y-98805117D01*
X29506976Y-98801607D01*
X29541616Y-98747753D01*
X29649219Y-98580465D01*
X29649222Y-98580460D01*
X29651747Y-98576534D01*
X29761661Y-98332534D01*
X29801577Y-98191003D01*
X29833032Y-98079473D01*
X29833033Y-98079470D01*
X29834302Y-98074969D01*
X29851520Y-97939626D01*
X29867677Y-97812625D01*
X29867677Y-97812621D01*
X29868075Y-97809495D01*
X29868575Y-97790422D01*
X29870466Y-97718160D01*
X29870549Y-97715000D01*
X29860660Y-97581921D01*
X29851064Y-97452788D01*
X29851063Y-97452784D01*
X29850717Y-97448123D01*
X29840161Y-97401470D01*
X29808927Y-97263440D01*
X39999770Y-97263440D01*
X40000148Y-97269206D01*
X40011875Y-97448123D01*
X40014200Y-97483604D01*
X40015621Y-97489200D01*
X40015622Y-97489205D01*
X40067090Y-97691857D01*
X40068511Y-97697452D01*
X40070928Y-97702694D01*
X40070928Y-97702695D01*
X40127629Y-97825687D01*
X40160883Y-97897821D01*
X40288222Y-98078002D01*
X40446264Y-98231961D01*
X40451060Y-98235166D01*
X40451063Y-98235168D01*
X40535261Y-98291427D01*
X40629717Y-98354540D01*
X40635020Y-98356818D01*
X40635023Y-98356820D01*
X40827129Y-98439355D01*
X40832436Y-98441635D01*
X40884903Y-98453507D01*
X41041995Y-98489054D01*
X41042001Y-98489055D01*
X41047632Y-98490329D01*
X41053403Y-98490556D01*
X41053405Y-98490556D01*
X41121211Y-98493220D01*
X41268098Y-98498991D01*
X41377275Y-98483161D01*
X41480738Y-98468160D01*
X41480743Y-98468159D01*
X41486452Y-98467331D01*
X41491916Y-98465476D01*
X41491921Y-98465475D01*
X41689907Y-98398268D01*
X41689912Y-98398266D01*
X41695379Y-98396410D01*
X41706556Y-98390151D01*
X41817478Y-98328031D01*
X41887884Y-98288602D01*
X41955438Y-98232418D01*
X42053086Y-98151204D01*
X42057518Y-98147518D01*
X42089866Y-98108624D01*
X42194908Y-97982326D01*
X42194910Y-97982323D01*
X42198602Y-97977884D01*
X42283205Y-97826814D01*
X42303586Y-97790422D01*
X42303587Y-97790420D01*
X42306410Y-97785379D01*
X42308266Y-97779912D01*
X42308268Y-97779907D01*
X42375475Y-97581921D01*
X42375476Y-97581916D01*
X42377331Y-97576452D01*
X42378159Y-97570743D01*
X42378160Y-97570738D01*
X42408458Y-97361772D01*
X42408991Y-97358098D01*
X42410643Y-97295000D01*
X42390454Y-97075289D01*
X42330565Y-96862936D01*
X42232980Y-96665053D01*
X42100967Y-96488267D01*
X41938949Y-96338499D01*
X41752350Y-96220764D01*
X41547421Y-96139006D01*
X41541761Y-96137880D01*
X41541757Y-96137879D01*
X41336691Y-96097089D01*
X41336688Y-96097089D01*
X41331024Y-96095962D01*
X41325249Y-96095886D01*
X41325245Y-96095886D01*
X41214504Y-96094437D01*
X41110406Y-96093074D01*
X41104709Y-96094053D01*
X41104708Y-96094053D01*
X40898654Y-96129459D01*
X40898653Y-96129459D01*
X40892957Y-96130438D01*
X40685957Y-96206804D01*
X40680996Y-96209756D01*
X40680995Y-96209756D01*
X40558620Y-96282562D01*
X40496341Y-96319614D01*
X40330457Y-96465090D01*
X40193863Y-96638360D01*
X40091131Y-96833620D01*
X40025703Y-97044333D01*
X39999770Y-97263440D01*
X29808927Y-97263440D01*
X29792686Y-97191666D01*
X29791655Y-97187109D01*
X29694662Y-96937691D01*
X29561868Y-96705350D01*
X29396190Y-96495189D01*
X29201269Y-96311825D01*
X28981385Y-96159286D01*
X28944601Y-96141146D01*
X28745559Y-96042989D01*
X28745556Y-96042988D01*
X28741371Y-96040924D01*
X28486497Y-95959338D01*
X28341134Y-95935665D01*
X28226976Y-95917073D01*
X28226975Y-95917073D01*
X28222364Y-95916322D01*
X28088569Y-95914571D01*
X27959451Y-95912880D01*
X27959448Y-95912880D01*
X27954774Y-95912819D01*
X27689605Y-95948907D01*
X27685118Y-95950215D01*
X27685117Y-95950215D01*
X27653817Y-95959338D01*
X27432683Y-96023792D01*
X27428430Y-96025752D01*
X27428429Y-96025753D01*
X27376512Y-96049687D01*
X27189652Y-96135831D01*
X27157030Y-96157219D01*
X26969764Y-96279996D01*
X26969759Y-96280000D01*
X26965851Y-96282562D01*
X26766197Y-96460760D01*
X26595075Y-96666512D01*
X26592652Y-96670505D01*
X26475882Y-96862936D01*
X26456244Y-96895298D01*
X26454437Y-96899606D01*
X26454437Y-96899607D01*
X26383101Y-97069725D01*
X26352755Y-97142091D01*
X26351604Y-97146623D01*
X26351603Y-97146626D01*
X26321936Y-97263440D01*
X26286881Y-97401470D01*
X26260070Y-97667736D01*
X20800500Y-97667736D01*
X20800500Y-91733440D01*
X31489770Y-91733440D01*
X31504200Y-91953604D01*
X31505621Y-91959200D01*
X31505622Y-91959205D01*
X31557090Y-92161857D01*
X31558511Y-92167452D01*
X31560928Y-92172694D01*
X31560928Y-92172695D01*
X31599046Y-92255379D01*
X31650883Y-92367821D01*
X31778222Y-92548002D01*
X31936264Y-92701961D01*
X31941060Y-92705166D01*
X31941063Y-92705168D01*
X32025261Y-92761427D01*
X32119717Y-92824540D01*
X32125020Y-92826818D01*
X32125023Y-92826820D01*
X32317129Y-92909355D01*
X32322436Y-92911635D01*
X32402088Y-92929658D01*
X32531995Y-92959054D01*
X32532001Y-92959055D01*
X32537632Y-92960329D01*
X32543403Y-92960556D01*
X32543405Y-92960556D01*
X32611211Y-92963220D01*
X32758098Y-92968991D01*
X32867275Y-92953161D01*
X32970738Y-92938160D01*
X32970743Y-92938159D01*
X32976452Y-92937331D01*
X32981916Y-92935476D01*
X32981921Y-92935475D01*
X33179907Y-92868268D01*
X33179912Y-92868266D01*
X33185379Y-92866410D01*
X33377884Y-92758602D01*
X33547518Y-92617518D01*
X33688602Y-92447884D01*
X33796410Y-92255379D01*
X33798266Y-92249912D01*
X33798268Y-92249907D01*
X33865475Y-92051921D01*
X33865476Y-92051916D01*
X33867331Y-92046452D01*
X33868159Y-92040743D01*
X33868160Y-92040738D01*
X33898458Y-91831772D01*
X33898991Y-91828098D01*
X33900643Y-91765000D01*
X33880454Y-91545289D01*
X33820565Y-91332936D01*
X33722980Y-91135053D01*
X33590967Y-90958267D01*
X33428949Y-90808499D01*
X33242350Y-90690764D01*
X33037421Y-90609006D01*
X33031761Y-90607880D01*
X33031757Y-90607879D01*
X32826691Y-90567089D01*
X32826688Y-90567089D01*
X32821024Y-90565962D01*
X32815249Y-90565886D01*
X32815245Y-90565886D01*
X32704504Y-90564437D01*
X32600406Y-90563074D01*
X32594709Y-90564053D01*
X32594708Y-90564053D01*
X32388654Y-90599459D01*
X32388653Y-90599459D01*
X32382957Y-90600438D01*
X32175957Y-90676804D01*
X32170996Y-90679756D01*
X32170995Y-90679756D01*
X32133059Y-90702326D01*
X31986341Y-90789614D01*
X31820457Y-90935090D01*
X31683863Y-91108360D01*
X31581131Y-91303620D01*
X31515703Y-91514333D01*
X31489770Y-91733440D01*
X20800500Y-91733440D01*
X20800500Y-89983440D01*
X62689770Y-89983440D01*
X62704200Y-90203604D01*
X62705621Y-90209200D01*
X62705622Y-90209205D01*
X62757090Y-90411857D01*
X62758511Y-90417452D01*
X62760928Y-90422694D01*
X62760928Y-90422695D01*
X62827495Y-90567089D01*
X62850883Y-90617821D01*
X62978222Y-90798002D01*
X63136264Y-90951961D01*
X63141060Y-90955166D01*
X63141063Y-90955168D01*
X63225261Y-91011427D01*
X63319717Y-91074540D01*
X63325020Y-91076818D01*
X63325023Y-91076820D01*
X63472624Y-91140234D01*
X63522436Y-91161635D01*
X63602088Y-91179658D01*
X63731995Y-91209054D01*
X63732001Y-91209055D01*
X63737632Y-91210329D01*
X63743403Y-91210556D01*
X63743405Y-91210556D01*
X63811211Y-91213220D01*
X63958098Y-91218991D01*
X64067275Y-91203161D01*
X64170738Y-91188160D01*
X64170743Y-91188159D01*
X64176452Y-91187331D01*
X64181916Y-91185476D01*
X64181921Y-91185475D01*
X64379907Y-91118268D01*
X64379912Y-91118266D01*
X64385379Y-91116410D01*
X64399754Y-91108360D01*
X64465875Y-91071330D01*
X64577884Y-91008602D01*
X64643114Y-90954351D01*
X64743086Y-90871204D01*
X64747518Y-90867518D01*
X64773402Y-90836397D01*
X64884908Y-90702326D01*
X64884910Y-90702323D01*
X64888602Y-90697884D01*
X64996410Y-90505379D01*
X64998266Y-90499912D01*
X64998268Y-90499907D01*
X65065475Y-90301921D01*
X65065476Y-90301916D01*
X65067331Y-90296452D01*
X65068159Y-90290743D01*
X65068160Y-90290738D01*
X65098458Y-90081772D01*
X65098991Y-90078098D01*
X65100643Y-90015000D01*
X65080454Y-89795289D01*
X65020565Y-89582936D01*
X64922980Y-89385053D01*
X64790967Y-89208267D01*
X64628949Y-89058499D01*
X64442350Y-88940764D01*
X64237421Y-88859006D01*
X64231761Y-88857880D01*
X64231757Y-88857879D01*
X64026691Y-88817089D01*
X64026688Y-88817089D01*
X64021024Y-88815962D01*
X64015249Y-88815886D01*
X64015245Y-88815886D01*
X63904504Y-88814437D01*
X63800406Y-88813074D01*
X63794709Y-88814053D01*
X63794708Y-88814053D01*
X63588654Y-88849459D01*
X63588653Y-88849459D01*
X63582957Y-88850438D01*
X63375957Y-88926804D01*
X63186341Y-89039614D01*
X63020457Y-89185090D01*
X62883863Y-89358360D01*
X62781131Y-89553620D01*
X62715703Y-89764333D01*
X62689770Y-89983440D01*
X20800500Y-89983440D01*
X20800500Y-87543164D01*
X24142903Y-87543164D01*
X24163286Y-87802158D01*
X24164440Y-87806965D01*
X24164441Y-87806971D01*
X24202727Y-87966440D01*
X24223934Y-88054774D01*
X24323353Y-88294792D01*
X24459095Y-88516304D01*
X24627818Y-88713853D01*
X24825367Y-88882576D01*
X25046879Y-89018318D01*
X25051449Y-89020211D01*
X25051453Y-89020213D01*
X25282324Y-89115843D01*
X25286897Y-89117737D01*
X25375231Y-89138944D01*
X25534700Y-89177230D01*
X25534706Y-89177231D01*
X25539513Y-89178385D01*
X25798507Y-89198768D01*
X26057501Y-89178385D01*
X26062308Y-89177231D01*
X26062314Y-89177230D01*
X26221783Y-89138944D01*
X26310117Y-89117737D01*
X26314690Y-89115843D01*
X26545561Y-89020213D01*
X26545565Y-89020211D01*
X26550135Y-89018318D01*
X26771647Y-88882576D01*
X26969196Y-88713853D01*
X27137919Y-88516304D01*
X27273661Y-88294792D01*
X27373080Y-88054774D01*
X27394287Y-87966440D01*
X27432573Y-87806971D01*
X27432574Y-87806965D01*
X27433728Y-87802158D01*
X27454111Y-87543164D01*
X27433728Y-87284170D01*
X27432574Y-87279363D01*
X27432573Y-87279357D01*
X27374235Y-87036366D01*
X27373080Y-87031554D01*
X27273661Y-86791536D01*
X27161821Y-86609029D01*
X27143283Y-86540495D01*
X27164740Y-86472818D01*
X27190642Y-86444725D01*
X27218127Y-86422784D01*
X27330171Y-86282430D01*
X27408334Y-86120741D01*
X27448733Y-85945753D01*
X27449007Y-85941001D01*
X27449006Y-84065328D01*
X27448733Y-84060575D01*
X27408334Y-83885587D01*
X27356719Y-83778816D01*
X27333238Y-83730242D01*
X27333237Y-83730241D01*
X27330171Y-83723898D01*
X27257959Y-83633440D01*
X53059770Y-83633440D01*
X53074200Y-83853604D01*
X53075621Y-83859200D01*
X53075622Y-83859205D01*
X53110797Y-83997705D01*
X53128511Y-84067452D01*
X53130928Y-84072694D01*
X53130928Y-84072695D01*
X53169046Y-84155379D01*
X53220883Y-84267821D01*
X53348222Y-84448002D01*
X53506264Y-84601961D01*
X53511060Y-84605166D01*
X53511063Y-84605168D01*
X53595261Y-84661427D01*
X53689717Y-84724540D01*
X53695020Y-84726818D01*
X53695023Y-84726820D01*
X53887129Y-84809355D01*
X53892436Y-84811635D01*
X53938371Y-84822029D01*
X54101995Y-84859054D01*
X54102001Y-84859055D01*
X54107632Y-84860329D01*
X54113403Y-84860556D01*
X54113405Y-84860556D01*
X54181211Y-84863220D01*
X54328098Y-84868991D01*
X54437275Y-84853161D01*
X54540738Y-84838160D01*
X54540743Y-84838159D01*
X54546452Y-84837331D01*
X54551916Y-84835476D01*
X54551921Y-84835475D01*
X54749907Y-84768268D01*
X54749912Y-84768266D01*
X54755379Y-84766410D01*
X54947884Y-84658602D01*
X54972871Y-84637821D01*
X55113086Y-84521204D01*
X55117518Y-84517518D01*
X55258602Y-84347884D01*
X55366410Y-84155379D01*
X55368266Y-84149912D01*
X55368268Y-84149907D01*
X55417987Y-84003440D01*
X74089770Y-84003440D01*
X74104200Y-84223604D01*
X74105621Y-84229200D01*
X74105622Y-84229205D01*
X74157090Y-84431857D01*
X74158511Y-84437452D01*
X74160928Y-84442694D01*
X74160928Y-84442695D01*
X74197121Y-84521204D01*
X74250883Y-84637821D01*
X74378222Y-84818002D01*
X74536264Y-84971961D01*
X74541060Y-84975166D01*
X74541063Y-84975168D01*
X74625261Y-85031427D01*
X74719717Y-85094540D01*
X74725020Y-85096818D01*
X74725023Y-85096820D01*
X74917129Y-85179355D01*
X74922436Y-85181635D01*
X75002088Y-85199658D01*
X75131995Y-85229054D01*
X75132001Y-85229055D01*
X75137632Y-85230329D01*
X75143403Y-85230556D01*
X75143405Y-85230556D01*
X75211211Y-85233220D01*
X75358098Y-85238991D01*
X75467275Y-85223161D01*
X75570738Y-85208160D01*
X75570743Y-85208159D01*
X75576452Y-85207331D01*
X75581916Y-85205476D01*
X75581921Y-85205475D01*
X75779907Y-85138268D01*
X75779912Y-85138266D01*
X75785379Y-85136410D01*
X75977884Y-85028602D01*
X76147518Y-84887518D01*
X76281170Y-84726820D01*
X76284908Y-84722326D01*
X76284910Y-84722323D01*
X76288602Y-84717884D01*
X76396410Y-84525379D01*
X76398266Y-84519912D01*
X76398268Y-84519907D01*
X76465475Y-84321921D01*
X76465476Y-84321916D01*
X76467331Y-84316452D01*
X76468159Y-84310743D01*
X76468160Y-84310738D01*
X76498458Y-84101772D01*
X76498991Y-84098098D01*
X76500643Y-84035000D01*
X76480454Y-83815289D01*
X76420565Y-83602936D01*
X76322980Y-83405053D01*
X76313049Y-83391753D01*
X76194420Y-83232891D01*
X76194420Y-83232890D01*
X76190967Y-83228267D01*
X76028949Y-83078499D01*
X75842350Y-82960764D01*
X75637421Y-82879006D01*
X75631761Y-82877880D01*
X75631757Y-82877879D01*
X75426691Y-82837089D01*
X75426688Y-82837089D01*
X75421024Y-82835962D01*
X75415249Y-82835886D01*
X75415245Y-82835886D01*
X75304504Y-82834437D01*
X75200406Y-82833074D01*
X75194709Y-82834053D01*
X75194708Y-82834053D01*
X74988654Y-82869459D01*
X74988653Y-82869459D01*
X74982957Y-82870438D01*
X74775957Y-82946804D01*
X74586341Y-83059614D01*
X74420457Y-83205090D01*
X74283863Y-83378360D01*
X74181131Y-83573620D01*
X74115703Y-83784333D01*
X74089770Y-84003440D01*
X55417987Y-84003440D01*
X55435475Y-83951921D01*
X55435476Y-83951916D01*
X55437331Y-83946452D01*
X55438159Y-83940743D01*
X55438160Y-83940738D01*
X55468458Y-83731772D01*
X55468991Y-83728098D01*
X55470643Y-83665000D01*
X55450454Y-83445289D01*
X55439107Y-83405053D01*
X55392134Y-83238500D01*
X55390565Y-83232936D01*
X55292980Y-83035053D01*
X55235908Y-82958624D01*
X55164420Y-82862891D01*
X55164420Y-82862890D01*
X55160967Y-82858267D01*
X54998949Y-82708499D01*
X54812350Y-82590764D01*
X54607421Y-82509006D01*
X54601761Y-82507880D01*
X54601757Y-82507879D01*
X54396691Y-82467089D01*
X54396688Y-82467089D01*
X54391024Y-82465962D01*
X54385249Y-82465886D01*
X54385245Y-82465886D01*
X54274504Y-82464437D01*
X54170406Y-82463074D01*
X54164709Y-82464053D01*
X54164708Y-82464053D01*
X53958654Y-82499459D01*
X53958653Y-82499459D01*
X53952957Y-82500438D01*
X53745957Y-82576804D01*
X53556341Y-82689614D01*
X53390457Y-82835090D01*
X53253863Y-83008360D01*
X53151131Y-83203620D01*
X53104852Y-83352664D01*
X53088585Y-83405053D01*
X53085703Y-83414333D01*
X53059770Y-83633440D01*
X27257959Y-83633440D01*
X27218127Y-83583544D01*
X27077773Y-83471500D01*
X26916084Y-83393337D01*
X26873345Y-83383470D01*
X26746295Y-83354138D01*
X26746292Y-83354138D01*
X26741096Y-83352938D01*
X26736344Y-83352664D01*
X26734520Y-83352664D01*
X25790470Y-83352665D01*
X24860671Y-83352665D01*
X24855918Y-83352938D01*
X24680930Y-83393337D01*
X24519241Y-83471500D01*
X24378887Y-83583544D01*
X24266843Y-83723898D01*
X24263777Y-83730241D01*
X24263776Y-83730242D01*
X24240295Y-83778816D01*
X24188680Y-83885587D01*
X24187096Y-83892448D01*
X24161472Y-84003440D01*
X24148281Y-84060575D01*
X24148007Y-84065327D01*
X24148008Y-85941000D01*
X24148281Y-85945753D01*
X24188680Y-86120741D01*
X24266843Y-86282430D01*
X24378887Y-86422784D01*
X24406371Y-86444724D01*
X24447128Y-86502855D01*
X24449988Y-86573794D01*
X24435193Y-86609028D01*
X24323353Y-86791536D01*
X24223934Y-87031554D01*
X24222779Y-87036366D01*
X24164441Y-87279357D01*
X24164440Y-87279363D01*
X24163286Y-87284170D01*
X24142903Y-87543164D01*
X20800500Y-87543164D01*
X20800500Y-79433440D01*
X65039770Y-79433440D01*
X65054200Y-79653604D01*
X65055621Y-79659200D01*
X65055622Y-79659205D01*
X65107090Y-79861857D01*
X65108511Y-79867452D01*
X65110928Y-79872694D01*
X65110928Y-79872695D01*
X65149046Y-79955379D01*
X65200883Y-80067821D01*
X65328222Y-80248002D01*
X65486264Y-80401961D01*
X65491060Y-80405166D01*
X65491063Y-80405168D01*
X65575261Y-80461427D01*
X65669717Y-80524540D01*
X65675020Y-80526818D01*
X65675023Y-80526820D01*
X65867129Y-80609355D01*
X65872436Y-80611635D01*
X65952088Y-80629658D01*
X66081995Y-80659054D01*
X66082001Y-80659055D01*
X66087632Y-80660329D01*
X66093403Y-80660556D01*
X66093405Y-80660556D01*
X66161211Y-80663220D01*
X66308098Y-80668991D01*
X66417275Y-80653161D01*
X66520738Y-80638160D01*
X66520743Y-80638159D01*
X66526452Y-80637331D01*
X66531916Y-80635476D01*
X66531921Y-80635475D01*
X66729907Y-80568268D01*
X66729912Y-80568266D01*
X66735379Y-80566410D01*
X66927884Y-80458602D01*
X67097518Y-80317518D01*
X67238602Y-80147884D01*
X67346410Y-79955379D01*
X67348266Y-79949912D01*
X67348268Y-79949907D01*
X67415475Y-79751921D01*
X67415476Y-79751916D01*
X67417331Y-79746452D01*
X67418159Y-79740743D01*
X67418160Y-79740738D01*
X67448458Y-79531772D01*
X67448991Y-79528098D01*
X67450643Y-79465000D01*
X67430454Y-79245289D01*
X67407785Y-79164908D01*
X67400510Y-79139113D01*
X67370565Y-79032936D01*
X67272980Y-78835053D01*
X67140967Y-78658267D01*
X66978949Y-78508499D01*
X66792350Y-78390764D01*
X66587421Y-78309006D01*
X66581761Y-78307880D01*
X66581757Y-78307879D01*
X66376691Y-78267089D01*
X66376688Y-78267089D01*
X66371024Y-78265962D01*
X66365249Y-78265886D01*
X66365245Y-78265886D01*
X66254504Y-78264437D01*
X66150406Y-78263074D01*
X66144709Y-78264053D01*
X66144708Y-78264053D01*
X65938654Y-78299459D01*
X65938653Y-78299459D01*
X65932957Y-78300438D01*
X65725957Y-78376804D01*
X65720996Y-78379756D01*
X65720995Y-78379756D01*
X65582889Y-78461921D01*
X65536341Y-78489614D01*
X65370457Y-78635090D01*
X65233863Y-78808360D01*
X65131131Y-79003620D01*
X65065703Y-79214333D01*
X65039770Y-79433440D01*
X20800500Y-79433440D01*
X20800500Y-78143440D01*
X73679770Y-78143440D01*
X73694200Y-78363604D01*
X73695621Y-78369200D01*
X73695622Y-78369205D01*
X73726203Y-78489614D01*
X73748511Y-78577452D01*
X73750928Y-78582694D01*
X73750928Y-78582695D01*
X73787899Y-78662891D01*
X73840883Y-78777821D01*
X73968222Y-78958002D01*
X74126264Y-79111961D01*
X74131060Y-79115166D01*
X74131063Y-79115168D01*
X74215261Y-79171427D01*
X74309717Y-79234540D01*
X74315020Y-79236818D01*
X74315023Y-79236820D01*
X74507129Y-79319355D01*
X74512436Y-79321635D01*
X74592088Y-79339658D01*
X74721995Y-79369054D01*
X74722001Y-79369055D01*
X74727632Y-79370329D01*
X74733403Y-79370556D01*
X74733405Y-79370556D01*
X74801211Y-79373220D01*
X74948098Y-79378991D01*
X75057275Y-79363161D01*
X75160738Y-79348160D01*
X75160743Y-79348159D01*
X75166452Y-79347331D01*
X75171916Y-79345476D01*
X75171921Y-79345475D01*
X75369907Y-79278268D01*
X75369912Y-79278266D01*
X75375379Y-79276410D01*
X75567884Y-79168602D01*
X75737518Y-79027518D01*
X75878602Y-78857884D01*
X75986410Y-78665379D01*
X75988266Y-78659912D01*
X75988268Y-78659907D01*
X76055475Y-78461921D01*
X76055476Y-78461916D01*
X76057331Y-78456452D01*
X76058159Y-78450743D01*
X76058160Y-78450738D01*
X76084962Y-78265886D01*
X76088991Y-78238098D01*
X76090643Y-78175000D01*
X76070454Y-77955289D01*
X76010565Y-77742936D01*
X75912980Y-77545053D01*
X75780967Y-77368267D01*
X75618949Y-77218499D01*
X75432350Y-77100764D01*
X75227421Y-77019006D01*
X75221761Y-77017880D01*
X75221757Y-77017879D01*
X75016691Y-76977089D01*
X75016688Y-76977089D01*
X75011024Y-76975962D01*
X75005249Y-76975886D01*
X75005245Y-76975886D01*
X74894504Y-76974437D01*
X74790406Y-76973074D01*
X74784709Y-76974053D01*
X74784708Y-76974053D01*
X74578654Y-77009459D01*
X74578653Y-77009459D01*
X74572957Y-77010438D01*
X74365957Y-77086804D01*
X74360996Y-77089756D01*
X74360995Y-77089756D01*
X74192138Y-77190216D01*
X74176341Y-77199614D01*
X74010457Y-77345090D01*
X73873863Y-77518360D01*
X73771131Y-77713620D01*
X73705703Y-77924333D01*
X73679770Y-78143440D01*
X20800500Y-78143440D01*
X20800500Y-75535000D01*
X24229396Y-75535000D01*
X24249779Y-75793994D01*
X24250933Y-75798801D01*
X24250934Y-75798807D01*
X24279615Y-75918268D01*
X24310427Y-76046610D01*
X24409846Y-76286628D01*
X24545588Y-76508140D01*
X24714311Y-76705689D01*
X24911860Y-76874412D01*
X25133372Y-77010154D01*
X25137942Y-77012047D01*
X25137946Y-77012049D01*
X25352123Y-77100764D01*
X25373390Y-77109573D01*
X25461724Y-77130780D01*
X25621193Y-77169066D01*
X25621199Y-77169067D01*
X25626006Y-77170221D01*
X25885000Y-77190604D01*
X26143994Y-77170221D01*
X26148801Y-77169067D01*
X26148807Y-77169066D01*
X26308276Y-77130780D01*
X26396610Y-77109573D01*
X26417877Y-77100764D01*
X26632054Y-77012049D01*
X26632058Y-77012047D01*
X26636628Y-77010154D01*
X26858140Y-76874412D01*
X27055689Y-76705689D01*
X27224412Y-76508140D01*
X27360154Y-76286628D01*
X27459573Y-76046610D01*
X27490385Y-75918268D01*
X27519066Y-75798807D01*
X27519067Y-75798801D01*
X27520221Y-75793994D01*
X27540604Y-75535000D01*
X27520221Y-75276006D01*
X27519067Y-75271199D01*
X27519066Y-75271193D01*
X27460728Y-75028202D01*
X27459573Y-75023390D01*
X27457679Y-75018817D01*
X27362049Y-74787946D01*
X27362047Y-74787942D01*
X27360182Y-74783440D01*
X59699770Y-74783440D01*
X59714200Y-75003604D01*
X59715621Y-75009200D01*
X59715622Y-75009205D01*
X59767090Y-75211857D01*
X59768511Y-75217452D01*
X59770928Y-75222694D01*
X59770928Y-75222695D01*
X59809046Y-75305379D01*
X59860883Y-75417821D01*
X59988222Y-75598002D01*
X60146264Y-75751961D01*
X60151060Y-75755166D01*
X60151063Y-75755168D01*
X60235261Y-75811427D01*
X60329717Y-75874540D01*
X60335020Y-75876818D01*
X60335023Y-75876820D01*
X60527129Y-75959355D01*
X60532436Y-75961635D01*
X60612088Y-75979658D01*
X60741995Y-76009054D01*
X60742001Y-76009055D01*
X60747632Y-76010329D01*
X60753403Y-76010556D01*
X60753405Y-76010556D01*
X60821211Y-76013220D01*
X60968098Y-76018991D01*
X61077275Y-76003161D01*
X61180738Y-75988160D01*
X61180743Y-75988159D01*
X61186452Y-75987331D01*
X61191916Y-75985476D01*
X61191921Y-75985475D01*
X61389907Y-75918268D01*
X61389912Y-75918266D01*
X61395379Y-75916410D01*
X61587884Y-75808602D01*
X61599662Y-75798807D01*
X61753086Y-75671204D01*
X61757518Y-75667518D01*
X61819256Y-75593287D01*
X61894908Y-75502326D01*
X61894910Y-75502323D01*
X61898602Y-75497884D01*
X62006410Y-75305379D01*
X62008266Y-75299912D01*
X62008268Y-75299907D01*
X62075475Y-75101921D01*
X62075476Y-75101916D01*
X62077331Y-75096452D01*
X62078159Y-75090743D01*
X62078160Y-75090738D01*
X62108458Y-74881772D01*
X62108991Y-74878098D01*
X62110643Y-74815000D01*
X62090454Y-74595289D01*
X62030565Y-74382936D01*
X61932980Y-74185053D01*
X61920920Y-74168902D01*
X61804420Y-74012891D01*
X61804420Y-74012890D01*
X61800967Y-74008267D01*
X61638949Y-73858499D01*
X61452350Y-73740764D01*
X61247421Y-73659006D01*
X61241761Y-73657880D01*
X61241757Y-73657879D01*
X61036691Y-73617089D01*
X61036688Y-73617089D01*
X61031024Y-73615962D01*
X61025249Y-73615886D01*
X61025245Y-73615886D01*
X60914504Y-73614437D01*
X60810406Y-73613074D01*
X60804709Y-73614053D01*
X60804708Y-73614053D01*
X60598654Y-73649459D01*
X60598653Y-73649459D01*
X60592957Y-73650438D01*
X60385957Y-73726804D01*
X60380996Y-73729756D01*
X60380995Y-73729756D01*
X60240598Y-73813284D01*
X60196341Y-73839614D01*
X60030457Y-73985090D01*
X59893863Y-74158360D01*
X59791131Y-74353620D01*
X59725703Y-74564333D01*
X59699770Y-74783440D01*
X27360182Y-74783440D01*
X27360154Y-74783372D01*
X27224412Y-74561860D01*
X27055689Y-74364311D01*
X27051933Y-74361103D01*
X27051928Y-74361098D01*
X27051592Y-74360811D01*
X27051500Y-74360670D01*
X27048425Y-74357595D01*
X27049071Y-74356949D01*
X27012783Y-74301361D01*
X27012275Y-74230366D01*
X27049095Y-74173075D01*
X27048425Y-74172405D01*
X27051504Y-74169326D01*
X27051592Y-74169189D01*
X27051928Y-74168902D01*
X27051933Y-74168897D01*
X27055689Y-74165689D01*
X27224412Y-73968140D01*
X27360154Y-73746628D01*
X27363470Y-73738624D01*
X27457679Y-73511183D01*
X27457680Y-73511181D01*
X27459573Y-73506610D01*
X27481009Y-73417321D01*
X27519066Y-73258807D01*
X27519067Y-73258801D01*
X27520221Y-73253994D01*
X27532432Y-73098840D01*
X73703570Y-73098840D01*
X73718000Y-73319004D01*
X73719421Y-73324600D01*
X73719422Y-73324605D01*
X73764424Y-73501798D01*
X73772311Y-73532852D01*
X73774728Y-73538094D01*
X73774728Y-73538095D01*
X73810590Y-73615886D01*
X73864683Y-73733221D01*
X73992022Y-73913402D01*
X74150064Y-74067361D01*
X74154860Y-74070566D01*
X74154863Y-74070568D01*
X74239061Y-74126827D01*
X74333517Y-74189940D01*
X74338820Y-74192218D01*
X74338823Y-74192220D01*
X74508224Y-74265000D01*
X74536236Y-74277035D01*
X74615888Y-74295058D01*
X74745795Y-74324454D01*
X74745801Y-74324455D01*
X74751432Y-74325729D01*
X74757203Y-74325956D01*
X74757205Y-74325956D01*
X74825011Y-74328620D01*
X74971898Y-74334391D01*
X75081075Y-74318561D01*
X75184538Y-74303560D01*
X75184543Y-74303559D01*
X75190252Y-74302731D01*
X75195716Y-74300876D01*
X75195721Y-74300875D01*
X75393707Y-74233668D01*
X75393712Y-74233666D01*
X75399179Y-74231810D01*
X75404842Y-74228639D01*
X75511509Y-74168902D01*
X75591684Y-74124002D01*
X75761318Y-73982918D01*
X75823056Y-73908687D01*
X75898708Y-73817726D01*
X75898710Y-73817723D01*
X75902402Y-73813284D01*
X75993600Y-73650438D01*
X76007386Y-73625822D01*
X76007387Y-73625820D01*
X76010210Y-73620779D01*
X76012066Y-73615312D01*
X76012068Y-73615307D01*
X76079275Y-73417321D01*
X76079276Y-73417316D01*
X76081131Y-73411852D01*
X76081959Y-73406143D01*
X76081960Y-73406138D01*
X76112258Y-73197172D01*
X76112791Y-73193498D01*
X76114443Y-73130400D01*
X76094254Y-72910689D01*
X76034365Y-72698336D01*
X75936780Y-72500453D01*
X75924039Y-72483390D01*
X75808220Y-72328291D01*
X75808220Y-72328290D01*
X75804767Y-72323667D01*
X75642749Y-72173899D01*
X75456150Y-72056164D01*
X75251221Y-71974406D01*
X75245561Y-71973280D01*
X75245557Y-71973279D01*
X75040491Y-71932489D01*
X75040488Y-71932489D01*
X75034824Y-71931362D01*
X75029049Y-71931286D01*
X75029045Y-71931286D01*
X74918304Y-71929837D01*
X74814206Y-71928474D01*
X74808509Y-71929453D01*
X74808508Y-71929453D01*
X74602454Y-71964859D01*
X74602453Y-71964859D01*
X74596757Y-71965838D01*
X74389757Y-72042204D01*
X74200141Y-72155014D01*
X74034257Y-72300490D01*
X73897663Y-72473760D01*
X73794931Y-72669020D01*
X73729503Y-72879733D01*
X73703570Y-73098840D01*
X27532432Y-73098840D01*
X27540604Y-72995000D01*
X27520221Y-72736006D01*
X27519067Y-72731199D01*
X27519066Y-72731193D01*
X27463104Y-72498098D01*
X27459573Y-72483390D01*
X27395329Y-72328291D01*
X27362049Y-72247946D01*
X27362047Y-72247942D01*
X27360154Y-72243372D01*
X27248314Y-72060865D01*
X27229776Y-71992331D01*
X27251233Y-71924654D01*
X27277135Y-71896561D01*
X27304620Y-71874620D01*
X27416664Y-71734266D01*
X27494827Y-71572577D01*
X27535226Y-71397589D01*
X27535500Y-71392837D01*
X27535500Y-70897725D01*
X110356378Y-70897725D01*
X110356602Y-70902391D01*
X110356602Y-70902396D01*
X110362501Y-71025199D01*
X110369396Y-71168741D01*
X110370309Y-71173329D01*
X110413976Y-71392857D01*
X110422330Y-71434857D01*
X110423909Y-71439255D01*
X110423911Y-71439262D01*
X110469313Y-71565716D01*
X110514016Y-71690225D01*
X110642442Y-71929236D01*
X110645233Y-71932973D01*
X110645237Y-71932980D01*
X110725307Y-72040206D01*
X110804784Y-72146639D01*
X110808093Y-72149919D01*
X110808098Y-72149925D01*
X110913444Y-72254355D01*
X110997478Y-72337659D01*
X111001240Y-72340417D01*
X111001243Y-72340420D01*
X111212519Y-72495333D01*
X111216290Y-72498098D01*
X111220425Y-72500274D01*
X111220429Y-72500276D01*
X111452269Y-72622254D01*
X111452277Y-72622258D01*
X111456412Y-72624433D01*
X111460831Y-72625976D01*
X111708154Y-72712345D01*
X111708160Y-72712347D01*
X111712571Y-72713887D01*
X111717164Y-72714759D01*
X111879659Y-72745610D01*
X111979138Y-72764497D01*
X112107946Y-72769558D01*
X112245590Y-72774966D01*
X112245595Y-72774966D01*
X112250258Y-72775149D01*
X112355473Y-72763626D01*
X112515321Y-72746120D01*
X112515326Y-72746119D01*
X112519974Y-72745610D01*
X112556453Y-72736006D01*
X112777841Y-72677719D01*
X112782361Y-72676529D01*
X112908690Y-72622254D01*
X113027353Y-72571273D01*
X113027356Y-72571271D01*
X113031656Y-72569424D01*
X113035636Y-72566961D01*
X113035640Y-72566959D01*
X113258408Y-72429106D01*
X113258412Y-72429103D01*
X113262381Y-72426647D01*
X113269835Y-72420337D01*
X113465901Y-72254355D01*
X113465903Y-72254353D01*
X113469468Y-72251335D01*
X113648367Y-72047339D01*
X113652956Y-72040206D01*
X113792621Y-71823071D01*
X113795149Y-71819141D01*
X113906589Y-71571754D01*
X113954243Y-71402788D01*
X113978969Y-71315116D01*
X113978970Y-71315113D01*
X113980239Y-71310612D01*
X114014480Y-71041452D01*
X114016989Y-70945645D01*
X113996881Y-70675062D01*
X113937000Y-70410424D01*
X113921011Y-70369309D01*
X113840353Y-70161896D01*
X113840352Y-70161894D01*
X113838660Y-70157543D01*
X113704022Y-69921976D01*
X113536044Y-69708897D01*
X113338416Y-69522987D01*
X113143836Y-69388002D01*
X113119321Y-69370995D01*
X113119318Y-69370993D01*
X113115479Y-69368330D01*
X113111289Y-69366264D01*
X113111286Y-69366262D01*
X112876320Y-69250390D01*
X112876317Y-69250389D01*
X112872132Y-69248325D01*
X112823989Y-69232914D01*
X112665178Y-69182078D01*
X112613720Y-69165606D01*
X112467571Y-69141804D01*
X112350531Y-69122743D01*
X112350530Y-69122743D01*
X112345919Y-69121992D01*
X112210266Y-69120216D01*
X112079290Y-69118501D01*
X112079287Y-69118501D01*
X112074613Y-69118440D01*
X111967880Y-69132966D01*
X111810403Y-69154397D01*
X111810396Y-69154398D01*
X111805763Y-69155029D01*
X111801273Y-69156338D01*
X111801267Y-69156339D01*
X111690307Y-69188682D01*
X111545274Y-69230955D01*
X111541027Y-69232913D01*
X111541024Y-69232914D01*
X111503116Y-69250390D01*
X111298868Y-69344550D01*
X111294963Y-69347110D01*
X111294958Y-69347113D01*
X111075873Y-69490751D01*
X111075868Y-69490755D01*
X111071960Y-69493317D01*
X110869533Y-69673990D01*
X110696035Y-69882599D01*
X110555277Y-70114561D01*
X110450351Y-70364781D01*
X110383562Y-70627761D01*
X110383094Y-70632412D01*
X110383093Y-70632416D01*
X110372064Y-70741949D01*
X110356378Y-70897725D01*
X27535500Y-70897725D01*
X27535499Y-69517164D01*
X27535226Y-69512411D01*
X27494827Y-69337423D01*
X27434455Y-69212537D01*
X27419731Y-69182078D01*
X27419730Y-69182077D01*
X27416664Y-69175734D01*
X27304620Y-69035380D01*
X27164266Y-68923336D01*
X27002577Y-68845173D01*
X26995716Y-68843589D01*
X26832788Y-68805974D01*
X26832785Y-68805974D01*
X26827589Y-68804774D01*
X26822837Y-68804500D01*
X26821013Y-68804500D01*
X25876963Y-68804501D01*
X24947164Y-68804501D01*
X24942411Y-68804774D01*
X24767423Y-68845173D01*
X24605734Y-68923336D01*
X24465380Y-69035380D01*
X24353336Y-69175734D01*
X24350270Y-69182077D01*
X24350269Y-69182078D01*
X24335545Y-69212537D01*
X24275173Y-69337423D01*
X24273589Y-69344284D01*
X24238463Y-69496434D01*
X24234774Y-69512411D01*
X24234500Y-69517163D01*
X24234501Y-71392836D01*
X24234774Y-71397589D01*
X24275173Y-71572577D01*
X24353336Y-71734266D01*
X24465380Y-71874620D01*
X24492864Y-71896560D01*
X24533621Y-71954691D01*
X24536481Y-72025630D01*
X24521686Y-72060864D01*
X24409846Y-72243372D01*
X24407953Y-72247942D01*
X24407951Y-72247946D01*
X24374671Y-72328291D01*
X24310427Y-72483390D01*
X24306896Y-72498098D01*
X24250934Y-72731193D01*
X24250933Y-72731199D01*
X24249779Y-72736006D01*
X24229396Y-72995000D01*
X24249779Y-73253994D01*
X24250933Y-73258801D01*
X24250934Y-73258807D01*
X24288991Y-73417321D01*
X24310427Y-73506610D01*
X24312320Y-73511181D01*
X24312321Y-73511183D01*
X24406531Y-73738624D01*
X24409846Y-73746628D01*
X24545588Y-73968140D01*
X24714311Y-74165689D01*
X24718067Y-74168897D01*
X24718072Y-74168902D01*
X24718408Y-74169189D01*
X24718500Y-74169330D01*
X24721575Y-74172405D01*
X24720929Y-74173051D01*
X24757217Y-74228639D01*
X24757725Y-74299634D01*
X24720905Y-74356925D01*
X24721575Y-74357595D01*
X24718496Y-74360674D01*
X24718408Y-74360811D01*
X24718072Y-74361098D01*
X24718067Y-74361103D01*
X24714311Y-74364311D01*
X24545588Y-74561860D01*
X24409846Y-74783372D01*
X24407953Y-74787942D01*
X24407951Y-74787946D01*
X24312321Y-75018817D01*
X24310427Y-75023390D01*
X24309272Y-75028202D01*
X24250934Y-75271193D01*
X24250933Y-75271199D01*
X24249779Y-75276006D01*
X24229396Y-75535000D01*
X20800500Y-75535000D01*
X20800500Y-68573440D01*
X44279770Y-68573440D01*
X44294200Y-68793604D01*
X44295621Y-68799200D01*
X44295622Y-68799205D01*
X44326369Y-68920269D01*
X44348511Y-69007452D01*
X44350928Y-69012694D01*
X44350928Y-69012695D01*
X44423551Y-69170226D01*
X44440883Y-69207821D01*
X44568222Y-69388002D01*
X44726264Y-69541961D01*
X44731060Y-69545166D01*
X44731063Y-69545168D01*
X44815261Y-69601427D01*
X44909717Y-69664540D01*
X44915020Y-69666818D01*
X44915023Y-69666820D01*
X45021498Y-69712565D01*
X45112436Y-69751635D01*
X45192088Y-69769658D01*
X45321995Y-69799054D01*
X45322001Y-69799055D01*
X45327632Y-69800329D01*
X45333403Y-69800556D01*
X45333405Y-69800556D01*
X45401211Y-69803220D01*
X45548098Y-69808991D01*
X45657275Y-69793161D01*
X45760738Y-69778160D01*
X45760743Y-69778159D01*
X45766452Y-69777331D01*
X45771916Y-69775476D01*
X45771921Y-69775475D01*
X45969907Y-69708268D01*
X45969912Y-69708266D01*
X45975379Y-69706410D01*
X46167884Y-69598602D01*
X46262009Y-69520319D01*
X46333086Y-69461204D01*
X46337518Y-69457518D01*
X46409479Y-69370995D01*
X46474908Y-69292326D01*
X46474910Y-69292323D01*
X46478602Y-69287884D01*
X46553358Y-69154397D01*
X46583586Y-69100422D01*
X46583587Y-69100420D01*
X46586410Y-69095379D01*
X46588266Y-69089912D01*
X46588268Y-69089907D01*
X46655475Y-68891921D01*
X46655476Y-68891916D01*
X46657331Y-68886452D01*
X46658159Y-68880743D01*
X46658160Y-68880738D01*
X46688458Y-68671772D01*
X46688991Y-68668098D01*
X46690643Y-68605000D01*
X46670454Y-68385289D01*
X46610565Y-68172936D01*
X46512980Y-67975053D01*
X46380967Y-67798267D01*
X46218949Y-67648499D01*
X46032350Y-67530764D01*
X45827421Y-67449006D01*
X45821761Y-67447880D01*
X45821757Y-67447879D01*
X45648620Y-67413440D01*
X73979770Y-67413440D01*
X73994200Y-67633604D01*
X73995621Y-67639200D01*
X73995622Y-67639205D01*
X74029165Y-67771278D01*
X74048511Y-67847452D01*
X74050928Y-67852694D01*
X74050928Y-67852695D01*
X74089046Y-67935379D01*
X74140883Y-68047821D01*
X74268222Y-68228002D01*
X74426264Y-68381961D01*
X74431060Y-68385166D01*
X74431063Y-68385168D01*
X74515261Y-68441427D01*
X74609717Y-68504540D01*
X74615020Y-68506818D01*
X74615023Y-68506820D01*
X74807129Y-68589355D01*
X74812436Y-68591635D01*
X74871501Y-68605000D01*
X75021995Y-68639054D01*
X75022001Y-68639055D01*
X75027632Y-68640329D01*
X75033403Y-68640556D01*
X75033405Y-68640556D01*
X75101211Y-68643220D01*
X75248098Y-68648991D01*
X75357275Y-68633161D01*
X75460738Y-68618160D01*
X75460743Y-68618159D01*
X75466452Y-68617331D01*
X75471916Y-68615476D01*
X75471921Y-68615475D01*
X75669907Y-68548268D01*
X75669912Y-68548266D01*
X75675379Y-68546410D01*
X75867884Y-68438602D01*
X75938676Y-68379725D01*
X76033086Y-68301204D01*
X76037518Y-68297518D01*
X76136505Y-68178500D01*
X76174908Y-68132326D01*
X76174910Y-68132323D01*
X76178602Y-68127884D01*
X76261290Y-67980234D01*
X76283586Y-67940422D01*
X76283587Y-67940420D01*
X76286410Y-67935379D01*
X76288266Y-67929912D01*
X76288268Y-67929907D01*
X76355475Y-67731921D01*
X76355476Y-67731916D01*
X76357331Y-67726452D01*
X76358159Y-67720743D01*
X76358160Y-67720738D01*
X76385258Y-67533845D01*
X76388991Y-67508098D01*
X76390643Y-67445000D01*
X76370454Y-67225289D01*
X76310565Y-67012936D01*
X76212980Y-66815053D01*
X76080967Y-66638267D01*
X75918949Y-66488499D01*
X75732350Y-66370764D01*
X75527421Y-66289006D01*
X75521761Y-66287880D01*
X75521757Y-66287879D01*
X75316691Y-66247089D01*
X75316688Y-66247089D01*
X75311024Y-66245962D01*
X75305249Y-66245886D01*
X75305245Y-66245886D01*
X75194504Y-66244437D01*
X75090406Y-66243074D01*
X75084709Y-66244053D01*
X75084708Y-66244053D01*
X74878654Y-66279459D01*
X74878653Y-66279459D01*
X74872957Y-66280438D01*
X74665957Y-66356804D01*
X74476341Y-66469614D01*
X74310457Y-66615090D01*
X74173863Y-66788360D01*
X74071131Y-66983620D01*
X74005703Y-67194333D01*
X73979770Y-67413440D01*
X45648620Y-67413440D01*
X45616691Y-67407089D01*
X45616688Y-67407089D01*
X45611024Y-67405962D01*
X45605249Y-67405886D01*
X45605245Y-67405886D01*
X45494504Y-67404437D01*
X45390406Y-67403074D01*
X45384709Y-67404053D01*
X45384708Y-67404053D01*
X45178654Y-67439459D01*
X45178653Y-67439459D01*
X45172957Y-67440438D01*
X44965957Y-67516804D01*
X44776341Y-67629614D01*
X44610457Y-67775090D01*
X44473863Y-67948360D01*
X44371131Y-68143620D01*
X44305703Y-68354333D01*
X44279770Y-68573440D01*
X20800500Y-68573440D01*
X20800500Y-64105000D01*
X24229396Y-64105000D01*
X24249779Y-64363994D01*
X24250933Y-64368801D01*
X24250934Y-64368807D01*
X24289220Y-64528276D01*
X24310427Y-64616610D01*
X24312320Y-64621181D01*
X24312321Y-64621183D01*
X24405737Y-64846707D01*
X24409846Y-64856628D01*
X24545588Y-65078140D01*
X24714311Y-65275689D01*
X24911860Y-65444412D01*
X25133372Y-65580154D01*
X25137942Y-65582047D01*
X25137946Y-65582049D01*
X25368817Y-65677679D01*
X25373390Y-65679573D01*
X25461724Y-65700780D01*
X25621193Y-65739066D01*
X25621199Y-65739067D01*
X25626006Y-65740221D01*
X25885000Y-65760604D01*
X26143994Y-65740221D01*
X26148801Y-65739067D01*
X26148807Y-65739066D01*
X26308276Y-65700780D01*
X26396610Y-65679573D01*
X26401183Y-65677679D01*
X26632054Y-65582049D01*
X26632058Y-65582047D01*
X26636628Y-65580154D01*
X26858140Y-65444412D01*
X27055689Y-65275689D01*
X27224412Y-65078140D01*
X27360154Y-64856628D01*
X27364264Y-64846707D01*
X27457679Y-64621183D01*
X27457680Y-64621181D01*
X27459573Y-64616610D01*
X27480780Y-64528276D01*
X27519066Y-64368807D01*
X27519067Y-64368801D01*
X27520221Y-64363994D01*
X27540604Y-64105000D01*
X27520221Y-63846006D01*
X27519067Y-63841199D01*
X27519066Y-63841193D01*
X27479410Y-63676018D01*
X76284614Y-63676018D01*
X76304997Y-63935012D01*
X76306151Y-63939819D01*
X76306152Y-63939825D01*
X76344438Y-64099294D01*
X76365645Y-64187628D01*
X76367538Y-64192199D01*
X76367539Y-64192201D01*
X76436655Y-64359060D01*
X76465064Y-64427646D01*
X76600806Y-64649158D01*
X76769529Y-64846707D01*
X76773285Y-64849915D01*
X76781145Y-64856628D01*
X76967078Y-65015430D01*
X77188590Y-65151172D01*
X77193160Y-65153065D01*
X77193164Y-65153067D01*
X77424035Y-65248697D01*
X77428608Y-65250591D01*
X77516942Y-65271798D01*
X77676411Y-65310084D01*
X77676417Y-65310085D01*
X77681224Y-65311239D01*
X77940218Y-65331622D01*
X78199212Y-65311239D01*
X78204019Y-65310085D01*
X78204025Y-65310084D01*
X78363494Y-65271798D01*
X78451828Y-65250591D01*
X78456401Y-65248697D01*
X78687272Y-65153067D01*
X78687276Y-65153065D01*
X78691846Y-65151172D01*
X78913358Y-65015430D01*
X79099291Y-64856628D01*
X79107151Y-64849915D01*
X79110907Y-64846707D01*
X79279630Y-64649158D01*
X79415372Y-64427646D01*
X79443782Y-64359060D01*
X79512897Y-64192201D01*
X79512898Y-64192199D01*
X79514791Y-64187628D01*
X79535998Y-64099294D01*
X79574284Y-63939825D01*
X79574285Y-63939819D01*
X79575439Y-63935012D01*
X79595822Y-63676018D01*
X79575439Y-63417024D01*
X79574285Y-63412217D01*
X79574284Y-63412211D01*
X79515946Y-63169220D01*
X79514791Y-63164408D01*
X79499752Y-63128101D01*
X79417267Y-62928964D01*
X79417265Y-62928960D01*
X79415372Y-62924390D01*
X79279630Y-62702878D01*
X79110907Y-62505329D01*
X78913358Y-62336606D01*
X78691846Y-62200864D01*
X78687276Y-62198971D01*
X78687272Y-62198969D01*
X78456401Y-62103339D01*
X78456399Y-62103338D01*
X78451828Y-62101445D01*
X78329019Y-62071961D01*
X78204025Y-62041952D01*
X78204019Y-62041951D01*
X78199212Y-62040797D01*
X77940218Y-62020414D01*
X77681224Y-62040797D01*
X77676417Y-62041951D01*
X77676411Y-62041952D01*
X77551417Y-62071961D01*
X77428608Y-62101445D01*
X77424037Y-62103338D01*
X77424035Y-62103339D01*
X77193164Y-62198969D01*
X77193160Y-62198971D01*
X77188590Y-62200864D01*
X76967078Y-62336606D01*
X76769529Y-62505329D01*
X76600806Y-62702878D01*
X76465064Y-62924390D01*
X76463171Y-62928960D01*
X76463169Y-62928964D01*
X76380684Y-63128101D01*
X76365645Y-63164408D01*
X76364490Y-63169220D01*
X76306152Y-63412211D01*
X76306151Y-63412217D01*
X76304997Y-63417024D01*
X76284614Y-63676018D01*
X27479410Y-63676018D01*
X27460728Y-63598202D01*
X27459573Y-63593390D01*
X27457679Y-63588817D01*
X27362049Y-63357946D01*
X27362047Y-63357942D01*
X27360154Y-63353372D01*
X27224412Y-63131860D01*
X27055689Y-62934311D01*
X27049429Y-62928964D01*
X27029193Y-62911681D01*
X26858140Y-62765588D01*
X26636628Y-62629846D01*
X26632058Y-62627953D01*
X26632054Y-62627951D01*
X26401183Y-62532321D01*
X26401181Y-62532320D01*
X26396610Y-62530427D01*
X26278708Y-62502121D01*
X26148807Y-62470934D01*
X26148801Y-62470933D01*
X26143994Y-62469779D01*
X25885000Y-62449396D01*
X25626006Y-62469779D01*
X25621199Y-62470933D01*
X25621193Y-62470934D01*
X25491292Y-62502121D01*
X25373390Y-62530427D01*
X25368819Y-62532320D01*
X25368817Y-62532321D01*
X25137946Y-62627951D01*
X25137942Y-62627953D01*
X25133372Y-62629846D01*
X24911860Y-62765588D01*
X24740807Y-62911681D01*
X24720572Y-62928964D01*
X24714311Y-62934311D01*
X24545588Y-63131860D01*
X24409846Y-63353372D01*
X24407953Y-63357942D01*
X24407951Y-63357946D01*
X24312321Y-63588817D01*
X24310427Y-63593390D01*
X24309272Y-63598202D01*
X24250934Y-63841193D01*
X24250933Y-63841199D01*
X24249779Y-63846006D01*
X24229396Y-64105000D01*
X20800500Y-64105000D01*
X20800500Y-61103440D01*
X40329770Y-61103440D01*
X40344200Y-61323604D01*
X40345621Y-61329200D01*
X40345622Y-61329205D01*
X40397090Y-61531857D01*
X40398511Y-61537452D01*
X40400928Y-61542694D01*
X40400928Y-61542695D01*
X40439046Y-61625379D01*
X40490883Y-61737821D01*
X40618222Y-61918002D01*
X40776264Y-62071961D01*
X40781060Y-62075166D01*
X40781063Y-62075168D01*
X40865261Y-62131427D01*
X40959717Y-62194540D01*
X40965020Y-62196818D01*
X40965023Y-62196820D01*
X41157129Y-62279355D01*
X41162436Y-62281635D01*
X41242088Y-62299658D01*
X41371995Y-62329054D01*
X41372001Y-62329055D01*
X41377632Y-62330329D01*
X41383403Y-62330556D01*
X41383405Y-62330556D01*
X41451211Y-62333220D01*
X41598098Y-62338991D01*
X41707275Y-62323161D01*
X41810738Y-62308160D01*
X41810743Y-62308159D01*
X41816452Y-62307331D01*
X41821916Y-62305476D01*
X41821921Y-62305475D01*
X42019907Y-62238268D01*
X42019912Y-62238266D01*
X42025379Y-62236410D01*
X42217884Y-62128602D01*
X42248260Y-62103339D01*
X42383086Y-61991204D01*
X42387518Y-61987518D01*
X42528602Y-61817884D01*
X42636410Y-61625379D01*
X42638266Y-61619912D01*
X42638268Y-61619907D01*
X42705475Y-61421921D01*
X42705476Y-61421916D01*
X42707331Y-61416452D01*
X42708159Y-61410743D01*
X42708160Y-61410738D01*
X42738458Y-61201772D01*
X42738991Y-61198098D01*
X42740643Y-61135000D01*
X42720454Y-60915289D01*
X42660565Y-60702936D01*
X42562980Y-60505053D01*
X42430967Y-60328267D01*
X42333586Y-60238249D01*
X42273189Y-60182418D01*
X42273186Y-60182416D01*
X42268949Y-60178499D01*
X42082350Y-60060764D01*
X41877421Y-59979006D01*
X41871761Y-59977880D01*
X41871757Y-59977879D01*
X41666691Y-59937089D01*
X41666688Y-59937089D01*
X41661024Y-59935962D01*
X41655249Y-59935886D01*
X41655245Y-59935886D01*
X41544504Y-59934437D01*
X41440406Y-59933074D01*
X41434709Y-59934053D01*
X41434708Y-59934053D01*
X41228654Y-59969459D01*
X41228653Y-59969459D01*
X41222957Y-59970438D01*
X41015957Y-60046804D01*
X41010996Y-60049756D01*
X41010995Y-60049756D01*
X40844318Y-60148919D01*
X40826341Y-60159614D01*
X40660457Y-60305090D01*
X40523863Y-60478360D01*
X40421131Y-60673620D01*
X40355703Y-60884333D01*
X40329770Y-61103440D01*
X20800500Y-61103440D01*
X20800500Y-58087163D01*
X24234500Y-58087163D01*
X24234501Y-59962836D01*
X24234774Y-59967589D01*
X24275173Y-60142577D01*
X24353336Y-60304266D01*
X24465380Y-60444620D01*
X24605734Y-60556664D01*
X24767423Y-60634827D01*
X24774284Y-60636411D01*
X24937212Y-60674026D01*
X24937215Y-60674026D01*
X24942411Y-60675226D01*
X24947163Y-60675500D01*
X24948987Y-60675500D01*
X25893037Y-60675499D01*
X26822836Y-60675499D01*
X26827589Y-60675226D01*
X27002577Y-60634827D01*
X27164266Y-60556664D01*
X27304620Y-60444620D01*
X27416664Y-60304266D01*
X27494827Y-60142577D01*
X27532590Y-59979006D01*
X27534026Y-59972788D01*
X27534026Y-59972785D01*
X27535226Y-59967589D01*
X27535500Y-59962837D01*
X27535499Y-58087164D01*
X27535226Y-58082411D01*
X27494827Y-57907423D01*
X27458821Y-57832940D01*
X27419731Y-57752078D01*
X27419730Y-57752077D01*
X27416664Y-57745734D01*
X27335003Y-57643440D01*
X39479770Y-57643440D01*
X39494200Y-57863604D01*
X39495621Y-57869200D01*
X39495622Y-57869205D01*
X39547090Y-58071857D01*
X39548511Y-58077452D01*
X39550928Y-58082694D01*
X39550928Y-58082695D01*
X39589046Y-58165379D01*
X39640883Y-58277821D01*
X39768222Y-58458002D01*
X39926264Y-58611961D01*
X39931060Y-58615166D01*
X39931063Y-58615168D01*
X40015261Y-58671427D01*
X40109717Y-58734540D01*
X40115020Y-58736818D01*
X40115023Y-58736820D01*
X40307129Y-58819355D01*
X40312436Y-58821635D01*
X40392088Y-58839658D01*
X40521995Y-58869054D01*
X40522001Y-58869055D01*
X40527632Y-58870329D01*
X40533403Y-58870556D01*
X40533405Y-58870556D01*
X40601211Y-58873220D01*
X40748098Y-58878991D01*
X40857275Y-58863161D01*
X40960738Y-58848160D01*
X40960743Y-58848159D01*
X40966452Y-58847331D01*
X40971916Y-58845476D01*
X40971921Y-58845475D01*
X41169907Y-58778268D01*
X41169912Y-58778266D01*
X41175379Y-58776410D01*
X41367884Y-58668602D01*
X41443786Y-58605475D01*
X41533086Y-58531204D01*
X41537518Y-58527518D01*
X41619786Y-58428602D01*
X41674908Y-58362326D01*
X41674910Y-58362323D01*
X41678602Y-58357884D01*
X41786410Y-58165379D01*
X41788266Y-58159912D01*
X41788268Y-58159907D01*
X41855475Y-57961921D01*
X41855476Y-57961916D01*
X41857331Y-57956452D01*
X41858159Y-57950743D01*
X41858160Y-57950738D01*
X41888458Y-57741772D01*
X41888991Y-57738098D01*
X41890643Y-57675000D01*
X41889098Y-57658181D01*
X76289718Y-57658181D01*
X76289719Y-59533854D01*
X76289992Y-59538607D01*
X76330391Y-59713595D01*
X76408554Y-59875284D01*
X76520598Y-60015638D01*
X76660952Y-60127682D01*
X76822641Y-60205845D01*
X76829502Y-60207429D01*
X76992430Y-60245044D01*
X76992433Y-60245044D01*
X76997629Y-60246244D01*
X77002381Y-60246518D01*
X77004205Y-60246518D01*
X77948255Y-60246517D01*
X78878054Y-60246517D01*
X78882807Y-60246244D01*
X79057795Y-60205845D01*
X79219484Y-60127682D01*
X79359838Y-60015638D01*
X79471882Y-59875284D01*
X79550045Y-59713595D01*
X79590444Y-59538607D01*
X79590718Y-59533855D01*
X79590717Y-57658182D01*
X79590444Y-57653429D01*
X79550045Y-57478441D01*
X79471882Y-57316752D01*
X79359838Y-57176398D01*
X79219484Y-57064354D01*
X79057795Y-56986191D01*
X79039022Y-56981857D01*
X78888006Y-56946992D01*
X78888003Y-56946992D01*
X78882807Y-56945792D01*
X78878055Y-56945518D01*
X78876231Y-56945518D01*
X77932181Y-56945519D01*
X77002382Y-56945519D01*
X76997629Y-56945792D01*
X76822641Y-56986191D01*
X76660952Y-57064354D01*
X76520598Y-57176398D01*
X76408554Y-57316752D01*
X76330391Y-57478441D01*
X76289992Y-57653429D01*
X76289718Y-57658181D01*
X41889098Y-57658181D01*
X41870454Y-57455289D01*
X41810565Y-57242936D01*
X41712980Y-57045053D01*
X41685685Y-57008500D01*
X41584420Y-56872891D01*
X41584420Y-56872890D01*
X41580967Y-56868267D01*
X41418949Y-56718499D01*
X41232350Y-56600764D01*
X41113731Y-56553440D01*
X84359770Y-56553440D01*
X84374200Y-56773604D01*
X84375621Y-56779200D01*
X84375622Y-56779205D01*
X84418235Y-56946992D01*
X84428511Y-56987452D01*
X84430928Y-56992694D01*
X84430928Y-56992695D01*
X84455066Y-57045053D01*
X84520883Y-57187821D01*
X84648222Y-57368002D01*
X84806264Y-57521961D01*
X84811060Y-57525166D01*
X84811063Y-57525168D01*
X84924535Y-57600987D01*
X84989717Y-57644540D01*
X84995020Y-57646818D01*
X84995023Y-57646820D01*
X85169826Y-57721921D01*
X85192436Y-57731635D01*
X85254745Y-57745734D01*
X85334049Y-57763679D01*
X85396076Y-57798222D01*
X85420667Y-57833820D01*
X85500883Y-58007821D01*
X85628222Y-58188002D01*
X85786264Y-58341961D01*
X85791060Y-58345166D01*
X85791063Y-58345168D01*
X85905496Y-58421629D01*
X85969717Y-58464540D01*
X85975020Y-58466818D01*
X85975023Y-58466820D01*
X86130426Y-58533586D01*
X86172436Y-58551635D01*
X86252088Y-58569658D01*
X86381995Y-58599054D01*
X86382001Y-58599055D01*
X86387632Y-58600329D01*
X86393403Y-58600556D01*
X86393405Y-58600556D01*
X86461211Y-58603220D01*
X86608098Y-58608991D01*
X86717275Y-58593161D01*
X86820738Y-58578160D01*
X86820743Y-58578159D01*
X86826452Y-58577331D01*
X87007340Y-58515928D01*
X87078274Y-58512972D01*
X87097578Y-58519474D01*
X87167120Y-58549352D01*
X87167129Y-58549355D01*
X87172436Y-58551635D01*
X87252088Y-58569658D01*
X87381995Y-58599054D01*
X87382001Y-58599055D01*
X87387632Y-58600329D01*
X87393403Y-58600556D01*
X87393405Y-58600556D01*
X87461211Y-58603220D01*
X87608098Y-58608991D01*
X87717275Y-58593161D01*
X87820738Y-58578160D01*
X87820743Y-58578159D01*
X87826452Y-58577331D01*
X87831916Y-58575476D01*
X87831921Y-58575475D01*
X88029907Y-58508268D01*
X88029912Y-58508266D01*
X88035379Y-58506410D01*
X88052504Y-58496820D01*
X88186766Y-58421629D01*
X88255974Y-58405795D01*
X88318333Y-58426798D01*
X88419717Y-58494540D01*
X88425020Y-58496818D01*
X88425023Y-58496820D01*
X88608098Y-58575475D01*
X88622436Y-58581635D01*
X88699417Y-58599054D01*
X88831995Y-58629054D01*
X88832001Y-58629055D01*
X88837632Y-58630329D01*
X88843403Y-58630556D01*
X88843405Y-58630556D01*
X88911211Y-58633220D01*
X89058098Y-58638991D01*
X89167275Y-58623161D01*
X89270738Y-58608160D01*
X89270743Y-58608159D01*
X89276452Y-58607331D01*
X89281916Y-58605476D01*
X89281921Y-58605475D01*
X89479907Y-58538268D01*
X89479912Y-58538266D01*
X89485379Y-58536410D01*
X89515621Y-58519474D01*
X89619444Y-58461330D01*
X89677884Y-58428602D01*
X89686269Y-58421629D01*
X89843086Y-58291204D01*
X89847518Y-58287518D01*
X89934207Y-58183287D01*
X89984908Y-58122326D01*
X89984910Y-58122323D01*
X89988602Y-58117884D01*
X90053606Y-58001812D01*
X90093586Y-57930422D01*
X90093587Y-57930420D01*
X90096410Y-57925379D01*
X90098266Y-57919912D01*
X90098268Y-57919907D01*
X90165475Y-57721921D01*
X90165476Y-57721916D01*
X90167331Y-57716452D01*
X90168159Y-57710743D01*
X90168160Y-57710738D01*
X90198458Y-57501772D01*
X90198991Y-57498098D01*
X90200643Y-57435000D01*
X90180454Y-57215289D01*
X90178541Y-57208504D01*
X90150509Y-57109112D01*
X90120565Y-57002936D01*
X90022980Y-56805053D01*
X89995190Y-56767837D01*
X89894420Y-56632891D01*
X89894420Y-56632890D01*
X89890967Y-56628267D01*
X89765665Y-56512439D01*
X89733189Y-56482418D01*
X89733186Y-56482416D01*
X89728949Y-56478499D01*
X89542350Y-56360764D01*
X89337421Y-56279006D01*
X89331761Y-56277880D01*
X89331757Y-56277879D01*
X89126691Y-56237089D01*
X89126688Y-56237089D01*
X89121024Y-56235962D01*
X89115249Y-56235886D01*
X89115245Y-56235886D01*
X89004504Y-56234437D01*
X88900406Y-56233074D01*
X88894709Y-56234053D01*
X88894708Y-56234053D01*
X88688654Y-56269459D01*
X88688653Y-56269459D01*
X88682957Y-56270438D01*
X88475957Y-56346804D01*
X88360858Y-56415281D01*
X88357960Y-56417005D01*
X88289190Y-56434645D01*
X88226302Y-56415281D01*
X88092350Y-56330764D01*
X87887421Y-56249006D01*
X87881761Y-56247880D01*
X87881757Y-56247879D01*
X87676691Y-56207089D01*
X87676688Y-56207089D01*
X87671024Y-56205962D01*
X87665249Y-56205886D01*
X87665245Y-56205886D01*
X87554504Y-56204437D01*
X87450406Y-56203074D01*
X87444709Y-56204053D01*
X87444708Y-56204053D01*
X87238654Y-56239459D01*
X87238653Y-56239459D01*
X87232957Y-56240438D01*
X87117554Y-56283012D01*
X87046721Y-56287824D01*
X86984531Y-56253577D01*
X86950729Y-56191143D01*
X86956046Y-56120346D01*
X86964006Y-56103241D01*
X86996410Y-56045379D01*
X86998266Y-56039912D01*
X86998268Y-56039907D01*
X87065475Y-55841921D01*
X87065476Y-55841916D01*
X87067331Y-55836452D01*
X87068159Y-55830743D01*
X87068160Y-55830738D01*
X87098458Y-55621772D01*
X87098991Y-55618098D01*
X87100643Y-55555000D01*
X87080454Y-55335289D01*
X87076368Y-55320799D01*
X87056086Y-55248887D01*
X87020565Y-55122936D01*
X87012243Y-55106061D01*
X87000051Y-55036119D01*
X87015313Y-54988762D01*
X87053587Y-54920420D01*
X87053587Y-54920419D01*
X87056410Y-54915379D01*
X87058266Y-54909912D01*
X87058268Y-54909907D01*
X87125475Y-54711921D01*
X87125476Y-54711916D01*
X87127331Y-54706452D01*
X87128159Y-54700743D01*
X87128160Y-54700738D01*
X87158458Y-54491772D01*
X87158991Y-54488098D01*
X87160643Y-54425000D01*
X87140454Y-54205289D01*
X87132775Y-54178059D01*
X87082134Y-53998500D01*
X87080565Y-53992936D01*
X87066623Y-53964664D01*
X87054433Y-53894721D01*
X87069696Y-53847368D01*
X87073585Y-53840423D01*
X87076410Y-53835379D01*
X87078266Y-53829912D01*
X87078268Y-53829907D01*
X87137772Y-53654614D01*
X110562828Y-53654614D01*
X110598715Y-53918310D01*
X110673185Y-54173805D01*
X110784602Y-54415486D01*
X110787162Y-54419391D01*
X110787165Y-54419396D01*
X110927951Y-54634131D01*
X110927955Y-54634136D01*
X110930517Y-54638044D01*
X110996455Y-54711921D01*
X111104250Y-54832695D01*
X111107726Y-54836590D01*
X111312336Y-55006762D01*
X111539851Y-55144821D01*
X111544165Y-55146630D01*
X111544167Y-55146631D01*
X111780958Y-55245926D01*
X111780963Y-55245928D01*
X111785273Y-55247735D01*
X111789805Y-55248886D01*
X111789808Y-55248887D01*
X111918236Y-55281503D01*
X112043211Y-55313243D01*
X112264243Y-55335500D01*
X114402567Y-55335500D01*
X114404892Y-55335327D01*
X114404898Y-55335327D01*
X114595743Y-55321145D01*
X114595747Y-55321144D01*
X114600395Y-55320799D01*
X114604943Y-55319770D01*
X114604949Y-55319769D01*
X114794613Y-55276852D01*
X114859960Y-55262065D01*
X114864314Y-55260372D01*
X115103639Y-55167304D01*
X115103641Y-55167303D01*
X115107992Y-55165611D01*
X115182658Y-55122936D01*
X115194499Y-55116168D01*
X115339043Y-55033554D01*
X115548036Y-54868797D01*
X115730382Y-54674958D01*
X115776945Y-54607837D01*
X115879412Y-54460132D01*
X115879413Y-54460131D01*
X115882073Y-54456296D01*
X115895680Y-54428704D01*
X115997713Y-54221802D01*
X115997714Y-54221799D01*
X115999778Y-54217614D01*
X116001881Y-54211046D01*
X116073357Y-53987753D01*
X116080911Y-53964156D01*
X116093153Y-53888991D01*
X116122938Y-53706101D01*
X116123689Y-53701490D01*
X116125869Y-53534908D01*
X116127111Y-53440063D01*
X116127111Y-53440060D01*
X116127172Y-53435386D01*
X116091285Y-53171690D01*
X116085703Y-53152537D01*
X116039113Y-52992695D01*
X116016815Y-52916195D01*
X115905398Y-52674514D01*
X115902838Y-52670609D01*
X115902835Y-52670604D01*
X115762049Y-52455869D01*
X115762045Y-52455864D01*
X115759483Y-52451956D01*
X115649576Y-52328816D01*
X115585391Y-52256902D01*
X115585389Y-52256900D01*
X115582274Y-52253410D01*
X115377664Y-52083238D01*
X115150149Y-51945179D01*
X115145833Y-51943369D01*
X114909042Y-51844074D01*
X114909037Y-51844072D01*
X114904727Y-51842265D01*
X114900195Y-51841114D01*
X114900192Y-51841113D01*
X114771764Y-51808497D01*
X114646789Y-51776757D01*
X114425757Y-51754500D01*
X112287433Y-51754500D01*
X112285108Y-51754673D01*
X112285102Y-51754673D01*
X112094257Y-51768855D01*
X112094253Y-51768856D01*
X112089605Y-51769201D01*
X112085057Y-51770230D01*
X112085051Y-51770231D01*
X111895387Y-51813148D01*
X111830040Y-51827935D01*
X111825688Y-51829627D01*
X111825686Y-51829628D01*
X111586361Y-51922696D01*
X111586359Y-51922697D01*
X111582008Y-51924389D01*
X111577954Y-51926706D01*
X111577952Y-51926707D01*
X111548800Y-51943369D01*
X111350957Y-52056446D01*
X111141964Y-52221203D01*
X110959618Y-52415042D01*
X110936432Y-52448464D01*
X110828264Y-52604389D01*
X110807927Y-52633704D01*
X110805861Y-52637893D01*
X110805860Y-52637895D01*
X110702011Y-52848481D01*
X110690222Y-52872386D01*
X110688800Y-52876829D01*
X110688799Y-52876831D01*
X110678901Y-52907753D01*
X110609089Y-53125844D01*
X110608339Y-53130451D01*
X110608338Y-53130454D01*
X110598995Y-53187821D01*
X110566311Y-53388510D01*
X110565670Y-53437518D01*
X110563197Y-53626452D01*
X110562828Y-53654614D01*
X87137772Y-53654614D01*
X87145475Y-53631921D01*
X87145476Y-53631916D01*
X87147331Y-53626452D01*
X87148159Y-53620743D01*
X87148160Y-53620738D01*
X87178458Y-53411772D01*
X87178991Y-53408098D01*
X87180643Y-53345000D01*
X87160454Y-53125289D01*
X87100565Y-52912936D01*
X87018216Y-52745948D01*
X87006026Y-52676007D01*
X87011909Y-52649720D01*
X87065475Y-52491921D01*
X87065476Y-52491916D01*
X87067331Y-52486452D01*
X87068159Y-52480743D01*
X87068160Y-52480738D01*
X87098458Y-52271772D01*
X87098991Y-52268098D01*
X87100643Y-52205000D01*
X87080454Y-51985289D01*
X87074049Y-51962576D01*
X87043816Y-51855379D01*
X87020565Y-51772936D01*
X87011473Y-51754500D01*
X86965040Y-51660341D01*
X86952850Y-51590398D01*
X86968110Y-51543050D01*
X87056410Y-51385379D01*
X87058266Y-51379912D01*
X87058268Y-51379907D01*
X87125475Y-51181921D01*
X87125476Y-51181916D01*
X87127331Y-51176452D01*
X87128159Y-51170743D01*
X87128160Y-51170738D01*
X87151798Y-51007705D01*
X87158991Y-50958098D01*
X87160643Y-50895000D01*
X87140454Y-50675289D01*
X87080565Y-50462936D01*
X86982980Y-50265053D01*
X86949063Y-50219632D01*
X86854420Y-50092891D01*
X86854420Y-50092890D01*
X86850967Y-50088267D01*
X86711945Y-49959756D01*
X86693189Y-49942418D01*
X86693186Y-49942416D01*
X86688949Y-49938499D01*
X86502350Y-49820764D01*
X86297421Y-49739006D01*
X86291761Y-49737880D01*
X86291757Y-49737879D01*
X86086691Y-49697089D01*
X86086688Y-49697089D01*
X86081024Y-49695962D01*
X86075249Y-49695886D01*
X86075245Y-49695886D01*
X85964504Y-49694437D01*
X85860406Y-49693074D01*
X85854709Y-49694053D01*
X85854708Y-49694053D01*
X85648654Y-49729459D01*
X85648653Y-49729459D01*
X85642957Y-49730438D01*
X85435957Y-49806804D01*
X85430996Y-49809756D01*
X85430995Y-49809756D01*
X85299683Y-49887879D01*
X85246341Y-49919614D01*
X85080457Y-50065090D01*
X84943863Y-50238360D01*
X84841131Y-50433620D01*
X84775703Y-50644333D01*
X84749770Y-50863440D01*
X84764200Y-51083604D01*
X84765621Y-51089200D01*
X84765622Y-51089205D01*
X84803718Y-51239205D01*
X84818511Y-51297452D01*
X84820928Y-51302694D01*
X84820928Y-51302695D01*
X84884668Y-51440957D01*
X84895023Y-51511194D01*
X84881750Y-51552376D01*
X84781131Y-51743620D01*
X84715703Y-51954333D01*
X84689770Y-52173440D01*
X84699954Y-52328816D01*
X84702722Y-52371046D01*
X84704200Y-52393604D01*
X84705621Y-52399200D01*
X84705622Y-52399205D01*
X84748685Y-52568764D01*
X84758511Y-52607452D01*
X84850821Y-52807687D01*
X84861176Y-52877923D01*
X84856727Y-52897801D01*
X84797418Y-53088806D01*
X84797415Y-53088818D01*
X84795703Y-53094333D01*
X84769770Y-53313440D01*
X84784200Y-53533604D01*
X84785621Y-53539200D01*
X84785622Y-53539205D01*
X84822291Y-53683586D01*
X84838511Y-53747452D01*
X84857328Y-53788268D01*
X84866835Y-53808891D01*
X84877190Y-53879128D01*
X84863917Y-53920309D01*
X84843823Y-53958501D01*
X84843818Y-53958512D01*
X84841131Y-53963620D01*
X84775703Y-54174333D01*
X84749770Y-54393440D01*
X84764200Y-54613604D01*
X84765621Y-54619200D01*
X84765622Y-54619205D01*
X84817090Y-54821857D01*
X84818511Y-54827452D01*
X84820928Y-54832694D01*
X84820928Y-54832695D01*
X84840440Y-54875020D01*
X84850795Y-54945258D01*
X84837522Y-54986438D01*
X84781131Y-55093620D01*
X84715703Y-55304333D01*
X84689770Y-55523440D01*
X84690148Y-55529206D01*
X84700677Y-55689851D01*
X84685173Y-55759134D01*
X84673904Y-55776088D01*
X84553863Y-55928360D01*
X84451131Y-56123620D01*
X84385703Y-56334333D01*
X84359770Y-56553440D01*
X41113731Y-56553440D01*
X41027421Y-56519006D01*
X41021761Y-56517880D01*
X41021757Y-56517879D01*
X40816691Y-56477089D01*
X40816688Y-56477089D01*
X40811024Y-56475962D01*
X40805249Y-56475886D01*
X40805245Y-56475886D01*
X40694504Y-56474437D01*
X40590406Y-56473074D01*
X40584709Y-56474053D01*
X40584708Y-56474053D01*
X40378654Y-56509459D01*
X40378653Y-56509459D01*
X40372957Y-56510438D01*
X40165957Y-56586804D01*
X39976341Y-56699614D01*
X39810457Y-56845090D01*
X39673863Y-57018360D01*
X39571131Y-57213620D01*
X39505703Y-57424333D01*
X39479770Y-57643440D01*
X27335003Y-57643440D01*
X27304620Y-57605380D01*
X27164266Y-57493336D01*
X27097471Y-57461046D01*
X27074052Y-57449725D01*
X27002577Y-57415173D01*
X26995716Y-57413589D01*
X26832788Y-57375974D01*
X26832785Y-57375974D01*
X26827589Y-57374774D01*
X26822837Y-57374500D01*
X26821013Y-57374500D01*
X25876963Y-57374501D01*
X24947164Y-57374501D01*
X24942411Y-57374774D01*
X24767423Y-57415173D01*
X24695948Y-57449725D01*
X24672530Y-57461046D01*
X24605734Y-57493336D01*
X24465380Y-57605380D01*
X24353336Y-57745734D01*
X24350270Y-57752077D01*
X24350269Y-57752078D01*
X24311179Y-57832940D01*
X24275173Y-57907423D01*
X24273589Y-57914284D01*
X24237211Y-58071857D01*
X24234774Y-58082411D01*
X24234500Y-58087163D01*
X20800500Y-58087163D01*
X20800500Y-52653440D01*
X52759770Y-52653440D01*
X52774200Y-52873604D01*
X52775621Y-52879200D01*
X52775622Y-52879205D01*
X52813896Y-53029907D01*
X52828511Y-53087452D01*
X52830928Y-53092694D01*
X52830928Y-53092695D01*
X52869046Y-53175379D01*
X52920883Y-53287821D01*
X53048222Y-53468002D01*
X53206264Y-53621961D01*
X53211060Y-53625166D01*
X53211063Y-53625168D01*
X53310539Y-53691635D01*
X53389717Y-53744540D01*
X53395020Y-53746818D01*
X53395023Y-53746820D01*
X53492651Y-53788764D01*
X53592436Y-53831635D01*
X53661966Y-53847368D01*
X53801995Y-53879054D01*
X53802001Y-53879055D01*
X53807632Y-53880329D01*
X53813403Y-53880556D01*
X53813405Y-53880556D01*
X53881211Y-53883220D01*
X54028098Y-53888991D01*
X54137275Y-53873161D01*
X54240738Y-53858160D01*
X54240743Y-53858159D01*
X54246452Y-53857331D01*
X54251916Y-53855476D01*
X54251921Y-53855475D01*
X54449907Y-53788268D01*
X54449912Y-53788266D01*
X54455379Y-53786410D01*
X54466238Y-53780329D01*
X54537257Y-53740556D01*
X54647884Y-53678602D01*
X54671154Y-53659249D01*
X54813086Y-53541204D01*
X54817518Y-53537518D01*
X54933956Y-53397518D01*
X54954908Y-53372326D01*
X54954910Y-53372323D01*
X54958602Y-53367884D01*
X55059442Y-53187821D01*
X55063586Y-53180422D01*
X55063587Y-53180420D01*
X55066410Y-53175379D01*
X55068266Y-53169912D01*
X55068268Y-53169907D01*
X55135475Y-52971921D01*
X55135476Y-52971916D01*
X55137331Y-52966452D01*
X55138159Y-52960743D01*
X55138160Y-52960738D01*
X55158459Y-52820738D01*
X55168991Y-52748098D01*
X55170643Y-52685000D01*
X55154879Y-52513440D01*
X55599770Y-52513440D01*
X55614200Y-52733604D01*
X55615621Y-52739200D01*
X55615622Y-52739205D01*
X55655901Y-52897801D01*
X55668511Y-52947452D01*
X55670928Y-52952694D01*
X55670928Y-52952695D01*
X55709046Y-53035379D01*
X55760883Y-53147821D01*
X55888222Y-53328002D01*
X56046264Y-53481961D01*
X56051060Y-53485166D01*
X56051063Y-53485168D01*
X56135261Y-53541427D01*
X56229717Y-53604540D01*
X56235020Y-53606818D01*
X56235023Y-53606820D01*
X56393503Y-53674908D01*
X56432436Y-53691635D01*
X56512088Y-53709658D01*
X56641995Y-53739054D01*
X56642001Y-53739055D01*
X56647632Y-53740329D01*
X56653403Y-53740556D01*
X56653405Y-53740556D01*
X56721211Y-53743220D01*
X56868098Y-53748991D01*
X56987800Y-53731635D01*
X57080738Y-53718160D01*
X57080743Y-53718159D01*
X57086452Y-53717331D01*
X57091916Y-53715476D01*
X57091921Y-53715475D01*
X57289907Y-53648268D01*
X57289912Y-53648266D01*
X57295379Y-53646410D01*
X57333310Y-53625168D01*
X57423055Y-53574908D01*
X57487884Y-53538602D01*
X57493894Y-53533604D01*
X57626397Y-53423402D01*
X57657518Y-53397518D01*
X57722650Y-53319206D01*
X57794908Y-53232326D01*
X57794910Y-53232323D01*
X57798602Y-53227884D01*
X57873394Y-53094333D01*
X57903586Y-53040422D01*
X57903587Y-53040420D01*
X57906410Y-53035379D01*
X57908266Y-53029912D01*
X57908268Y-53029907D01*
X57975475Y-52831921D01*
X57975476Y-52831916D01*
X57977331Y-52826452D01*
X57978159Y-52820743D01*
X57978160Y-52820738D01*
X58002417Y-52653440D01*
X58008991Y-52608098D01*
X58010422Y-52553440D01*
X62429770Y-52553440D01*
X62444200Y-52773604D01*
X62445621Y-52779200D01*
X62445622Y-52779205D01*
X62470694Y-52877923D01*
X62498511Y-52987452D01*
X62500928Y-52992694D01*
X62500928Y-52992695D01*
X62562055Y-53125289D01*
X62590883Y-53187821D01*
X62718222Y-53368002D01*
X62876264Y-53521961D01*
X62881060Y-53525166D01*
X62881063Y-53525168D01*
X63003265Y-53606820D01*
X63059717Y-53644540D01*
X63065020Y-53646818D01*
X63065023Y-53646820D01*
X63231072Y-53718160D01*
X63262436Y-53731635D01*
X63305282Y-53741330D01*
X63471995Y-53779054D01*
X63472001Y-53779055D01*
X63477632Y-53780329D01*
X63483403Y-53780556D01*
X63483405Y-53780556D01*
X63551211Y-53783220D01*
X63698098Y-53788991D01*
X63807275Y-53773161D01*
X63910738Y-53758160D01*
X63910743Y-53758159D01*
X63916452Y-53757331D01*
X63921916Y-53755476D01*
X63921921Y-53755475D01*
X64119907Y-53688268D01*
X64119912Y-53688266D01*
X64125379Y-53686410D01*
X64139322Y-53678602D01*
X64242645Y-53620738D01*
X64317884Y-53578602D01*
X64365254Y-53539205D01*
X64483086Y-53441204D01*
X64487518Y-53437518D01*
X64585918Y-53319206D01*
X64624908Y-53272326D01*
X64624910Y-53272323D01*
X64628602Y-53267884D01*
X64711575Y-53119725D01*
X64733586Y-53080422D01*
X64733587Y-53080420D01*
X64736410Y-53075379D01*
X64738266Y-53069912D01*
X64738268Y-53069907D01*
X64805475Y-52871921D01*
X64805476Y-52871916D01*
X64807331Y-52866452D01*
X64808159Y-52860743D01*
X64808160Y-52860738D01*
X64831234Y-52701594D01*
X64838991Y-52648098D01*
X64840643Y-52585000D01*
X64820454Y-52365289D01*
X64760565Y-52152936D01*
X64662980Y-51955053D01*
X64633111Y-51915053D01*
X64534420Y-51782891D01*
X64534420Y-51782890D01*
X64530967Y-51778267D01*
X64433586Y-51688249D01*
X64373189Y-51632418D01*
X64373186Y-51632416D01*
X64368949Y-51628499D01*
X64182350Y-51510764D01*
X63977421Y-51429006D01*
X63971761Y-51427880D01*
X63971757Y-51427879D01*
X63766691Y-51387089D01*
X63766688Y-51387089D01*
X63761024Y-51385962D01*
X63755249Y-51385886D01*
X63755245Y-51385886D01*
X63644504Y-51384437D01*
X63540406Y-51383074D01*
X63534709Y-51384053D01*
X63534708Y-51384053D01*
X63328654Y-51419459D01*
X63328653Y-51419459D01*
X63322957Y-51420438D01*
X63115957Y-51496804D01*
X63110996Y-51499756D01*
X63110995Y-51499756D01*
X62947873Y-51596804D01*
X62926341Y-51609614D01*
X62760457Y-51755090D01*
X62623863Y-51928360D01*
X62521131Y-52123620D01*
X62455703Y-52334333D01*
X62429770Y-52553440D01*
X58010422Y-52553440D01*
X58010643Y-52545000D01*
X57990454Y-52325289D01*
X57984780Y-52305168D01*
X57941590Y-52152029D01*
X57930565Y-52112936D01*
X57832980Y-51915053D01*
X57822639Y-51901204D01*
X57704420Y-51742891D01*
X57704420Y-51742890D01*
X57700967Y-51738267D01*
X57560720Y-51608624D01*
X57543189Y-51592418D01*
X57543186Y-51592416D01*
X57538949Y-51588499D01*
X57352350Y-51470764D01*
X57147421Y-51389006D01*
X57141761Y-51387880D01*
X57141757Y-51387879D01*
X56936691Y-51347089D01*
X56936688Y-51347089D01*
X56931024Y-51345962D01*
X56925249Y-51345886D01*
X56925245Y-51345886D01*
X56814504Y-51344437D01*
X56710406Y-51343074D01*
X56704709Y-51344053D01*
X56704708Y-51344053D01*
X56498654Y-51379459D01*
X56498653Y-51379459D01*
X56492957Y-51380438D01*
X56285957Y-51456804D01*
X56280996Y-51459756D01*
X56280995Y-51459756D01*
X56132066Y-51548360D01*
X56096341Y-51569614D01*
X55930457Y-51715090D01*
X55793863Y-51888360D01*
X55691131Y-52083620D01*
X55625703Y-52294333D01*
X55599770Y-52513440D01*
X55154879Y-52513440D01*
X55150454Y-52465289D01*
X55147798Y-52455869D01*
X55103858Y-52300070D01*
X55090565Y-52252936D01*
X54992980Y-52055053D01*
X54980696Y-52038602D01*
X54864420Y-51882891D01*
X54864420Y-51882890D01*
X54860967Y-51878267D01*
X54752788Y-51778267D01*
X54703189Y-51732418D01*
X54703186Y-51732416D01*
X54698949Y-51728499D01*
X54512350Y-51610764D01*
X54355932Y-51548360D01*
X54312785Y-51531146D01*
X54307421Y-51529006D01*
X54301761Y-51527880D01*
X54301757Y-51527879D01*
X54096691Y-51487089D01*
X54096688Y-51487089D01*
X54091024Y-51485962D01*
X54085249Y-51485886D01*
X54085245Y-51485886D01*
X53974504Y-51484437D01*
X53870406Y-51483074D01*
X53864709Y-51484053D01*
X53864708Y-51484053D01*
X53658654Y-51519459D01*
X53658653Y-51519459D01*
X53652957Y-51520438D01*
X53445957Y-51596804D01*
X53440996Y-51599756D01*
X53440995Y-51599756D01*
X53352279Y-51652537D01*
X53256341Y-51709614D01*
X53090457Y-51855090D01*
X52953863Y-52028360D01*
X52851131Y-52223620D01*
X52810365Y-52354908D01*
X52789741Y-52421330D01*
X52785703Y-52434333D01*
X52759770Y-52653440D01*
X20800500Y-52653440D01*
X20800500Y-51333440D01*
X22899770Y-51333440D01*
X22914200Y-51553604D01*
X22915621Y-51559200D01*
X22915622Y-51559205D01*
X22965302Y-51754816D01*
X22968511Y-51767452D01*
X22970928Y-51772694D01*
X22970928Y-51772695D01*
X23007156Y-51851278D01*
X23060883Y-51967821D01*
X23188222Y-52148002D01*
X23346264Y-52301961D01*
X23351060Y-52305166D01*
X23351063Y-52305168D01*
X23432714Y-52359725D01*
X23529717Y-52424540D01*
X23535020Y-52426818D01*
X23535023Y-52426820D01*
X23660521Y-52480738D01*
X23732436Y-52511635D01*
X23812088Y-52529658D01*
X23941995Y-52559054D01*
X23942001Y-52559055D01*
X23947632Y-52560329D01*
X23953403Y-52560556D01*
X23953405Y-52560556D01*
X24021211Y-52563220D01*
X24168098Y-52568991D01*
X24277275Y-52553161D01*
X24380738Y-52538160D01*
X24380743Y-52538159D01*
X24386452Y-52537331D01*
X24391916Y-52535476D01*
X24391921Y-52535475D01*
X24589907Y-52468268D01*
X24589912Y-52468266D01*
X24595379Y-52466410D01*
X24614202Y-52455869D01*
X24735681Y-52387837D01*
X24787884Y-52358602D01*
X24810167Y-52340070D01*
X24914933Y-52252936D01*
X24957518Y-52217518D01*
X25019256Y-52143287D01*
X25094908Y-52052326D01*
X25094910Y-52052323D01*
X25098602Y-52047884D01*
X25206410Y-51855379D01*
X25208266Y-51849912D01*
X25208268Y-51849907D01*
X25275475Y-51651921D01*
X25275476Y-51651916D01*
X25277331Y-51646452D01*
X25278159Y-51640743D01*
X25278160Y-51640738D01*
X25304829Y-51456804D01*
X25308991Y-51428098D01*
X25310643Y-51365000D01*
X25290454Y-51145289D01*
X25230565Y-50932936D01*
X25132980Y-50735053D01*
X25041791Y-50612936D01*
X25004420Y-50562891D01*
X25004420Y-50562890D01*
X25000967Y-50558267D01*
X24866125Y-50433620D01*
X24843189Y-50412418D01*
X24843186Y-50412416D01*
X24838949Y-50408499D01*
X24652350Y-50290764D01*
X24447421Y-50209006D01*
X24441761Y-50207880D01*
X24441757Y-50207879D01*
X24236691Y-50167089D01*
X24236688Y-50167089D01*
X24231024Y-50165962D01*
X24225249Y-50165886D01*
X24225245Y-50165886D01*
X24114504Y-50164437D01*
X24010406Y-50163074D01*
X24004709Y-50164053D01*
X24004708Y-50164053D01*
X23798654Y-50199459D01*
X23798653Y-50199459D01*
X23792957Y-50200438D01*
X23585957Y-50276804D01*
X23580996Y-50279756D01*
X23580995Y-50279756D01*
X23462217Y-50350422D01*
X23396341Y-50389614D01*
X23230457Y-50535090D01*
X23093863Y-50708360D01*
X22991131Y-50903620D01*
X22925703Y-51114333D01*
X22899770Y-51333440D01*
X20800500Y-51333440D01*
X20800500Y-49823440D01*
X40279770Y-49823440D01*
X40294200Y-50043604D01*
X40295621Y-50049200D01*
X40295622Y-50049205D01*
X40334031Y-50200438D01*
X40348511Y-50257452D01*
X40350928Y-50262694D01*
X40350928Y-50262695D01*
X40389046Y-50345379D01*
X40440883Y-50457821D01*
X40568222Y-50638002D01*
X40726264Y-50791961D01*
X40731060Y-50795166D01*
X40731063Y-50795168D01*
X40815261Y-50851427D01*
X40909717Y-50914540D01*
X40915020Y-50916818D01*
X40915023Y-50916820D01*
X41019652Y-50961772D01*
X41112436Y-51001635D01*
X41190088Y-51019206D01*
X41321995Y-51049054D01*
X41322001Y-51049055D01*
X41327632Y-51050329D01*
X41333403Y-51050556D01*
X41333405Y-51050556D01*
X41401211Y-51053220D01*
X41548098Y-51058991D01*
X41670076Y-51041305D01*
X41760738Y-51028160D01*
X41760743Y-51028159D01*
X41766452Y-51027331D01*
X41771916Y-51025476D01*
X41771921Y-51025475D01*
X41807375Y-51013440D01*
X67639770Y-51013440D01*
X67654200Y-51233604D01*
X67655621Y-51239200D01*
X67655622Y-51239205D01*
X67693381Y-51387879D01*
X67708511Y-51447452D01*
X67710928Y-51452694D01*
X67710928Y-51452695D01*
X67747095Y-51531146D01*
X67800883Y-51647821D01*
X67928222Y-51828002D01*
X68086264Y-51981961D01*
X68091060Y-51985166D01*
X68091063Y-51985168D01*
X68184925Y-52047884D01*
X68269717Y-52104540D01*
X68275020Y-52106818D01*
X68275023Y-52106820D01*
X68467129Y-52189355D01*
X68472436Y-52191635D01*
X68531501Y-52205000D01*
X68681995Y-52239054D01*
X68682001Y-52239055D01*
X68687632Y-52240329D01*
X68693403Y-52240556D01*
X68693405Y-52240556D01*
X68761211Y-52243220D01*
X68908098Y-52248991D01*
X69017275Y-52233161D01*
X69120738Y-52218160D01*
X69120743Y-52218159D01*
X69126452Y-52217331D01*
X69131916Y-52215476D01*
X69131921Y-52215475D01*
X69329907Y-52148268D01*
X69329912Y-52148266D01*
X69335379Y-52146410D01*
X69366221Y-52129138D01*
X69442842Y-52086228D01*
X69527884Y-52038602D01*
X69598676Y-51979725D01*
X69693086Y-51901204D01*
X69697518Y-51897518D01*
X69755390Y-51827935D01*
X69834908Y-51732326D01*
X69834910Y-51732323D01*
X69838602Y-51727884D01*
X69925104Y-51573424D01*
X69943586Y-51540422D01*
X69943587Y-51540420D01*
X69946410Y-51535379D01*
X69948266Y-51529912D01*
X69948268Y-51529907D01*
X70015475Y-51331921D01*
X70015476Y-51331916D01*
X70017331Y-51326452D01*
X70018159Y-51320743D01*
X70018160Y-51320738D01*
X70042764Y-51151046D01*
X70048991Y-51108098D01*
X70050643Y-51045000D01*
X70030454Y-50825289D01*
X69970565Y-50612936D01*
X69896593Y-50462936D01*
X69875535Y-50420234D01*
X69872980Y-50415053D01*
X69865785Y-50405417D01*
X69744420Y-50242891D01*
X69744420Y-50242890D01*
X69740967Y-50238267D01*
X69624643Y-50130738D01*
X69583189Y-50092418D01*
X69583186Y-50092416D01*
X69578949Y-50088499D01*
X69392350Y-49970764D01*
X69187421Y-49889006D01*
X69181761Y-49887880D01*
X69181757Y-49887879D01*
X68976691Y-49847089D01*
X68976688Y-49847089D01*
X68971024Y-49845962D01*
X68965249Y-49845886D01*
X68965245Y-49845886D01*
X68854504Y-49844437D01*
X68750406Y-49843074D01*
X68744709Y-49844053D01*
X68744708Y-49844053D01*
X68538654Y-49879459D01*
X68538653Y-49879459D01*
X68532957Y-49880438D01*
X68325957Y-49956804D01*
X68320996Y-49959756D01*
X68320995Y-49959756D01*
X68150353Y-50061278D01*
X68136341Y-50069614D01*
X67970457Y-50215090D01*
X67833863Y-50388360D01*
X67731131Y-50583620D01*
X67665703Y-50794333D01*
X67639770Y-51013440D01*
X41807375Y-51013440D01*
X41969907Y-50958268D01*
X41969912Y-50958266D01*
X41975379Y-50956410D01*
X42167884Y-50848602D01*
X42239769Y-50788816D01*
X42309974Y-50730426D01*
X42337518Y-50707518D01*
X42440564Y-50583620D01*
X42474908Y-50542326D01*
X42474910Y-50542323D01*
X42478602Y-50537884D01*
X42561637Y-50389614D01*
X42583586Y-50350422D01*
X42583587Y-50350420D01*
X42586410Y-50345379D01*
X42588266Y-50339912D01*
X42588268Y-50339907D01*
X42655475Y-50141921D01*
X42655476Y-50141916D01*
X42657331Y-50136452D01*
X42658159Y-50130743D01*
X42658160Y-50130738D01*
X42683379Y-49956804D01*
X42688991Y-49918098D01*
X42690643Y-49855000D01*
X42670454Y-49635289D01*
X42610565Y-49422936D01*
X42512980Y-49225053D01*
X42380967Y-49048267D01*
X42218949Y-48898499D01*
X42032350Y-48780764D01*
X41827421Y-48699006D01*
X41821761Y-48697880D01*
X41821757Y-48697879D01*
X41616691Y-48657089D01*
X41616688Y-48657089D01*
X41611024Y-48655962D01*
X41605249Y-48655886D01*
X41605245Y-48655886D01*
X41494504Y-48654437D01*
X41390406Y-48653074D01*
X41384709Y-48654053D01*
X41384708Y-48654053D01*
X41178654Y-48689459D01*
X41178653Y-48689459D01*
X41172957Y-48690438D01*
X40965957Y-48766804D01*
X40776341Y-48879614D01*
X40610457Y-49025090D01*
X40473863Y-49198360D01*
X40371131Y-49393620D01*
X40305703Y-49604333D01*
X40279770Y-49823440D01*
X20800500Y-49823440D01*
X20800500Y-45065000D01*
X23937256Y-45065000D01*
X23957639Y-45323994D01*
X23958793Y-45328801D01*
X23958794Y-45328807D01*
X23997080Y-45488276D01*
X24018287Y-45576610D01*
X24020180Y-45581181D01*
X24020181Y-45581183D01*
X24108557Y-45794540D01*
X24117706Y-45816628D01*
X24253448Y-46038140D01*
X24422171Y-46235689D01*
X24619720Y-46404412D01*
X24841232Y-46540154D01*
X24845802Y-46542047D01*
X24845806Y-46542049D01*
X25076677Y-46637679D01*
X25081250Y-46639573D01*
X25169584Y-46660780D01*
X25329053Y-46699066D01*
X25329059Y-46699067D01*
X25333866Y-46700221D01*
X25592860Y-46720604D01*
X25851854Y-46700221D01*
X25856661Y-46699067D01*
X25856667Y-46699066D01*
X26016136Y-46660780D01*
X26104470Y-46639573D01*
X26109043Y-46637679D01*
X26339914Y-46542049D01*
X26339918Y-46542047D01*
X26344488Y-46540154D01*
X26566000Y-46404412D01*
X26763549Y-46235689D01*
X26932272Y-46038140D01*
X27068014Y-45816628D01*
X27077164Y-45794540D01*
X27165539Y-45581183D01*
X27165540Y-45581181D01*
X27167433Y-45576610D01*
X27188640Y-45488276D01*
X27226926Y-45328807D01*
X27226927Y-45328801D01*
X27228081Y-45323994D01*
X27248464Y-45065000D01*
X27228081Y-44806006D01*
X27226927Y-44801199D01*
X27226926Y-44801193D01*
X27203457Y-44703440D01*
X45659770Y-44703440D01*
X45674200Y-44923604D01*
X45675621Y-44929200D01*
X45675622Y-44929205D01*
X45708858Y-45060070D01*
X45728511Y-45137452D01*
X45730928Y-45142694D01*
X45730928Y-45142695D01*
X45769046Y-45225379D01*
X45820883Y-45337821D01*
X45948222Y-45518002D01*
X46106264Y-45671961D01*
X46111060Y-45675166D01*
X46111063Y-45675168D01*
X46195261Y-45731427D01*
X46289717Y-45794540D01*
X46295020Y-45796818D01*
X46295023Y-45796820D01*
X46487129Y-45879355D01*
X46492436Y-45881635D01*
X46572088Y-45899658D01*
X46701995Y-45929054D01*
X46702001Y-45929055D01*
X46707632Y-45930329D01*
X46713403Y-45930556D01*
X46713405Y-45930556D01*
X46781211Y-45933220D01*
X46928098Y-45938991D01*
X47037275Y-45923161D01*
X47140738Y-45908160D01*
X47140743Y-45908159D01*
X47146452Y-45907331D01*
X47151916Y-45905476D01*
X47151921Y-45905475D01*
X47349907Y-45838268D01*
X47349912Y-45838266D01*
X47355379Y-45836410D01*
X47390703Y-45816628D01*
X47435875Y-45791330D01*
X47547884Y-45728602D01*
X47717518Y-45587518D01*
X47858602Y-45417884D01*
X47966410Y-45225379D01*
X47968266Y-45219912D01*
X47968268Y-45219907D01*
X48035475Y-45021921D01*
X48035476Y-45021916D01*
X48037331Y-45016452D01*
X48038159Y-45010743D01*
X48038160Y-45010738D01*
X48068458Y-44801772D01*
X48068991Y-44798098D01*
X48070643Y-44735000D01*
X48050454Y-44515289D01*
X47990565Y-44302936D01*
X47892980Y-44105053D01*
X47760967Y-43928267D01*
X47656135Y-43831361D01*
X47603189Y-43782418D01*
X47603186Y-43782416D01*
X47598949Y-43778499D01*
X47412350Y-43660764D01*
X47207421Y-43579006D01*
X47201761Y-43577880D01*
X47201757Y-43577879D01*
X46996691Y-43537089D01*
X46996688Y-43537089D01*
X46991024Y-43535962D01*
X46985249Y-43535886D01*
X46985245Y-43535886D01*
X46874504Y-43534437D01*
X46770406Y-43533074D01*
X46764709Y-43534053D01*
X46764708Y-43534053D01*
X46558654Y-43569459D01*
X46558653Y-43569459D01*
X46552957Y-43570438D01*
X46345957Y-43646804D01*
X46340996Y-43649756D01*
X46340995Y-43649756D01*
X46251415Y-43703051D01*
X46156341Y-43759614D01*
X45990457Y-43905090D01*
X45853863Y-44078360D01*
X45751131Y-44273620D01*
X45685703Y-44484333D01*
X45659770Y-44703440D01*
X27203457Y-44703440D01*
X27168588Y-44558202D01*
X27167433Y-44553390D01*
X27151651Y-44515289D01*
X27069909Y-44317946D01*
X27069907Y-44317942D01*
X27068014Y-44313372D01*
X26932272Y-44091860D01*
X26763549Y-43894311D01*
X26759793Y-43891103D01*
X26759788Y-43891098D01*
X26759452Y-43890811D01*
X26759360Y-43890670D01*
X26756285Y-43887595D01*
X26756931Y-43886949D01*
X26720643Y-43831361D01*
X26720135Y-43760366D01*
X26756955Y-43703075D01*
X26756285Y-43702405D01*
X26759364Y-43699326D01*
X26759452Y-43699189D01*
X26759788Y-43698902D01*
X26759793Y-43698897D01*
X26763549Y-43695689D01*
X26932272Y-43498140D01*
X27068014Y-43276628D01*
X27167433Y-43036610D01*
X27188640Y-42948276D01*
X27226926Y-42788807D01*
X27226927Y-42788801D01*
X27228081Y-42783994D01*
X27248464Y-42525000D01*
X27228081Y-42266006D01*
X27226927Y-42261199D01*
X27226926Y-42261193D01*
X27168588Y-42018202D01*
X27167433Y-42013390D01*
X27068014Y-41773372D01*
X26956174Y-41590865D01*
X26937636Y-41522331D01*
X26959093Y-41454654D01*
X26984995Y-41426561D01*
X27012480Y-41404620D01*
X27124524Y-41264266D01*
X27202687Y-41102577D01*
X27243086Y-40927589D01*
X27243360Y-40922837D01*
X27243359Y-39473440D01*
X41539770Y-39473440D01*
X41554200Y-39693604D01*
X41555621Y-39699200D01*
X41555622Y-39699205D01*
X41607090Y-39901857D01*
X41608511Y-39907452D01*
X41610928Y-39912694D01*
X41610928Y-39912695D01*
X41649046Y-39995379D01*
X41700883Y-40107821D01*
X41828222Y-40288002D01*
X41986264Y-40441961D01*
X41991060Y-40445166D01*
X41991063Y-40445168D01*
X42075261Y-40501427D01*
X42169717Y-40564540D01*
X42175020Y-40566818D01*
X42175023Y-40566820D01*
X42367129Y-40649355D01*
X42372436Y-40651635D01*
X42452088Y-40669658D01*
X42581995Y-40699054D01*
X42582001Y-40699055D01*
X42587632Y-40700329D01*
X42593403Y-40700556D01*
X42593405Y-40700556D01*
X42661211Y-40703220D01*
X42808098Y-40708991D01*
X42917275Y-40693161D01*
X43020738Y-40678160D01*
X43020743Y-40678159D01*
X43026452Y-40677331D01*
X43031916Y-40675476D01*
X43031921Y-40675475D01*
X43229907Y-40608268D01*
X43229912Y-40608266D01*
X43235379Y-40606410D01*
X43427884Y-40498602D01*
X43597518Y-40357518D01*
X43623402Y-40326397D01*
X43734908Y-40192326D01*
X43734910Y-40192323D01*
X43738602Y-40187884D01*
X43846410Y-39995379D01*
X43848266Y-39989912D01*
X43848268Y-39989907D01*
X43915475Y-39791921D01*
X43915476Y-39791916D01*
X43917331Y-39786452D01*
X43918159Y-39780743D01*
X43918160Y-39780738D01*
X43948458Y-39571772D01*
X43948991Y-39568098D01*
X43950643Y-39505000D01*
X43930454Y-39285289D01*
X43870565Y-39072936D01*
X43772980Y-38875053D01*
X43767283Y-38867423D01*
X43644420Y-38702891D01*
X43644420Y-38702890D01*
X43640967Y-38698267D01*
X43497211Y-38565380D01*
X43483189Y-38552418D01*
X43483186Y-38552416D01*
X43478949Y-38548499D01*
X43292350Y-38430764D01*
X43087421Y-38349006D01*
X43081761Y-38347880D01*
X43081757Y-38347879D01*
X42876691Y-38307089D01*
X42876688Y-38307089D01*
X42871024Y-38305962D01*
X42865249Y-38305886D01*
X42865245Y-38305886D01*
X42754504Y-38304437D01*
X42650406Y-38303074D01*
X42644709Y-38304053D01*
X42644708Y-38304053D01*
X42438654Y-38339459D01*
X42438653Y-38339459D01*
X42432957Y-38340438D01*
X42225957Y-38416804D01*
X42220996Y-38419756D01*
X42220995Y-38419756D01*
X42169708Y-38450269D01*
X42036341Y-38529614D01*
X41870457Y-38675090D01*
X41733863Y-38848360D01*
X41631131Y-39043620D01*
X41565703Y-39254333D01*
X41539770Y-39473440D01*
X27243359Y-39473440D01*
X27243359Y-39047164D01*
X27243086Y-39042411D01*
X27202687Y-38867423D01*
X27124524Y-38705734D01*
X27012480Y-38565380D01*
X26872126Y-38453336D01*
X26821007Y-38428624D01*
X26716779Y-38378239D01*
X26716780Y-38378239D01*
X26710437Y-38375173D01*
X26703576Y-38373589D01*
X26540648Y-38335974D01*
X26540645Y-38335974D01*
X26535449Y-38334774D01*
X26530697Y-38334500D01*
X26528873Y-38334500D01*
X25584823Y-38334501D01*
X24655024Y-38334501D01*
X24650271Y-38334774D01*
X24475283Y-38375173D01*
X24468940Y-38378239D01*
X24468941Y-38378239D01*
X24364714Y-38428624D01*
X24313594Y-38453336D01*
X24173240Y-38565380D01*
X24061196Y-38705734D01*
X23983033Y-38867423D01*
X23942634Y-39042411D01*
X23942360Y-39047163D01*
X23942361Y-40922836D01*
X23942634Y-40927589D01*
X23983033Y-41102577D01*
X24061196Y-41264266D01*
X24173240Y-41404620D01*
X24200724Y-41426560D01*
X24241481Y-41484691D01*
X24244341Y-41555630D01*
X24229546Y-41590864D01*
X24117706Y-41773372D01*
X24018287Y-42013390D01*
X24017132Y-42018202D01*
X23958794Y-42261193D01*
X23958793Y-42261199D01*
X23957639Y-42266006D01*
X23937256Y-42525000D01*
X23957639Y-42783994D01*
X23958793Y-42788801D01*
X23958794Y-42788807D01*
X23997080Y-42948276D01*
X24018287Y-43036610D01*
X24117706Y-43276628D01*
X24253448Y-43498140D01*
X24422171Y-43695689D01*
X24425927Y-43698897D01*
X24425932Y-43698902D01*
X24426268Y-43699189D01*
X24426360Y-43699330D01*
X24429435Y-43702405D01*
X24428789Y-43703051D01*
X24465077Y-43758639D01*
X24465585Y-43829634D01*
X24428765Y-43886925D01*
X24429435Y-43887595D01*
X24426356Y-43890674D01*
X24426268Y-43890811D01*
X24425932Y-43891098D01*
X24425927Y-43891103D01*
X24422171Y-43894311D01*
X24253448Y-44091860D01*
X24117706Y-44313372D01*
X24115813Y-44317942D01*
X24115811Y-44317946D01*
X24034069Y-44515289D01*
X24018287Y-44553390D01*
X24017132Y-44558202D01*
X23958794Y-44801193D01*
X23958793Y-44801199D01*
X23957639Y-44806006D01*
X23937256Y-45065000D01*
X20800500Y-45065000D01*
X20800500Y-37467163D01*
X110564500Y-37467163D01*
X110564501Y-39622836D01*
X110564774Y-39627589D01*
X110605173Y-39802577D01*
X110608239Y-39808919D01*
X110653167Y-39901857D01*
X110683336Y-39964266D01*
X110795380Y-40104620D01*
X110935734Y-40216664D01*
X111097423Y-40294827D01*
X111104284Y-40296411D01*
X111267212Y-40334026D01*
X111267215Y-40334026D01*
X111272411Y-40335226D01*
X111277163Y-40335500D01*
X111278987Y-40335500D01*
X113362722Y-40335499D01*
X115412836Y-40335499D01*
X115417589Y-40335226D01*
X115592577Y-40294827D01*
X115754266Y-40216664D01*
X115894620Y-40104620D01*
X116006664Y-39964266D01*
X116036834Y-39901857D01*
X116081761Y-39808919D01*
X116084827Y-39802577D01*
X116125226Y-39627589D01*
X116125500Y-39622837D01*
X116125499Y-37467164D01*
X116125226Y-37462411D01*
X116084827Y-37287423D01*
X116006664Y-37125734D01*
X115894620Y-36985380D01*
X115754266Y-36873336D01*
X115592577Y-36795173D01*
X115585716Y-36793589D01*
X115422788Y-36755974D01*
X115422785Y-36755974D01*
X115417589Y-36754774D01*
X115412837Y-36754500D01*
X115411013Y-36754500D01*
X113327278Y-36754501D01*
X111277164Y-36754501D01*
X111272411Y-36754774D01*
X111097423Y-36795173D01*
X110935734Y-36873336D01*
X110795380Y-36985380D01*
X110683336Y-37125734D01*
X110605173Y-37287423D01*
X110564774Y-37462411D01*
X110564500Y-37467163D01*
X20800500Y-37467163D01*
X20800500Y-31273440D01*
X22919770Y-31273440D01*
X22934200Y-31493604D01*
X22935621Y-31499200D01*
X22935622Y-31499205D01*
X22964145Y-31611513D01*
X22988511Y-31707452D01*
X22990928Y-31712694D01*
X22990928Y-31712695D01*
X23029046Y-31795379D01*
X23080883Y-31907821D01*
X23208222Y-32088002D01*
X23366264Y-32241961D01*
X23371060Y-32245166D01*
X23371063Y-32245168D01*
X23455261Y-32301427D01*
X23549717Y-32364540D01*
X23555020Y-32366818D01*
X23555023Y-32366820D01*
X23747129Y-32449355D01*
X23752436Y-32451635D01*
X23832088Y-32469658D01*
X23961995Y-32499054D01*
X23962001Y-32499055D01*
X23967632Y-32500329D01*
X23973403Y-32500556D01*
X23973405Y-32500556D01*
X24041211Y-32503220D01*
X24188098Y-32508991D01*
X24275309Y-32496346D01*
X45072908Y-32496346D01*
X45073132Y-32501012D01*
X45073132Y-32501018D01*
X45075005Y-32540000D01*
X45084768Y-32743237D01*
X45132989Y-32985664D01*
X45216514Y-33218300D01*
X45333507Y-33436035D01*
X45336302Y-33439778D01*
X45336304Y-33439781D01*
X45478607Y-33630347D01*
X45478612Y-33630353D01*
X45481399Y-33634085D01*
X45484708Y-33637365D01*
X45484713Y-33637371D01*
X45580656Y-33732480D01*
X45656940Y-33808101D01*
X45660702Y-33810859D01*
X45660705Y-33810862D01*
X45852499Y-33951491D01*
X45856273Y-33954258D01*
X45860416Y-33956438D01*
X45860418Y-33956439D01*
X46070871Y-34067164D01*
X46070876Y-34067166D01*
X46075021Y-34069347D01*
X46308377Y-34150839D01*
X46312970Y-34151711D01*
X46546626Y-34196072D01*
X46546629Y-34196072D01*
X46551215Y-34196943D01*
X46668637Y-34201556D01*
X46793533Y-34206464D01*
X46793538Y-34206464D01*
X46798201Y-34206647D01*
X46886808Y-34196943D01*
X47039254Y-34180248D01*
X47039259Y-34180247D01*
X47043907Y-34179738D01*
X47048431Y-34178547D01*
X47278415Y-34117997D01*
X47278417Y-34117996D01*
X47282938Y-34116806D01*
X47393402Y-34069347D01*
X47505752Y-34021078D01*
X47505755Y-34021076D01*
X47510041Y-34019235D01*
X47720228Y-33889168D01*
X47723791Y-33886151D01*
X47723796Y-33886148D01*
X47905314Y-33732480D01*
X47905315Y-33732479D01*
X47908880Y-33729461D01*
X47911961Y-33725948D01*
X47911969Y-33725940D01*
X47917641Y-33719473D01*
X47977595Y-33681447D01*
X48048591Y-33681871D01*
X48101076Y-33713070D01*
X48196940Y-33808101D01*
X48200702Y-33810859D01*
X48200705Y-33810862D01*
X48392499Y-33951491D01*
X48396273Y-33954258D01*
X48400416Y-33956438D01*
X48400418Y-33956439D01*
X48610871Y-34067164D01*
X48610876Y-34067166D01*
X48615021Y-34069347D01*
X48848377Y-34150839D01*
X48852970Y-34151711D01*
X49086626Y-34196072D01*
X49086629Y-34196072D01*
X49091215Y-34196943D01*
X49208637Y-34201556D01*
X49333533Y-34206464D01*
X49333538Y-34206464D01*
X49338201Y-34206647D01*
X49426808Y-34196943D01*
X49579254Y-34180248D01*
X49579259Y-34180247D01*
X49583907Y-34179738D01*
X49588431Y-34178547D01*
X49818415Y-34117997D01*
X49818417Y-34117996D01*
X49822938Y-34116806D01*
X49933402Y-34069347D01*
X50045752Y-34021078D01*
X50045755Y-34021076D01*
X50050041Y-34019235D01*
X50260228Y-33889168D01*
X50263791Y-33886151D01*
X50263796Y-33886148D01*
X50445314Y-33732480D01*
X50445315Y-33732479D01*
X50448880Y-33729461D01*
X50451961Y-33725948D01*
X50451969Y-33725940D01*
X50457641Y-33719473D01*
X50517595Y-33681447D01*
X50588591Y-33681871D01*
X50641076Y-33713070D01*
X50736940Y-33808101D01*
X50740702Y-33810859D01*
X50740705Y-33810862D01*
X50932499Y-33951491D01*
X50936273Y-33954258D01*
X50940416Y-33956438D01*
X50940418Y-33956439D01*
X51150871Y-34067164D01*
X51150876Y-34067166D01*
X51155021Y-34069347D01*
X51388377Y-34150839D01*
X51392970Y-34151711D01*
X51626626Y-34196072D01*
X51626629Y-34196072D01*
X51631215Y-34196943D01*
X51748637Y-34201556D01*
X51873533Y-34206464D01*
X51873538Y-34206464D01*
X51878201Y-34206647D01*
X51966808Y-34196943D01*
X52119254Y-34180248D01*
X52119259Y-34180247D01*
X52123907Y-34179738D01*
X52128431Y-34178547D01*
X52358415Y-34117997D01*
X52358417Y-34117996D01*
X52362938Y-34116806D01*
X52473402Y-34069347D01*
X52585752Y-34021078D01*
X52585755Y-34021076D01*
X52590041Y-34019235D01*
X52800228Y-33889168D01*
X52803791Y-33886151D01*
X52803796Y-33886148D01*
X52985314Y-33732480D01*
X52985315Y-33732479D01*
X52988880Y-33729461D01*
X52991961Y-33725948D01*
X52991969Y-33725940D01*
X52997641Y-33719473D01*
X53057595Y-33681447D01*
X53128591Y-33681871D01*
X53181076Y-33713070D01*
X53276940Y-33808101D01*
X53280702Y-33810859D01*
X53280705Y-33810862D01*
X53472499Y-33951491D01*
X53476273Y-33954258D01*
X53480416Y-33956438D01*
X53480418Y-33956439D01*
X53690871Y-34067164D01*
X53690876Y-34067166D01*
X53695021Y-34069347D01*
X53928377Y-34150839D01*
X53932970Y-34151711D01*
X54166626Y-34196072D01*
X54166629Y-34196072D01*
X54171215Y-34196943D01*
X54288637Y-34201556D01*
X54413533Y-34206464D01*
X54413538Y-34206464D01*
X54418201Y-34206647D01*
X54506808Y-34196943D01*
X54659254Y-34180248D01*
X54659259Y-34180247D01*
X54663907Y-34179738D01*
X54668431Y-34178547D01*
X54898415Y-34117997D01*
X54898417Y-34117996D01*
X54902938Y-34116806D01*
X55013402Y-34069347D01*
X55125752Y-34021078D01*
X55125755Y-34021076D01*
X55130041Y-34019235D01*
X55340228Y-33889168D01*
X55343791Y-33886151D01*
X55343796Y-33886148D01*
X55525314Y-33732480D01*
X55525315Y-33732479D01*
X55528880Y-33729461D01*
X55531961Y-33725948D01*
X55531969Y-33725940D01*
X55537641Y-33719473D01*
X55597595Y-33681447D01*
X55668591Y-33681871D01*
X55721076Y-33713070D01*
X55816940Y-33808101D01*
X55820702Y-33810859D01*
X55820705Y-33810862D01*
X56012499Y-33951491D01*
X56016273Y-33954258D01*
X56020416Y-33956438D01*
X56020418Y-33956439D01*
X56230871Y-34067164D01*
X56230876Y-34067166D01*
X56235021Y-34069347D01*
X56468377Y-34150839D01*
X56472970Y-34151711D01*
X56706626Y-34196072D01*
X56706629Y-34196072D01*
X56711215Y-34196943D01*
X56828637Y-34201556D01*
X56953533Y-34206464D01*
X56953538Y-34206464D01*
X56958201Y-34206647D01*
X57046808Y-34196943D01*
X57199254Y-34180248D01*
X57199259Y-34180247D01*
X57203907Y-34179738D01*
X57208431Y-34178547D01*
X57438415Y-34117997D01*
X57438417Y-34117996D01*
X57442938Y-34116806D01*
X57553402Y-34069347D01*
X57665752Y-34021078D01*
X57665755Y-34021076D01*
X57670041Y-34019235D01*
X57880228Y-33889168D01*
X57883791Y-33886151D01*
X57883796Y-33886148D01*
X58065314Y-33732480D01*
X58065315Y-33732479D01*
X58068880Y-33729461D01*
X58071961Y-33725948D01*
X58071969Y-33725940D01*
X58077641Y-33719473D01*
X58137595Y-33681447D01*
X58208591Y-33681871D01*
X58261076Y-33713070D01*
X58356940Y-33808101D01*
X58360702Y-33810859D01*
X58360705Y-33810862D01*
X58552499Y-33951491D01*
X58556273Y-33954258D01*
X58560416Y-33956438D01*
X58560418Y-33956439D01*
X58770871Y-34067164D01*
X58770876Y-34067166D01*
X58775021Y-34069347D01*
X59008377Y-34150839D01*
X59012970Y-34151711D01*
X59246626Y-34196072D01*
X59246629Y-34196072D01*
X59251215Y-34196943D01*
X59368637Y-34201556D01*
X59493533Y-34206464D01*
X59493538Y-34206464D01*
X59498201Y-34206647D01*
X59586808Y-34196943D01*
X59739254Y-34180248D01*
X59739259Y-34180247D01*
X59743907Y-34179738D01*
X59748431Y-34178547D01*
X59978415Y-34117997D01*
X59978417Y-34117996D01*
X59982938Y-34116806D01*
X60093402Y-34069347D01*
X60205752Y-34021078D01*
X60205755Y-34021076D01*
X60210041Y-34019235D01*
X60420228Y-33889168D01*
X60423791Y-33886151D01*
X60423796Y-33886148D01*
X60605314Y-33732480D01*
X60605315Y-33732479D01*
X60608880Y-33729461D01*
X60611961Y-33725948D01*
X60611969Y-33725940D01*
X60617641Y-33719473D01*
X60677595Y-33681447D01*
X60748591Y-33681871D01*
X60801076Y-33713070D01*
X60896940Y-33808101D01*
X60900702Y-33810859D01*
X60900705Y-33810862D01*
X61092499Y-33951491D01*
X61096273Y-33954258D01*
X61100416Y-33956438D01*
X61100418Y-33956439D01*
X61310871Y-34067164D01*
X61310876Y-34067166D01*
X61315021Y-34069347D01*
X61548377Y-34150839D01*
X61552970Y-34151711D01*
X61786626Y-34196072D01*
X61786629Y-34196072D01*
X61791215Y-34196943D01*
X61908637Y-34201556D01*
X62033533Y-34206464D01*
X62033538Y-34206464D01*
X62038201Y-34206647D01*
X62126808Y-34196943D01*
X62279254Y-34180248D01*
X62279259Y-34180247D01*
X62283907Y-34179738D01*
X62288431Y-34178547D01*
X62518415Y-34117997D01*
X62518417Y-34117996D01*
X62522938Y-34116806D01*
X62633402Y-34069347D01*
X62745752Y-34021078D01*
X62745755Y-34021076D01*
X62750041Y-34019235D01*
X62960228Y-33889168D01*
X62963791Y-33886151D01*
X62963796Y-33886148D01*
X63145314Y-33732480D01*
X63145315Y-33732479D01*
X63148880Y-33729461D01*
X63151961Y-33725948D01*
X63151969Y-33725940D01*
X63157641Y-33719473D01*
X63217595Y-33681447D01*
X63288591Y-33681871D01*
X63341076Y-33713070D01*
X63436940Y-33808101D01*
X63440702Y-33810859D01*
X63440705Y-33810862D01*
X63632499Y-33951491D01*
X63636273Y-33954258D01*
X63640416Y-33956438D01*
X63640418Y-33956439D01*
X63850871Y-34067164D01*
X63850876Y-34067166D01*
X63855021Y-34069347D01*
X64088377Y-34150839D01*
X64092970Y-34151711D01*
X64326626Y-34196072D01*
X64326629Y-34196072D01*
X64331215Y-34196943D01*
X64448637Y-34201556D01*
X64573533Y-34206464D01*
X64573538Y-34206464D01*
X64578201Y-34206647D01*
X64666808Y-34196943D01*
X64819254Y-34180248D01*
X64819259Y-34180247D01*
X64823907Y-34179738D01*
X64828431Y-34178547D01*
X65058415Y-34117997D01*
X65058417Y-34117996D01*
X65062938Y-34116806D01*
X65173402Y-34069347D01*
X65285752Y-34021078D01*
X65285755Y-34021076D01*
X65290041Y-34019235D01*
X65500228Y-33889168D01*
X65503791Y-33886151D01*
X65503796Y-33886148D01*
X65685314Y-33732480D01*
X65685315Y-33732479D01*
X65688880Y-33729461D01*
X65691961Y-33725948D01*
X65691969Y-33725940D01*
X65697641Y-33719473D01*
X65757595Y-33681447D01*
X65828591Y-33681871D01*
X65881076Y-33713070D01*
X65976940Y-33808101D01*
X65980702Y-33810859D01*
X65980705Y-33810862D01*
X66172499Y-33951491D01*
X66176273Y-33954258D01*
X66180416Y-33956438D01*
X66180418Y-33956439D01*
X66390871Y-34067164D01*
X66390876Y-34067166D01*
X66395021Y-34069347D01*
X66628377Y-34150839D01*
X66632970Y-34151711D01*
X66866626Y-34196072D01*
X66866629Y-34196072D01*
X66871215Y-34196943D01*
X66988637Y-34201556D01*
X67113533Y-34206464D01*
X67113538Y-34206464D01*
X67118201Y-34206647D01*
X67206808Y-34196943D01*
X67359254Y-34180248D01*
X67359259Y-34180247D01*
X67363907Y-34179738D01*
X67368431Y-34178547D01*
X67598415Y-34117997D01*
X67598417Y-34117996D01*
X67602938Y-34116806D01*
X67713402Y-34069347D01*
X67825752Y-34021078D01*
X67825755Y-34021076D01*
X67830041Y-34019235D01*
X68040228Y-33889168D01*
X68043791Y-33886151D01*
X68043796Y-33886148D01*
X68225314Y-33732480D01*
X68225315Y-33732479D01*
X68228880Y-33729461D01*
X68231961Y-33725948D01*
X68231969Y-33725940D01*
X68237641Y-33719473D01*
X68297595Y-33681447D01*
X68368591Y-33681871D01*
X68421076Y-33713070D01*
X68516940Y-33808101D01*
X68520702Y-33810859D01*
X68520705Y-33810862D01*
X68712499Y-33951491D01*
X68716273Y-33954258D01*
X68720416Y-33956438D01*
X68720418Y-33956439D01*
X68930871Y-34067164D01*
X68930876Y-34067166D01*
X68935021Y-34069347D01*
X69168377Y-34150839D01*
X69172970Y-34151711D01*
X69406626Y-34196072D01*
X69406629Y-34196072D01*
X69411215Y-34196943D01*
X69528637Y-34201556D01*
X69653533Y-34206464D01*
X69653538Y-34206464D01*
X69658201Y-34206647D01*
X69746808Y-34196943D01*
X69899254Y-34180248D01*
X69899259Y-34180247D01*
X69903907Y-34179738D01*
X69908431Y-34178547D01*
X70138415Y-34117997D01*
X70138417Y-34117996D01*
X70142938Y-34116806D01*
X70253402Y-34069347D01*
X70365752Y-34021078D01*
X70365755Y-34021076D01*
X70370041Y-34019235D01*
X70580228Y-33889168D01*
X70583791Y-33886151D01*
X70583796Y-33886148D01*
X70765314Y-33732480D01*
X70765315Y-33732479D01*
X70768880Y-33729461D01*
X70771961Y-33725948D01*
X70771969Y-33725940D01*
X70777641Y-33719473D01*
X70837595Y-33681447D01*
X70908591Y-33681871D01*
X70961076Y-33713070D01*
X71056940Y-33808101D01*
X71060702Y-33810859D01*
X71060705Y-33810862D01*
X71252499Y-33951491D01*
X71256273Y-33954258D01*
X71260416Y-33956438D01*
X71260418Y-33956439D01*
X71470871Y-34067164D01*
X71470876Y-34067166D01*
X71475021Y-34069347D01*
X71708377Y-34150839D01*
X71712970Y-34151711D01*
X71946626Y-34196072D01*
X71946629Y-34196072D01*
X71951215Y-34196943D01*
X72068637Y-34201556D01*
X72193533Y-34206464D01*
X72193538Y-34206464D01*
X72198201Y-34206647D01*
X72286808Y-34196943D01*
X72439254Y-34180248D01*
X72439259Y-34180247D01*
X72443907Y-34179738D01*
X72448431Y-34178547D01*
X72678415Y-34117997D01*
X72678417Y-34117996D01*
X72682938Y-34116806D01*
X72793402Y-34069347D01*
X72905752Y-34021078D01*
X72905755Y-34021076D01*
X72910041Y-34019235D01*
X73120228Y-33889168D01*
X73123791Y-33886151D01*
X73123796Y-33886148D01*
X73305314Y-33732480D01*
X73305315Y-33732479D01*
X73308880Y-33729461D01*
X73311961Y-33725948D01*
X73311969Y-33725940D01*
X73317641Y-33719473D01*
X73377595Y-33681447D01*
X73448591Y-33681871D01*
X73501076Y-33713070D01*
X73596940Y-33808101D01*
X73600702Y-33810859D01*
X73600705Y-33810862D01*
X73792499Y-33951491D01*
X73796273Y-33954258D01*
X73800416Y-33956438D01*
X73800418Y-33956439D01*
X74010871Y-34067164D01*
X74010876Y-34067166D01*
X74015021Y-34069347D01*
X74248377Y-34150839D01*
X74252970Y-34151711D01*
X74486626Y-34196072D01*
X74486629Y-34196072D01*
X74491215Y-34196943D01*
X74608637Y-34201556D01*
X74733533Y-34206464D01*
X74733538Y-34206464D01*
X74738201Y-34206647D01*
X74826808Y-34196943D01*
X74979254Y-34180248D01*
X74979259Y-34180247D01*
X74983907Y-34179738D01*
X74988431Y-34178547D01*
X75218415Y-34117997D01*
X75218417Y-34117996D01*
X75222938Y-34116806D01*
X75333402Y-34069347D01*
X75445752Y-34021078D01*
X75445755Y-34021076D01*
X75450041Y-34019235D01*
X75660228Y-33889168D01*
X75663791Y-33886151D01*
X75663796Y-33886148D01*
X75845314Y-33732480D01*
X75845315Y-33732479D01*
X75848880Y-33729461D01*
X75851961Y-33725948D01*
X75851969Y-33725940D01*
X75857641Y-33719473D01*
X75917595Y-33681447D01*
X75988591Y-33681871D01*
X76041076Y-33713070D01*
X76136940Y-33808101D01*
X76140702Y-33810859D01*
X76140705Y-33810862D01*
X76332499Y-33951491D01*
X76336273Y-33954258D01*
X76340416Y-33956438D01*
X76340418Y-33956439D01*
X76550871Y-34067164D01*
X76550876Y-34067166D01*
X76555021Y-34069347D01*
X76788377Y-34150839D01*
X76792970Y-34151711D01*
X77026626Y-34196072D01*
X77026629Y-34196072D01*
X77031215Y-34196943D01*
X77148637Y-34201556D01*
X77273533Y-34206464D01*
X77273538Y-34206464D01*
X77278201Y-34206647D01*
X77366808Y-34196943D01*
X77519254Y-34180248D01*
X77519259Y-34180247D01*
X77523907Y-34179738D01*
X77528431Y-34178547D01*
X77758415Y-34117997D01*
X77758417Y-34117996D01*
X77762938Y-34116806D01*
X77873402Y-34069347D01*
X77985752Y-34021078D01*
X77985755Y-34021076D01*
X77990041Y-34019235D01*
X78200228Y-33889168D01*
X78203791Y-33886151D01*
X78203796Y-33886148D01*
X78385314Y-33732480D01*
X78385315Y-33732479D01*
X78388880Y-33729461D01*
X78391961Y-33725948D01*
X78391969Y-33725940D01*
X78397641Y-33719473D01*
X78457595Y-33681447D01*
X78528591Y-33681871D01*
X78581076Y-33713070D01*
X78676940Y-33808101D01*
X78680702Y-33810859D01*
X78680705Y-33810862D01*
X78872499Y-33951491D01*
X78876273Y-33954258D01*
X78880416Y-33956438D01*
X78880418Y-33956439D01*
X79090871Y-34067164D01*
X79090876Y-34067166D01*
X79095021Y-34069347D01*
X79328377Y-34150839D01*
X79332970Y-34151711D01*
X79566626Y-34196072D01*
X79566629Y-34196072D01*
X79571215Y-34196943D01*
X79688637Y-34201556D01*
X79813533Y-34206464D01*
X79813538Y-34206464D01*
X79818201Y-34206647D01*
X79906808Y-34196943D01*
X80059254Y-34180248D01*
X80059259Y-34180247D01*
X80063907Y-34179738D01*
X80068431Y-34178547D01*
X80298415Y-34117997D01*
X80298417Y-34117996D01*
X80302938Y-34116806D01*
X80413402Y-34069347D01*
X80525752Y-34021078D01*
X80525755Y-34021076D01*
X80530041Y-34019235D01*
X80740228Y-33889168D01*
X80743791Y-33886151D01*
X80743796Y-33886148D01*
X80925314Y-33732480D01*
X80925315Y-33732479D01*
X80928880Y-33729461D01*
X80931961Y-33725948D01*
X80931969Y-33725940D01*
X80937641Y-33719473D01*
X80997595Y-33681447D01*
X81068591Y-33681871D01*
X81121076Y-33713070D01*
X81216940Y-33808101D01*
X81220702Y-33810859D01*
X81220705Y-33810862D01*
X81412499Y-33951491D01*
X81416273Y-33954258D01*
X81420416Y-33956438D01*
X81420418Y-33956439D01*
X81630871Y-34067164D01*
X81630876Y-34067166D01*
X81635021Y-34069347D01*
X81868377Y-34150839D01*
X81872970Y-34151711D01*
X82106626Y-34196072D01*
X82106629Y-34196072D01*
X82111215Y-34196943D01*
X82228637Y-34201556D01*
X82353533Y-34206464D01*
X82353538Y-34206464D01*
X82358201Y-34206647D01*
X82446808Y-34196943D01*
X82599254Y-34180248D01*
X82599259Y-34180247D01*
X82603907Y-34179738D01*
X82608431Y-34178547D01*
X82838415Y-34117997D01*
X82838417Y-34117996D01*
X82842938Y-34116806D01*
X82953402Y-34069347D01*
X83065752Y-34021078D01*
X83065755Y-34021076D01*
X83070041Y-34019235D01*
X83280228Y-33889168D01*
X83283791Y-33886151D01*
X83283796Y-33886148D01*
X83465314Y-33732480D01*
X83465315Y-33732479D01*
X83468880Y-33729461D01*
X83471961Y-33725948D01*
X83471969Y-33725940D01*
X83477641Y-33719473D01*
X83537595Y-33681447D01*
X83608591Y-33681871D01*
X83661076Y-33713070D01*
X83756940Y-33808101D01*
X83760702Y-33810859D01*
X83760705Y-33810862D01*
X83952499Y-33951491D01*
X83956273Y-33954258D01*
X83960416Y-33956438D01*
X83960418Y-33956439D01*
X84170871Y-34067164D01*
X84170876Y-34067166D01*
X84175021Y-34069347D01*
X84408377Y-34150839D01*
X84412970Y-34151711D01*
X84646626Y-34196072D01*
X84646629Y-34196072D01*
X84651215Y-34196943D01*
X84768637Y-34201556D01*
X84893533Y-34206464D01*
X84893538Y-34206464D01*
X84898201Y-34206647D01*
X84986808Y-34196943D01*
X85139254Y-34180248D01*
X85139259Y-34180247D01*
X85143907Y-34179738D01*
X85148431Y-34178547D01*
X85378415Y-34117997D01*
X85378417Y-34117996D01*
X85382938Y-34116806D01*
X85493402Y-34069347D01*
X85605752Y-34021078D01*
X85605755Y-34021076D01*
X85610041Y-34019235D01*
X85820228Y-33889168D01*
X85823791Y-33886151D01*
X85823796Y-33886148D01*
X86005314Y-33732480D01*
X86005315Y-33732479D01*
X86008880Y-33729461D01*
X86050616Y-33681871D01*
X86168773Y-33547140D01*
X86168777Y-33547135D01*
X86171855Y-33543625D01*
X86305571Y-33335740D01*
X86407091Y-33110374D01*
X86474184Y-32872479D01*
X86490626Y-32743237D01*
X86504980Y-32630409D01*
X86504980Y-32630405D01*
X86505378Y-32627279D01*
X86507663Y-32540000D01*
X86504419Y-32496346D01*
X90792908Y-32496346D01*
X90793132Y-32501012D01*
X90793132Y-32501018D01*
X90795005Y-32540000D01*
X90804768Y-32743237D01*
X90852989Y-32985664D01*
X90936514Y-33218300D01*
X91053507Y-33436035D01*
X91056302Y-33439778D01*
X91056304Y-33439781D01*
X91198607Y-33630347D01*
X91198612Y-33630353D01*
X91201399Y-33634085D01*
X91204708Y-33637365D01*
X91204713Y-33637371D01*
X91300656Y-33732480D01*
X91376940Y-33808101D01*
X91380702Y-33810859D01*
X91380705Y-33810862D01*
X91572499Y-33951491D01*
X91576273Y-33954258D01*
X91580416Y-33956438D01*
X91580418Y-33956439D01*
X91790871Y-34067164D01*
X91790876Y-34067166D01*
X91795021Y-34069347D01*
X92028377Y-34150839D01*
X92032970Y-34151711D01*
X92266626Y-34196072D01*
X92266629Y-34196072D01*
X92271215Y-34196943D01*
X92388637Y-34201556D01*
X92513533Y-34206464D01*
X92513538Y-34206464D01*
X92518201Y-34206647D01*
X92606808Y-34196943D01*
X92759254Y-34180248D01*
X92759259Y-34180247D01*
X92763907Y-34179738D01*
X92768431Y-34178547D01*
X92998415Y-34117997D01*
X92998417Y-34117996D01*
X93002938Y-34116806D01*
X93113402Y-34069347D01*
X93225752Y-34021078D01*
X93225755Y-34021076D01*
X93230041Y-34019235D01*
X93440228Y-33889168D01*
X93443791Y-33886151D01*
X93443796Y-33886148D01*
X93625314Y-33732480D01*
X93625315Y-33732479D01*
X93628880Y-33729461D01*
X93631961Y-33725948D01*
X93631969Y-33725940D01*
X93637641Y-33719473D01*
X93697595Y-33681447D01*
X93768591Y-33681871D01*
X93821076Y-33713070D01*
X93916940Y-33808101D01*
X93920702Y-33810859D01*
X93920705Y-33810862D01*
X94112499Y-33951491D01*
X94116273Y-33954258D01*
X94120416Y-33956438D01*
X94120418Y-33956439D01*
X94330871Y-34067164D01*
X94330876Y-34067166D01*
X94335021Y-34069347D01*
X94568377Y-34150839D01*
X94572970Y-34151711D01*
X94806626Y-34196072D01*
X94806629Y-34196072D01*
X94811215Y-34196943D01*
X94928637Y-34201556D01*
X95053533Y-34206464D01*
X95053538Y-34206464D01*
X95058201Y-34206647D01*
X95146808Y-34196943D01*
X95299254Y-34180248D01*
X95299259Y-34180247D01*
X95303907Y-34179738D01*
X95308431Y-34178547D01*
X95538415Y-34117997D01*
X95538417Y-34117996D01*
X95542938Y-34116806D01*
X95653402Y-34069347D01*
X95765752Y-34021078D01*
X95765755Y-34021076D01*
X95770041Y-34019235D01*
X95980228Y-33889168D01*
X95983791Y-33886151D01*
X95983796Y-33886148D01*
X96165314Y-33732480D01*
X96165315Y-33732479D01*
X96168880Y-33729461D01*
X96210616Y-33681871D01*
X96328773Y-33547140D01*
X96328777Y-33547135D01*
X96331855Y-33543625D01*
X96465571Y-33335740D01*
X96567091Y-33110374D01*
X96634184Y-32872479D01*
X96650626Y-32743237D01*
X96664980Y-32630409D01*
X96664980Y-32630405D01*
X96665378Y-32627279D01*
X96667663Y-32540000D01*
X96664073Y-32491692D01*
X96649691Y-32298156D01*
X96649690Y-32298152D01*
X96649345Y-32293504D01*
X96594794Y-32052423D01*
X96580387Y-32015375D01*
X96506901Y-31826406D01*
X96506900Y-31826404D01*
X96505208Y-31822053D01*
X96485297Y-31787215D01*
X96382811Y-31607903D01*
X96366374Y-31538836D01*
X96389887Y-31471846D01*
X96413596Y-31446908D01*
X96426612Y-31436517D01*
X96432120Y-31432120D01*
X96544164Y-31291766D01*
X96555796Y-31267705D01*
X96619261Y-31136419D01*
X96622327Y-31130077D01*
X96652861Y-30997821D01*
X96661526Y-30960288D01*
X96661526Y-30960285D01*
X96662726Y-30955089D01*
X96663000Y-30950337D01*
X96663000Y-30000000D01*
X96662999Y-29051457D01*
X96662999Y-29049664D01*
X96662726Y-29044911D01*
X96622327Y-28869923D01*
X96544164Y-28708234D01*
X96432120Y-28567880D01*
X96291766Y-28455836D01*
X96130077Y-28377673D01*
X96123216Y-28376089D01*
X95960288Y-28338474D01*
X95960285Y-28338474D01*
X95955089Y-28337274D01*
X95950337Y-28337000D01*
X95948513Y-28337000D01*
X94991856Y-28337001D01*
X94049664Y-28337001D01*
X94044911Y-28337274D01*
X93869923Y-28377673D01*
X93708234Y-28455836D01*
X93567880Y-28567880D01*
X93563489Y-28573381D01*
X93550640Y-28589476D01*
X93492508Y-28630234D01*
X93421569Y-28633093D01*
X93380350Y-28614392D01*
X93310245Y-28565758D01*
X93310242Y-28565756D01*
X93306403Y-28563093D01*
X93302210Y-28561025D01*
X93088906Y-28455835D01*
X93088903Y-28455834D01*
X93084718Y-28453770D01*
X92849308Y-28378415D01*
X92844701Y-28377665D01*
X92844698Y-28377664D01*
X92609957Y-28339434D01*
X92609958Y-28339434D01*
X92605346Y-28338683D01*
X92485462Y-28337114D01*
X92362869Y-28335509D01*
X92362866Y-28335509D01*
X92358192Y-28335448D01*
X92113273Y-28368779D01*
X92108787Y-28370087D01*
X92108785Y-28370087D01*
X92082790Y-28377664D01*
X91875972Y-28437946D01*
X91871719Y-28439906D01*
X91871718Y-28439907D01*
X91841647Y-28453770D01*
X91651501Y-28541429D01*
X91647592Y-28543992D01*
X91448704Y-28674388D01*
X91448699Y-28674392D01*
X91444791Y-28676954D01*
X91441299Y-28680071D01*
X91272293Y-28830915D01*
X91260384Y-28841544D01*
X91102330Y-29031583D01*
X90974101Y-29242897D01*
X90972292Y-29247211D01*
X90972290Y-29247215D01*
X90881092Y-29464699D01*
X90878516Y-29470843D01*
X90817673Y-29710413D01*
X90792908Y-29956346D01*
X90793132Y-29961012D01*
X90793132Y-29961018D01*
X90795005Y-30000000D01*
X90804768Y-30203237D01*
X90852989Y-30445664D01*
X90936514Y-30678300D01*
X90938730Y-30682424D01*
X91038311Y-30867753D01*
X91053507Y-30896035D01*
X91056302Y-30899778D01*
X91056304Y-30899781D01*
X91198607Y-31090347D01*
X91198612Y-31090353D01*
X91201399Y-31094085D01*
X91204708Y-31097365D01*
X91204713Y-31097371D01*
X91286813Y-31178757D01*
X91321109Y-31240920D01*
X91316354Y-31311757D01*
X91282010Y-31362241D01*
X91263878Y-31378425D01*
X91263875Y-31378429D01*
X91260384Y-31381544D01*
X91206021Y-31446908D01*
X91127238Y-31541635D01*
X91102330Y-31571583D01*
X90974101Y-31782897D01*
X90972292Y-31787211D01*
X90972290Y-31787215D01*
X90955856Y-31826406D01*
X90878516Y-32010843D01*
X90817673Y-32250413D01*
X90792908Y-32496346D01*
X86504419Y-32496346D01*
X86504073Y-32491692D01*
X86489691Y-32298156D01*
X86489690Y-32298152D01*
X86489345Y-32293504D01*
X86434794Y-32052423D01*
X86420387Y-32015375D01*
X86346901Y-31826406D01*
X86346900Y-31826404D01*
X86345208Y-31822053D01*
X86325297Y-31787215D01*
X86224874Y-31611513D01*
X86222555Y-31607455D01*
X86069530Y-31413343D01*
X86017338Y-31364245D01*
X85981426Y-31303002D01*
X85984326Y-31232065D01*
X86008940Y-31189393D01*
X86168767Y-31007148D01*
X86168777Y-31007135D01*
X86171855Y-31003625D01*
X86203075Y-30955089D01*
X86303043Y-30799670D01*
X86305571Y-30795740D01*
X86407091Y-30570374D01*
X86474184Y-30332479D01*
X86490626Y-30203237D01*
X86504980Y-30090409D01*
X86504980Y-30090405D01*
X86505378Y-30087279D01*
X86507663Y-30000000D01*
X86504766Y-29961018D01*
X86489691Y-29758156D01*
X86489690Y-29758152D01*
X86489345Y-29753504D01*
X86434794Y-29512423D01*
X86420387Y-29475375D01*
X86346901Y-29286406D01*
X86346900Y-29286404D01*
X86345208Y-29282053D01*
X86325297Y-29247215D01*
X86224874Y-29071513D01*
X86222555Y-29067455D01*
X86069530Y-28873343D01*
X85889494Y-28703982D01*
X85701233Y-28573381D01*
X85690239Y-28565754D01*
X85690238Y-28565753D01*
X85686403Y-28563093D01*
X85682210Y-28561025D01*
X85468906Y-28455835D01*
X85468903Y-28455834D01*
X85464718Y-28453770D01*
X85229308Y-28378415D01*
X85224701Y-28377665D01*
X85224698Y-28377664D01*
X84989957Y-28339434D01*
X84989958Y-28339434D01*
X84985346Y-28338683D01*
X84865462Y-28337114D01*
X84742869Y-28335509D01*
X84742866Y-28335509D01*
X84738192Y-28335448D01*
X84493273Y-28368779D01*
X84488787Y-28370087D01*
X84488785Y-28370087D01*
X84462790Y-28377664D01*
X84255972Y-28437946D01*
X84251719Y-28439906D01*
X84251718Y-28439907D01*
X84221647Y-28453770D01*
X84031501Y-28541429D01*
X84027592Y-28543992D01*
X83828704Y-28674388D01*
X83828699Y-28674392D01*
X83824791Y-28676954D01*
X83821299Y-28680071D01*
X83652293Y-28830915D01*
X83588152Y-28861353D01*
X83517738Y-28852282D01*
X83482059Y-28828687D01*
X83352895Y-28707181D01*
X83352892Y-28707179D01*
X83349494Y-28703982D01*
X83161233Y-28573381D01*
X83150239Y-28565754D01*
X83150238Y-28565753D01*
X83146403Y-28563093D01*
X83142210Y-28561025D01*
X82928906Y-28455835D01*
X82928903Y-28455834D01*
X82924718Y-28453770D01*
X82689308Y-28378415D01*
X82684701Y-28377665D01*
X82684698Y-28377664D01*
X82449957Y-28339434D01*
X82449958Y-28339434D01*
X82445346Y-28338683D01*
X82325462Y-28337114D01*
X82202869Y-28335509D01*
X82202866Y-28335509D01*
X82198192Y-28335448D01*
X81953273Y-28368779D01*
X81948787Y-28370087D01*
X81948785Y-28370087D01*
X81922790Y-28377664D01*
X81715972Y-28437946D01*
X81711719Y-28439906D01*
X81711718Y-28439907D01*
X81681647Y-28453770D01*
X81491501Y-28541429D01*
X81487592Y-28543992D01*
X81288704Y-28674388D01*
X81288699Y-28674392D01*
X81284791Y-28676954D01*
X81281299Y-28680071D01*
X81112293Y-28830915D01*
X81048152Y-28861353D01*
X80977738Y-28852282D01*
X80942059Y-28828687D01*
X80812895Y-28707181D01*
X80812892Y-28707179D01*
X80809494Y-28703982D01*
X80621233Y-28573381D01*
X80610239Y-28565754D01*
X80610238Y-28565753D01*
X80606403Y-28563093D01*
X80602210Y-28561025D01*
X80388906Y-28455835D01*
X80388903Y-28455834D01*
X80384718Y-28453770D01*
X80149308Y-28378415D01*
X80144701Y-28377665D01*
X80144698Y-28377664D01*
X79909957Y-28339434D01*
X79909958Y-28339434D01*
X79905346Y-28338683D01*
X79785462Y-28337114D01*
X79662869Y-28335509D01*
X79662866Y-28335509D01*
X79658192Y-28335448D01*
X79413273Y-28368779D01*
X79408787Y-28370087D01*
X79408785Y-28370087D01*
X79382790Y-28377664D01*
X79175972Y-28437946D01*
X79171719Y-28439906D01*
X79171718Y-28439907D01*
X79141647Y-28453770D01*
X78951501Y-28541429D01*
X78947592Y-28543992D01*
X78748704Y-28674388D01*
X78748699Y-28674392D01*
X78744791Y-28676954D01*
X78741299Y-28680071D01*
X78572293Y-28830915D01*
X78508152Y-28861353D01*
X78437738Y-28852282D01*
X78402059Y-28828687D01*
X78272895Y-28707181D01*
X78272892Y-28707179D01*
X78269494Y-28703982D01*
X78081233Y-28573381D01*
X78070239Y-28565754D01*
X78070238Y-28565753D01*
X78066403Y-28563093D01*
X78062210Y-28561025D01*
X77848906Y-28455835D01*
X77848903Y-28455834D01*
X77844718Y-28453770D01*
X77609308Y-28378415D01*
X77604701Y-28377665D01*
X77604698Y-28377664D01*
X77369957Y-28339434D01*
X77369958Y-28339434D01*
X77365346Y-28338683D01*
X77245462Y-28337114D01*
X77122869Y-28335509D01*
X77122866Y-28335509D01*
X77118192Y-28335448D01*
X76873273Y-28368779D01*
X76868787Y-28370087D01*
X76868785Y-28370087D01*
X76842790Y-28377664D01*
X76635972Y-28437946D01*
X76631719Y-28439906D01*
X76631718Y-28439907D01*
X76601647Y-28453770D01*
X76411501Y-28541429D01*
X76407592Y-28543992D01*
X76208704Y-28674388D01*
X76208699Y-28674392D01*
X76204791Y-28676954D01*
X76201299Y-28680071D01*
X76032293Y-28830915D01*
X75968152Y-28861353D01*
X75897738Y-28852282D01*
X75862059Y-28828687D01*
X75732895Y-28707181D01*
X75732892Y-28707179D01*
X75729494Y-28703982D01*
X75541233Y-28573381D01*
X75530239Y-28565754D01*
X75530238Y-28565753D01*
X75526403Y-28563093D01*
X75522210Y-28561025D01*
X75308906Y-28455835D01*
X75308903Y-28455834D01*
X75304718Y-28453770D01*
X75069308Y-28378415D01*
X75064701Y-28377665D01*
X75064698Y-28377664D01*
X74829957Y-28339434D01*
X74829958Y-28339434D01*
X74825346Y-28338683D01*
X74705462Y-28337114D01*
X74582869Y-28335509D01*
X74582866Y-28335509D01*
X74578192Y-28335448D01*
X74333273Y-28368779D01*
X74328787Y-28370087D01*
X74328785Y-28370087D01*
X74302790Y-28377664D01*
X74095972Y-28437946D01*
X74091719Y-28439906D01*
X74091718Y-28439907D01*
X74061647Y-28453770D01*
X73871501Y-28541429D01*
X73867592Y-28543992D01*
X73668704Y-28674388D01*
X73668699Y-28674392D01*
X73664791Y-28676954D01*
X73661299Y-28680071D01*
X73492293Y-28830915D01*
X73428152Y-28861353D01*
X73357738Y-28852282D01*
X73322059Y-28828687D01*
X73192895Y-28707181D01*
X73192892Y-28707179D01*
X73189494Y-28703982D01*
X73001233Y-28573381D01*
X72990239Y-28565754D01*
X72990238Y-28565753D01*
X72986403Y-28563093D01*
X72982210Y-28561025D01*
X72768906Y-28455835D01*
X72768903Y-28455834D01*
X72764718Y-28453770D01*
X72529308Y-28378415D01*
X72524701Y-28377665D01*
X72524698Y-28377664D01*
X72289957Y-28339434D01*
X72289958Y-28339434D01*
X72285346Y-28338683D01*
X72165462Y-28337114D01*
X72042869Y-28335509D01*
X72042866Y-28335509D01*
X72038192Y-28335448D01*
X71793273Y-28368779D01*
X71788787Y-28370087D01*
X71788785Y-28370087D01*
X71762790Y-28377664D01*
X71555972Y-28437946D01*
X71551719Y-28439906D01*
X71551718Y-28439907D01*
X71521647Y-28453770D01*
X71331501Y-28541429D01*
X71327592Y-28543992D01*
X71128704Y-28674388D01*
X71128699Y-28674392D01*
X71124791Y-28676954D01*
X71121299Y-28680071D01*
X70952293Y-28830915D01*
X70888152Y-28861353D01*
X70817738Y-28852282D01*
X70782059Y-28828687D01*
X70652895Y-28707181D01*
X70652892Y-28707179D01*
X70649494Y-28703982D01*
X70461233Y-28573381D01*
X70450239Y-28565754D01*
X70450238Y-28565753D01*
X70446403Y-28563093D01*
X70442210Y-28561025D01*
X70228906Y-28455835D01*
X70228903Y-28455834D01*
X70224718Y-28453770D01*
X69989308Y-28378415D01*
X69984701Y-28377665D01*
X69984698Y-28377664D01*
X69749957Y-28339434D01*
X69749958Y-28339434D01*
X69745346Y-28338683D01*
X69625462Y-28337114D01*
X69502869Y-28335509D01*
X69502866Y-28335509D01*
X69498192Y-28335448D01*
X69253273Y-28368779D01*
X69248787Y-28370087D01*
X69248785Y-28370087D01*
X69222790Y-28377664D01*
X69015972Y-28437946D01*
X69011719Y-28439906D01*
X69011718Y-28439907D01*
X68981647Y-28453770D01*
X68791501Y-28541429D01*
X68787592Y-28543992D01*
X68588704Y-28674388D01*
X68588699Y-28674392D01*
X68584791Y-28676954D01*
X68581299Y-28680071D01*
X68412293Y-28830915D01*
X68348152Y-28861353D01*
X68277738Y-28852282D01*
X68242059Y-28828687D01*
X68112895Y-28707181D01*
X68112892Y-28707179D01*
X68109494Y-28703982D01*
X67921233Y-28573381D01*
X67910239Y-28565754D01*
X67910238Y-28565753D01*
X67906403Y-28563093D01*
X67902210Y-28561025D01*
X67688906Y-28455835D01*
X67688903Y-28455834D01*
X67684718Y-28453770D01*
X67449308Y-28378415D01*
X67444701Y-28377665D01*
X67444698Y-28377664D01*
X67209957Y-28339434D01*
X67209958Y-28339434D01*
X67205346Y-28338683D01*
X67085462Y-28337114D01*
X66962869Y-28335509D01*
X66962866Y-28335509D01*
X66958192Y-28335448D01*
X66713273Y-28368779D01*
X66708787Y-28370087D01*
X66708785Y-28370087D01*
X66682790Y-28377664D01*
X66475972Y-28437946D01*
X66471719Y-28439906D01*
X66471718Y-28439907D01*
X66441647Y-28453770D01*
X66251501Y-28541429D01*
X66247592Y-28543992D01*
X66048704Y-28674388D01*
X66048699Y-28674392D01*
X66044791Y-28676954D01*
X66041299Y-28680071D01*
X65872293Y-28830915D01*
X65808152Y-28861353D01*
X65737738Y-28852282D01*
X65702059Y-28828687D01*
X65572895Y-28707181D01*
X65572892Y-28707179D01*
X65569494Y-28703982D01*
X65381233Y-28573381D01*
X65370239Y-28565754D01*
X65370238Y-28565753D01*
X65366403Y-28563093D01*
X65362210Y-28561025D01*
X65148906Y-28455835D01*
X65148903Y-28455834D01*
X65144718Y-28453770D01*
X64909308Y-28378415D01*
X64904701Y-28377665D01*
X64904698Y-28377664D01*
X64669957Y-28339434D01*
X64669958Y-28339434D01*
X64665346Y-28338683D01*
X64545462Y-28337114D01*
X64422869Y-28335509D01*
X64422866Y-28335509D01*
X64418192Y-28335448D01*
X64173273Y-28368779D01*
X64168787Y-28370087D01*
X64168785Y-28370087D01*
X64142790Y-28377664D01*
X63935972Y-28437946D01*
X63931719Y-28439906D01*
X63931718Y-28439907D01*
X63901647Y-28453770D01*
X63711501Y-28541429D01*
X63707592Y-28543992D01*
X63508704Y-28674388D01*
X63508699Y-28674392D01*
X63504791Y-28676954D01*
X63501299Y-28680071D01*
X63332293Y-28830915D01*
X63268152Y-28861353D01*
X63197738Y-28852282D01*
X63162059Y-28828687D01*
X63032895Y-28707181D01*
X63032892Y-28707179D01*
X63029494Y-28703982D01*
X62841233Y-28573381D01*
X62830239Y-28565754D01*
X62830238Y-28565753D01*
X62826403Y-28563093D01*
X62822210Y-28561025D01*
X62608906Y-28455835D01*
X62608903Y-28455834D01*
X62604718Y-28453770D01*
X62369308Y-28378415D01*
X62364701Y-28377665D01*
X62364698Y-28377664D01*
X62129957Y-28339434D01*
X62129958Y-28339434D01*
X62125346Y-28338683D01*
X62005462Y-28337114D01*
X61882869Y-28335509D01*
X61882866Y-28335509D01*
X61878192Y-28335448D01*
X61633273Y-28368779D01*
X61628787Y-28370087D01*
X61628785Y-28370087D01*
X61602790Y-28377664D01*
X61395972Y-28437946D01*
X61391719Y-28439906D01*
X61391718Y-28439907D01*
X61361647Y-28453770D01*
X61171501Y-28541429D01*
X61167592Y-28543992D01*
X60968704Y-28674388D01*
X60968699Y-28674392D01*
X60964791Y-28676954D01*
X60961299Y-28680071D01*
X60792293Y-28830915D01*
X60728152Y-28861353D01*
X60657738Y-28852282D01*
X60622059Y-28828687D01*
X60492895Y-28707181D01*
X60492892Y-28707179D01*
X60489494Y-28703982D01*
X60301233Y-28573381D01*
X60290239Y-28565754D01*
X60290238Y-28565753D01*
X60286403Y-28563093D01*
X60282210Y-28561025D01*
X60068906Y-28455835D01*
X60068903Y-28455834D01*
X60064718Y-28453770D01*
X59829308Y-28378415D01*
X59824701Y-28377665D01*
X59824698Y-28377664D01*
X59589957Y-28339434D01*
X59589958Y-28339434D01*
X59585346Y-28338683D01*
X59465462Y-28337114D01*
X59342869Y-28335509D01*
X59342866Y-28335509D01*
X59338192Y-28335448D01*
X59093273Y-28368779D01*
X59088787Y-28370087D01*
X59088785Y-28370087D01*
X59062790Y-28377664D01*
X58855972Y-28437946D01*
X58851719Y-28439906D01*
X58851718Y-28439907D01*
X58821647Y-28453770D01*
X58631501Y-28541429D01*
X58627592Y-28543992D01*
X58428704Y-28674388D01*
X58428699Y-28674392D01*
X58424791Y-28676954D01*
X58421299Y-28680071D01*
X58252293Y-28830915D01*
X58188152Y-28861353D01*
X58117738Y-28852282D01*
X58082059Y-28828687D01*
X57952895Y-28707181D01*
X57952892Y-28707179D01*
X57949494Y-28703982D01*
X57761233Y-28573381D01*
X57750239Y-28565754D01*
X57750238Y-28565753D01*
X57746403Y-28563093D01*
X57742210Y-28561025D01*
X57528906Y-28455835D01*
X57528903Y-28455834D01*
X57524718Y-28453770D01*
X57289308Y-28378415D01*
X57284701Y-28377665D01*
X57284698Y-28377664D01*
X57049957Y-28339434D01*
X57049958Y-28339434D01*
X57045346Y-28338683D01*
X56925462Y-28337114D01*
X56802869Y-28335509D01*
X56802866Y-28335509D01*
X56798192Y-28335448D01*
X56553273Y-28368779D01*
X56548787Y-28370087D01*
X56548785Y-28370087D01*
X56522790Y-28377664D01*
X56315972Y-28437946D01*
X56311719Y-28439906D01*
X56311718Y-28439907D01*
X56281647Y-28453770D01*
X56091501Y-28541429D01*
X56087592Y-28543992D01*
X55888704Y-28674388D01*
X55888699Y-28674392D01*
X55884791Y-28676954D01*
X55881299Y-28680071D01*
X55712293Y-28830915D01*
X55648152Y-28861353D01*
X55577738Y-28852282D01*
X55542059Y-28828687D01*
X55412895Y-28707181D01*
X55412892Y-28707179D01*
X55409494Y-28703982D01*
X55221233Y-28573381D01*
X55210239Y-28565754D01*
X55210238Y-28565753D01*
X55206403Y-28563093D01*
X55202210Y-28561025D01*
X54988906Y-28455835D01*
X54988903Y-28455834D01*
X54984718Y-28453770D01*
X54749308Y-28378415D01*
X54744701Y-28377665D01*
X54744698Y-28377664D01*
X54509957Y-28339434D01*
X54509958Y-28339434D01*
X54505346Y-28338683D01*
X54385462Y-28337114D01*
X54262869Y-28335509D01*
X54262866Y-28335509D01*
X54258192Y-28335448D01*
X54013273Y-28368779D01*
X54008787Y-28370087D01*
X54008785Y-28370087D01*
X53982790Y-28377664D01*
X53775972Y-28437946D01*
X53771719Y-28439906D01*
X53771718Y-28439907D01*
X53741647Y-28453770D01*
X53551501Y-28541429D01*
X53547592Y-28543992D01*
X53348704Y-28674388D01*
X53348699Y-28674392D01*
X53344791Y-28676954D01*
X53341299Y-28680071D01*
X53172293Y-28830915D01*
X53108152Y-28861353D01*
X53037738Y-28852282D01*
X53002059Y-28828687D01*
X52872895Y-28707181D01*
X52872892Y-28707179D01*
X52869494Y-28703982D01*
X52681233Y-28573381D01*
X52670239Y-28565754D01*
X52670238Y-28565753D01*
X52666403Y-28563093D01*
X52662210Y-28561025D01*
X52448906Y-28455835D01*
X52448903Y-28455834D01*
X52444718Y-28453770D01*
X52209308Y-28378415D01*
X52204701Y-28377665D01*
X52204698Y-28377664D01*
X51969957Y-28339434D01*
X51969958Y-28339434D01*
X51965346Y-28338683D01*
X51845462Y-28337114D01*
X51722869Y-28335509D01*
X51722866Y-28335509D01*
X51718192Y-28335448D01*
X51473273Y-28368779D01*
X51468787Y-28370087D01*
X51468785Y-28370087D01*
X51442790Y-28377664D01*
X51235972Y-28437946D01*
X51231719Y-28439906D01*
X51231718Y-28439907D01*
X51201647Y-28453770D01*
X51011501Y-28541429D01*
X51007592Y-28543992D01*
X50808704Y-28674388D01*
X50808699Y-28674392D01*
X50804791Y-28676954D01*
X50801299Y-28680071D01*
X50632293Y-28830915D01*
X50568152Y-28861353D01*
X50497738Y-28852282D01*
X50462059Y-28828687D01*
X50332895Y-28707181D01*
X50332892Y-28707179D01*
X50329494Y-28703982D01*
X50141233Y-28573381D01*
X50130239Y-28565754D01*
X50130238Y-28565753D01*
X50126403Y-28563093D01*
X50122210Y-28561025D01*
X49908906Y-28455835D01*
X49908903Y-28455834D01*
X49904718Y-28453770D01*
X49669308Y-28378415D01*
X49664701Y-28377665D01*
X49664698Y-28377664D01*
X49429957Y-28339434D01*
X49429958Y-28339434D01*
X49425346Y-28338683D01*
X49305462Y-28337114D01*
X49182869Y-28335509D01*
X49182866Y-28335509D01*
X49178192Y-28335448D01*
X48933273Y-28368779D01*
X48928787Y-28370087D01*
X48928785Y-28370087D01*
X48902790Y-28377664D01*
X48695972Y-28437946D01*
X48691719Y-28439906D01*
X48691718Y-28439907D01*
X48661647Y-28453770D01*
X48471501Y-28541429D01*
X48467592Y-28543992D01*
X48268704Y-28674388D01*
X48268699Y-28674392D01*
X48264791Y-28676954D01*
X48261299Y-28680071D01*
X48092293Y-28830915D01*
X48028152Y-28861353D01*
X47957738Y-28852282D01*
X47922059Y-28828687D01*
X47792895Y-28707181D01*
X47792892Y-28707179D01*
X47789494Y-28703982D01*
X47601233Y-28573381D01*
X47590239Y-28565754D01*
X47590238Y-28565753D01*
X47586403Y-28563093D01*
X47582210Y-28561025D01*
X47368906Y-28455835D01*
X47368903Y-28455834D01*
X47364718Y-28453770D01*
X47129308Y-28378415D01*
X47124701Y-28377665D01*
X47124698Y-28377664D01*
X46889957Y-28339434D01*
X46889958Y-28339434D01*
X46885346Y-28338683D01*
X46765462Y-28337114D01*
X46642869Y-28335509D01*
X46642866Y-28335509D01*
X46638192Y-28335448D01*
X46393273Y-28368779D01*
X46388787Y-28370087D01*
X46388785Y-28370087D01*
X46362790Y-28377664D01*
X46155972Y-28437946D01*
X46151719Y-28439906D01*
X46151718Y-28439907D01*
X46121647Y-28453770D01*
X45931501Y-28541429D01*
X45927592Y-28543992D01*
X45728704Y-28674388D01*
X45728699Y-28674392D01*
X45724791Y-28676954D01*
X45721299Y-28680071D01*
X45552293Y-28830915D01*
X45540384Y-28841544D01*
X45382330Y-29031583D01*
X45254101Y-29242897D01*
X45252292Y-29247211D01*
X45252290Y-29247215D01*
X45161092Y-29464699D01*
X45158516Y-29470843D01*
X45097673Y-29710413D01*
X45072908Y-29956346D01*
X45073132Y-29961012D01*
X45073132Y-29961018D01*
X45075005Y-30000000D01*
X45084768Y-30203237D01*
X45132989Y-30445664D01*
X45216514Y-30678300D01*
X45218730Y-30682424D01*
X45318311Y-30867753D01*
X45333507Y-30896035D01*
X45336302Y-30899778D01*
X45336304Y-30899781D01*
X45478607Y-31090347D01*
X45478612Y-31090353D01*
X45481399Y-31094085D01*
X45484708Y-31097365D01*
X45484713Y-31097371D01*
X45566813Y-31178757D01*
X45601109Y-31240920D01*
X45596354Y-31311757D01*
X45562010Y-31362241D01*
X45543878Y-31378425D01*
X45543875Y-31378429D01*
X45540384Y-31381544D01*
X45486021Y-31446908D01*
X45407238Y-31541635D01*
X45382330Y-31571583D01*
X45254101Y-31782897D01*
X45252292Y-31787211D01*
X45252290Y-31787215D01*
X45235856Y-31826406D01*
X45158516Y-32010843D01*
X45097673Y-32250413D01*
X45072908Y-32496346D01*
X24275309Y-32496346D01*
X24297275Y-32493161D01*
X24400738Y-32478160D01*
X24400743Y-32478159D01*
X24406452Y-32477331D01*
X24411916Y-32475476D01*
X24411921Y-32475475D01*
X24609907Y-32408268D01*
X24609912Y-32408266D01*
X24615379Y-32406410D01*
X24807884Y-32298602D01*
X24819490Y-32288950D01*
X24973086Y-32161204D01*
X24977518Y-32157518D01*
X25064925Y-32052423D01*
X25114908Y-31992326D01*
X25114910Y-31992323D01*
X25118602Y-31987884D01*
X25226410Y-31795379D01*
X25228266Y-31789912D01*
X25228268Y-31789907D01*
X25295475Y-31591921D01*
X25295476Y-31591916D01*
X25297331Y-31586452D01*
X25298159Y-31580743D01*
X25298160Y-31580738D01*
X25326018Y-31388602D01*
X25328991Y-31368098D01*
X25330643Y-31305000D01*
X25310454Y-31085289D01*
X25250565Y-30872936D01*
X25152980Y-30675053D01*
X25084692Y-30583604D01*
X25024420Y-30502891D01*
X25024420Y-30502890D01*
X25020967Y-30498267D01*
X24923586Y-30408249D01*
X24875112Y-30363440D01*
X29379770Y-30363440D01*
X29394200Y-30583604D01*
X29395621Y-30589200D01*
X29395622Y-30589205D01*
X29419297Y-30682424D01*
X29448511Y-30797452D01*
X29450928Y-30802694D01*
X29450928Y-30802695D01*
X29489046Y-30885379D01*
X29540883Y-30997821D01*
X29668222Y-31178002D01*
X29826264Y-31331961D01*
X29831060Y-31335166D01*
X29831063Y-31335168D01*
X29915261Y-31391427D01*
X30009717Y-31454540D01*
X30015020Y-31456818D01*
X30015023Y-31456820D01*
X30171685Y-31524127D01*
X30212436Y-31541635D01*
X30292088Y-31559658D01*
X30421995Y-31589054D01*
X30422001Y-31589055D01*
X30427632Y-31590329D01*
X30433403Y-31590556D01*
X30433405Y-31590556D01*
X30501211Y-31593220D01*
X30648098Y-31598991D01*
X30757275Y-31583161D01*
X30860738Y-31568160D01*
X30860743Y-31568159D01*
X30866452Y-31567331D01*
X30871916Y-31565476D01*
X30871921Y-31565475D01*
X31069907Y-31498268D01*
X31069912Y-31498266D01*
X31075379Y-31496410D01*
X31090688Y-31487837D01*
X31163771Y-31446908D01*
X31267884Y-31388602D01*
X31276371Y-31381544D01*
X31433086Y-31251204D01*
X31437518Y-31247518D01*
X31529919Y-31136419D01*
X31574908Y-31082326D01*
X31574910Y-31082323D01*
X31578602Y-31077884D01*
X31651053Y-30948513D01*
X31683586Y-30890422D01*
X31683587Y-30890420D01*
X31686410Y-30885379D01*
X31688266Y-30879912D01*
X31688268Y-30879907D01*
X31755475Y-30681921D01*
X31755476Y-30681916D01*
X31757331Y-30676452D01*
X31758159Y-30670743D01*
X31758160Y-30670738D01*
X31783167Y-30498267D01*
X31788991Y-30458098D01*
X31790643Y-30395000D01*
X31770454Y-30175289D01*
X31761190Y-30142439D01*
X31712134Y-29968500D01*
X31710565Y-29962936D01*
X31612980Y-29765053D01*
X31575657Y-29715071D01*
X31484420Y-29592891D01*
X31484420Y-29592890D01*
X31480967Y-29588267D01*
X31318949Y-29438499D01*
X31132350Y-29320764D01*
X30927421Y-29239006D01*
X30921761Y-29237880D01*
X30921757Y-29237879D01*
X30716691Y-29197089D01*
X30716688Y-29197089D01*
X30711024Y-29195962D01*
X30705249Y-29195886D01*
X30705245Y-29195886D01*
X30594504Y-29194437D01*
X30490406Y-29193074D01*
X30484709Y-29194053D01*
X30484708Y-29194053D01*
X30278654Y-29229459D01*
X30278653Y-29229459D01*
X30272957Y-29230438D01*
X30065957Y-29306804D01*
X29876341Y-29419614D01*
X29710457Y-29565090D01*
X29573863Y-29738360D01*
X29471131Y-29933620D01*
X29405703Y-30144333D01*
X29379770Y-30363440D01*
X24875112Y-30363440D01*
X24863189Y-30352418D01*
X24863186Y-30352416D01*
X24858949Y-30348499D01*
X24672350Y-30230764D01*
X24467421Y-30149006D01*
X24461761Y-30147880D01*
X24461757Y-30147879D01*
X24256691Y-30107089D01*
X24256688Y-30107089D01*
X24251024Y-30105962D01*
X24245249Y-30105886D01*
X24245245Y-30105886D01*
X24134504Y-30104437D01*
X24030406Y-30103074D01*
X24024709Y-30104053D01*
X24024708Y-30104053D01*
X23818654Y-30139459D01*
X23818653Y-30139459D01*
X23812957Y-30140438D01*
X23605957Y-30216804D01*
X23416341Y-30329614D01*
X23250457Y-30475090D01*
X23113863Y-30648360D01*
X23011131Y-30843620D01*
X22945703Y-31054333D01*
X22919770Y-31273440D01*
X20800500Y-31273440D01*
X20800500Y-22411145D01*
X20820502Y-22343024D01*
X20880115Y-22293994D01*
X21046537Y-22228102D01*
X21318579Y-22078546D01*
X21569732Y-21896073D01*
X21796035Y-21683561D01*
X21993918Y-21444361D01*
X22160261Y-21182246D01*
X22236416Y-21020408D01*
X22290751Y-20904940D01*
X22290753Y-20904936D01*
X22292440Y-20901350D01*
X22296919Y-20887566D01*
X22336990Y-20828960D01*
X22402386Y-20801322D01*
X22416752Y-20800500D01*
X119073500Y-20800500D01*
X119141621Y-20820502D01*
G37*
%TD.AperFunction*%
%TD*%
M02*
