%TF.GenerationSoftware,KiCad,Pcbnew,6.0.5-a6ca702e91~116~ubuntu22.04.1*%
%TF.CreationDate,2022-06-15T11:28:33-07:00*%
%TF.ProjectId,aprs-esp32,61707273-2d65-4737-9033-322e6b696361,v1.0.0*%
%TF.SameCoordinates,Original*%
%TF.FileFunction,Soldermask,Top*%
%TF.FilePolarity,Negative*%
%FSLAX46Y46*%
G04 Gerber Fmt 4.6, Leading zero omitted, Abs format (unit mm)*
G04 Created by KiCad (PCBNEW 6.0.5-a6ca702e91~116~ubuntu22.04.1) date 2022-06-15 11:28:33*
%MOMM*%
%LPD*%
G01*
G04 APERTURE LIST*
G04 Aperture macros list*
%AMRoundRect*
0 Rectangle with rounded corners*
0 $1 Rounding radius*
0 $2 $3 $4 $5 $6 $7 $8 $9 X,Y pos of 4 corners*
0 Add a 4 corners polygon primitive as box body*
4,1,4,$2,$3,$4,$5,$6,$7,$8,$9,$2,$3,0*
0 Add four circle primitives for the rounded corners*
1,1,$1+$1,$2,$3*
1,1,$1+$1,$4,$5*
1,1,$1+$1,$6,$7*
1,1,$1+$1,$8,$9*
0 Add four rect primitives between the rounded corners*
20,1,$1+$1,$2,$3,$4,$5,0*
20,1,$1+$1,$4,$5,$6,$7,0*
20,1,$1+$1,$6,$7,$8,$9,0*
20,1,$1+$1,$8,$9,$2,$3,0*%
G04 Aperture macros list end*
%ADD10RoundRect,0.300000X-0.400000X-0.625000X0.400000X-0.625000X0.400000X0.625000X-0.400000X0.625000X0*%
%ADD11RoundRect,0.300000X0.400000X0.625000X-0.400000X0.625000X-0.400000X-0.625000X0.400000X-0.625000X0*%
%ADD12RoundRect,0.050000X2.500000X2.500000X-2.500000X2.500000X-2.500000X-2.500000X2.500000X-2.500000X0*%
%ADD13RoundRect,0.050000X1.000000X0.450000X-1.000000X0.450000X-1.000000X-0.450000X1.000000X-0.450000X0*%
%ADD14RoundRect,0.050000X-0.450000X1.000000X-0.450000X-1.000000X0.450000X-1.000000X0.450000X1.000000X0*%
%ADD15C,2.100000*%
%ADD16RoundRect,0.300000X-0.412500X-0.650000X0.412500X-0.650000X0.412500X0.650000X-0.412500X0.650000X0*%
%ADD17RoundRect,0.200000X-0.587500X-0.150000X0.587500X-0.150000X0.587500X0.150000X-0.587500X0.150000X0*%
%ADD18RoundRect,0.300000X-0.625000X0.400000X-0.625000X-0.400000X0.625000X-0.400000X0.625000X0.400000X0*%
%ADD19C,1.825000*%
%ADD20RoundRect,0.050000X0.862500X0.862500X-0.862500X0.862500X-0.862500X-0.862500X0.862500X-0.862500X0*%
%ADD21RoundRect,0.300000X1.450000X-0.537500X1.450000X0.537500X-1.450000X0.537500X-1.450000X-0.537500X0*%
%ADD22RoundRect,0.287500X0.287500X0.237500X-0.287500X0.237500X-0.287500X-0.237500X0.287500X-0.237500X0*%
%ADD23C,2.150000*%
%ADD24C,2.350000*%
%ADD25RoundRect,0.300000X-1.450000X0.537500X-1.450000X-0.537500X1.450000X-0.537500X1.450000X0.537500X0*%
%ADD26RoundRect,0.050000X-1.980000X0.990000X-1.980000X-0.990000X1.980000X-0.990000X1.980000X0.990000X0*%
%ADD27O,4.060000X2.080000*%
%ADD28RoundRect,0.050000X-0.850000X-0.850000X0.850000X-0.850000X0.850000X0.850000X-0.850000X0.850000X0*%
%ADD29O,1.800000X1.800000*%
%ADD30C,1.000000*%
%ADD31C,8.700000*%
%ADD32RoundRect,0.050000X1.235000X0.940000X-1.235000X0.940000X-1.235000X-0.940000X1.235000X-0.940000X0*%
%ADD33RoundRect,0.050000X0.940000X-1.235000X0.940000X1.235000X-0.940000X1.235000X-0.940000X-1.235000X0*%
%ADD34RoundRect,0.050000X-1.235000X-0.940000X1.235000X-0.940000X1.235000X0.940000X-1.235000X0.940000X0*%
%ADD35RoundRect,0.050000X3.300000X0.900000X-3.300000X0.900000X-3.300000X-0.900000X3.300000X-0.900000X0*%
%ADD36RoundRect,0.050000X4.000000X0.900000X-4.000000X0.900000X-4.000000X-0.900000X4.000000X-0.900000X0*%
%ADD37RoundRect,0.202500X-0.152500X-0.470000X0.152500X-0.470000X0.152500X0.470000X-0.152500X0.470000X0*%
%ADD38C,0.710000*%
%ADD39RoundRect,0.299600X-0.270400X-0.650400X0.270400X-0.650400X0.270400X0.650400X-0.270400X0.650400X0*%
%ADD40RoundRect,0.300001X-0.924999X0.499999X-0.924999X-0.499999X0.924999X-0.499999X0.924999X0.499999X0*%
%ADD41RoundRect,0.300000X0.412500X0.650000X-0.412500X0.650000X-0.412500X-0.650000X0.412500X-0.650000X0*%
G04 APERTURE END LIST*
D10*
%TO.C,R6*%
X76605000Y-78035000D03*
X79705000Y-78035000D03*
%TD*%
D11*
%TO.C,R2*%
X42192500Y-45875000D03*
X45292500Y-45875000D03*
%TD*%
D12*
%TO.C,ESP32-WROOM-32D1*%
X51650275Y-111341072D03*
D13*
X42150275Y-118841072D03*
X42150275Y-117571072D03*
X42150275Y-116301072D03*
X42150275Y-115031072D03*
X42150275Y-113761072D03*
X42150275Y-112491072D03*
X42150275Y-111221072D03*
X42150275Y-109951072D03*
X42150275Y-108681072D03*
X42150275Y-107411072D03*
X42150275Y-106141072D03*
X42150275Y-104871072D03*
X42150275Y-103601072D03*
X42150275Y-102331072D03*
D14*
X44935275Y-101331072D03*
X46205275Y-101331072D03*
X47475275Y-101331072D03*
X48745275Y-101331072D03*
X50015275Y-101331072D03*
X51285275Y-101331072D03*
X52555275Y-101331072D03*
X53825275Y-101331072D03*
X55095275Y-101331072D03*
X56365275Y-101331072D03*
D13*
X59150275Y-102331072D03*
X59150275Y-103601072D03*
X59150275Y-104871072D03*
X59150275Y-106141072D03*
X59150275Y-107411072D03*
X59150275Y-108681072D03*
X59150275Y-109951072D03*
X59150275Y-111221072D03*
X59150275Y-112491072D03*
X59150275Y-113761072D03*
X59150275Y-115031072D03*
X59150275Y-116301072D03*
X59150275Y-117571072D03*
X59150275Y-118841072D03*
%TD*%
D15*
%TO.C,SW2*%
X28065000Y-97715000D03*
X28065000Y-104215000D03*
X23565000Y-97715000D03*
X23565000Y-104215000D03*
%TD*%
D16*
%TO.C,C2*%
X87555000Y-55485000D03*
X90680000Y-55485000D03*
%TD*%
D17*
%TO.C,Q2*%
X42116500Y-62501600D03*
X42116500Y-64401600D03*
X43991500Y-63451600D03*
%TD*%
D18*
%TO.C,R12*%
X25997896Y-32172987D03*
X25997896Y-35272987D03*
%TD*%
D19*
%TO.C,J5*%
X46740000Y-32540000D03*
X46740000Y-30000000D03*
X49280000Y-32540000D03*
X49280000Y-30000000D03*
X51820000Y-32540000D03*
X51820000Y-30000000D03*
X54360000Y-32540000D03*
X54360000Y-30000000D03*
X56900000Y-32540000D03*
X56900000Y-30000000D03*
X59440000Y-32540000D03*
X59440000Y-30000000D03*
X61980000Y-32540000D03*
X61980000Y-30000000D03*
X64520000Y-32540000D03*
X64520000Y-30000000D03*
X67060000Y-32540000D03*
X67060000Y-30000000D03*
X69600000Y-32540000D03*
X69600000Y-30000000D03*
X72140000Y-32540000D03*
X72140000Y-30000000D03*
X74680000Y-32540000D03*
X74680000Y-30000000D03*
X77220000Y-32540000D03*
X77220000Y-30000000D03*
X79760000Y-32540000D03*
X79760000Y-30000000D03*
X82300000Y-32540000D03*
X82300000Y-30000000D03*
X84840000Y-32540000D03*
X84840000Y-30000000D03*
X87380000Y-32540000D03*
X87380000Y-30000000D03*
X89920000Y-32540000D03*
X89920000Y-30000000D03*
X92460000Y-32540000D03*
X92460000Y-30000000D03*
X95000000Y-32540000D03*
D20*
X95000000Y-30000000D03*
%TD*%
D11*
%TO.C,R4*%
X64805000Y-80403800D03*
X61705000Y-80403800D03*
%TD*%
D21*
%TO.C,C3*%
X86679587Y-116330713D03*
X86679587Y-112055713D03*
%TD*%
D22*
%TO.C,D1*%
X37927500Y-80975000D03*
X36177500Y-80975000D03*
%TD*%
D23*
%TO.C,J7*%
X112186370Y-70945645D03*
D24*
X114726370Y-73485645D03*
X109646370Y-73485645D03*
X114726370Y-68405645D03*
X109646370Y-68405645D03*
%TD*%
D11*
%TO.C,R14*%
X36515000Y-74795000D03*
X33415000Y-74795000D03*
%TD*%
D25*
%TO.C,C4*%
X65315000Y-117580000D03*
X65315000Y-113305000D03*
%TD*%
D17*
%TO.C,Q4*%
X41952500Y-51355000D03*
X41952500Y-53255000D03*
X43827500Y-52305000D03*
%TD*%
D22*
%TO.C,D2*%
X48767500Y-94375000D03*
X47017500Y-94375000D03*
%TD*%
D16*
%TO.C,C1*%
X87455000Y-52145000D03*
X90580000Y-52145000D03*
%TD*%
D26*
%TO.C,J3*%
X113345000Y-38545000D03*
D27*
X113345000Y-43545000D03*
X113345000Y-48545000D03*
X113345000Y-53545000D03*
%TD*%
D10*
%TO.C,R7*%
X75465000Y-85625000D03*
X78565000Y-85625000D03*
%TD*%
D22*
%TO.C,D3*%
X63237500Y-97685000D03*
X61487500Y-97685000D03*
%TD*%
D11*
%TO.C,R15*%
X49855000Y-92145000D03*
X46755000Y-92145000D03*
%TD*%
D28*
%TO.C,J8*%
X25798507Y-85003164D03*
D29*
X25798507Y-87543164D03*
X25798507Y-90083164D03*
%TD*%
D28*
%TO.C,J6*%
X77940218Y-58596018D03*
D29*
X77940218Y-61136018D03*
X77940218Y-63676018D03*
%TD*%
D17*
%TO.C,Q1*%
X45170000Y-41895000D03*
X43295000Y-42845000D03*
X43295000Y-40945000D03*
%TD*%
D30*
%TO.C,H4*%
X118145000Y-114920000D03*
D31*
X114920000Y-114920000D03*
D30*
X112639581Y-117200419D03*
X111695000Y-114920000D03*
X117200419Y-117200419D03*
X114920000Y-111695000D03*
X117200419Y-112639581D03*
X114920000Y-118145000D03*
X112639581Y-112639581D03*
%TD*%
D32*
%TO.C,U1*%
X85640000Y-90155000D03*
X85640000Y-85705000D03*
X85640000Y-81255000D03*
X85640000Y-76805000D03*
X85640000Y-72355000D03*
X85640000Y-67905000D03*
X85640000Y-63455000D03*
D33*
X87565000Y-59680000D03*
X92165000Y-59680000D03*
X96765000Y-59680000D03*
X101365000Y-59680000D03*
D34*
X103290000Y-63455000D03*
X103290000Y-67905000D03*
D32*
X103290000Y-72355000D03*
X103290000Y-76805000D03*
X103290000Y-81255000D03*
X103290000Y-85705000D03*
X103290000Y-90155000D03*
D35*
X88265000Y-93930000D03*
D36*
X99965000Y-93930000D03*
%TD*%
D37*
%TO.C,FL1*%
X110051659Y-61938766D03*
D38*
X110051659Y-61761266D03*
D39*
X111676659Y-62866266D03*
D37*
X110051659Y-63793766D03*
D38*
X110051659Y-63971266D03*
D39*
X108426659Y-62866266D03*
%TD*%
D17*
%TO.C,Q3*%
X62317500Y-75085000D03*
X62317500Y-76985000D03*
X64192500Y-76035000D03*
%TD*%
D10*
%TO.C,R10*%
X42140000Y-58165000D03*
X45240000Y-58165000D03*
%TD*%
D31*
%TO.C,H3*%
X25080000Y-114920000D03*
D30*
X21855000Y-114920000D03*
X25080000Y-118145000D03*
X27360419Y-112639581D03*
X27360419Y-117200419D03*
X22799581Y-117200419D03*
X22799581Y-112639581D03*
X28305000Y-114920000D03*
X25080000Y-111695000D03*
%TD*%
D10*
%TO.C,R11*%
X76545000Y-73825000D03*
X79645000Y-73825000D03*
%TD*%
D40*
%TO.C,C5*%
X69725000Y-114245000D03*
X69725000Y-117495000D03*
%TD*%
D11*
%TO.C,R9*%
X80265000Y-102015000D03*
X77165000Y-102015000D03*
%TD*%
D28*
%TO.C,J2*%
X25885000Y-59025000D03*
D29*
X25885000Y-61565000D03*
X25885000Y-64105000D03*
%TD*%
D28*
%TO.C,J4*%
X25592860Y-39985000D03*
D29*
X25592860Y-42525000D03*
X25592860Y-45065000D03*
X25592860Y-47605000D03*
%TD*%
D41*
%TO.C,C6*%
X80537500Y-97815000D03*
X77412500Y-97815000D03*
%TD*%
D11*
%TO.C,R16*%
X63785000Y-94215000D03*
X60685000Y-94215000D03*
%TD*%
D10*
%TO.C,R1*%
X24042860Y-53006828D03*
X27142860Y-53006828D03*
%TD*%
D18*
%TO.C,R8*%
X92179187Y-113529917D03*
X92179187Y-116629917D03*
%TD*%
D10*
%TO.C,R5*%
X76615000Y-68985000D03*
X79715000Y-68985000D03*
%TD*%
D30*
%TO.C,H2*%
X27360419Y-22799581D03*
D31*
X25080000Y-25080000D03*
D30*
X21855000Y-25080000D03*
X27360419Y-27360419D03*
X22799581Y-27360419D03*
X25080000Y-28305000D03*
X22799581Y-22799581D03*
X25080000Y-21855000D03*
X28305000Y-25080000D03*
%TD*%
%TO.C,H1*%
X118145000Y-25080000D03*
X111695000Y-25080000D03*
D31*
X114920000Y-25080000D03*
D30*
X117200419Y-27360419D03*
X114920000Y-28305000D03*
X117200419Y-22799581D03*
X114920000Y-21855000D03*
X112639581Y-27360419D03*
X112639581Y-22799581D03*
%TD*%
D18*
%TO.C,R13*%
X30608653Y-32233974D03*
X30608653Y-35333974D03*
%TD*%
D41*
%TO.C,C7*%
X80243050Y-107175205D03*
X77118050Y-107175205D03*
%TD*%
D11*
%TO.C,R3*%
X43995000Y-69065000D03*
X40895000Y-69065000D03*
%TD*%
D28*
%TO.C,J1*%
X25885000Y-70455000D03*
D29*
X25885000Y-72995000D03*
X25885000Y-75535000D03*
X25885000Y-78075000D03*
%TD*%
D15*
%TO.C,SW1*%
X81299009Y-111952171D03*
X74799009Y-111952171D03*
X74799009Y-116452171D03*
X81299009Y-116452171D03*
%TD*%
M02*
