%TF.GenerationSoftware,KiCad,Pcbnew,6.0.8-f2edbf62ab~116~ubuntu22.04.1*%
%TF.CreationDate,2022-10-21T16:06:30-07:00*%
%TF.ProjectId,aprs-esp32,61707273-2d65-4737-9033-322e6b696361,v1.0.0*%
%TF.SameCoordinates,Original*%
%TF.FileFunction,Soldermask,Top*%
%TF.FilePolarity,Negative*%
%FSLAX46Y46*%
G04 Gerber Fmt 4.6, Leading zero omitted, Abs format (unit mm)*
G04 Created by KiCad (PCBNEW 6.0.8-f2edbf62ab~116~ubuntu22.04.1) date 2022-10-21 16:06:30*
%MOMM*%
%LPD*%
G01*
G04 APERTURE LIST*
G04 Aperture macros list*
%AMRoundRect*
0 Rectangle with rounded corners*
0 $1 Rounding radius*
0 $2 $3 $4 $5 $6 $7 $8 $9 X,Y pos of 4 corners*
0 Add a 4 corners polygon primitive as box body*
4,1,4,$2,$3,$4,$5,$6,$7,$8,$9,$2,$3,0*
0 Add four circle primitives for the rounded corners*
1,1,$1+$1,$2,$3*
1,1,$1+$1,$4,$5*
1,1,$1+$1,$6,$7*
1,1,$1+$1,$8,$9*
0 Add four rect primitives between the rounded corners*
20,1,$1+$1,$2,$3,$4,$5,0*
20,1,$1+$1,$4,$5,$6,$7,0*
20,1,$1+$1,$6,$7,$8,$9,0*
20,1,$1+$1,$8,$9,$2,$3,0*%
G04 Aperture macros list end*
%ADD10C,2.100000*%
%ADD11RoundRect,0.300000X0.400000X0.625000X-0.400000X0.625000X-0.400000X-0.625000X0.400000X-0.625000X0*%
%ADD12RoundRect,0.300000X-0.412500X-0.650000X0.412500X-0.650000X0.412500X0.650000X-0.412500X0.650000X0*%
%ADD13RoundRect,0.300000X1.450000X-0.537500X1.450000X0.537500X-1.450000X0.537500X-1.450000X-0.537500X0*%
%ADD14RoundRect,0.287500X-0.287500X-0.237500X0.287500X-0.237500X0.287500X0.237500X-0.287500X0.237500X0*%
%ADD15RoundRect,0.200000X-0.150000X0.587500X-0.150000X-0.587500X0.150000X-0.587500X0.150000X0.587500X0*%
%ADD16C,2.150000*%
%ADD17C,2.350000*%
%ADD18RoundRect,0.050000X-0.850000X-0.850000X0.850000X-0.850000X0.850000X0.850000X-0.850000X0.850000X0*%
%ADD19O,1.800000X1.800000*%
%ADD20RoundRect,0.050000X-1.980000X0.990000X-1.980000X-0.990000X1.980000X-0.990000X1.980000X0.990000X0*%
%ADD21O,4.060000X2.080000*%
%ADD22C,1.000000*%
%ADD23C,8.700000*%
%ADD24RoundRect,0.050000X1.235000X0.940000X-1.235000X0.940000X-1.235000X-0.940000X1.235000X-0.940000X0*%
%ADD25RoundRect,0.050000X0.940000X-1.235000X0.940000X1.235000X-0.940000X1.235000X-0.940000X-1.235000X0*%
%ADD26RoundRect,0.050000X-1.235000X-0.940000X1.235000X-0.940000X1.235000X0.940000X-1.235000X0.940000X0*%
%ADD27RoundRect,0.050000X3.300000X0.900000X-3.300000X0.900000X-3.300000X-0.900000X3.300000X-0.900000X0*%
%ADD28RoundRect,0.050000X4.000000X0.900000X-4.000000X0.900000X-4.000000X-0.900000X4.000000X-0.900000X0*%
%ADD29RoundRect,0.299600X-0.270400X-0.650400X0.270400X-0.650400X0.270400X0.650400X-0.270400X0.650400X0*%
%ADD30C,0.710000*%
%ADD31RoundRect,0.202500X-0.152500X-0.470000X0.152500X-0.470000X0.152500X0.470000X-0.152500X0.470000X0*%
%ADD32RoundRect,0.300001X0.924999X-0.499999X0.924999X0.499999X-0.924999X0.499999X-0.924999X-0.499999X0*%
%ADD33RoundRect,0.050000X1.000000X0.450000X-1.000000X0.450000X-1.000000X-0.450000X1.000000X-0.450000X0*%
%ADD34RoundRect,0.050000X-0.450000X1.000000X-0.450000X-1.000000X0.450000X-1.000000X0.450000X1.000000X0*%
%ADD35RoundRect,0.050000X2.500000X2.500000X-2.500000X2.500000X-2.500000X-2.500000X2.500000X-2.500000X0*%
%ADD36RoundRect,0.300000X0.412500X0.650000X-0.412500X0.650000X-0.412500X-0.650000X0.412500X-0.650000X0*%
%ADD37RoundRect,0.300000X-0.625000X0.400000X-0.625000X-0.400000X0.625000X-0.400000X0.625000X0.400000X0*%
%ADD38RoundRect,0.300000X-0.400000X-0.625000X0.400000X-0.625000X0.400000X0.625000X-0.400000X0.625000X0*%
%ADD39RoundRect,0.050000X0.862500X0.862500X-0.862500X0.862500X-0.862500X-0.862500X0.862500X-0.862500X0*%
%ADD40C,1.825000*%
G04 APERTURE END LIST*
D10*
%TO.C,SW2*%
X23565000Y-104215000D03*
X23565000Y-97715000D03*
X28065000Y-104215000D03*
X28065000Y-97715000D03*
%TD*%
D11*
%TO.C,R4*%
X56835000Y-62815000D03*
X53735000Y-62815000D03*
%TD*%
D12*
%TO.C,C2*%
X87555000Y-55485000D03*
X90680000Y-55485000D03*
%TD*%
D11*
%TO.C,R10*%
X67775000Y-62775000D03*
X64675000Y-62775000D03*
%TD*%
%TO.C,R3*%
X56845000Y-52285000D03*
X53745000Y-52285000D03*
%TD*%
D13*
%TO.C,C3*%
X86679587Y-116330713D03*
X86679587Y-112055713D03*
%TD*%
D14*
%TO.C,D1*%
X55810000Y-87055000D03*
X57560000Y-87055000D03*
%TD*%
D15*
%TO.C,Q4*%
X67175000Y-65532500D03*
X65275000Y-65532500D03*
X66225000Y-67407500D03*
%TD*%
D16*
%TO.C,J7*%
X112186370Y-70945645D03*
D17*
X114726370Y-73485645D03*
X109646370Y-73485645D03*
X114726370Y-68405645D03*
X109646370Y-68405645D03*
%TD*%
D11*
%TO.C,R14*%
X50725000Y-87035000D03*
X47625000Y-87035000D03*
%TD*%
D13*
%TO.C,C4*%
X67875000Y-117130000D03*
X67875000Y-112855000D03*
%TD*%
D18*
%TO.C,J1*%
X25885000Y-70455000D03*
D19*
X25885000Y-72995000D03*
X25885000Y-75535000D03*
X25885000Y-78075000D03*
%TD*%
D14*
%TO.C,D2*%
X55760000Y-82515000D03*
X57510000Y-82515000D03*
%TD*%
D12*
%TO.C,C1*%
X87455000Y-52145000D03*
X90580000Y-52145000D03*
%TD*%
D15*
%TO.C,Q1*%
X56285000Y-65547500D03*
X54385000Y-65547500D03*
X55335000Y-67422500D03*
%TD*%
D14*
%TO.C,D3*%
X55760000Y-77945000D03*
X57510000Y-77945000D03*
%TD*%
D20*
%TO.C,J3*%
X113335000Y-38775000D03*
D21*
X113335000Y-43775000D03*
X113335000Y-48775000D03*
X113335000Y-53775000D03*
%TD*%
D11*
%TO.C,R15*%
X50715000Y-82565000D03*
X47615000Y-82565000D03*
%TD*%
D18*
%TO.C,J8*%
X25695000Y-85140000D03*
D19*
X25695000Y-87680000D03*
X25695000Y-90220000D03*
%TD*%
D18*
%TO.C,J6*%
X77940218Y-58596018D03*
D19*
X77940218Y-61136018D03*
X77940218Y-63676018D03*
%TD*%
D18*
%TO.C,J4*%
X25555000Y-39995000D03*
D19*
X25555000Y-42535000D03*
X25555000Y-45075000D03*
X25555000Y-47615000D03*
%TD*%
D15*
%TO.C,Q2*%
X56245000Y-55186500D03*
X54345000Y-55186500D03*
X55295000Y-57061500D03*
%TD*%
D22*
%TO.C,H4*%
X112639581Y-112639581D03*
X114920000Y-118145000D03*
X117200419Y-112639581D03*
X114920000Y-111695000D03*
X117200419Y-117200419D03*
X111695000Y-114920000D03*
X112639581Y-117200419D03*
D23*
X114920000Y-114920000D03*
D22*
X118145000Y-114920000D03*
%TD*%
D24*
%TO.C,U1*%
X85640000Y-90155000D03*
X85640000Y-85705000D03*
X85640000Y-81255000D03*
X85640000Y-76805000D03*
X85640000Y-72355000D03*
X85640000Y-67905000D03*
X85640000Y-63455000D03*
D25*
X87565000Y-59680000D03*
X92165000Y-59680000D03*
X96765000Y-59680000D03*
X101365000Y-59680000D03*
D26*
X103290000Y-63455000D03*
X103290000Y-67905000D03*
D24*
X103290000Y-72355000D03*
X103290000Y-76805000D03*
X103290000Y-81255000D03*
X103290000Y-85705000D03*
X103290000Y-90155000D03*
D27*
X88265000Y-93930000D03*
D28*
X99965000Y-93930000D03*
%TD*%
D29*
%TO.C,FL1*%
X108426659Y-62866266D03*
D30*
X110051659Y-63971266D03*
D31*
X110051659Y-63793766D03*
D29*
X111676659Y-62866266D03*
D30*
X110051659Y-61761266D03*
D31*
X110051659Y-61938766D03*
%TD*%
D18*
%TO.C,J2*%
X25725000Y-58970000D03*
D19*
X25725000Y-61510000D03*
X25725000Y-64050000D03*
%TD*%
D22*
%TO.C,H3*%
X25080000Y-111695000D03*
X28305000Y-114920000D03*
X22799581Y-112639581D03*
X22799581Y-117200419D03*
X27360419Y-117200419D03*
X27360419Y-112639581D03*
X25080000Y-118145000D03*
X21855000Y-114920000D03*
D23*
X25080000Y-114920000D03*
%TD*%
D32*
%TO.C,C5*%
X63655000Y-117040000D03*
X63655000Y-113790000D03*
%TD*%
D33*
%TO.C,U2*%
X59235000Y-118350000D03*
X59235000Y-117080000D03*
X59235000Y-115810000D03*
X59235000Y-114540000D03*
X59235000Y-113270000D03*
X59235000Y-112000000D03*
X59235000Y-110730000D03*
X59235000Y-109460000D03*
X59235000Y-108190000D03*
X59235000Y-106920000D03*
X59235000Y-105650000D03*
X59235000Y-104380000D03*
X59235000Y-103110000D03*
X59235000Y-101840000D03*
D34*
X56450000Y-100840000D03*
X55180000Y-100840000D03*
X53910000Y-100840000D03*
X52640000Y-100840000D03*
X51370000Y-100840000D03*
X50100000Y-100840000D03*
X48830000Y-100840000D03*
X47560000Y-100840000D03*
X46290000Y-100840000D03*
X45020000Y-100840000D03*
D33*
X42235000Y-101840000D03*
X42235000Y-103110000D03*
X42235000Y-104380000D03*
X42235000Y-105650000D03*
X42235000Y-106920000D03*
X42235000Y-108190000D03*
X42235000Y-109460000D03*
X42235000Y-110730000D03*
X42235000Y-112000000D03*
X42235000Y-113270000D03*
X42235000Y-114540000D03*
X42235000Y-115810000D03*
X42235000Y-117080000D03*
X42235000Y-118350000D03*
D35*
X51735000Y-110850000D03*
%TD*%
D11*
%TO.C,R9*%
X80205000Y-104235000D03*
X77105000Y-104235000D03*
%TD*%
%TO.C,R11*%
X79705000Y-73805000D03*
X76605000Y-73805000D03*
%TD*%
D36*
%TO.C,C6*%
X80307500Y-101105000D03*
X77182500Y-101105000D03*
%TD*%
D11*
%TO.C,R16*%
X50675000Y-77955000D03*
X47575000Y-77955000D03*
%TD*%
%TO.C,R13*%
X33535000Y-36625000D03*
X30435000Y-36625000D03*
%TD*%
D37*
%TO.C,R8*%
X92179187Y-113529917D03*
X92179187Y-116629917D03*
%TD*%
D11*
%TO.C,R5*%
X79705000Y-68985000D03*
X76605000Y-68985000D03*
%TD*%
D22*
%TO.C,H2*%
X28305000Y-25080000D03*
X25080000Y-21855000D03*
X22799581Y-22799581D03*
X25080000Y-28305000D03*
X22799581Y-27360419D03*
X27360419Y-27360419D03*
X21855000Y-25080000D03*
D23*
X25080000Y-25080000D03*
D22*
X27360419Y-22799581D03*
%TD*%
D38*
%TO.C,R1*%
X25025000Y-53125000D03*
X28125000Y-53125000D03*
%TD*%
D15*
%TO.C,Q3*%
X66975000Y-54827500D03*
X65075000Y-54827500D03*
X66025000Y-56702500D03*
%TD*%
D22*
%TO.C,H1*%
X112639581Y-22799581D03*
X112639581Y-27360419D03*
X114920000Y-21855000D03*
X117200419Y-22799581D03*
X114920000Y-28305000D03*
X117200419Y-27360419D03*
D23*
X114920000Y-25080000D03*
D22*
X111695000Y-25080000D03*
X118145000Y-25080000D03*
%TD*%
D39*
%TO.C,J5*%
X95000000Y-30000000D03*
D40*
X95000000Y-32540000D03*
X92460000Y-30000000D03*
X92460000Y-32540000D03*
X89920000Y-30000000D03*
X89920000Y-32540000D03*
X87380000Y-30000000D03*
X87380000Y-32540000D03*
X84840000Y-30000000D03*
X84840000Y-32540000D03*
X82300000Y-30000000D03*
X82300000Y-32540000D03*
X79760000Y-30000000D03*
X79760000Y-32540000D03*
X77220000Y-30000000D03*
X77220000Y-32540000D03*
X74680000Y-30000000D03*
X74680000Y-32540000D03*
X72140000Y-30000000D03*
X72140000Y-32540000D03*
X69600000Y-30000000D03*
X69600000Y-32540000D03*
X67060000Y-30000000D03*
X67060000Y-32540000D03*
X64520000Y-30000000D03*
X64520000Y-32540000D03*
X61980000Y-30000000D03*
X61980000Y-32540000D03*
X59440000Y-30000000D03*
X59440000Y-32540000D03*
X56900000Y-30000000D03*
X56900000Y-32540000D03*
X54360000Y-30000000D03*
X54360000Y-32540000D03*
X51820000Y-30000000D03*
X51820000Y-32540000D03*
X49280000Y-30000000D03*
X49280000Y-32540000D03*
X46740000Y-30000000D03*
X46740000Y-32540000D03*
%TD*%
D11*
%TO.C,R6*%
X79705000Y-78015000D03*
X76605000Y-78015000D03*
%TD*%
D36*
%TO.C,C7*%
X80243050Y-107175205D03*
X77118050Y-107175205D03*
%TD*%
D11*
%TO.C,R7*%
X79705000Y-85525000D03*
X76605000Y-85525000D03*
%TD*%
%TO.C,R2*%
X67695000Y-52305000D03*
X64595000Y-52305000D03*
%TD*%
%TO.C,R12*%
X33495000Y-32825000D03*
X30395000Y-32825000D03*
%TD*%
D10*
%TO.C,SW1*%
X81299009Y-111952171D03*
X74799009Y-111952171D03*
X74799009Y-116452171D03*
X81299009Y-116452171D03*
%TD*%
M02*
