%TF.GenerationSoftware,KiCad,Pcbnew,6.0.5-a6ca702e91~116~ubuntu22.04.1*%
%TF.CreationDate,2022-06-15T11:28:33-07:00*%
%TF.ProjectId,aprs-esp32,61707273-2d65-4737-9033-322e6b696361,v1.0.0*%
%TF.SameCoordinates,Original*%
%TF.FileFunction,Legend,Top*%
%TF.FilePolarity,Positive*%
%FSLAX46Y46*%
G04 Gerber Fmt 4.6, Leading zero omitted, Abs format (unit mm)*
G04 Created by KiCad (PCBNEW 6.0.5-a6ca702e91~116~ubuntu22.04.1) date 2022-06-15 11:28:33*
%MOMM*%
%LPD*%
G01*
G04 APERTURE LIST*
%ADD10C,0.150000*%
%ADD11C,0.250000*%
%ADD12C,0.254000*%
%ADD13C,0.120000*%
%ADD14C,0.200000*%
%ADD15C,0.127000*%
%ADD16C,0.300000*%
G04 APERTURE END LIST*
D10*
X86125000Y-28260000D02*
X91015000Y-28260000D01*
X91015000Y-28260000D02*
X91015000Y-40885000D01*
X91015000Y-40885000D02*
X86125000Y-40885000D01*
X86125000Y-40885000D02*
X86125000Y-28260000D01*
X59015000Y-27608333D02*
X58967380Y-27703571D01*
X58967380Y-27846428D01*
X59015000Y-27989285D01*
X59110238Y-28084523D01*
X59205476Y-28132142D01*
X59395952Y-28179761D01*
X59538809Y-28179761D01*
X59729285Y-28132142D01*
X59824523Y-28084523D01*
X59919761Y-27989285D01*
X59967380Y-27846428D01*
X59967380Y-27751190D01*
X59919761Y-27608333D01*
X59872142Y-27560714D01*
X59538809Y-27560714D01*
X59538809Y-27751190D01*
X59967380Y-27132142D02*
X58967380Y-27132142D01*
X58967380Y-26751190D01*
X59015000Y-26655952D01*
X59062619Y-26608333D01*
X59157857Y-26560714D01*
X59300714Y-26560714D01*
X59395952Y-26608333D01*
X59443571Y-26655952D01*
X59491190Y-26751190D01*
X59491190Y-27132142D01*
X59967380Y-26132142D02*
X58967380Y-26132142D01*
X58967380Y-25465476D02*
X58967380Y-25275000D01*
X59015000Y-25179761D01*
X59110238Y-25084523D01*
X59300714Y-25036904D01*
X59634047Y-25036904D01*
X59824523Y-25084523D01*
X59919761Y-25179761D01*
X59967380Y-25275000D01*
X59967380Y-25465476D01*
X59919761Y-25560714D01*
X59824523Y-25655952D01*
X59634047Y-25703571D01*
X59300714Y-25703571D01*
X59110238Y-25655952D01*
X59015000Y-25560714D01*
X58967380Y-25465476D01*
X59062619Y-23894047D02*
X59015000Y-23846428D01*
X58967380Y-23751190D01*
X58967380Y-23513095D01*
X59015000Y-23417857D01*
X59062619Y-23370238D01*
X59157857Y-23322619D01*
X59253095Y-23322619D01*
X59395952Y-23370238D01*
X59967380Y-23941666D01*
X59967380Y-23322619D01*
X59967380Y-22846428D02*
X59967380Y-22655952D01*
X59919761Y-22560714D01*
X59872142Y-22513095D01*
X59729285Y-22417857D01*
X59538809Y-22370238D01*
X59157857Y-22370238D01*
X59062619Y-22417857D01*
X59015000Y-22465476D01*
X58967380Y-22560714D01*
X58967380Y-22751190D01*
X59015000Y-22846428D01*
X59062619Y-22894047D01*
X59157857Y-22941666D01*
X59395952Y-22941666D01*
X59491190Y-22894047D01*
X59538809Y-22846428D01*
X59586428Y-22751190D01*
X59586428Y-22560714D01*
X59538809Y-22465476D01*
X59491190Y-22417857D01*
X59395952Y-22370238D01*
X62121666Y-28081190D02*
X62121666Y-27605000D01*
X62407380Y-28176428D02*
X61407380Y-27843095D01*
X62407380Y-27509761D01*
X61883571Y-26843095D02*
X61883571Y-27176428D01*
X62407380Y-27176428D02*
X61407380Y-27176428D01*
X61407380Y-26700238D01*
X61407380Y-25366904D02*
X61407380Y-25176428D01*
X61455000Y-25081190D01*
X61550238Y-24985952D01*
X61740714Y-24938333D01*
X62074047Y-24938333D01*
X62264523Y-24985952D01*
X62359761Y-25081190D01*
X62407380Y-25176428D01*
X62407380Y-25366904D01*
X62359761Y-25462142D01*
X62264523Y-25557380D01*
X62074047Y-25605000D01*
X61740714Y-25605000D01*
X61550238Y-25557380D01*
X61455000Y-25462142D01*
X61407380Y-25366904D01*
X61407380Y-24509761D02*
X62216904Y-24509761D01*
X62312142Y-24462142D01*
X62359761Y-24414523D01*
X62407380Y-24319285D01*
X62407380Y-24128809D01*
X62359761Y-24033571D01*
X62312142Y-23985952D01*
X62216904Y-23938333D01*
X61407380Y-23938333D01*
X61407380Y-23605000D02*
X61407380Y-23033571D01*
X62407380Y-23319285D02*
X61407380Y-23319285D01*
X70069761Y-28074523D02*
X70117380Y-27931666D01*
X70117380Y-27693571D01*
X70069761Y-27598333D01*
X70022142Y-27550714D01*
X69926904Y-27503095D01*
X69831666Y-27503095D01*
X69736428Y-27550714D01*
X69688809Y-27598333D01*
X69641190Y-27693571D01*
X69593571Y-27884047D01*
X69545952Y-27979285D01*
X69498333Y-28026904D01*
X69403095Y-28074523D01*
X69307857Y-28074523D01*
X69212619Y-28026904D01*
X69165000Y-27979285D01*
X69117380Y-27884047D01*
X69117380Y-27645952D01*
X69165000Y-27503095D01*
X70212619Y-26407857D02*
X70165000Y-26503095D01*
X70069761Y-26598333D01*
X69926904Y-26741190D01*
X69879285Y-26836428D01*
X69879285Y-26931666D01*
X70117380Y-26884047D02*
X70069761Y-26979285D01*
X69974523Y-27074523D01*
X69784047Y-27122142D01*
X69450714Y-27122142D01*
X69260238Y-27074523D01*
X69165000Y-26979285D01*
X69117380Y-26884047D01*
X69117380Y-26693571D01*
X69165000Y-26598333D01*
X69260238Y-26503095D01*
X69450714Y-26455476D01*
X69784047Y-26455476D01*
X69974523Y-26503095D01*
X70069761Y-26598333D01*
X70117380Y-26693571D01*
X70117380Y-26884047D01*
X93710714Y-37413095D02*
X94377380Y-37413095D01*
X93329761Y-37651190D02*
X94044047Y-37889285D01*
X94044047Y-37270238D01*
X93377380Y-37032142D02*
X94377380Y-36698809D01*
X93377380Y-36365476D01*
X88045000Y-37896904D02*
X87997380Y-37992142D01*
X87997380Y-38135000D01*
X88045000Y-38277857D01*
X88140238Y-38373095D01*
X88235476Y-38420714D01*
X88425952Y-38468333D01*
X88568809Y-38468333D01*
X88759285Y-38420714D01*
X88854523Y-38373095D01*
X88949761Y-38277857D01*
X88997380Y-38135000D01*
X88997380Y-38039761D01*
X88949761Y-37896904D01*
X88902142Y-37849285D01*
X88568809Y-37849285D01*
X88568809Y-38039761D01*
X88997380Y-37420714D02*
X87997380Y-37420714D01*
X88997380Y-36849285D01*
X87997380Y-36849285D01*
X88997380Y-36373095D02*
X87997380Y-36373095D01*
X87997380Y-36135000D01*
X88045000Y-35992142D01*
X88140238Y-35896904D01*
X88235476Y-35849285D01*
X88425952Y-35801666D01*
X88568809Y-35801666D01*
X88759285Y-35849285D01*
X88854523Y-35896904D01*
X88949761Y-35992142D01*
X88997380Y-36135000D01*
X88997380Y-36373095D01*
X82647380Y-38791190D02*
X82647380Y-38172142D01*
X83028333Y-38505476D01*
X83028333Y-38362619D01*
X83075952Y-38267380D01*
X83123571Y-38219761D01*
X83218809Y-38172142D01*
X83456904Y-38172142D01*
X83552142Y-38219761D01*
X83599761Y-38267380D01*
X83647380Y-38362619D01*
X83647380Y-38648333D01*
X83599761Y-38743571D01*
X83552142Y-38791190D01*
X83552142Y-37743571D02*
X83599761Y-37695952D01*
X83647380Y-37743571D01*
X83599761Y-37791190D01*
X83552142Y-37743571D01*
X83647380Y-37743571D01*
X82647380Y-37362619D02*
X82647380Y-36743571D01*
X83028333Y-37076904D01*
X83028333Y-36934047D01*
X83075952Y-36838809D01*
X83123571Y-36791190D01*
X83218809Y-36743571D01*
X83456904Y-36743571D01*
X83552142Y-36791190D01*
X83599761Y-36838809D01*
X83647380Y-36934047D01*
X83647380Y-37219761D01*
X83599761Y-37315000D01*
X83552142Y-37362619D01*
X82647380Y-36457857D02*
X83647380Y-36124523D01*
X82647380Y-35791190D01*
X91135000Y-28275000D02*
X96745000Y-28275000D01*
X96745000Y-28275000D02*
X96745000Y-40865000D01*
X96745000Y-40865000D02*
X91135000Y-40865000D01*
X91135000Y-40865000D02*
X91135000Y-28275000D01*
X81065000Y-28260000D02*
X85925000Y-28260000D01*
X85925000Y-28260000D02*
X85925000Y-40935000D01*
X85925000Y-40935000D02*
X81065000Y-40935000D01*
X81065000Y-40935000D02*
X81065000Y-28260000D01*
X77647380Y-40706904D02*
X77647380Y-40087857D01*
X78028333Y-40421190D01*
X78028333Y-40278333D01*
X78075952Y-40183095D01*
X78123571Y-40135476D01*
X78218809Y-40087857D01*
X78456904Y-40087857D01*
X78552142Y-40135476D01*
X78599761Y-40183095D01*
X78647380Y-40278333D01*
X78647380Y-40564047D01*
X78599761Y-40659285D01*
X78552142Y-40706904D01*
X78552142Y-39659285D02*
X78599761Y-39611666D01*
X78647380Y-39659285D01*
X78599761Y-39706904D01*
X78552142Y-39659285D01*
X78647380Y-39659285D01*
X77647380Y-39278333D02*
X77647380Y-38659285D01*
X78028333Y-38992619D01*
X78028333Y-38849761D01*
X78075952Y-38754523D01*
X78123571Y-38706904D01*
X78218809Y-38659285D01*
X78456904Y-38659285D01*
X78552142Y-38706904D01*
X78599761Y-38754523D01*
X78647380Y-38849761D01*
X78647380Y-39135476D01*
X78599761Y-39230714D01*
X78552142Y-39278333D01*
X77647380Y-38373571D02*
X78647380Y-38040238D01*
X77647380Y-37706904D01*
X78123571Y-36611666D02*
X78123571Y-36278333D01*
X78647380Y-36135476D02*
X78647380Y-36611666D01*
X77647380Y-36611666D01*
X77647380Y-36135476D01*
X78647380Y-35706904D02*
X77647380Y-35706904D01*
X78647380Y-35135476D01*
X77647380Y-35135476D01*
X78361666Y-34706904D02*
X78361666Y-34230714D01*
X78647380Y-34802142D02*
X77647380Y-34468809D01*
X78647380Y-34135476D01*
X75935000Y-28305000D02*
X80935000Y-28305000D01*
X80935000Y-28305000D02*
X80935000Y-40955000D01*
X80935000Y-40955000D02*
X75935000Y-40955000D01*
X75935000Y-40955000D02*
X75935000Y-28305000D01*
X73410714Y-39398809D02*
X74077380Y-39398809D01*
X73029761Y-39636904D02*
X73744047Y-39875000D01*
X73744047Y-39255952D01*
X73077380Y-39017857D02*
X74077380Y-38684523D01*
X73077380Y-38351190D01*
X73553571Y-37255952D02*
X73553571Y-36922619D01*
X74077380Y-36779761D02*
X74077380Y-37255952D01*
X73077380Y-37255952D01*
X73077380Y-36779761D01*
X74077380Y-36351190D02*
X73077380Y-36351190D01*
X74077380Y-35779761D01*
X73077380Y-35779761D01*
X73791666Y-35351190D02*
X73791666Y-34875000D01*
X74077380Y-35446428D02*
X73077380Y-35113095D01*
X74077380Y-34779761D01*
X70985000Y-28340000D02*
X75745000Y-28340000D01*
X75745000Y-28340000D02*
X75745000Y-40930000D01*
X75745000Y-40930000D02*
X70985000Y-40930000D01*
X70985000Y-40930000D02*
X70985000Y-28340000D01*
X67211666Y-40751666D02*
X67211666Y-40275476D01*
X67497380Y-40846904D02*
X66497380Y-40513571D01*
X67497380Y-40180238D01*
X66497380Y-39846904D02*
X67306904Y-39846904D01*
X67402142Y-39799285D01*
X67449761Y-39751666D01*
X67497380Y-39656428D01*
X67497380Y-39465952D01*
X67449761Y-39370714D01*
X67402142Y-39323095D01*
X67306904Y-39275476D01*
X66497380Y-39275476D01*
X67497380Y-38799285D02*
X66497380Y-38799285D01*
X66497380Y-38561190D01*
X66545000Y-38418333D01*
X66640238Y-38323095D01*
X66735476Y-38275476D01*
X66925952Y-38227857D01*
X67068809Y-38227857D01*
X67259285Y-38275476D01*
X67354523Y-38323095D01*
X67449761Y-38418333D01*
X67497380Y-38561190D01*
X67497380Y-38799285D01*
X67497380Y-37799285D02*
X66497380Y-37799285D01*
X66497380Y-37132619D02*
X66497380Y-36942142D01*
X66545000Y-36846904D01*
X66640238Y-36751666D01*
X66830714Y-36704047D01*
X67164047Y-36704047D01*
X67354523Y-36751666D01*
X67449761Y-36846904D01*
X67497380Y-36942142D01*
X67497380Y-37132619D01*
X67449761Y-37227857D01*
X67354523Y-37323095D01*
X67164047Y-37370714D01*
X66830714Y-37370714D01*
X66640238Y-37323095D01*
X66545000Y-37227857D01*
X66497380Y-37132619D01*
X67497380Y-35513571D02*
X66497380Y-35513571D01*
X67497380Y-35037380D02*
X66497380Y-35037380D01*
X67497380Y-34465952D01*
X66497380Y-34465952D01*
X64075000Y-39658333D02*
X64027380Y-39753571D01*
X64027380Y-39896428D01*
X64075000Y-40039285D01*
X64170238Y-40134523D01*
X64265476Y-40182142D01*
X64455952Y-40229761D01*
X64598809Y-40229761D01*
X64789285Y-40182142D01*
X64884523Y-40134523D01*
X64979761Y-40039285D01*
X65027380Y-39896428D01*
X65027380Y-39801190D01*
X64979761Y-39658333D01*
X64932142Y-39610714D01*
X64598809Y-39610714D01*
X64598809Y-39801190D01*
X65027380Y-39182142D02*
X64027380Y-39182142D01*
X64027380Y-38801190D01*
X64075000Y-38705952D01*
X64122619Y-38658333D01*
X64217857Y-38610714D01*
X64360714Y-38610714D01*
X64455952Y-38658333D01*
X64503571Y-38705952D01*
X64551190Y-38801190D01*
X64551190Y-39182142D01*
X65027380Y-38182142D02*
X64027380Y-38182142D01*
X64027380Y-37515476D02*
X64027380Y-37325000D01*
X64075000Y-37229761D01*
X64170238Y-37134523D01*
X64360714Y-37086904D01*
X64694047Y-37086904D01*
X64884523Y-37134523D01*
X64979761Y-37229761D01*
X65027380Y-37325000D01*
X65027380Y-37515476D01*
X64979761Y-37610714D01*
X64884523Y-37705952D01*
X64694047Y-37753571D01*
X64360714Y-37753571D01*
X64170238Y-37705952D01*
X64075000Y-37610714D01*
X64027380Y-37515476D01*
X64027380Y-35991666D02*
X64027380Y-35372619D01*
X64408333Y-35705952D01*
X64408333Y-35563095D01*
X64455952Y-35467857D01*
X64503571Y-35420238D01*
X64598809Y-35372619D01*
X64836904Y-35372619D01*
X64932142Y-35420238D01*
X64979761Y-35467857D01*
X65027380Y-35563095D01*
X65027380Y-35848809D01*
X64979761Y-35944047D01*
X64932142Y-35991666D01*
X64360714Y-34515476D02*
X65027380Y-34515476D01*
X63979761Y-34753571D02*
X64694047Y-34991666D01*
X64694047Y-34372619D01*
X61545000Y-39658333D02*
X61497380Y-39753571D01*
X61497380Y-39896428D01*
X61545000Y-40039285D01*
X61640238Y-40134523D01*
X61735476Y-40182142D01*
X61925952Y-40229761D01*
X62068809Y-40229761D01*
X62259285Y-40182142D01*
X62354523Y-40134523D01*
X62449761Y-40039285D01*
X62497380Y-39896428D01*
X62497380Y-39801190D01*
X62449761Y-39658333D01*
X62402142Y-39610714D01*
X62068809Y-39610714D01*
X62068809Y-39801190D01*
X62497380Y-39182142D02*
X61497380Y-39182142D01*
X61497380Y-38801190D01*
X61545000Y-38705952D01*
X61592619Y-38658333D01*
X61687857Y-38610714D01*
X61830714Y-38610714D01*
X61925952Y-38658333D01*
X61973571Y-38705952D01*
X62021190Y-38801190D01*
X62021190Y-39182142D01*
X62497380Y-38182142D02*
X61497380Y-38182142D01*
X61497380Y-37515476D02*
X61497380Y-37325000D01*
X61545000Y-37229761D01*
X61640238Y-37134523D01*
X61830714Y-37086904D01*
X62164047Y-37086904D01*
X62354523Y-37134523D01*
X62449761Y-37229761D01*
X62497380Y-37325000D01*
X62497380Y-37515476D01*
X62449761Y-37610714D01*
X62354523Y-37705952D01*
X62164047Y-37753571D01*
X61830714Y-37753571D01*
X61640238Y-37705952D01*
X61545000Y-37610714D01*
X61497380Y-37515476D01*
X61497380Y-35991666D02*
X61497380Y-35372619D01*
X61878333Y-35705952D01*
X61878333Y-35563095D01*
X61925952Y-35467857D01*
X61973571Y-35420238D01*
X62068809Y-35372619D01*
X62306904Y-35372619D01*
X62402142Y-35420238D01*
X62449761Y-35467857D01*
X62497380Y-35563095D01*
X62497380Y-35848809D01*
X62449761Y-35944047D01*
X62402142Y-35991666D01*
X61592619Y-34991666D02*
X61545000Y-34944047D01*
X61497380Y-34848809D01*
X61497380Y-34610714D01*
X61545000Y-34515476D01*
X61592619Y-34467857D01*
X61687857Y-34420238D01*
X61783095Y-34420238D01*
X61925952Y-34467857D01*
X62497380Y-35039285D01*
X62497380Y-34420238D01*
X59025000Y-39688333D02*
X58977380Y-39783571D01*
X58977380Y-39926428D01*
X59025000Y-40069285D01*
X59120238Y-40164523D01*
X59215476Y-40212142D01*
X59405952Y-40259761D01*
X59548809Y-40259761D01*
X59739285Y-40212142D01*
X59834523Y-40164523D01*
X59929761Y-40069285D01*
X59977380Y-39926428D01*
X59977380Y-39831190D01*
X59929761Y-39688333D01*
X59882142Y-39640714D01*
X59548809Y-39640714D01*
X59548809Y-39831190D01*
X59977380Y-39212142D02*
X58977380Y-39212142D01*
X58977380Y-38831190D01*
X59025000Y-38735952D01*
X59072619Y-38688333D01*
X59167857Y-38640714D01*
X59310714Y-38640714D01*
X59405952Y-38688333D01*
X59453571Y-38735952D01*
X59501190Y-38831190D01*
X59501190Y-39212142D01*
X59977380Y-38212142D02*
X58977380Y-38212142D01*
X58977380Y-37545476D02*
X58977380Y-37355000D01*
X59025000Y-37259761D01*
X59120238Y-37164523D01*
X59310714Y-37116904D01*
X59644047Y-37116904D01*
X59834523Y-37164523D01*
X59929761Y-37259761D01*
X59977380Y-37355000D01*
X59977380Y-37545476D01*
X59929761Y-37640714D01*
X59834523Y-37735952D01*
X59644047Y-37783571D01*
X59310714Y-37783571D01*
X59120238Y-37735952D01*
X59025000Y-37640714D01*
X58977380Y-37545476D01*
X59072619Y-35974047D02*
X59025000Y-35926428D01*
X58977380Y-35831190D01*
X58977380Y-35593095D01*
X59025000Y-35497857D01*
X59072619Y-35450238D01*
X59167857Y-35402619D01*
X59263095Y-35402619D01*
X59405952Y-35450238D01*
X59977380Y-36021666D01*
X59977380Y-35402619D01*
X58977380Y-34545476D02*
X58977380Y-34735952D01*
X59025000Y-34831190D01*
X59072619Y-34878809D01*
X59215476Y-34974047D01*
X59405952Y-35021666D01*
X59786904Y-35021666D01*
X59882142Y-34974047D01*
X59929761Y-34926428D01*
X59977380Y-34831190D01*
X59977380Y-34640714D01*
X59929761Y-34545476D01*
X59882142Y-34497857D01*
X59786904Y-34450238D01*
X59548809Y-34450238D01*
X59453571Y-34497857D01*
X59405952Y-34545476D01*
X59358333Y-34640714D01*
X59358333Y-34831190D01*
X59405952Y-34926428D01*
X59453571Y-34974047D01*
X59548809Y-35021666D01*
X56225000Y-39598333D02*
X56177380Y-39693571D01*
X56177380Y-39836428D01*
X56225000Y-39979285D01*
X56320238Y-40074523D01*
X56415476Y-40122142D01*
X56605952Y-40169761D01*
X56748809Y-40169761D01*
X56939285Y-40122142D01*
X57034523Y-40074523D01*
X57129761Y-39979285D01*
X57177380Y-39836428D01*
X57177380Y-39741190D01*
X57129761Y-39598333D01*
X57082142Y-39550714D01*
X56748809Y-39550714D01*
X56748809Y-39741190D01*
X57177380Y-39122142D02*
X56177380Y-39122142D01*
X56177380Y-38741190D01*
X56225000Y-38645952D01*
X56272619Y-38598333D01*
X56367857Y-38550714D01*
X56510714Y-38550714D01*
X56605952Y-38598333D01*
X56653571Y-38645952D01*
X56701190Y-38741190D01*
X56701190Y-39122142D01*
X57177380Y-38122142D02*
X56177380Y-38122142D01*
X56177380Y-37455476D02*
X56177380Y-37265000D01*
X56225000Y-37169761D01*
X56320238Y-37074523D01*
X56510714Y-37026904D01*
X56844047Y-37026904D01*
X57034523Y-37074523D01*
X57129761Y-37169761D01*
X57177380Y-37265000D01*
X57177380Y-37455476D01*
X57129761Y-37550714D01*
X57034523Y-37645952D01*
X56844047Y-37693571D01*
X56510714Y-37693571D01*
X56320238Y-37645952D01*
X56225000Y-37550714D01*
X56177380Y-37455476D01*
X56272619Y-35884047D02*
X56225000Y-35836428D01*
X56177380Y-35741190D01*
X56177380Y-35503095D01*
X56225000Y-35407857D01*
X56272619Y-35360238D01*
X56367857Y-35312619D01*
X56463095Y-35312619D01*
X56605952Y-35360238D01*
X57177380Y-35931666D01*
X57177380Y-35312619D01*
X56177380Y-34979285D02*
X56177380Y-34312619D01*
X57177380Y-34741190D01*
X53865000Y-39538333D02*
X53817380Y-39633571D01*
X53817380Y-39776428D01*
X53865000Y-39919285D01*
X53960238Y-40014523D01*
X54055476Y-40062142D01*
X54245952Y-40109761D01*
X54388809Y-40109761D01*
X54579285Y-40062142D01*
X54674523Y-40014523D01*
X54769761Y-39919285D01*
X54817380Y-39776428D01*
X54817380Y-39681190D01*
X54769761Y-39538333D01*
X54722142Y-39490714D01*
X54388809Y-39490714D01*
X54388809Y-39681190D01*
X54817380Y-39062142D02*
X53817380Y-39062142D01*
X53817380Y-38681190D01*
X53865000Y-38585952D01*
X53912619Y-38538333D01*
X54007857Y-38490714D01*
X54150714Y-38490714D01*
X54245952Y-38538333D01*
X54293571Y-38585952D01*
X54341190Y-38681190D01*
X54341190Y-39062142D01*
X54817380Y-38062142D02*
X53817380Y-38062142D01*
X53817380Y-37395476D02*
X53817380Y-37205000D01*
X53865000Y-37109761D01*
X53960238Y-37014523D01*
X54150714Y-36966904D01*
X54484047Y-36966904D01*
X54674523Y-37014523D01*
X54769761Y-37109761D01*
X54817380Y-37205000D01*
X54817380Y-37395476D01*
X54769761Y-37490714D01*
X54674523Y-37585952D01*
X54484047Y-37633571D01*
X54150714Y-37633571D01*
X53960238Y-37585952D01*
X53865000Y-37490714D01*
X53817380Y-37395476D01*
X54817380Y-35252619D02*
X54817380Y-35824047D01*
X54817380Y-35538333D02*
X53817380Y-35538333D01*
X53960238Y-35633571D01*
X54055476Y-35728809D01*
X54103095Y-35824047D01*
X53912619Y-34871666D02*
X53865000Y-34824047D01*
X53817380Y-34728809D01*
X53817380Y-34490714D01*
X53865000Y-34395476D01*
X53912619Y-34347857D01*
X54007857Y-34300238D01*
X54103095Y-34300238D01*
X54245952Y-34347857D01*
X54817380Y-34919285D01*
X54817380Y-34300238D01*
X51405000Y-39518333D02*
X51357380Y-39613571D01*
X51357380Y-39756428D01*
X51405000Y-39899285D01*
X51500238Y-39994523D01*
X51595476Y-40042142D01*
X51785952Y-40089761D01*
X51928809Y-40089761D01*
X52119285Y-40042142D01*
X52214523Y-39994523D01*
X52309761Y-39899285D01*
X52357380Y-39756428D01*
X52357380Y-39661190D01*
X52309761Y-39518333D01*
X52262142Y-39470714D01*
X51928809Y-39470714D01*
X51928809Y-39661190D01*
X52357380Y-39042142D02*
X51357380Y-39042142D01*
X51357380Y-38661190D01*
X51405000Y-38565952D01*
X51452619Y-38518333D01*
X51547857Y-38470714D01*
X51690714Y-38470714D01*
X51785952Y-38518333D01*
X51833571Y-38565952D01*
X51881190Y-38661190D01*
X51881190Y-39042142D01*
X52357380Y-38042142D02*
X51357380Y-38042142D01*
X51357380Y-37375476D02*
X51357380Y-37185000D01*
X51405000Y-37089761D01*
X51500238Y-36994523D01*
X51690714Y-36946904D01*
X52024047Y-36946904D01*
X52214523Y-36994523D01*
X52309761Y-37089761D01*
X52357380Y-37185000D01*
X52357380Y-37375476D01*
X52309761Y-37470714D01*
X52214523Y-37565952D01*
X52024047Y-37613571D01*
X51690714Y-37613571D01*
X51500238Y-37565952D01*
X51405000Y-37470714D01*
X51357380Y-37375476D01*
X52357380Y-35232619D02*
X52357380Y-35804047D01*
X52357380Y-35518333D02*
X51357380Y-35518333D01*
X51500238Y-35613571D01*
X51595476Y-35708809D01*
X51643095Y-35804047D01*
X51357380Y-34327857D02*
X51357380Y-34804047D01*
X51833571Y-34851666D01*
X51785952Y-34804047D01*
X51738333Y-34708809D01*
X51738333Y-34470714D01*
X51785952Y-34375476D01*
X51833571Y-34327857D01*
X51928809Y-34280238D01*
X52166904Y-34280238D01*
X52262142Y-34327857D01*
X52309761Y-34375476D01*
X52357380Y-34470714D01*
X52357380Y-34708809D01*
X52309761Y-34804047D01*
X52262142Y-34851666D01*
X54897380Y-28093095D02*
X53897380Y-28093095D01*
X53992619Y-27664523D02*
X53945000Y-27616904D01*
X53897380Y-27521666D01*
X53897380Y-27283571D01*
X53945000Y-27188333D01*
X53992619Y-27140714D01*
X54087857Y-27093095D01*
X54183095Y-27093095D01*
X54325952Y-27140714D01*
X54897380Y-27712142D01*
X54897380Y-27093095D01*
X54802142Y-26093095D02*
X54849761Y-26140714D01*
X54897380Y-26283571D01*
X54897380Y-26378809D01*
X54849761Y-26521666D01*
X54754523Y-26616904D01*
X54659285Y-26664523D01*
X54468809Y-26712142D01*
X54325952Y-26712142D01*
X54135476Y-26664523D01*
X54040238Y-26616904D01*
X53945000Y-26521666D01*
X53897380Y-26378809D01*
X53897380Y-26283571D01*
X53945000Y-26140714D01*
X53992619Y-26093095D01*
X54849761Y-24950238D02*
X54897380Y-24807380D01*
X54897380Y-24569285D01*
X54849761Y-24474047D01*
X54802142Y-24426428D01*
X54706904Y-24378809D01*
X54611666Y-24378809D01*
X54516428Y-24426428D01*
X54468809Y-24474047D01*
X54421190Y-24569285D01*
X54373571Y-24759761D01*
X54325952Y-24855000D01*
X54278333Y-24902619D01*
X54183095Y-24950238D01*
X54087857Y-24950238D01*
X53992619Y-24902619D01*
X53945000Y-24855000D01*
X53897380Y-24759761D01*
X53897380Y-24521666D01*
X53945000Y-24378809D01*
X54802142Y-23378809D02*
X54849761Y-23426428D01*
X54897380Y-23569285D01*
X54897380Y-23664523D01*
X54849761Y-23807380D01*
X54754523Y-23902619D01*
X54659285Y-23950238D01*
X54468809Y-23997857D01*
X54325952Y-23997857D01*
X54135476Y-23950238D01*
X54040238Y-23902619D01*
X53945000Y-23807380D01*
X53897380Y-23664523D01*
X53897380Y-23569285D01*
X53945000Y-23426428D01*
X53992619Y-23378809D01*
X54897380Y-22474047D02*
X54897380Y-22950238D01*
X53897380Y-22950238D01*
X52357380Y-28116904D02*
X51357380Y-28116904D01*
X51452619Y-27688333D02*
X51405000Y-27640714D01*
X51357380Y-27545476D01*
X51357380Y-27307380D01*
X51405000Y-27212142D01*
X51452619Y-27164523D01*
X51547857Y-27116904D01*
X51643095Y-27116904D01*
X51785952Y-27164523D01*
X52357380Y-27735952D01*
X52357380Y-27116904D01*
X52262142Y-26116904D02*
X52309761Y-26164523D01*
X52357380Y-26307380D01*
X52357380Y-26402619D01*
X52309761Y-26545476D01*
X52214523Y-26640714D01*
X52119285Y-26688333D01*
X51928809Y-26735952D01*
X51785952Y-26735952D01*
X51595476Y-26688333D01*
X51500238Y-26640714D01*
X51405000Y-26545476D01*
X51357380Y-26402619D01*
X51357380Y-26307380D01*
X51405000Y-26164523D01*
X51452619Y-26116904D01*
X52309761Y-24974047D02*
X52357380Y-24831190D01*
X52357380Y-24593095D01*
X52309761Y-24497857D01*
X52262142Y-24450238D01*
X52166904Y-24402619D01*
X52071666Y-24402619D01*
X51976428Y-24450238D01*
X51928809Y-24497857D01*
X51881190Y-24593095D01*
X51833571Y-24783571D01*
X51785952Y-24878809D01*
X51738333Y-24926428D01*
X51643095Y-24974047D01*
X51547857Y-24974047D01*
X51452619Y-24926428D01*
X51405000Y-24878809D01*
X51357380Y-24783571D01*
X51357380Y-24545476D01*
X51405000Y-24402619D01*
X52071666Y-24021666D02*
X52071666Y-23545476D01*
X52357380Y-24116904D02*
X51357380Y-23783571D01*
X52357380Y-23450238D01*
D11*
X64659285Y-97127380D02*
X64659285Y-97936904D01*
X64706904Y-98032142D01*
X64754523Y-98079761D01*
X64849761Y-98127380D01*
X65040238Y-98127380D01*
X65135476Y-98079761D01*
X65183095Y-98032142D01*
X65230714Y-97936904D01*
X65230714Y-97127380D01*
X65706904Y-98127380D02*
X65706904Y-97127380D01*
X65945000Y-97127380D01*
X66087857Y-97175000D01*
X66183095Y-97270238D01*
X66230714Y-97365476D01*
X66278333Y-97555952D01*
X66278333Y-97698809D01*
X66230714Y-97889285D01*
X66183095Y-97984523D01*
X66087857Y-98079761D01*
X65945000Y-98127380D01*
X65706904Y-98127380D01*
X50765952Y-94947380D02*
X50432619Y-94471190D01*
X50194523Y-94947380D02*
X50194523Y-93947380D01*
X50575476Y-93947380D01*
X50670714Y-93995000D01*
X50718333Y-94042619D01*
X50765952Y-94137857D01*
X50765952Y-94280714D01*
X50718333Y-94375952D01*
X50670714Y-94423571D01*
X50575476Y-94471190D01*
X50194523Y-94471190D01*
X51146904Y-94661666D02*
X51623095Y-94661666D01*
X51051666Y-94947380D02*
X51385000Y-93947380D01*
X51718333Y-94947380D01*
X52051666Y-94947380D02*
X52051666Y-93947380D01*
X52289761Y-93947380D01*
X52432619Y-93995000D01*
X52527857Y-94090238D01*
X52575476Y-94185476D01*
X52623095Y-94375952D01*
X52623095Y-94518809D01*
X52575476Y-94709285D01*
X52527857Y-94804523D01*
X52432619Y-94899761D01*
X52289761Y-94947380D01*
X52051666Y-94947380D01*
X53051666Y-94947380D02*
X53051666Y-93947380D01*
X53718333Y-93947380D02*
X53908809Y-93947380D01*
X54004047Y-93995000D01*
X54099285Y-94090238D01*
X54146904Y-94280714D01*
X54146904Y-94614047D01*
X54099285Y-94804523D01*
X54004047Y-94899761D01*
X53908809Y-94947380D01*
X53718333Y-94947380D01*
X53623095Y-94899761D01*
X53527857Y-94804523D01*
X53480238Y-94614047D01*
X53480238Y-94280714D01*
X53527857Y-94090238D01*
X53623095Y-93995000D01*
X53718333Y-93947380D01*
X55194523Y-93947380D02*
X55765952Y-93947380D01*
X55480238Y-94947380D02*
X55480238Y-93947380D01*
X56004047Y-93947380D02*
X56670714Y-94947380D01*
X56670714Y-93947380D02*
X56004047Y-94947380D01*
D10*
X66964523Y-80967380D02*
X66393095Y-80967380D01*
X66678809Y-80967380D02*
X66678809Y-79967380D01*
X66583571Y-80110238D01*
X66488333Y-80205476D01*
X66393095Y-80253095D01*
X67583571Y-79967380D02*
X67678809Y-79967380D01*
X67774047Y-80015000D01*
X67821666Y-80062619D01*
X67869285Y-80157857D01*
X67916904Y-80348333D01*
X67916904Y-80586428D01*
X67869285Y-80776904D01*
X67821666Y-80872142D01*
X67774047Y-80919761D01*
X67678809Y-80967380D01*
X67583571Y-80967380D01*
X67488333Y-80919761D01*
X67440714Y-80872142D01*
X67393095Y-80776904D01*
X67345476Y-80586428D01*
X67345476Y-80348333D01*
X67393095Y-80157857D01*
X67440714Y-80062619D01*
X67488333Y-80015000D01*
X67583571Y-79967380D01*
X68345476Y-80967380D02*
X68345476Y-79967380D01*
X68916904Y-80967380D02*
X68488333Y-80395952D01*
X68916904Y-79967380D02*
X68345476Y-80538809D01*
X60965476Y-73163571D02*
X61108333Y-73211190D01*
X61155952Y-73258809D01*
X61203571Y-73354047D01*
X61203571Y-73496904D01*
X61155952Y-73592142D01*
X61108333Y-73639761D01*
X61013095Y-73687380D01*
X60632142Y-73687380D01*
X60632142Y-72687380D01*
X60965476Y-72687380D01*
X61060714Y-72735000D01*
X61108333Y-72782619D01*
X61155952Y-72877857D01*
X61155952Y-72973095D01*
X61108333Y-73068333D01*
X61060714Y-73115952D01*
X60965476Y-73163571D01*
X60632142Y-73163571D01*
X61584523Y-73639761D02*
X61727380Y-73687380D01*
X61965476Y-73687380D01*
X62060714Y-73639761D01*
X62108333Y-73592142D01*
X62155952Y-73496904D01*
X62155952Y-73401666D01*
X62108333Y-73306428D01*
X62060714Y-73258809D01*
X61965476Y-73211190D01*
X61775000Y-73163571D01*
X61679761Y-73115952D01*
X61632142Y-73068333D01*
X61584523Y-72973095D01*
X61584523Y-72877857D01*
X61632142Y-72782619D01*
X61679761Y-72735000D01*
X61775000Y-72687380D01*
X62013095Y-72687380D01*
X62155952Y-72735000D01*
X62536904Y-73639761D02*
X62679761Y-73687380D01*
X62917857Y-73687380D01*
X63013095Y-73639761D01*
X63060714Y-73592142D01*
X63108333Y-73496904D01*
X63108333Y-73401666D01*
X63060714Y-73306428D01*
X63013095Y-73258809D01*
X62917857Y-73211190D01*
X62727380Y-73163571D01*
X62632142Y-73115952D01*
X62584523Y-73068333D01*
X62536904Y-72973095D01*
X62536904Y-72877857D01*
X62584523Y-72782619D01*
X62632142Y-72735000D01*
X62727380Y-72687380D01*
X62965476Y-72687380D01*
X63108333Y-72735000D01*
X64060714Y-73687380D02*
X63489285Y-73687380D01*
X63775000Y-73687380D02*
X63775000Y-72687380D01*
X63679761Y-72830238D01*
X63584523Y-72925476D01*
X63489285Y-72973095D01*
X64394047Y-72687380D02*
X65013095Y-72687380D01*
X64679761Y-73068333D01*
X64822619Y-73068333D01*
X64917857Y-73115952D01*
X64965476Y-73163571D01*
X65013095Y-73258809D01*
X65013095Y-73496904D01*
X64965476Y-73592142D01*
X64917857Y-73639761D01*
X64822619Y-73687380D01*
X64536904Y-73687380D01*
X64441666Y-73639761D01*
X64394047Y-73592142D01*
X65584523Y-73115952D02*
X65489285Y-73068333D01*
X65441666Y-73020714D01*
X65394047Y-72925476D01*
X65394047Y-72877857D01*
X65441666Y-72782619D01*
X65489285Y-72735000D01*
X65584523Y-72687380D01*
X65775000Y-72687380D01*
X65870238Y-72735000D01*
X65917857Y-72782619D01*
X65965476Y-72877857D01*
X65965476Y-72925476D01*
X65917857Y-73020714D01*
X65870238Y-73068333D01*
X65775000Y-73115952D01*
X65584523Y-73115952D01*
X65489285Y-73163571D01*
X65441666Y-73211190D01*
X65394047Y-73306428D01*
X65394047Y-73496904D01*
X65441666Y-73592142D01*
X65489285Y-73639761D01*
X65584523Y-73687380D01*
X65775000Y-73687380D01*
X65870238Y-73639761D01*
X65917857Y-73592142D01*
X65965476Y-73496904D01*
X65965476Y-73306428D01*
X65917857Y-73211190D01*
X65870238Y-73163571D01*
X65775000Y-73115952D01*
X48835000Y-39608333D02*
X48787380Y-39703571D01*
X48787380Y-39846428D01*
X48835000Y-39989285D01*
X48930238Y-40084523D01*
X49025476Y-40132142D01*
X49215952Y-40179761D01*
X49358809Y-40179761D01*
X49549285Y-40132142D01*
X49644523Y-40084523D01*
X49739761Y-39989285D01*
X49787380Y-39846428D01*
X49787380Y-39751190D01*
X49739761Y-39608333D01*
X49692142Y-39560714D01*
X49358809Y-39560714D01*
X49358809Y-39751190D01*
X49787380Y-39132142D02*
X48787380Y-39132142D01*
X48787380Y-38751190D01*
X48835000Y-38655952D01*
X48882619Y-38608333D01*
X48977857Y-38560714D01*
X49120714Y-38560714D01*
X49215952Y-38608333D01*
X49263571Y-38655952D01*
X49311190Y-38751190D01*
X49311190Y-39132142D01*
X49787380Y-38132142D02*
X48787380Y-38132142D01*
X48787380Y-37465476D02*
X48787380Y-37275000D01*
X48835000Y-37179761D01*
X48930238Y-37084523D01*
X49120714Y-37036904D01*
X49454047Y-37036904D01*
X49644523Y-37084523D01*
X49739761Y-37179761D01*
X49787380Y-37275000D01*
X49787380Y-37465476D01*
X49739761Y-37560714D01*
X49644523Y-37655952D01*
X49454047Y-37703571D01*
X49120714Y-37703571D01*
X48930238Y-37655952D01*
X48835000Y-37560714D01*
X48787380Y-37465476D01*
X48882619Y-35894047D02*
X48835000Y-35846428D01*
X48787380Y-35751190D01*
X48787380Y-35513095D01*
X48835000Y-35417857D01*
X48882619Y-35370238D01*
X48977857Y-35322619D01*
X49073095Y-35322619D01*
X49215952Y-35370238D01*
X49787380Y-35941666D01*
X49787380Y-35322619D01*
X48787380Y-34989285D02*
X48787380Y-34370238D01*
X49168333Y-34703571D01*
X49168333Y-34560714D01*
X49215952Y-34465476D01*
X49263571Y-34417857D01*
X49358809Y-34370238D01*
X49596904Y-34370238D01*
X49692142Y-34417857D01*
X49739761Y-34465476D01*
X49787380Y-34560714D01*
X49787380Y-34846428D01*
X49739761Y-34941666D01*
X49692142Y-34989285D01*
X48817380Y-27959285D02*
X48817380Y-27768809D01*
X48865000Y-27673571D01*
X48960238Y-27578333D01*
X49150714Y-27530714D01*
X49484047Y-27530714D01*
X49674523Y-27578333D01*
X49769761Y-27673571D01*
X49817380Y-27768809D01*
X49817380Y-27959285D01*
X49769761Y-28054523D01*
X49674523Y-28149761D01*
X49484047Y-28197380D01*
X49150714Y-28197380D01*
X48960238Y-28149761D01*
X48865000Y-28054523D01*
X48817380Y-27959285D01*
X49817380Y-27102142D02*
X48817380Y-27102142D01*
X49817380Y-26530714D01*
X48817380Y-26530714D01*
X49293571Y-26054523D02*
X49293571Y-25721190D01*
X49817380Y-25578333D02*
X49817380Y-26054523D01*
X48817380Y-26054523D01*
X48817380Y-25578333D01*
X48817380Y-24483095D02*
X49817380Y-24245000D01*
X49103095Y-24054523D01*
X49817380Y-23864047D01*
X48817380Y-23625952D01*
X49817380Y-23245000D02*
X48817380Y-23245000D01*
X49817380Y-22197380D02*
X49341190Y-22530714D01*
X49817380Y-22768809D02*
X48817380Y-22768809D01*
X48817380Y-22387857D01*
X48865000Y-22292619D01*
X48912619Y-22245000D01*
X49007857Y-22197380D01*
X49150714Y-22197380D01*
X49245952Y-22245000D01*
X49293571Y-22292619D01*
X49341190Y-22387857D01*
X49341190Y-22768809D01*
X49293571Y-21768809D02*
X49293571Y-21435476D01*
X49817380Y-21292619D02*
X49817380Y-21768809D01*
X48817380Y-21768809D01*
X48817380Y-21292619D01*
X46255000Y-27547380D02*
X46207380Y-27642619D01*
X46207380Y-27785476D01*
X46255000Y-27928333D01*
X46350238Y-28023571D01*
X46445476Y-28071190D01*
X46635952Y-28118809D01*
X46778809Y-28118809D01*
X46969285Y-28071190D01*
X47064523Y-28023571D01*
X47159761Y-27928333D01*
X47207380Y-27785476D01*
X47207380Y-27690238D01*
X47159761Y-27547380D01*
X47112142Y-27499761D01*
X46778809Y-27499761D01*
X46778809Y-27690238D01*
X47207380Y-27071190D02*
X46207380Y-27071190D01*
X46207380Y-26690238D01*
X46255000Y-26595000D01*
X46302619Y-26547380D01*
X46397857Y-26499761D01*
X46540714Y-26499761D01*
X46635952Y-26547380D01*
X46683571Y-26595000D01*
X46731190Y-26690238D01*
X46731190Y-27071190D01*
X47159761Y-26118809D02*
X47207380Y-25975952D01*
X47207380Y-25737857D01*
X47159761Y-25642619D01*
X47112142Y-25595000D01*
X47016904Y-25547380D01*
X46921666Y-25547380D01*
X46826428Y-25595000D01*
X46778809Y-25642619D01*
X46731190Y-25737857D01*
X46683571Y-25928333D01*
X46635952Y-26023571D01*
X46588333Y-26071190D01*
X46493095Y-26118809D01*
X46397857Y-26118809D01*
X46302619Y-26071190D01*
X46255000Y-26023571D01*
X46207380Y-25928333D01*
X46207380Y-25690238D01*
X46255000Y-25547380D01*
X46207380Y-24499761D02*
X46207380Y-23928333D01*
X47207380Y-24214047D02*
X46207380Y-24214047D01*
X46207380Y-23690238D02*
X47207380Y-23023571D01*
X46207380Y-23023571D02*
X47207380Y-23690238D01*
X46275000Y-39086428D02*
X46227380Y-39181666D01*
X46227380Y-39324523D01*
X46275000Y-39467380D01*
X46370238Y-39562619D01*
X46465476Y-39610238D01*
X46655952Y-39657857D01*
X46798809Y-39657857D01*
X46989285Y-39610238D01*
X47084523Y-39562619D01*
X47179761Y-39467380D01*
X47227380Y-39324523D01*
X47227380Y-39229285D01*
X47179761Y-39086428D01*
X47132142Y-39038809D01*
X46798809Y-39038809D01*
X46798809Y-39229285D01*
X47227380Y-38610238D02*
X46227380Y-38610238D01*
X46227380Y-38229285D01*
X46275000Y-38134047D01*
X46322619Y-38086428D01*
X46417857Y-38038809D01*
X46560714Y-38038809D01*
X46655952Y-38086428D01*
X46703571Y-38134047D01*
X46751190Y-38229285D01*
X46751190Y-38610238D01*
X47179761Y-37657857D02*
X47227380Y-37515000D01*
X47227380Y-37276904D01*
X47179761Y-37181666D01*
X47132142Y-37134047D01*
X47036904Y-37086428D01*
X46941666Y-37086428D01*
X46846428Y-37134047D01*
X46798809Y-37181666D01*
X46751190Y-37276904D01*
X46703571Y-37467380D01*
X46655952Y-37562619D01*
X46608333Y-37610238D01*
X46513095Y-37657857D01*
X46417857Y-37657857D01*
X46322619Y-37610238D01*
X46275000Y-37562619D01*
X46227380Y-37467380D01*
X46227380Y-37229285D01*
X46275000Y-37086428D01*
X47227380Y-35324523D02*
X46751190Y-35657857D01*
X47227380Y-35895952D02*
X46227380Y-35895952D01*
X46227380Y-35515000D01*
X46275000Y-35419761D01*
X46322619Y-35372142D01*
X46417857Y-35324523D01*
X46560714Y-35324523D01*
X46655952Y-35372142D01*
X46703571Y-35419761D01*
X46751190Y-35515000D01*
X46751190Y-35895952D01*
X46227380Y-34991190D02*
X47227380Y-34324523D01*
X46227380Y-34324523D02*
X47227380Y-34991190D01*
X103243095Y-43205000D02*
X103147857Y-43157380D01*
X103005000Y-43157380D01*
X102862142Y-43205000D01*
X102766904Y-43300238D01*
X102719285Y-43395476D01*
X102671666Y-43585952D01*
X102671666Y-43728809D01*
X102719285Y-43919285D01*
X102766904Y-44014523D01*
X102862142Y-44109761D01*
X103005000Y-44157380D01*
X103100238Y-44157380D01*
X103243095Y-44109761D01*
X103290714Y-44062142D01*
X103290714Y-43728809D01*
X103100238Y-43728809D01*
X103719285Y-44157380D02*
X103719285Y-43157380D01*
X104290714Y-44157380D01*
X104290714Y-43157380D01*
X104766904Y-44157380D02*
X104766904Y-43157380D01*
X105005000Y-43157380D01*
X105147857Y-43205000D01*
X105243095Y-43300238D01*
X105290714Y-43395476D01*
X105338333Y-43585952D01*
X105338333Y-43728809D01*
X105290714Y-43919285D01*
X105243095Y-44014523D01*
X105147857Y-44109761D01*
X105005000Y-44157380D01*
X104766904Y-44157380D01*
X102793095Y-48375000D02*
X102697857Y-48327380D01*
X102555000Y-48327380D01*
X102412142Y-48375000D01*
X102316904Y-48470238D01*
X102269285Y-48565476D01*
X102221666Y-48755952D01*
X102221666Y-48898809D01*
X102269285Y-49089285D01*
X102316904Y-49184523D01*
X102412142Y-49279761D01*
X102555000Y-49327380D01*
X102650238Y-49327380D01*
X102793095Y-49279761D01*
X102840714Y-49232142D01*
X102840714Y-48898809D01*
X102650238Y-48898809D01*
X103269285Y-49327380D02*
X103269285Y-48327380D01*
X103840714Y-49327380D01*
X103840714Y-48327380D01*
X104316904Y-49327380D02*
X104316904Y-48327380D01*
X104555000Y-48327380D01*
X104697857Y-48375000D01*
X104793095Y-48470238D01*
X104840714Y-48565476D01*
X104888333Y-48755952D01*
X104888333Y-48898809D01*
X104840714Y-49089285D01*
X104793095Y-49184523D01*
X104697857Y-49279761D01*
X104555000Y-49327380D01*
X104316904Y-49327380D01*
X101915000Y-53536428D02*
X102676904Y-53536428D01*
X102295952Y-53917380D02*
X102295952Y-53155476D01*
X103057857Y-52917380D02*
X103676904Y-52917380D01*
X103343571Y-53298333D01*
X103486428Y-53298333D01*
X103581666Y-53345952D01*
X103629285Y-53393571D01*
X103676904Y-53488809D01*
X103676904Y-53726904D01*
X103629285Y-53822142D01*
X103581666Y-53869761D01*
X103486428Y-53917380D01*
X103200714Y-53917380D01*
X103105476Y-53869761D01*
X103057857Y-53822142D01*
X104105476Y-53822142D02*
X104153095Y-53869761D01*
X104105476Y-53917380D01*
X104057857Y-53869761D01*
X104105476Y-53822142D01*
X104105476Y-53917380D01*
X104486428Y-52917380D02*
X105105476Y-52917380D01*
X104772142Y-53298333D01*
X104915000Y-53298333D01*
X105010238Y-53345952D01*
X105057857Y-53393571D01*
X105105476Y-53488809D01*
X105105476Y-53726904D01*
X105057857Y-53822142D01*
X105010238Y-53869761D01*
X104915000Y-53917380D01*
X104629285Y-53917380D01*
X104534047Y-53869761D01*
X104486428Y-53822142D01*
X105391190Y-52917380D02*
X105724523Y-53917380D01*
X106057857Y-52917380D01*
X102449285Y-38146428D02*
X103211190Y-38146428D01*
X102830238Y-38527380D02*
X102830238Y-37765476D01*
X104115952Y-37860714D02*
X104115952Y-38527380D01*
X103877857Y-37479761D02*
X103639761Y-38194047D01*
X104258809Y-38194047D01*
X104496904Y-37527380D02*
X104830238Y-38527380D01*
X105163571Y-37527380D01*
X29661190Y-53600714D02*
X29661190Y-54267380D01*
X29423095Y-53219761D02*
X29185000Y-53934047D01*
X29804047Y-53934047D01*
X30185000Y-54172142D02*
X30232619Y-54219761D01*
X30185000Y-54267380D01*
X30137380Y-54219761D01*
X30185000Y-54172142D01*
X30185000Y-54267380D01*
X30565952Y-53267380D02*
X31232619Y-53267380D01*
X30804047Y-54267380D01*
X31613571Y-54267380D02*
X31613571Y-53267380D01*
X32185000Y-54267380D02*
X31756428Y-53695952D01*
X32185000Y-53267380D02*
X31613571Y-53838809D01*
X81717380Y-52867380D02*
X81145952Y-52867380D01*
X81431666Y-52867380D02*
X81431666Y-51867380D01*
X81336428Y-52010238D01*
X81241190Y-52105476D01*
X81145952Y-52153095D01*
X82336428Y-51867380D02*
X82431666Y-51867380D01*
X82526904Y-51915000D01*
X82574523Y-51962619D01*
X82622142Y-52057857D01*
X82669761Y-52248333D01*
X82669761Y-52486428D01*
X82622142Y-52676904D01*
X82574523Y-52772142D01*
X82526904Y-52819761D01*
X82431666Y-52867380D01*
X82336428Y-52867380D01*
X82241190Y-52819761D01*
X82193571Y-52772142D01*
X82145952Y-52676904D01*
X82098333Y-52486428D01*
X82098333Y-52248333D01*
X82145952Y-52057857D01*
X82193571Y-51962619D01*
X82241190Y-51915000D01*
X82336428Y-51867380D01*
X83288809Y-51867380D02*
X83384047Y-51867380D01*
X83479285Y-51915000D01*
X83526904Y-51962619D01*
X83574523Y-52057857D01*
X83622142Y-52248333D01*
X83622142Y-52486428D01*
X83574523Y-52676904D01*
X83526904Y-52772142D01*
X83479285Y-52819761D01*
X83384047Y-52867380D01*
X83288809Y-52867380D01*
X83193571Y-52819761D01*
X83145952Y-52772142D01*
X83098333Y-52676904D01*
X83050714Y-52486428D01*
X83050714Y-52248333D01*
X83098333Y-52057857D01*
X83145952Y-51962619D01*
X83193571Y-51915000D01*
X83288809Y-51867380D01*
X84050714Y-52200714D02*
X84050714Y-52867380D01*
X84050714Y-52295952D02*
X84098333Y-52248333D01*
X84193571Y-52200714D01*
X84336428Y-52200714D01*
X84431666Y-52248333D01*
X84479285Y-52343571D01*
X84479285Y-52867380D01*
X85288809Y-52343571D02*
X84955476Y-52343571D01*
X84955476Y-52867380D02*
X84955476Y-51867380D01*
X85431666Y-51867380D01*
X90717380Y-97287380D02*
X90717380Y-96287380D01*
X90955476Y-96287380D01*
X91098333Y-96335000D01*
X91193571Y-96430238D01*
X91241190Y-96525476D01*
X91288809Y-96715952D01*
X91288809Y-96858809D01*
X91241190Y-97049285D01*
X91193571Y-97144523D01*
X91098333Y-97239761D01*
X90955476Y-97287380D01*
X90717380Y-97287380D01*
X92288809Y-97287380D02*
X91955476Y-96811190D01*
X91717380Y-97287380D02*
X91717380Y-96287380D01*
X92098333Y-96287380D01*
X92193571Y-96335000D01*
X92241190Y-96382619D01*
X92288809Y-96477857D01*
X92288809Y-96620714D01*
X92241190Y-96715952D01*
X92193571Y-96763571D01*
X92098333Y-96811190D01*
X91717380Y-96811190D01*
X92669761Y-97001666D02*
X93145952Y-97001666D01*
X92574523Y-97287380D02*
X92907857Y-96287380D01*
X93241190Y-97287380D01*
X93717380Y-96715952D02*
X93622142Y-96668333D01*
X93574523Y-96620714D01*
X93526904Y-96525476D01*
X93526904Y-96477857D01*
X93574523Y-96382619D01*
X93622142Y-96335000D01*
X93717380Y-96287380D01*
X93907857Y-96287380D01*
X94003095Y-96335000D01*
X94050714Y-96382619D01*
X94098333Y-96477857D01*
X94098333Y-96525476D01*
X94050714Y-96620714D01*
X94003095Y-96668333D01*
X93907857Y-96715952D01*
X93717380Y-96715952D01*
X93622142Y-96763571D01*
X93574523Y-96811190D01*
X93526904Y-96906428D01*
X93526904Y-97096904D01*
X93574523Y-97192142D01*
X93622142Y-97239761D01*
X93717380Y-97287380D01*
X93907857Y-97287380D01*
X94003095Y-97239761D01*
X94050714Y-97192142D01*
X94098333Y-97096904D01*
X94098333Y-96906428D01*
X94050714Y-96811190D01*
X94003095Y-96763571D01*
X93907857Y-96715952D01*
X95050714Y-97287380D02*
X94479285Y-97287380D01*
X94765000Y-97287380D02*
X94765000Y-96287380D01*
X94669761Y-96430238D01*
X94574523Y-96525476D01*
X94479285Y-96573095D01*
X95622142Y-96715952D02*
X95526904Y-96668333D01*
X95479285Y-96620714D01*
X95431666Y-96525476D01*
X95431666Y-96477857D01*
X95479285Y-96382619D01*
X95526904Y-96335000D01*
X95622142Y-96287380D01*
X95812619Y-96287380D01*
X95907857Y-96335000D01*
X95955476Y-96382619D01*
X96003095Y-96477857D01*
X96003095Y-96525476D01*
X95955476Y-96620714D01*
X95907857Y-96668333D01*
X95812619Y-96715952D01*
X95622142Y-96715952D01*
X95526904Y-96763571D01*
X95479285Y-96811190D01*
X95431666Y-96906428D01*
X95431666Y-97096904D01*
X95479285Y-97192142D01*
X95526904Y-97239761D01*
X95622142Y-97287380D01*
X95812619Y-97287380D01*
X95907857Y-97239761D01*
X95955476Y-97192142D01*
X96003095Y-97096904D01*
X96003095Y-96906428D01*
X95955476Y-96811190D01*
X95907857Y-96763571D01*
X95812619Y-96715952D01*
X96288809Y-96287380D02*
X96622142Y-97287380D01*
X96955476Y-96287380D01*
X77367380Y-96197380D02*
X76795952Y-96197380D01*
X77081666Y-96197380D02*
X77081666Y-95197380D01*
X76986428Y-95340238D01*
X76891190Y-95435476D01*
X76795952Y-95483095D01*
X77986428Y-95197380D02*
X78081666Y-95197380D01*
X78176904Y-95245000D01*
X78224523Y-95292619D01*
X78272142Y-95387857D01*
X78319761Y-95578333D01*
X78319761Y-95816428D01*
X78272142Y-96006904D01*
X78224523Y-96102142D01*
X78176904Y-96149761D01*
X78081666Y-96197380D01*
X77986428Y-96197380D01*
X77891190Y-96149761D01*
X77843571Y-96102142D01*
X77795952Y-96006904D01*
X77748333Y-95816428D01*
X77748333Y-95578333D01*
X77795952Y-95387857D01*
X77843571Y-95292619D01*
X77891190Y-95245000D01*
X77986428Y-95197380D01*
X78938809Y-95197380D02*
X79034047Y-95197380D01*
X79129285Y-95245000D01*
X79176904Y-95292619D01*
X79224523Y-95387857D01*
X79272142Y-95578333D01*
X79272142Y-95816428D01*
X79224523Y-96006904D01*
X79176904Y-96102142D01*
X79129285Y-96149761D01*
X79034047Y-96197380D01*
X78938809Y-96197380D01*
X78843571Y-96149761D01*
X78795952Y-96102142D01*
X78748333Y-96006904D01*
X78700714Y-95816428D01*
X78700714Y-95578333D01*
X78748333Y-95387857D01*
X78795952Y-95292619D01*
X78843571Y-95245000D01*
X78938809Y-95197380D01*
X79700714Y-95530714D02*
X79700714Y-96197380D01*
X79700714Y-95625952D02*
X79748333Y-95578333D01*
X79843571Y-95530714D01*
X79986428Y-95530714D01*
X80081666Y-95578333D01*
X80129285Y-95673571D01*
X80129285Y-96197380D01*
X80938809Y-95673571D02*
X80605476Y-95673571D01*
X80605476Y-96197380D02*
X80605476Y-95197380D01*
X81081666Y-95197380D01*
X76434523Y-88497380D02*
X75863095Y-88497380D01*
X76148809Y-88497380D02*
X76148809Y-87497380D01*
X76053571Y-87640238D01*
X75958333Y-87735476D01*
X75863095Y-87783095D01*
X77053571Y-87497380D02*
X77148809Y-87497380D01*
X77244047Y-87545000D01*
X77291666Y-87592619D01*
X77339285Y-87687857D01*
X77386904Y-87878333D01*
X77386904Y-88116428D01*
X77339285Y-88306904D01*
X77291666Y-88402142D01*
X77244047Y-88449761D01*
X77148809Y-88497380D01*
X77053571Y-88497380D01*
X76958333Y-88449761D01*
X76910714Y-88402142D01*
X76863095Y-88306904D01*
X76815476Y-88116428D01*
X76815476Y-87878333D01*
X76863095Y-87687857D01*
X76910714Y-87592619D01*
X76958333Y-87545000D01*
X77053571Y-87497380D01*
X77815476Y-88497380D02*
X77815476Y-87497380D01*
X78386904Y-88497380D02*
X77958333Y-87925952D01*
X78386904Y-87497380D02*
X77815476Y-88068809D01*
X77134523Y-80717380D02*
X76563095Y-80717380D01*
X76848809Y-80717380D02*
X76848809Y-79717380D01*
X76753571Y-79860238D01*
X76658333Y-79955476D01*
X76563095Y-80003095D01*
X77753571Y-79717380D02*
X77848809Y-79717380D01*
X77944047Y-79765000D01*
X77991666Y-79812619D01*
X78039285Y-79907857D01*
X78086904Y-80098333D01*
X78086904Y-80336428D01*
X78039285Y-80526904D01*
X77991666Y-80622142D01*
X77944047Y-80669761D01*
X77848809Y-80717380D01*
X77753571Y-80717380D01*
X77658333Y-80669761D01*
X77610714Y-80622142D01*
X77563095Y-80526904D01*
X77515476Y-80336428D01*
X77515476Y-80098333D01*
X77563095Y-79907857D01*
X77610714Y-79812619D01*
X77658333Y-79765000D01*
X77753571Y-79717380D01*
X78515476Y-80717380D02*
X78515476Y-79717380D01*
X79086904Y-80717380D02*
X78658333Y-80145952D01*
X79086904Y-79717380D02*
X78515476Y-80288809D01*
X73164523Y-75037380D02*
X72593095Y-75037380D01*
X72878809Y-75037380D02*
X72878809Y-74037380D01*
X72783571Y-74180238D01*
X72688333Y-74275476D01*
X72593095Y-74323095D01*
X73783571Y-74037380D02*
X73878809Y-74037380D01*
X73974047Y-74085000D01*
X74021666Y-74132619D01*
X74069285Y-74227857D01*
X74116904Y-74418333D01*
X74116904Y-74656428D01*
X74069285Y-74846904D01*
X74021666Y-74942142D01*
X73974047Y-74989761D01*
X73878809Y-75037380D01*
X73783571Y-75037380D01*
X73688333Y-74989761D01*
X73640714Y-74942142D01*
X73593095Y-74846904D01*
X73545476Y-74656428D01*
X73545476Y-74418333D01*
X73593095Y-74227857D01*
X73640714Y-74132619D01*
X73688333Y-74085000D01*
X73783571Y-74037380D01*
X74545476Y-75037380D02*
X74545476Y-74037380D01*
X75116904Y-75037380D02*
X74688333Y-74465952D01*
X75116904Y-74037380D02*
X74545476Y-74608809D01*
X72774523Y-69357380D02*
X72203095Y-69357380D01*
X72488809Y-69357380D02*
X72488809Y-68357380D01*
X72393571Y-68500238D01*
X72298333Y-68595476D01*
X72203095Y-68643095D01*
X73393571Y-68357380D02*
X73488809Y-68357380D01*
X73584047Y-68405000D01*
X73631666Y-68452619D01*
X73679285Y-68547857D01*
X73726904Y-68738333D01*
X73726904Y-68976428D01*
X73679285Y-69166904D01*
X73631666Y-69262142D01*
X73584047Y-69309761D01*
X73488809Y-69357380D01*
X73393571Y-69357380D01*
X73298333Y-69309761D01*
X73250714Y-69262142D01*
X73203095Y-69166904D01*
X73155476Y-68976428D01*
X73155476Y-68738333D01*
X73203095Y-68547857D01*
X73250714Y-68452619D01*
X73298333Y-68405000D01*
X73393571Y-68357380D01*
X74155476Y-69357380D02*
X74155476Y-68357380D01*
X74726904Y-69357380D02*
X74298333Y-68785952D01*
X74726904Y-68357380D02*
X74155476Y-68928809D01*
X47104523Y-46417380D02*
X46533095Y-46417380D01*
X46818809Y-46417380D02*
X46818809Y-45417380D01*
X46723571Y-45560238D01*
X46628333Y-45655476D01*
X46533095Y-45703095D01*
X47723571Y-45417380D02*
X47818809Y-45417380D01*
X47914047Y-45465000D01*
X47961666Y-45512619D01*
X48009285Y-45607857D01*
X48056904Y-45798333D01*
X48056904Y-46036428D01*
X48009285Y-46226904D01*
X47961666Y-46322142D01*
X47914047Y-46369761D01*
X47818809Y-46417380D01*
X47723571Y-46417380D01*
X47628333Y-46369761D01*
X47580714Y-46322142D01*
X47533095Y-46226904D01*
X47485476Y-46036428D01*
X47485476Y-45798333D01*
X47533095Y-45607857D01*
X47580714Y-45512619D01*
X47628333Y-45465000D01*
X47723571Y-45417380D01*
X48485476Y-46417380D02*
X48485476Y-45417380D01*
X49056904Y-46417380D02*
X48628333Y-45845952D01*
X49056904Y-45417380D02*
X48485476Y-45988809D01*
X47024523Y-58477380D02*
X46453095Y-58477380D01*
X46738809Y-58477380D02*
X46738809Y-57477380D01*
X46643571Y-57620238D01*
X46548333Y-57715476D01*
X46453095Y-57763095D01*
X47643571Y-57477380D02*
X47738809Y-57477380D01*
X47834047Y-57525000D01*
X47881666Y-57572619D01*
X47929285Y-57667857D01*
X47976904Y-57858333D01*
X47976904Y-58096428D01*
X47929285Y-58286904D01*
X47881666Y-58382142D01*
X47834047Y-58429761D01*
X47738809Y-58477380D01*
X47643571Y-58477380D01*
X47548333Y-58429761D01*
X47500714Y-58382142D01*
X47453095Y-58286904D01*
X47405476Y-58096428D01*
X47405476Y-57858333D01*
X47453095Y-57667857D01*
X47500714Y-57572619D01*
X47548333Y-57525000D01*
X47643571Y-57477380D01*
X48405476Y-58477380D02*
X48405476Y-57477380D01*
X48976904Y-58477380D02*
X48548333Y-57905952D01*
X48976904Y-57477380D02*
X48405476Y-58048809D01*
X41814523Y-67497380D02*
X41243095Y-67497380D01*
X41528809Y-67497380D02*
X41528809Y-66497380D01*
X41433571Y-66640238D01*
X41338333Y-66735476D01*
X41243095Y-66783095D01*
X42433571Y-66497380D02*
X42528809Y-66497380D01*
X42624047Y-66545000D01*
X42671666Y-66592619D01*
X42719285Y-66687857D01*
X42766904Y-66878333D01*
X42766904Y-67116428D01*
X42719285Y-67306904D01*
X42671666Y-67402142D01*
X42624047Y-67449761D01*
X42528809Y-67497380D01*
X42433571Y-67497380D01*
X42338333Y-67449761D01*
X42290714Y-67402142D01*
X42243095Y-67306904D01*
X42195476Y-67116428D01*
X42195476Y-66878333D01*
X42243095Y-66687857D01*
X42290714Y-66592619D01*
X42338333Y-66545000D01*
X42433571Y-66497380D01*
X43195476Y-67497380D02*
X43195476Y-66497380D01*
X43766904Y-67497380D02*
X43338333Y-66925952D01*
X43766904Y-66497380D02*
X43195476Y-67068809D01*
X41113571Y-43524523D02*
X41161190Y-43381666D01*
X41208809Y-43334047D01*
X41304047Y-43286428D01*
X41446904Y-43286428D01*
X41542142Y-43334047D01*
X41589761Y-43381666D01*
X41637380Y-43476904D01*
X41637380Y-43857857D01*
X40637380Y-43857857D01*
X40637380Y-43524523D01*
X40685000Y-43429285D01*
X40732619Y-43381666D01*
X40827857Y-43334047D01*
X40923095Y-43334047D01*
X41018333Y-43381666D01*
X41065952Y-43429285D01*
X41113571Y-43524523D01*
X41113571Y-43857857D01*
X41589761Y-42905476D02*
X41637380Y-42762619D01*
X41637380Y-42524523D01*
X41589761Y-42429285D01*
X41542142Y-42381666D01*
X41446904Y-42334047D01*
X41351666Y-42334047D01*
X41256428Y-42381666D01*
X41208809Y-42429285D01*
X41161190Y-42524523D01*
X41113571Y-42715000D01*
X41065952Y-42810238D01*
X41018333Y-42857857D01*
X40923095Y-42905476D01*
X40827857Y-42905476D01*
X40732619Y-42857857D01*
X40685000Y-42810238D01*
X40637380Y-42715000D01*
X40637380Y-42476904D01*
X40685000Y-42334047D01*
X41589761Y-41953095D02*
X41637380Y-41810238D01*
X41637380Y-41572142D01*
X41589761Y-41476904D01*
X41542142Y-41429285D01*
X41446904Y-41381666D01*
X41351666Y-41381666D01*
X41256428Y-41429285D01*
X41208809Y-41476904D01*
X41161190Y-41572142D01*
X41113571Y-41762619D01*
X41065952Y-41857857D01*
X41018333Y-41905476D01*
X40923095Y-41953095D01*
X40827857Y-41953095D01*
X40732619Y-41905476D01*
X40685000Y-41857857D01*
X40637380Y-41762619D01*
X40637380Y-41524523D01*
X40685000Y-41381666D01*
X41637380Y-40429285D02*
X41637380Y-41000714D01*
X41637380Y-40715000D02*
X40637380Y-40715000D01*
X40780238Y-40810238D01*
X40875476Y-40905476D01*
X40923095Y-41000714D01*
X40637380Y-40095952D02*
X40637380Y-39476904D01*
X41018333Y-39810238D01*
X41018333Y-39667380D01*
X41065952Y-39572142D01*
X41113571Y-39524523D01*
X41208809Y-39476904D01*
X41446904Y-39476904D01*
X41542142Y-39524523D01*
X41589761Y-39572142D01*
X41637380Y-39667380D01*
X41637380Y-39953095D01*
X41589761Y-40048333D01*
X41542142Y-40095952D01*
X41065952Y-38905476D02*
X41018333Y-39000714D01*
X40970714Y-39048333D01*
X40875476Y-39095952D01*
X40827857Y-39095952D01*
X40732619Y-39048333D01*
X40685000Y-39000714D01*
X40637380Y-38905476D01*
X40637380Y-38715000D01*
X40685000Y-38619761D01*
X40732619Y-38572142D01*
X40827857Y-38524523D01*
X40875476Y-38524523D01*
X40970714Y-38572142D01*
X41018333Y-38619761D01*
X41065952Y-38715000D01*
X41065952Y-38905476D01*
X41113571Y-39000714D01*
X41161190Y-39048333D01*
X41256428Y-39095952D01*
X41446904Y-39095952D01*
X41542142Y-39048333D01*
X41589761Y-39000714D01*
X41637380Y-38905476D01*
X41637380Y-38715000D01*
X41589761Y-38619761D01*
X41542142Y-38572142D01*
X41446904Y-38524523D01*
X41256428Y-38524523D01*
X41161190Y-38572142D01*
X41113571Y-38619761D01*
X41065952Y-38715000D01*
X39943571Y-54494523D02*
X39991190Y-54351666D01*
X40038809Y-54304047D01*
X40134047Y-54256428D01*
X40276904Y-54256428D01*
X40372142Y-54304047D01*
X40419761Y-54351666D01*
X40467380Y-54446904D01*
X40467380Y-54827857D01*
X39467380Y-54827857D01*
X39467380Y-54494523D01*
X39515000Y-54399285D01*
X39562619Y-54351666D01*
X39657857Y-54304047D01*
X39753095Y-54304047D01*
X39848333Y-54351666D01*
X39895952Y-54399285D01*
X39943571Y-54494523D01*
X39943571Y-54827857D01*
X40419761Y-53875476D02*
X40467380Y-53732619D01*
X40467380Y-53494523D01*
X40419761Y-53399285D01*
X40372142Y-53351666D01*
X40276904Y-53304047D01*
X40181666Y-53304047D01*
X40086428Y-53351666D01*
X40038809Y-53399285D01*
X39991190Y-53494523D01*
X39943571Y-53685000D01*
X39895952Y-53780238D01*
X39848333Y-53827857D01*
X39753095Y-53875476D01*
X39657857Y-53875476D01*
X39562619Y-53827857D01*
X39515000Y-53780238D01*
X39467380Y-53685000D01*
X39467380Y-53446904D01*
X39515000Y-53304047D01*
X40419761Y-52923095D02*
X40467380Y-52780238D01*
X40467380Y-52542142D01*
X40419761Y-52446904D01*
X40372142Y-52399285D01*
X40276904Y-52351666D01*
X40181666Y-52351666D01*
X40086428Y-52399285D01*
X40038809Y-52446904D01*
X39991190Y-52542142D01*
X39943571Y-52732619D01*
X39895952Y-52827857D01*
X39848333Y-52875476D01*
X39753095Y-52923095D01*
X39657857Y-52923095D01*
X39562619Y-52875476D01*
X39515000Y-52827857D01*
X39467380Y-52732619D01*
X39467380Y-52494523D01*
X39515000Y-52351666D01*
X40467380Y-51399285D02*
X40467380Y-51970714D01*
X40467380Y-51685000D02*
X39467380Y-51685000D01*
X39610238Y-51780238D01*
X39705476Y-51875476D01*
X39753095Y-51970714D01*
X39467380Y-51065952D02*
X39467380Y-50446904D01*
X39848333Y-50780238D01*
X39848333Y-50637380D01*
X39895952Y-50542142D01*
X39943571Y-50494523D01*
X40038809Y-50446904D01*
X40276904Y-50446904D01*
X40372142Y-50494523D01*
X40419761Y-50542142D01*
X40467380Y-50637380D01*
X40467380Y-50923095D01*
X40419761Y-51018333D01*
X40372142Y-51065952D01*
X39895952Y-49875476D02*
X39848333Y-49970714D01*
X39800714Y-50018333D01*
X39705476Y-50065952D01*
X39657857Y-50065952D01*
X39562619Y-50018333D01*
X39515000Y-49970714D01*
X39467380Y-49875476D01*
X39467380Y-49685000D01*
X39515000Y-49589761D01*
X39562619Y-49542142D01*
X39657857Y-49494523D01*
X39705476Y-49494523D01*
X39800714Y-49542142D01*
X39848333Y-49589761D01*
X39895952Y-49685000D01*
X39895952Y-49875476D01*
X39943571Y-49970714D01*
X39991190Y-50018333D01*
X40086428Y-50065952D01*
X40276904Y-50065952D01*
X40372142Y-50018333D01*
X40419761Y-49970714D01*
X40467380Y-49875476D01*
X40467380Y-49685000D01*
X40419761Y-49589761D01*
X40372142Y-49542142D01*
X40276904Y-49494523D01*
X40086428Y-49494523D01*
X39991190Y-49542142D01*
X39943571Y-49589761D01*
X39895952Y-49685000D01*
X28816189Y-77968963D02*
X28720951Y-77921343D01*
X28578094Y-77921343D01*
X28435236Y-77968963D01*
X28339998Y-78064201D01*
X28292379Y-78159439D01*
X28244760Y-78349915D01*
X28244760Y-78492772D01*
X28292379Y-78683248D01*
X28339998Y-78778486D01*
X28435236Y-78873724D01*
X28578094Y-78921343D01*
X28673332Y-78921343D01*
X28816189Y-78873724D01*
X28863808Y-78826105D01*
X28863808Y-78492772D01*
X28673332Y-78492772D01*
X29292379Y-78921343D02*
X29292379Y-77921343D01*
X29863808Y-78921343D01*
X29863808Y-77921343D01*
X30339998Y-78921343D02*
X30339998Y-77921343D01*
X30578094Y-77921343D01*
X30720951Y-77968963D01*
X30816189Y-78064201D01*
X30863808Y-78159439D01*
X30911427Y-78349915D01*
X30911427Y-78492772D01*
X30863808Y-78683248D01*
X30816189Y-78778486D01*
X30720951Y-78873724D01*
X30578094Y-78921343D01*
X30339998Y-78921343D01*
X29059093Y-76134699D02*
X28725760Y-75658509D01*
X28487664Y-76134699D02*
X28487664Y-75134699D01*
X28868617Y-75134699D01*
X28963855Y-75182319D01*
X29011474Y-75229938D01*
X29059093Y-75325176D01*
X29059093Y-75468033D01*
X29011474Y-75563271D01*
X28963855Y-75610890D01*
X28868617Y-75658509D01*
X28487664Y-75658509D01*
X29392426Y-75134699D02*
X30059093Y-76134699D01*
X30059093Y-75134699D02*
X29392426Y-76134699D01*
X29027062Y-88082036D02*
X28693729Y-87605846D01*
X28455633Y-88082036D02*
X28455633Y-87082036D01*
X28836586Y-87082036D01*
X28931824Y-87129656D01*
X28979443Y-87177275D01*
X29027062Y-87272513D01*
X29027062Y-87415370D01*
X28979443Y-87510608D01*
X28931824Y-87558227D01*
X28836586Y-87605846D01*
X28455633Y-87605846D01*
X29360395Y-87082036D02*
X30027062Y-88082036D01*
X30027062Y-87082036D02*
X29360395Y-88082036D01*
X28399794Y-72572267D02*
X28971222Y-72572267D01*
X28685508Y-73572267D02*
X28685508Y-72572267D01*
X29209318Y-72572267D02*
X29875984Y-73572267D01*
X29875984Y-72572267D02*
X29209318Y-73572267D01*
X28519454Y-43142690D02*
X28519454Y-42142690D01*
X28948026Y-42237929D02*
X28995645Y-42190310D01*
X29090883Y-42142690D01*
X29328978Y-42142690D01*
X29424216Y-42190310D01*
X29471835Y-42237929D01*
X29519454Y-42333167D01*
X29519454Y-42428405D01*
X29471835Y-42571262D01*
X28900407Y-43142690D01*
X29519454Y-43142690D01*
X30519454Y-43047452D02*
X30471835Y-43095071D01*
X30328978Y-43142690D01*
X30233740Y-43142690D01*
X30090883Y-43095071D01*
X29995645Y-42999833D01*
X29948026Y-42904595D01*
X29900407Y-42714119D01*
X29900407Y-42571262D01*
X29948026Y-42380786D01*
X29995645Y-42285548D01*
X30090883Y-42190310D01*
X30233740Y-42142690D01*
X30328978Y-42142690D01*
X30471835Y-42190310D01*
X30519454Y-42237929D01*
X30709930Y-43237929D02*
X31471835Y-43237929D01*
X31662311Y-43095071D02*
X31805169Y-43142690D01*
X32043264Y-43142690D01*
X32138502Y-43095071D01*
X32186121Y-43047452D01*
X32233740Y-42952214D01*
X32233740Y-42856976D01*
X32186121Y-42761738D01*
X32138502Y-42714119D01*
X32043264Y-42666500D01*
X31852788Y-42618881D01*
X31757550Y-42571262D01*
X31709930Y-42523643D01*
X31662311Y-42428405D01*
X31662311Y-42333167D01*
X31709930Y-42237929D01*
X31757550Y-42190310D01*
X31852788Y-42142690D01*
X32090883Y-42142690D01*
X32233740Y-42190310D01*
X33138502Y-43142690D02*
X32662311Y-43142690D01*
X32662311Y-42142690D01*
X28784158Y-89916300D02*
X28688920Y-89868680D01*
X28546063Y-89868680D01*
X28403205Y-89916300D01*
X28307967Y-90011538D01*
X28260348Y-90106776D01*
X28212729Y-90297252D01*
X28212729Y-90440109D01*
X28260348Y-90630585D01*
X28307967Y-90725823D01*
X28403205Y-90821061D01*
X28546063Y-90868680D01*
X28641301Y-90868680D01*
X28784158Y-90821061D01*
X28831777Y-90773442D01*
X28831777Y-90440109D01*
X28641301Y-90440109D01*
X29260348Y-90868680D02*
X29260348Y-89868680D01*
X29831777Y-90868680D01*
X29831777Y-89868680D01*
X30307967Y-90868680D02*
X30307967Y-89868680D01*
X30546063Y-89868680D01*
X30688920Y-89916300D01*
X30784158Y-90011538D01*
X30831777Y-90106776D01*
X30879396Y-90297252D01*
X30879396Y-90440109D01*
X30831777Y-90630585D01*
X30784158Y-90725823D01*
X30688920Y-90821061D01*
X30546063Y-90868680D01*
X30307967Y-90868680D01*
X33909285Y-79497380D02*
X33575952Y-79021190D01*
X33337857Y-79497380D02*
X33337857Y-78497380D01*
X33718809Y-78497380D01*
X33814047Y-78545000D01*
X33861666Y-78592619D01*
X33909285Y-78687857D01*
X33909285Y-78830714D01*
X33861666Y-78925952D01*
X33814047Y-78973571D01*
X33718809Y-79021190D01*
X33337857Y-79021190D01*
X34290238Y-79211666D02*
X34766428Y-79211666D01*
X34195000Y-79497380D02*
X34528333Y-78497380D01*
X34861666Y-79497380D01*
X35195000Y-79497380D02*
X35195000Y-78497380D01*
X35433095Y-78497380D01*
X35575952Y-78545000D01*
X35671190Y-78640238D01*
X35718809Y-78735476D01*
X35766428Y-78925952D01*
X35766428Y-79068809D01*
X35718809Y-79259285D01*
X35671190Y-79354523D01*
X35575952Y-79449761D01*
X35433095Y-79497380D01*
X35195000Y-79497380D01*
X36195000Y-79497380D02*
X36195000Y-78497380D01*
X36861666Y-78497380D02*
X37052142Y-78497380D01*
X37147380Y-78545000D01*
X37242619Y-78640238D01*
X37290238Y-78830714D01*
X37290238Y-79164047D01*
X37242619Y-79354523D01*
X37147380Y-79449761D01*
X37052142Y-79497380D01*
X36861666Y-79497380D01*
X36766428Y-79449761D01*
X36671190Y-79354523D01*
X36623571Y-79164047D01*
X36623571Y-78830714D01*
X36671190Y-78640238D01*
X36766428Y-78545000D01*
X36861666Y-78497380D01*
X38671190Y-78497380D02*
X38861666Y-78497380D01*
X38956904Y-78545000D01*
X39052142Y-78640238D01*
X39099761Y-78830714D01*
X39099761Y-79164047D01*
X39052142Y-79354523D01*
X38956904Y-79449761D01*
X38861666Y-79497380D01*
X38671190Y-79497380D01*
X38575952Y-79449761D01*
X38480714Y-79354523D01*
X38433095Y-79164047D01*
X38433095Y-78830714D01*
X38480714Y-78640238D01*
X38575952Y-78545000D01*
X38671190Y-78497380D01*
X39528333Y-79497380D02*
X39528333Y-78497380D01*
X40099761Y-79497380D02*
X39671190Y-78925952D01*
X40099761Y-78497380D02*
X39528333Y-79068809D01*
X28349509Y-47991913D02*
X28254271Y-47944293D01*
X28111414Y-47944293D01*
X27968556Y-47991913D01*
X27873318Y-48087151D01*
X27825699Y-48182389D01*
X27778080Y-48372865D01*
X27778080Y-48515722D01*
X27825699Y-48706198D01*
X27873318Y-48801436D01*
X27968556Y-48896674D01*
X28111414Y-48944293D01*
X28206652Y-48944293D01*
X28349509Y-48896674D01*
X28397128Y-48849055D01*
X28397128Y-48515722D01*
X28206652Y-48515722D01*
X28825699Y-48944293D02*
X28825699Y-47944293D01*
X29397128Y-48944293D01*
X29397128Y-47944293D01*
X29873318Y-48944293D02*
X29873318Y-47944293D01*
X30111414Y-47944293D01*
X30254271Y-47991913D01*
X30349509Y-48087151D01*
X30397128Y-48182389D01*
X30444747Y-48372865D01*
X30444747Y-48515722D01*
X30397128Y-48706198D01*
X30349509Y-48801436D01*
X30254271Y-48896674D01*
X30111414Y-48944293D01*
X29873318Y-48944293D01*
X80570200Y-58894420D02*
X80094010Y-58894420D01*
X80094010Y-57894420D01*
X81094010Y-57894420D02*
X81284486Y-57894420D01*
X81379724Y-57942040D01*
X81474962Y-58037278D01*
X81522581Y-58227754D01*
X81522581Y-58561087D01*
X81474962Y-58751563D01*
X81379724Y-58846801D01*
X81284486Y-58894420D01*
X81094010Y-58894420D01*
X80998772Y-58846801D01*
X80903534Y-58751563D01*
X80855915Y-58561087D01*
X80855915Y-58227754D01*
X80903534Y-58037278D01*
X80998772Y-57942040D01*
X81094010Y-57894420D01*
X81855915Y-57894420D02*
X82094010Y-58894420D01*
X82284486Y-58180135D01*
X82474962Y-58894420D01*
X82713057Y-57894420D01*
X28068792Y-39667902D02*
X28687840Y-39667902D01*
X28354506Y-40048855D01*
X28497363Y-40048855D01*
X28592602Y-40096474D01*
X28640221Y-40144093D01*
X28687840Y-40239331D01*
X28687840Y-40477426D01*
X28640221Y-40572664D01*
X28592602Y-40620283D01*
X28497363Y-40667902D01*
X28211649Y-40667902D01*
X28116411Y-40620283D01*
X28068792Y-40572664D01*
X29116411Y-40572664D02*
X29164030Y-40620283D01*
X29116411Y-40667902D01*
X29068792Y-40620283D01*
X29116411Y-40572664D01*
X29116411Y-40667902D01*
X29497363Y-39667902D02*
X30116411Y-39667902D01*
X29783078Y-40048855D01*
X29925935Y-40048855D01*
X30021173Y-40096474D01*
X30068792Y-40144093D01*
X30116411Y-40239331D01*
X30116411Y-40477426D01*
X30068792Y-40572664D01*
X30021173Y-40620283D01*
X29925935Y-40667902D01*
X29640221Y-40667902D01*
X29544983Y-40620283D01*
X29497363Y-40572664D01*
X30402125Y-39667902D02*
X30735459Y-40667902D01*
X31068792Y-39667902D01*
X28508160Y-58283580D02*
X29127208Y-58283580D01*
X28793874Y-58664533D01*
X28936731Y-58664533D01*
X29031970Y-58712152D01*
X29079589Y-58759771D01*
X29127208Y-58855009D01*
X29127208Y-59093104D01*
X29079589Y-59188342D01*
X29031970Y-59235961D01*
X28936731Y-59283580D01*
X28651017Y-59283580D01*
X28555779Y-59235961D01*
X28508160Y-59188342D01*
X29555779Y-59188342D02*
X29603398Y-59235961D01*
X29555779Y-59283580D01*
X29508160Y-59235961D01*
X29555779Y-59188342D01*
X29555779Y-59283580D01*
X29936731Y-58283580D02*
X30555779Y-58283580D01*
X30222446Y-58664533D01*
X30365303Y-58664533D01*
X30460541Y-58712152D01*
X30508160Y-58759771D01*
X30555779Y-58855009D01*
X30555779Y-59093104D01*
X30508160Y-59188342D01*
X30460541Y-59235961D01*
X30365303Y-59283580D01*
X30079589Y-59283580D01*
X29984351Y-59235961D01*
X29936731Y-59188342D01*
X30841493Y-58283580D02*
X31174827Y-59283580D01*
X31508160Y-58283580D01*
X29068692Y-64862207D02*
X28497263Y-64862207D01*
X28782978Y-64862207D02*
X28782978Y-63862207D01*
X28687740Y-64005065D01*
X28592502Y-64100303D01*
X28497263Y-64147922D01*
X29402025Y-63862207D02*
X29640121Y-64862207D01*
X29830597Y-64147922D01*
X30021073Y-64862207D01*
X30259168Y-63862207D01*
X30640121Y-64862207D02*
X30640121Y-63862207D01*
X31687740Y-64862207D02*
X31354406Y-64386017D01*
X31116311Y-64862207D02*
X31116311Y-63862207D01*
X31497263Y-63862207D01*
X31592502Y-63909827D01*
X31640121Y-63957446D01*
X31687740Y-64052684D01*
X31687740Y-64195541D01*
X31640121Y-64290779D01*
X31592502Y-64338398D01*
X31497263Y-64386017D01*
X31116311Y-64386017D01*
X32116311Y-64338398D02*
X32449644Y-64338398D01*
X32592502Y-64862207D02*
X32116311Y-64862207D01*
X32116311Y-63862207D01*
X32592502Y-63862207D01*
X28465530Y-45792816D02*
X28465530Y-44792816D01*
X28894101Y-44888055D02*
X28941720Y-44840436D01*
X29036958Y-44792816D01*
X29275054Y-44792816D01*
X29370292Y-44840436D01*
X29417911Y-44888055D01*
X29465530Y-44983293D01*
X29465530Y-45078531D01*
X29417911Y-45221388D01*
X28846482Y-45792816D01*
X29465530Y-45792816D01*
X30465530Y-45697578D02*
X30417911Y-45745197D01*
X30275054Y-45792816D01*
X30179815Y-45792816D01*
X30036958Y-45745197D01*
X29941720Y-45649959D01*
X29894101Y-45554721D01*
X29846482Y-45364245D01*
X29846482Y-45221388D01*
X29894101Y-45030912D01*
X29941720Y-44935674D01*
X30036958Y-44840436D01*
X30179815Y-44792816D01*
X30275054Y-44792816D01*
X30417911Y-44840436D01*
X30465530Y-44888055D01*
X30656006Y-45888055D02*
X31417911Y-45888055D01*
X31608387Y-45745197D02*
X31751244Y-45792816D01*
X31989339Y-45792816D01*
X32084577Y-45745197D01*
X32132196Y-45697578D01*
X32179815Y-45602340D01*
X32179815Y-45507102D01*
X32132196Y-45411864D01*
X32084577Y-45364245D01*
X31989339Y-45316626D01*
X31798863Y-45269007D01*
X31703625Y-45221388D01*
X31656006Y-45173769D01*
X31608387Y-45078531D01*
X31608387Y-44983293D01*
X31656006Y-44888055D01*
X31703625Y-44840436D01*
X31798863Y-44792816D01*
X32036958Y-44792816D01*
X32179815Y-44840436D01*
X32560768Y-45507102D02*
X33036958Y-45507102D01*
X32465530Y-45792816D02*
X32798863Y-44792816D01*
X33132196Y-45792816D01*
X79971190Y-64557380D02*
X79971190Y-63557380D01*
X79971190Y-64033571D02*
X80542619Y-64033571D01*
X80542619Y-64557380D02*
X80542619Y-63557380D01*
X81018809Y-64557380D02*
X81018809Y-63557380D01*
X28218809Y-69907380D02*
X28837857Y-69907380D01*
X28504523Y-70288333D01*
X28647380Y-70288333D01*
X28742619Y-70335952D01*
X28790238Y-70383571D01*
X28837857Y-70478809D01*
X28837857Y-70716904D01*
X28790238Y-70812142D01*
X28742619Y-70859761D01*
X28647380Y-70907380D01*
X28361666Y-70907380D01*
X28266428Y-70859761D01*
X28218809Y-70812142D01*
X29266428Y-70812142D02*
X29314047Y-70859761D01*
X29266428Y-70907380D01*
X29218809Y-70859761D01*
X29266428Y-70812142D01*
X29266428Y-70907380D01*
X29647380Y-69907380D02*
X30266428Y-69907380D01*
X29933095Y-70288333D01*
X30075952Y-70288333D01*
X30171190Y-70335952D01*
X30218809Y-70383571D01*
X30266428Y-70478809D01*
X30266428Y-70716904D01*
X30218809Y-70812142D01*
X30171190Y-70859761D01*
X30075952Y-70907380D01*
X29790238Y-70907380D01*
X29695000Y-70859761D01*
X29647380Y-70812142D01*
X30552142Y-69907380D02*
X30885476Y-70907380D01*
X31218809Y-69907380D01*
X28367763Y-84519604D02*
X28939191Y-84519604D01*
X28653477Y-85519604D02*
X28653477Y-84519604D01*
X29177287Y-84519604D02*
X29843953Y-85519604D01*
X29843953Y-84519604D02*
X29177287Y-85519604D01*
X28955526Y-61053784D02*
X28860288Y-61006164D01*
X28717431Y-61006164D01*
X28574573Y-61053784D01*
X28479335Y-61149022D01*
X28431716Y-61244260D01*
X28384097Y-61434736D01*
X28384097Y-61577593D01*
X28431716Y-61768069D01*
X28479335Y-61863307D01*
X28574573Y-61958545D01*
X28717431Y-62006164D01*
X28812669Y-62006164D01*
X28955526Y-61958545D01*
X29003145Y-61910926D01*
X29003145Y-61577593D01*
X28812669Y-61577593D01*
X29431716Y-62006164D02*
X29431716Y-61006164D01*
X30003145Y-62006164D01*
X30003145Y-61006164D01*
X30479335Y-62006164D02*
X30479335Y-61006164D01*
X30717431Y-61006164D01*
X30860288Y-61053784D01*
X30955526Y-61149022D01*
X31003145Y-61244260D01*
X31050764Y-61434736D01*
X31050764Y-61577593D01*
X31003145Y-61768069D01*
X30955526Y-61863307D01*
X30860288Y-61958545D01*
X30717431Y-62006164D01*
X30479335Y-62006164D01*
%TO.C,R6*%
X77988333Y-76667380D02*
X77655000Y-76191190D01*
X77416904Y-76667380D02*
X77416904Y-75667380D01*
X77797857Y-75667380D01*
X77893095Y-75715000D01*
X77940714Y-75762619D01*
X77988333Y-75857857D01*
X77988333Y-76000714D01*
X77940714Y-76095952D01*
X77893095Y-76143571D01*
X77797857Y-76191190D01*
X77416904Y-76191190D01*
X78845476Y-75667380D02*
X78655000Y-75667380D01*
X78559761Y-75715000D01*
X78512142Y-75762619D01*
X78416904Y-75905476D01*
X78369285Y-76095952D01*
X78369285Y-76476904D01*
X78416904Y-76572142D01*
X78464523Y-76619761D01*
X78559761Y-76667380D01*
X78750238Y-76667380D01*
X78845476Y-76619761D01*
X78893095Y-76572142D01*
X78940714Y-76476904D01*
X78940714Y-76238809D01*
X78893095Y-76143571D01*
X78845476Y-76095952D01*
X78750238Y-76048333D01*
X78559761Y-76048333D01*
X78464523Y-76095952D01*
X78416904Y-76143571D01*
X78369285Y-76238809D01*
%TO.C,R2*%
X43575833Y-48147380D02*
X43242500Y-47671190D01*
X43004404Y-48147380D02*
X43004404Y-47147380D01*
X43385357Y-47147380D01*
X43480595Y-47195000D01*
X43528214Y-47242619D01*
X43575833Y-47337857D01*
X43575833Y-47480714D01*
X43528214Y-47575952D01*
X43480595Y-47623571D01*
X43385357Y-47671190D01*
X43004404Y-47671190D01*
X43956785Y-47242619D02*
X44004404Y-47195000D01*
X44099642Y-47147380D01*
X44337738Y-47147380D01*
X44432976Y-47195000D01*
X44480595Y-47242619D01*
X44528214Y-47337857D01*
X44528214Y-47433095D01*
X44480595Y-47575952D01*
X43909166Y-48147380D01*
X44528214Y-48147380D01*
%TO.C,ESP32-WROOM-32D1*%
X43185000Y-98413571D02*
X43518333Y-98413571D01*
X43661190Y-98937380D02*
X43185000Y-98937380D01*
X43185000Y-97937380D01*
X43661190Y-97937380D01*
X44042142Y-98889761D02*
X44185000Y-98937380D01*
X44423095Y-98937380D01*
X44518333Y-98889761D01*
X44565952Y-98842142D01*
X44613571Y-98746904D01*
X44613571Y-98651666D01*
X44565952Y-98556428D01*
X44518333Y-98508809D01*
X44423095Y-98461190D01*
X44232619Y-98413571D01*
X44137380Y-98365952D01*
X44089761Y-98318333D01*
X44042142Y-98223095D01*
X44042142Y-98127857D01*
X44089761Y-98032619D01*
X44137380Y-97985000D01*
X44232619Y-97937380D01*
X44470714Y-97937380D01*
X44613571Y-97985000D01*
X45042142Y-98937380D02*
X45042142Y-97937380D01*
X45423095Y-97937380D01*
X45518333Y-97985000D01*
X45565952Y-98032619D01*
X45613571Y-98127857D01*
X45613571Y-98270714D01*
X45565952Y-98365952D01*
X45518333Y-98413571D01*
X45423095Y-98461190D01*
X45042142Y-98461190D01*
X45946904Y-97937380D02*
X46565952Y-97937380D01*
X46232619Y-98318333D01*
X46375476Y-98318333D01*
X46470714Y-98365952D01*
X46518333Y-98413571D01*
X46565952Y-98508809D01*
X46565952Y-98746904D01*
X46518333Y-98842142D01*
X46470714Y-98889761D01*
X46375476Y-98937380D01*
X46089761Y-98937380D01*
X45994523Y-98889761D01*
X45946904Y-98842142D01*
X46946904Y-98032619D02*
X46994523Y-97985000D01*
X47089761Y-97937380D01*
X47327857Y-97937380D01*
X47423095Y-97985000D01*
X47470714Y-98032619D01*
X47518333Y-98127857D01*
X47518333Y-98223095D01*
X47470714Y-98365952D01*
X46899285Y-98937380D01*
X47518333Y-98937380D01*
X47946904Y-98556428D02*
X48708809Y-98556428D01*
X49089761Y-97937380D02*
X49327857Y-98937380D01*
X49518333Y-98223095D01*
X49708809Y-98937380D01*
X49946904Y-97937380D01*
X50899285Y-98937380D02*
X50565952Y-98461190D01*
X50327857Y-98937380D02*
X50327857Y-97937380D01*
X50708809Y-97937380D01*
X50804047Y-97985000D01*
X50851666Y-98032619D01*
X50899285Y-98127857D01*
X50899285Y-98270714D01*
X50851666Y-98365952D01*
X50804047Y-98413571D01*
X50708809Y-98461190D01*
X50327857Y-98461190D01*
X51518333Y-97937380D02*
X51708809Y-97937380D01*
X51804047Y-97985000D01*
X51899285Y-98080238D01*
X51946904Y-98270714D01*
X51946904Y-98604047D01*
X51899285Y-98794523D01*
X51804047Y-98889761D01*
X51708809Y-98937380D01*
X51518333Y-98937380D01*
X51423095Y-98889761D01*
X51327857Y-98794523D01*
X51280238Y-98604047D01*
X51280238Y-98270714D01*
X51327857Y-98080238D01*
X51423095Y-97985000D01*
X51518333Y-97937380D01*
X52565952Y-97937380D02*
X52756428Y-97937380D01*
X52851666Y-97985000D01*
X52946904Y-98080238D01*
X52994523Y-98270714D01*
X52994523Y-98604047D01*
X52946904Y-98794523D01*
X52851666Y-98889761D01*
X52756428Y-98937380D01*
X52565952Y-98937380D01*
X52470714Y-98889761D01*
X52375476Y-98794523D01*
X52327857Y-98604047D01*
X52327857Y-98270714D01*
X52375476Y-98080238D01*
X52470714Y-97985000D01*
X52565952Y-97937380D01*
X53423095Y-98937380D02*
X53423095Y-97937380D01*
X53756428Y-98651666D01*
X54089761Y-97937380D01*
X54089761Y-98937380D01*
X54565952Y-98556428D02*
X55327857Y-98556428D01*
X55708809Y-97937380D02*
X56327857Y-97937380D01*
X55994523Y-98318333D01*
X56137380Y-98318333D01*
X56232619Y-98365952D01*
X56280238Y-98413571D01*
X56327857Y-98508809D01*
X56327857Y-98746904D01*
X56280238Y-98842142D01*
X56232619Y-98889761D01*
X56137380Y-98937380D01*
X55851666Y-98937380D01*
X55756428Y-98889761D01*
X55708809Y-98842142D01*
X56708809Y-98032619D02*
X56756428Y-97985000D01*
X56851666Y-97937380D01*
X57089761Y-97937380D01*
X57184999Y-97985000D01*
X57232619Y-98032619D01*
X57280238Y-98127857D01*
X57280238Y-98223095D01*
X57232619Y-98365952D01*
X56661190Y-98937380D01*
X57280238Y-98937380D01*
X57708809Y-98937380D02*
X57708809Y-97937380D01*
X57946904Y-97937380D01*
X58089761Y-97985000D01*
X58184999Y-98080238D01*
X58232619Y-98175476D01*
X58280238Y-98365952D01*
X58280238Y-98508809D01*
X58232619Y-98699285D01*
X58184999Y-98794523D01*
X58089761Y-98889761D01*
X57946904Y-98937380D01*
X57708809Y-98937380D01*
X59232619Y-98937380D02*
X58661190Y-98937380D01*
X58946904Y-98937380D02*
X58946904Y-97937380D01*
X58851666Y-98080238D01*
X58756428Y-98175476D01*
X58661190Y-98223095D01*
%TO.C,SW2*%
X21969761Y-102298333D02*
X22017380Y-102155476D01*
X22017380Y-101917380D01*
X21969761Y-101822142D01*
X21922142Y-101774523D01*
X21826904Y-101726904D01*
X21731666Y-101726904D01*
X21636428Y-101774523D01*
X21588809Y-101822142D01*
X21541190Y-101917380D01*
X21493571Y-102107857D01*
X21445952Y-102203095D01*
X21398333Y-102250714D01*
X21303095Y-102298333D01*
X21207857Y-102298333D01*
X21112619Y-102250714D01*
X21065000Y-102203095D01*
X21017380Y-102107857D01*
X21017380Y-101869761D01*
X21065000Y-101726904D01*
X21017380Y-101393571D02*
X22017380Y-101155476D01*
X21303095Y-100965000D01*
X22017380Y-100774523D01*
X21017380Y-100536428D01*
X21112619Y-100203095D02*
X21065000Y-100155476D01*
X21017380Y-100060238D01*
X21017380Y-99822142D01*
X21065000Y-99726904D01*
X21112619Y-99679285D01*
X21207857Y-99631666D01*
X21303095Y-99631666D01*
X21445952Y-99679285D01*
X22017380Y-100250714D01*
X22017380Y-99631666D01*
X20981579Y-95245691D02*
X21314912Y-95245691D01*
X21457769Y-95769500D02*
X20981579Y-95769500D01*
X20981579Y-94769500D01*
X21457769Y-94769500D01*
X21838722Y-95721881D02*
X21981579Y-95769500D01*
X22219674Y-95769500D01*
X22314912Y-95721881D01*
X22362531Y-95674262D01*
X22410150Y-95579024D01*
X22410150Y-95483786D01*
X22362531Y-95388548D01*
X22314912Y-95340929D01*
X22219674Y-95293310D01*
X22029198Y-95245691D01*
X21933960Y-95198072D01*
X21886341Y-95150453D01*
X21838722Y-95055215D01*
X21838722Y-94959977D01*
X21886341Y-94864739D01*
X21933960Y-94817120D01*
X22029198Y-94769500D01*
X22267293Y-94769500D01*
X22410150Y-94817120D01*
X22838722Y-95769500D02*
X22838722Y-94769500D01*
X23219674Y-94769500D01*
X23314912Y-94817120D01*
X23362531Y-94864739D01*
X23410150Y-94959977D01*
X23410150Y-95102834D01*
X23362531Y-95198072D01*
X23314912Y-95245691D01*
X23219674Y-95293310D01*
X22838722Y-95293310D01*
X24600626Y-95769500D02*
X24600626Y-94769500D01*
X24981579Y-94769500D01*
X25076817Y-94817120D01*
X25124436Y-94864739D01*
X25172055Y-94959977D01*
X25172055Y-95102834D01*
X25124436Y-95198072D01*
X25076817Y-95245691D01*
X24981579Y-95293310D01*
X24600626Y-95293310D01*
X25600626Y-95769500D02*
X25600626Y-95102834D01*
X25600626Y-95293310D02*
X25648245Y-95198072D01*
X25695865Y-95150453D01*
X25791103Y-95102834D01*
X25886341Y-95102834D01*
X26362531Y-95769500D02*
X26267293Y-95721881D01*
X26219674Y-95674262D01*
X26172055Y-95579024D01*
X26172055Y-95293310D01*
X26219674Y-95198072D01*
X26267293Y-95150453D01*
X26362531Y-95102834D01*
X26505388Y-95102834D01*
X26600626Y-95150453D01*
X26648245Y-95198072D01*
X26695865Y-95293310D01*
X26695865Y-95579024D01*
X26648245Y-95674262D01*
X26600626Y-95721881D01*
X26505388Y-95769500D01*
X26362531Y-95769500D01*
X27553007Y-95102834D02*
X27553007Y-95912358D01*
X27505388Y-96007596D01*
X27457769Y-96055215D01*
X27362531Y-96102834D01*
X27219674Y-96102834D01*
X27124436Y-96055215D01*
X27553007Y-95721881D02*
X27457769Y-95769500D01*
X27267293Y-95769500D01*
X27172055Y-95721881D01*
X27124436Y-95674262D01*
X27076817Y-95579024D01*
X27076817Y-95293310D01*
X27124436Y-95198072D01*
X27172055Y-95150453D01*
X27267293Y-95102834D01*
X27457769Y-95102834D01*
X27553007Y-95150453D01*
X28029198Y-95769500D02*
X28029198Y-95102834D01*
X28029198Y-95293310D02*
X28076817Y-95198072D01*
X28124436Y-95150453D01*
X28219674Y-95102834D01*
X28314912Y-95102834D01*
X29076817Y-95769500D02*
X29076817Y-95245691D01*
X29029198Y-95150453D01*
X28933960Y-95102834D01*
X28743484Y-95102834D01*
X28648245Y-95150453D01*
X29076817Y-95721881D02*
X28981579Y-95769500D01*
X28743484Y-95769500D01*
X28648245Y-95721881D01*
X28600626Y-95626643D01*
X28600626Y-95531405D01*
X28648245Y-95436167D01*
X28743484Y-95388548D01*
X28981579Y-95388548D01*
X29076817Y-95340929D01*
X29553007Y-95769500D02*
X29553007Y-95102834D01*
X29553007Y-95198072D02*
X29600626Y-95150453D01*
X29695865Y-95102834D01*
X29838722Y-95102834D01*
X29933960Y-95150453D01*
X29981579Y-95245691D01*
X29981579Y-95769500D01*
X29981579Y-95245691D02*
X30029198Y-95150453D01*
X30124436Y-95102834D01*
X30267293Y-95102834D01*
X30362531Y-95150453D01*
X30410150Y-95245691D01*
X30410150Y-95769500D01*
%TO.C,C2*%
X94608333Y-56352142D02*
X94560714Y-56399761D01*
X94417857Y-56447380D01*
X94322619Y-56447380D01*
X94179761Y-56399761D01*
X94084523Y-56304523D01*
X94036904Y-56209285D01*
X93989285Y-56018809D01*
X93989285Y-55875952D01*
X94036904Y-55685476D01*
X94084523Y-55590238D01*
X94179761Y-55495000D01*
X94322619Y-55447380D01*
X94417857Y-55447380D01*
X94560714Y-55495000D01*
X94608333Y-55542619D01*
X94989285Y-55542619D02*
X95036904Y-55495000D01*
X95132142Y-55447380D01*
X95370238Y-55447380D01*
X95465476Y-55495000D01*
X95513095Y-55542619D01*
X95560714Y-55637857D01*
X95560714Y-55733095D01*
X95513095Y-55875952D01*
X94941666Y-56447380D01*
X95560714Y-56447380D01*
X81717380Y-56237380D02*
X81145952Y-56237380D01*
X81431666Y-56237380D02*
X81431666Y-55237380D01*
X81336428Y-55380238D01*
X81241190Y-55475476D01*
X81145952Y-55523095D01*
X82336428Y-55237380D02*
X82431666Y-55237380D01*
X82526904Y-55285000D01*
X82574523Y-55332619D01*
X82622142Y-55427857D01*
X82669761Y-55618333D01*
X82669761Y-55856428D01*
X82622142Y-56046904D01*
X82574523Y-56142142D01*
X82526904Y-56189761D01*
X82431666Y-56237380D01*
X82336428Y-56237380D01*
X82241190Y-56189761D01*
X82193571Y-56142142D01*
X82145952Y-56046904D01*
X82098333Y-55856428D01*
X82098333Y-55618333D01*
X82145952Y-55427857D01*
X82193571Y-55332619D01*
X82241190Y-55285000D01*
X82336428Y-55237380D01*
X83288809Y-55237380D02*
X83384047Y-55237380D01*
X83479285Y-55285000D01*
X83526904Y-55332619D01*
X83574523Y-55427857D01*
X83622142Y-55618333D01*
X83622142Y-55856428D01*
X83574523Y-56046904D01*
X83526904Y-56142142D01*
X83479285Y-56189761D01*
X83384047Y-56237380D01*
X83288809Y-56237380D01*
X83193571Y-56189761D01*
X83145952Y-56142142D01*
X83098333Y-56046904D01*
X83050714Y-55856428D01*
X83050714Y-55618333D01*
X83098333Y-55427857D01*
X83145952Y-55332619D01*
X83193571Y-55285000D01*
X83288809Y-55237380D01*
X84050714Y-55570714D02*
X84050714Y-56237380D01*
X84050714Y-55665952D02*
X84098333Y-55618333D01*
X84193571Y-55570714D01*
X84336428Y-55570714D01*
X84431666Y-55618333D01*
X84479285Y-55713571D01*
X84479285Y-56237380D01*
X85288809Y-55713571D02*
X84955476Y-55713571D01*
X84955476Y-56237380D02*
X84955476Y-55237380D01*
X85431666Y-55237380D01*
%TO.C,Q2*%
X42958761Y-61599219D02*
X42863523Y-61551600D01*
X42768285Y-61456361D01*
X42625428Y-61313504D01*
X42530190Y-61265885D01*
X42434952Y-61265885D01*
X42482571Y-61503980D02*
X42387333Y-61456361D01*
X42292095Y-61361123D01*
X42244476Y-61170647D01*
X42244476Y-60837314D01*
X42292095Y-60646838D01*
X42387333Y-60551600D01*
X42482571Y-60503980D01*
X42673047Y-60503980D01*
X42768285Y-60551600D01*
X42863523Y-60646838D01*
X42911142Y-60837314D01*
X42911142Y-61170647D01*
X42863523Y-61361123D01*
X42768285Y-61456361D01*
X42673047Y-61503980D01*
X42482571Y-61503980D01*
X43292095Y-60599219D02*
X43339714Y-60551600D01*
X43434952Y-60503980D01*
X43673047Y-60503980D01*
X43768285Y-60551600D01*
X43815904Y-60599219D01*
X43863523Y-60694457D01*
X43863523Y-60789695D01*
X43815904Y-60932552D01*
X43244476Y-61503980D01*
X43863523Y-61503980D01*
X40183571Y-65154523D02*
X40231190Y-65011666D01*
X40278809Y-64964047D01*
X40374047Y-64916428D01*
X40516904Y-64916428D01*
X40612142Y-64964047D01*
X40659761Y-65011666D01*
X40707380Y-65106904D01*
X40707380Y-65487857D01*
X39707380Y-65487857D01*
X39707380Y-65154523D01*
X39755000Y-65059285D01*
X39802619Y-65011666D01*
X39897857Y-64964047D01*
X39993095Y-64964047D01*
X40088333Y-65011666D01*
X40135952Y-65059285D01*
X40183571Y-65154523D01*
X40183571Y-65487857D01*
X40659761Y-64535476D02*
X40707380Y-64392619D01*
X40707380Y-64154523D01*
X40659761Y-64059285D01*
X40612142Y-64011666D01*
X40516904Y-63964047D01*
X40421666Y-63964047D01*
X40326428Y-64011666D01*
X40278809Y-64059285D01*
X40231190Y-64154523D01*
X40183571Y-64345000D01*
X40135952Y-64440238D01*
X40088333Y-64487857D01*
X39993095Y-64535476D01*
X39897857Y-64535476D01*
X39802619Y-64487857D01*
X39755000Y-64440238D01*
X39707380Y-64345000D01*
X39707380Y-64106904D01*
X39755000Y-63964047D01*
X40659761Y-63583095D02*
X40707380Y-63440238D01*
X40707380Y-63202142D01*
X40659761Y-63106904D01*
X40612142Y-63059285D01*
X40516904Y-63011666D01*
X40421666Y-63011666D01*
X40326428Y-63059285D01*
X40278809Y-63106904D01*
X40231190Y-63202142D01*
X40183571Y-63392619D01*
X40135952Y-63487857D01*
X40088333Y-63535476D01*
X39993095Y-63583095D01*
X39897857Y-63583095D01*
X39802619Y-63535476D01*
X39755000Y-63487857D01*
X39707380Y-63392619D01*
X39707380Y-63154523D01*
X39755000Y-63011666D01*
X40707380Y-62059285D02*
X40707380Y-62630714D01*
X40707380Y-62345000D02*
X39707380Y-62345000D01*
X39850238Y-62440238D01*
X39945476Y-62535476D01*
X39993095Y-62630714D01*
X39707380Y-61725952D02*
X39707380Y-61106904D01*
X40088333Y-61440238D01*
X40088333Y-61297380D01*
X40135952Y-61202142D01*
X40183571Y-61154523D01*
X40278809Y-61106904D01*
X40516904Y-61106904D01*
X40612142Y-61154523D01*
X40659761Y-61202142D01*
X40707380Y-61297380D01*
X40707380Y-61583095D01*
X40659761Y-61678333D01*
X40612142Y-61725952D01*
X40135952Y-60535476D02*
X40088333Y-60630714D01*
X40040714Y-60678333D01*
X39945476Y-60725952D01*
X39897857Y-60725952D01*
X39802619Y-60678333D01*
X39755000Y-60630714D01*
X39707380Y-60535476D01*
X39707380Y-60345000D01*
X39755000Y-60249761D01*
X39802619Y-60202142D01*
X39897857Y-60154523D01*
X39945476Y-60154523D01*
X40040714Y-60202142D01*
X40088333Y-60249761D01*
X40135952Y-60345000D01*
X40135952Y-60535476D01*
X40183571Y-60630714D01*
X40231190Y-60678333D01*
X40326428Y-60725952D01*
X40516904Y-60725952D01*
X40612142Y-60678333D01*
X40659761Y-60630714D01*
X40707380Y-60535476D01*
X40707380Y-60345000D01*
X40659761Y-60249761D01*
X40612142Y-60202142D01*
X40516904Y-60154523D01*
X40326428Y-60154523D01*
X40231190Y-60202142D01*
X40183571Y-60249761D01*
X40135952Y-60345000D01*
%TO.C,R12*%
X25410590Y-37347226D02*
X25077257Y-36871036D01*
X24839162Y-37347226D02*
X24839162Y-36347226D01*
X25220114Y-36347226D01*
X25315352Y-36394846D01*
X25362971Y-36442465D01*
X25410590Y-36537703D01*
X25410590Y-36680560D01*
X25362971Y-36775798D01*
X25315352Y-36823417D01*
X25220114Y-36871036D01*
X24839162Y-36871036D01*
X26362971Y-37347226D02*
X25791543Y-37347226D01*
X26077257Y-37347226D02*
X26077257Y-36347226D01*
X25982019Y-36490084D01*
X25886781Y-36585322D01*
X25791543Y-36632941D01*
X26743924Y-36442465D02*
X26791543Y-36394846D01*
X26886781Y-36347226D01*
X27124876Y-36347226D01*
X27220114Y-36394846D01*
X27267733Y-36442465D01*
X27315352Y-36537703D01*
X27315352Y-36632941D01*
X27267733Y-36775798D01*
X26696305Y-37347226D01*
X27315352Y-37347226D01*
X23950418Y-34807783D02*
X24617084Y-34807783D01*
X23569465Y-35045878D02*
X24283751Y-35283974D01*
X24283751Y-34664926D01*
X24521846Y-34283974D02*
X24569465Y-34236354D01*
X24617084Y-34283974D01*
X24569465Y-34331593D01*
X24521846Y-34283974D01*
X24617084Y-34283974D01*
X23617084Y-33903021D02*
X23617084Y-33236354D01*
X24617084Y-33664926D01*
X24617084Y-32855402D02*
X23617084Y-32855402D01*
X24617084Y-32283974D02*
X24045656Y-32712545D01*
X23617084Y-32283974D02*
X24188513Y-32855402D01*
D12*
%TO.C,J5*%
X94511666Y-26679523D02*
X94511666Y-27586666D01*
X94451190Y-27768095D01*
X94330238Y-27889047D01*
X94148809Y-27949523D01*
X94027857Y-27949523D01*
X95721190Y-26679523D02*
X95116428Y-26679523D01*
X95055952Y-27284285D01*
X95116428Y-27223809D01*
X95237380Y-27163333D01*
X95539761Y-27163333D01*
X95660714Y-27223809D01*
X95721190Y-27284285D01*
X95781666Y-27405238D01*
X95781666Y-27707619D01*
X95721190Y-27828571D01*
X95660714Y-27889047D01*
X95539761Y-27949523D01*
X95237380Y-27949523D01*
X95116428Y-27889047D01*
X95055952Y-27828571D01*
D10*
%TO.C,R4*%
X63012133Y-82761180D02*
X62678800Y-82284990D01*
X62440704Y-82761180D02*
X62440704Y-81761180D01*
X62821657Y-81761180D01*
X62916895Y-81808800D01*
X62964514Y-81856419D01*
X63012133Y-81951657D01*
X63012133Y-82094514D01*
X62964514Y-82189752D01*
X62916895Y-82237371D01*
X62821657Y-82284990D01*
X62440704Y-82284990D01*
X63869276Y-82094514D02*
X63869276Y-82761180D01*
X63631180Y-81713561D02*
X63393085Y-82427847D01*
X64012133Y-82427847D01*
%TO.C,C3*%
X86290487Y-110524312D02*
X86242868Y-110571931D01*
X86100011Y-110619550D01*
X86004773Y-110619550D01*
X85861915Y-110571931D01*
X85766677Y-110476693D01*
X85719058Y-110381455D01*
X85671439Y-110190979D01*
X85671439Y-110048122D01*
X85719058Y-109857646D01*
X85766677Y-109762408D01*
X85861915Y-109667170D01*
X86004773Y-109619550D01*
X86100011Y-109619550D01*
X86242868Y-109667170D01*
X86290487Y-109714789D01*
X86623820Y-109619550D02*
X87242868Y-109619550D01*
X86909534Y-110000503D01*
X87052392Y-110000503D01*
X87147630Y-110048122D01*
X87195249Y-110095741D01*
X87242868Y-110190979D01*
X87242868Y-110429074D01*
X87195249Y-110524312D01*
X87147630Y-110571931D01*
X87052392Y-110619550D01*
X86766677Y-110619550D01*
X86671439Y-110571931D01*
X86623820Y-110524312D01*
X86017618Y-118827339D02*
X85446190Y-118827339D01*
X85731904Y-118827339D02*
X85731904Y-117827339D01*
X85636666Y-117970197D01*
X85541428Y-118065435D01*
X85446190Y-118113054D01*
X86874761Y-118160673D02*
X86874761Y-118827339D01*
X86446190Y-118160673D02*
X86446190Y-118684482D01*
X86493809Y-118779720D01*
X86589047Y-118827339D01*
X86731904Y-118827339D01*
X86827142Y-118779720D01*
X86874761Y-118732101D01*
X87684285Y-118303530D02*
X87350952Y-118303530D01*
X87350952Y-118827339D02*
X87350952Y-117827339D01*
X87827142Y-117827339D01*
%TO.C,D1*%
X36314404Y-82857380D02*
X36314404Y-81857380D01*
X36552500Y-81857380D01*
X36695357Y-81905000D01*
X36790595Y-82000238D01*
X36838214Y-82095476D01*
X36885833Y-82285952D01*
X36885833Y-82428809D01*
X36838214Y-82619285D01*
X36790595Y-82714523D01*
X36695357Y-82809761D01*
X36552500Y-82857380D01*
X36314404Y-82857380D01*
X37838214Y-82857380D02*
X37266785Y-82857380D01*
X37552500Y-82857380D02*
X37552500Y-81857380D01*
X37457261Y-82000238D01*
X37362023Y-82095476D01*
X37266785Y-82143095D01*
%TO.C,J7*%
X116872804Y-68290240D02*
X116872804Y-69004526D01*
X116825185Y-69147383D01*
X116729947Y-69242621D01*
X116587090Y-69290240D01*
X116491852Y-69290240D01*
X117253757Y-68290240D02*
X117920423Y-68290240D01*
X117491852Y-69290240D01*
X110257798Y-76398025D02*
X109924465Y-75921835D01*
X109686370Y-76398025D02*
X109686370Y-75398025D01*
X110067322Y-75398025D01*
X110162560Y-75445645D01*
X110210179Y-75493264D01*
X110257798Y-75588502D01*
X110257798Y-75731359D01*
X110210179Y-75826597D01*
X110162560Y-75874216D01*
X110067322Y-75921835D01*
X109686370Y-75921835D01*
X111019703Y-75874216D02*
X110686370Y-75874216D01*
X110686370Y-76398025D02*
X110686370Y-75398025D01*
X111162560Y-75398025D01*
X111305417Y-76493264D02*
X112067322Y-76493264D01*
X112495893Y-75398025D02*
X112686370Y-75398025D01*
X112781608Y-75445645D01*
X112876846Y-75540883D01*
X112924465Y-75731359D01*
X112924465Y-76064692D01*
X112876846Y-76255168D01*
X112781608Y-76350406D01*
X112686370Y-76398025D01*
X112495893Y-76398025D01*
X112400655Y-76350406D01*
X112305417Y-76255168D01*
X112257798Y-76064692D01*
X112257798Y-75731359D01*
X112305417Y-75540883D01*
X112400655Y-75445645D01*
X112495893Y-75398025D01*
X113353036Y-75398025D02*
X113353036Y-76207549D01*
X113400655Y-76302787D01*
X113448274Y-76350406D01*
X113543512Y-76398025D01*
X113733989Y-76398025D01*
X113829227Y-76350406D01*
X113876846Y-76302787D01*
X113924465Y-76207549D01*
X113924465Y-75398025D01*
X114257798Y-75398025D02*
X114829227Y-75398025D01*
X114543512Y-76398025D02*
X114543512Y-75398025D01*
%TO.C,R14*%
X34322142Y-77067380D02*
X33988809Y-76591190D01*
X33750714Y-77067380D02*
X33750714Y-76067380D01*
X34131666Y-76067380D01*
X34226904Y-76115000D01*
X34274523Y-76162619D01*
X34322142Y-76257857D01*
X34322142Y-76400714D01*
X34274523Y-76495952D01*
X34226904Y-76543571D01*
X34131666Y-76591190D01*
X33750714Y-76591190D01*
X35274523Y-77067380D02*
X34703095Y-77067380D01*
X34988809Y-77067380D02*
X34988809Y-76067380D01*
X34893571Y-76210238D01*
X34798333Y-76305476D01*
X34703095Y-76353095D01*
X36131666Y-76400714D02*
X36131666Y-77067380D01*
X35893571Y-76019761D02*
X35655476Y-76734047D01*
X36274523Y-76734047D01*
X34036428Y-73427380D02*
X33465000Y-73427380D01*
X33750714Y-73427380D02*
X33750714Y-72427380D01*
X33655476Y-72570238D01*
X33560238Y-72665476D01*
X33465000Y-72713095D01*
X34465000Y-73332142D02*
X34512619Y-73379761D01*
X34465000Y-73427380D01*
X34417380Y-73379761D01*
X34465000Y-73332142D01*
X34465000Y-73427380D01*
X35465000Y-73427380D02*
X34893571Y-73427380D01*
X35179285Y-73427380D02*
X35179285Y-72427380D01*
X35084047Y-72570238D01*
X34988809Y-72665476D01*
X34893571Y-72713095D01*
X35893571Y-73427380D02*
X35893571Y-72427380D01*
X36465000Y-73427380D02*
X36036428Y-72855952D01*
X36465000Y-72427380D02*
X35893571Y-72998809D01*
%TO.C,C4*%
X62288333Y-115902142D02*
X62240714Y-115949761D01*
X62097857Y-115997380D01*
X62002619Y-115997380D01*
X61859761Y-115949761D01*
X61764523Y-115854523D01*
X61716904Y-115759285D01*
X61669285Y-115568809D01*
X61669285Y-115425952D01*
X61716904Y-115235476D01*
X61764523Y-115140238D01*
X61859761Y-115045000D01*
X62002619Y-114997380D01*
X62097857Y-114997380D01*
X62240714Y-115045000D01*
X62288333Y-115092619D01*
X63145476Y-115330714D02*
X63145476Y-115997380D01*
X62907380Y-114949761D02*
X62669285Y-115664047D01*
X63288333Y-115664047D01*
X63582142Y-110587380D02*
X63677380Y-110587380D01*
X63772619Y-110635000D01*
X63820238Y-110682619D01*
X63867857Y-110777857D01*
X63915476Y-110968333D01*
X63915476Y-111206428D01*
X63867857Y-111396904D01*
X63820238Y-111492142D01*
X63772619Y-111539761D01*
X63677380Y-111587380D01*
X63582142Y-111587380D01*
X63486904Y-111539761D01*
X63439285Y-111492142D01*
X63391666Y-111396904D01*
X63344047Y-111206428D01*
X63344047Y-110968333D01*
X63391666Y-110777857D01*
X63439285Y-110682619D01*
X63486904Y-110635000D01*
X63582142Y-110587380D01*
X64344047Y-111492142D02*
X64391666Y-111539761D01*
X64344047Y-111587380D01*
X64296428Y-111539761D01*
X64344047Y-111492142D01*
X64344047Y-111587380D01*
X65344047Y-111587380D02*
X64772619Y-111587380D01*
X65058333Y-111587380D02*
X65058333Y-110587380D01*
X64963095Y-110730238D01*
X64867857Y-110825476D01*
X64772619Y-110873095D01*
X66201190Y-110920714D02*
X66201190Y-111587380D01*
X65772619Y-110920714D02*
X65772619Y-111444523D01*
X65820238Y-111539761D01*
X65915476Y-111587380D01*
X66058333Y-111587380D01*
X66153571Y-111539761D01*
X66201190Y-111492142D01*
X67010714Y-111063571D02*
X66677380Y-111063571D01*
X66677380Y-111587380D02*
X66677380Y-110587380D01*
X67153571Y-110587380D01*
%TO.C,Q4*%
X42794761Y-50452619D02*
X42699523Y-50405000D01*
X42604285Y-50309761D01*
X42461428Y-50166904D01*
X42366190Y-50119285D01*
X42270952Y-50119285D01*
X42318571Y-50357380D02*
X42223333Y-50309761D01*
X42128095Y-50214523D01*
X42080476Y-50024047D01*
X42080476Y-49690714D01*
X42128095Y-49500238D01*
X42223333Y-49405000D01*
X42318571Y-49357380D01*
X42509047Y-49357380D01*
X42604285Y-49405000D01*
X42699523Y-49500238D01*
X42747142Y-49690714D01*
X42747142Y-50024047D01*
X42699523Y-50214523D01*
X42604285Y-50309761D01*
X42509047Y-50357380D01*
X42318571Y-50357380D01*
X43604285Y-49690714D02*
X43604285Y-50357380D01*
X43366190Y-49309761D02*
X43128095Y-50024047D01*
X43747142Y-50024047D01*
%TO.C,D2*%
X47154404Y-96257380D02*
X47154404Y-95257380D01*
X47392500Y-95257380D01*
X47535357Y-95305000D01*
X47630595Y-95400238D01*
X47678214Y-95495476D01*
X47725833Y-95685952D01*
X47725833Y-95828809D01*
X47678214Y-96019285D01*
X47630595Y-96114523D01*
X47535357Y-96209761D01*
X47392500Y-96257380D01*
X47154404Y-96257380D01*
X48106785Y-95352619D02*
X48154404Y-95305000D01*
X48249642Y-95257380D01*
X48487738Y-95257380D01*
X48582976Y-95305000D01*
X48630595Y-95352619D01*
X48678214Y-95447857D01*
X48678214Y-95543095D01*
X48630595Y-95685952D01*
X48059166Y-96257380D01*
X48678214Y-96257380D01*
%TO.C,C1*%
X93198333Y-52512142D02*
X93150714Y-52559761D01*
X93007857Y-52607380D01*
X92912619Y-52607380D01*
X92769761Y-52559761D01*
X92674523Y-52464523D01*
X92626904Y-52369285D01*
X92579285Y-52178809D01*
X92579285Y-52035952D01*
X92626904Y-51845476D01*
X92674523Y-51750238D01*
X92769761Y-51655000D01*
X92912619Y-51607380D01*
X93007857Y-51607380D01*
X93150714Y-51655000D01*
X93198333Y-51702619D01*
X94150714Y-52607380D02*
X93579285Y-52607380D01*
X93865000Y-52607380D02*
X93865000Y-51607380D01*
X93769761Y-51750238D01*
X93674523Y-51845476D01*
X93579285Y-51893095D01*
%TO.C,J3*%
X112651666Y-57257380D02*
X112651666Y-57971666D01*
X112604047Y-58114523D01*
X112508809Y-58209761D01*
X112365952Y-58257380D01*
X112270714Y-58257380D01*
X113032619Y-57257380D02*
X113651666Y-57257380D01*
X113318333Y-57638333D01*
X113461190Y-57638333D01*
X113556428Y-57685952D01*
X113604047Y-57733571D01*
X113651666Y-57828809D01*
X113651666Y-58066904D01*
X113604047Y-58162142D01*
X113556428Y-58209761D01*
X113461190Y-58257380D01*
X113175476Y-58257380D01*
X113080238Y-58209761D01*
X113032619Y-58162142D01*
%TO.C,R7*%
X76848333Y-84257380D02*
X76515000Y-83781190D01*
X76276904Y-84257380D02*
X76276904Y-83257380D01*
X76657857Y-83257380D01*
X76753095Y-83305000D01*
X76800714Y-83352619D01*
X76848333Y-83447857D01*
X76848333Y-83590714D01*
X76800714Y-83685952D01*
X76753095Y-83733571D01*
X76657857Y-83781190D01*
X76276904Y-83781190D01*
X77181666Y-83257380D02*
X77848333Y-83257380D01*
X77419761Y-84257380D01*
%TO.C,D3*%
X58976904Y-97257380D02*
X58976904Y-96257380D01*
X59215000Y-96257380D01*
X59357857Y-96305000D01*
X59453095Y-96400238D01*
X59500714Y-96495476D01*
X59548333Y-96685952D01*
X59548333Y-96828809D01*
X59500714Y-97019285D01*
X59453095Y-97114523D01*
X59357857Y-97209761D01*
X59215000Y-97257380D01*
X58976904Y-97257380D01*
X59881666Y-96257380D02*
X60500714Y-96257380D01*
X60167380Y-96638333D01*
X60310238Y-96638333D01*
X60405476Y-96685952D01*
X60453095Y-96733571D01*
X60500714Y-96828809D01*
X60500714Y-97066904D01*
X60453095Y-97162142D01*
X60405476Y-97209761D01*
X60310238Y-97257380D01*
X60024523Y-97257380D01*
X59929285Y-97209761D01*
X59881666Y-97162142D01*
%TO.C,R15*%
X51762142Y-92627380D02*
X51428809Y-92151190D01*
X51190714Y-92627380D02*
X51190714Y-91627380D01*
X51571666Y-91627380D01*
X51666904Y-91675000D01*
X51714523Y-91722619D01*
X51762142Y-91817857D01*
X51762142Y-91960714D01*
X51714523Y-92055952D01*
X51666904Y-92103571D01*
X51571666Y-92151190D01*
X51190714Y-92151190D01*
X52714523Y-92627380D02*
X52143095Y-92627380D01*
X52428809Y-92627380D02*
X52428809Y-91627380D01*
X52333571Y-91770238D01*
X52238333Y-91865476D01*
X52143095Y-91913095D01*
X53619285Y-91627380D02*
X53143095Y-91627380D01*
X53095476Y-92103571D01*
X53143095Y-92055952D01*
X53238333Y-92008333D01*
X53476428Y-92008333D01*
X53571666Y-92055952D01*
X53619285Y-92103571D01*
X53666904Y-92198809D01*
X53666904Y-92436904D01*
X53619285Y-92532142D01*
X53571666Y-92579761D01*
X53476428Y-92627380D01*
X53238333Y-92627380D01*
X53143095Y-92579761D01*
X53095476Y-92532142D01*
X47376428Y-90777380D02*
X46805000Y-90777380D01*
X47090714Y-90777380D02*
X47090714Y-89777380D01*
X46995476Y-89920238D01*
X46900238Y-90015476D01*
X46805000Y-90063095D01*
X47805000Y-90682142D02*
X47852619Y-90729761D01*
X47805000Y-90777380D01*
X47757380Y-90729761D01*
X47805000Y-90682142D01*
X47805000Y-90777380D01*
X48805000Y-90777380D02*
X48233571Y-90777380D01*
X48519285Y-90777380D02*
X48519285Y-89777380D01*
X48424047Y-89920238D01*
X48328809Y-90015476D01*
X48233571Y-90063095D01*
X49233571Y-90777380D02*
X49233571Y-89777380D01*
X49805000Y-90777380D02*
X49376428Y-90205952D01*
X49805000Y-89777380D02*
X49233571Y-90348809D01*
%TO.C,J8*%
X25465173Y-82125544D02*
X25465173Y-82839830D01*
X25417554Y-82982687D01*
X25322316Y-83077925D01*
X25179459Y-83125544D01*
X25084221Y-83125544D01*
X26084221Y-82554116D02*
X25988983Y-82506497D01*
X25941364Y-82458878D01*
X25893745Y-82363640D01*
X25893745Y-82316021D01*
X25941364Y-82220783D01*
X25988983Y-82173164D01*
X26084221Y-82125544D01*
X26274697Y-82125544D01*
X26369935Y-82173164D01*
X26417554Y-82220783D01*
X26465173Y-82316021D01*
X26465173Y-82363640D01*
X26417554Y-82458878D01*
X26369935Y-82506497D01*
X26274697Y-82554116D01*
X26084221Y-82554116D01*
X25988983Y-82601735D01*
X25941364Y-82649354D01*
X25893745Y-82744592D01*
X25893745Y-82935068D01*
X25941364Y-83030306D01*
X25988983Y-83077925D01*
X26084221Y-83125544D01*
X26274697Y-83125544D01*
X26369935Y-83077925D01*
X26417554Y-83030306D01*
X26465173Y-82935068D01*
X26465173Y-82744592D01*
X26417554Y-82649354D01*
X26369935Y-82601735D01*
X26274697Y-82554116D01*
X22684190Y-92532712D02*
X22684190Y-92199378D01*
X23207999Y-92056521D02*
X23207999Y-92532712D01*
X22207999Y-92532712D01*
X22207999Y-92056521D01*
X23160380Y-91675569D02*
X23207999Y-91532712D01*
X23207999Y-91294616D01*
X23160380Y-91199378D01*
X23112761Y-91151759D01*
X23017523Y-91104140D01*
X22922285Y-91104140D01*
X22827047Y-91151759D01*
X22779428Y-91199378D01*
X22731809Y-91294616D01*
X22684190Y-91485093D01*
X22636571Y-91580331D01*
X22588952Y-91627950D01*
X22493714Y-91675569D01*
X22398476Y-91675569D01*
X22303238Y-91627950D01*
X22255619Y-91580331D01*
X22207999Y-91485093D01*
X22207999Y-91246997D01*
X22255619Y-91104140D01*
X23207999Y-90675569D02*
X22207999Y-90675569D01*
X22207999Y-90294616D01*
X22255619Y-90199378D01*
X22303238Y-90151759D01*
X22398476Y-90104140D01*
X22541333Y-90104140D01*
X22636571Y-90151759D01*
X22684190Y-90199378D01*
X22731809Y-90294616D01*
X22731809Y-90675569D01*
X23207999Y-88913664D02*
X22207999Y-88913664D01*
X22207999Y-88532712D01*
X22255619Y-88437474D01*
X22303238Y-88389854D01*
X22398476Y-88342235D01*
X22541333Y-88342235D01*
X22636571Y-88389854D01*
X22684190Y-88437474D01*
X22731809Y-88532712D01*
X22731809Y-88913664D01*
X23207999Y-87342235D02*
X22731809Y-87675569D01*
X23207999Y-87913664D02*
X22207999Y-87913664D01*
X22207999Y-87532712D01*
X22255619Y-87437474D01*
X22303238Y-87389854D01*
X22398476Y-87342235D01*
X22541333Y-87342235D01*
X22636571Y-87389854D01*
X22684190Y-87437474D01*
X22731809Y-87532712D01*
X22731809Y-87913664D01*
X22207999Y-86723188D02*
X22207999Y-86532712D01*
X22255619Y-86437474D01*
X22350857Y-86342235D01*
X22541333Y-86294616D01*
X22874666Y-86294616D01*
X23065142Y-86342235D01*
X23160380Y-86437474D01*
X23207999Y-86532712D01*
X23207999Y-86723188D01*
X23160380Y-86818426D01*
X23065142Y-86913664D01*
X22874666Y-86961283D01*
X22541333Y-86961283D01*
X22350857Y-86913664D01*
X22255619Y-86818426D01*
X22207999Y-86723188D01*
X22255619Y-85342235D02*
X22207999Y-85437474D01*
X22207999Y-85580331D01*
X22255619Y-85723188D01*
X22350857Y-85818426D01*
X22446095Y-85866045D01*
X22636571Y-85913664D01*
X22779428Y-85913664D01*
X22969904Y-85866045D01*
X23065142Y-85818426D01*
X23160380Y-85723188D01*
X23207999Y-85580331D01*
X23207999Y-85485093D01*
X23160380Y-85342235D01*
X23112761Y-85294616D01*
X22779428Y-85294616D01*
X22779428Y-85485093D01*
X23207999Y-84294616D02*
X22731809Y-84627950D01*
X23207999Y-84866045D02*
X22207999Y-84866045D01*
X22207999Y-84485093D01*
X22255619Y-84389854D01*
X22303238Y-84342235D01*
X22398476Y-84294616D01*
X22541333Y-84294616D01*
X22636571Y-84342235D01*
X22684190Y-84389854D01*
X22731809Y-84485093D01*
X22731809Y-84866045D01*
X22922285Y-83913664D02*
X22922285Y-83437474D01*
X23207999Y-84008902D02*
X22207999Y-83675569D01*
X23207999Y-83342235D01*
X23207999Y-83008902D02*
X22207999Y-83008902D01*
X22922285Y-82675569D01*
X22207999Y-82342235D01*
X23207999Y-82342235D01*
%TO.C,J6*%
X77606884Y-55718398D02*
X77606884Y-56432684D01*
X77559265Y-56575541D01*
X77464027Y-56670779D01*
X77321170Y-56718398D01*
X77225932Y-56718398D01*
X78511646Y-55718398D02*
X78321170Y-55718398D01*
X78225932Y-55766018D01*
X78178313Y-55813637D01*
X78083075Y-55956494D01*
X78035456Y-56146970D01*
X78035456Y-56527922D01*
X78083075Y-56623160D01*
X78130694Y-56670779D01*
X78225932Y-56718398D01*
X78416408Y-56718398D01*
X78511646Y-56670779D01*
X78559265Y-56623160D01*
X78606884Y-56527922D01*
X78606884Y-56289827D01*
X78559265Y-56194589D01*
X78511646Y-56146970D01*
X78416408Y-56099351D01*
X78225932Y-56099351D01*
X78130694Y-56146970D01*
X78083075Y-56194589D01*
X78035456Y-56289827D01*
X75152399Y-64508105D02*
X74676209Y-64841438D01*
X75152399Y-65079533D02*
X74152399Y-65079533D01*
X74152399Y-64698581D01*
X74200019Y-64603343D01*
X74247638Y-64555724D01*
X74342876Y-64508105D01*
X74485733Y-64508105D01*
X74580971Y-64555724D01*
X74628590Y-64603343D01*
X74676209Y-64698581D01*
X74676209Y-65079533D01*
X74628590Y-63746200D02*
X74628590Y-64079533D01*
X75152399Y-64079533D02*
X74152399Y-64079533D01*
X74152399Y-63603343D01*
X75247638Y-63460486D02*
X75247638Y-62698581D01*
X75152399Y-62460486D02*
X74152399Y-62460486D01*
X74628590Y-62460486D02*
X74628590Y-61889057D01*
X75152399Y-61889057D02*
X74152399Y-61889057D01*
X75152399Y-61412867D02*
X74152399Y-61412867D01*
X75247638Y-61174771D02*
X75247638Y-60412867D01*
X75152399Y-59698581D02*
X75152399Y-60174771D01*
X74152399Y-60174771D01*
X74152399Y-59174771D02*
X74152399Y-58984295D01*
X74200019Y-58889057D01*
X74295257Y-58793819D01*
X74485733Y-58746200D01*
X74819066Y-58746200D01*
X75009542Y-58793819D01*
X75104780Y-58889057D01*
X75152399Y-58984295D01*
X75152399Y-59174771D01*
X75104780Y-59270009D01*
X75009542Y-59365248D01*
X74819066Y-59412867D01*
X74485733Y-59412867D01*
X74295257Y-59365248D01*
X74200019Y-59270009D01*
X74152399Y-59174771D01*
X74152399Y-58412867D02*
X75152399Y-58174771D01*
X74438114Y-57984295D01*
X75152399Y-57793819D01*
X74152399Y-57555724D01*
%TO.C,Q1*%
X44137261Y-40042619D02*
X44042023Y-39995000D01*
X43946785Y-39899761D01*
X43803928Y-39756904D01*
X43708690Y-39709285D01*
X43613452Y-39709285D01*
X43661071Y-39947380D02*
X43565833Y-39899761D01*
X43470595Y-39804523D01*
X43422976Y-39614047D01*
X43422976Y-39280714D01*
X43470595Y-39090238D01*
X43565833Y-38995000D01*
X43661071Y-38947380D01*
X43851547Y-38947380D01*
X43946785Y-38995000D01*
X44042023Y-39090238D01*
X44089642Y-39280714D01*
X44089642Y-39614047D01*
X44042023Y-39804523D01*
X43946785Y-39899761D01*
X43851547Y-39947380D01*
X43661071Y-39947380D01*
X45042023Y-39947380D02*
X44470595Y-39947380D01*
X44756309Y-39947380D02*
X44756309Y-38947380D01*
X44661071Y-39090238D01*
X44565833Y-39185476D01*
X44470595Y-39233095D01*
%TO.C,H4*%
X114158095Y-110072380D02*
X114158095Y-109072380D01*
X114158095Y-109548571D02*
X114729523Y-109548571D01*
X114729523Y-110072380D02*
X114729523Y-109072380D01*
X115634285Y-109405714D02*
X115634285Y-110072380D01*
X115396190Y-109024761D02*
X115158095Y-109739047D01*
X115777142Y-109739047D01*
%TO.C,U1*%
X81023717Y-93402646D02*
X81833763Y-93402646D01*
X81929063Y-93354997D01*
X81976713Y-93307347D01*
X82024363Y-93212047D01*
X82024363Y-93021448D01*
X81976713Y-92926148D01*
X81929063Y-92878499D01*
X81833763Y-92830849D01*
X81023717Y-92830849D01*
X82024363Y-91830203D02*
X82024363Y-92402000D01*
X82024363Y-92116102D02*
X81023717Y-92116102D01*
X81166666Y-92211401D01*
X81261966Y-92306701D01*
X81309616Y-92402000D01*
%TO.C,FL1*%
X109313563Y-60294837D02*
X108980230Y-60294837D01*
X108980230Y-60818646D02*
X108980230Y-59818646D01*
X109456420Y-59818646D01*
X110313563Y-60818646D02*
X109837373Y-60818646D01*
X109837373Y-59818646D01*
X111170706Y-60818646D02*
X110599278Y-60818646D01*
X110884992Y-60818646D02*
X110884992Y-59818646D01*
X110789754Y-59961504D01*
X110694516Y-60056742D01*
X110599278Y-60104361D01*
X106983344Y-66008493D02*
X106507154Y-66008493D01*
X106507154Y-65008493D01*
X107650011Y-65484684D02*
X107316678Y-65484684D01*
X107316678Y-66008493D02*
X107316678Y-65008493D01*
X107792868Y-65008493D01*
X108745249Y-65913255D02*
X108697630Y-65960874D01*
X108554773Y-66008493D01*
X108459535Y-66008493D01*
X108316678Y-65960874D01*
X108221440Y-65865636D01*
X108173821Y-65770398D01*
X108126201Y-65579922D01*
X108126201Y-65437065D01*
X108173821Y-65246589D01*
X108221440Y-65151351D01*
X108316678Y-65056113D01*
X108459535Y-65008493D01*
X108554773Y-65008493D01*
X108697630Y-65056113D01*
X108745249Y-65103732D01*
X109173821Y-66008493D02*
X109173821Y-65008493D01*
X109745249Y-66008493D01*
X109745249Y-65008493D01*
X110221440Y-65627541D02*
X110983344Y-65627541D01*
X111983344Y-66008493D02*
X111411916Y-66008493D01*
X111697630Y-66008493D02*
X111697630Y-65008493D01*
X111602392Y-65151351D01*
X111507154Y-65246589D01*
X111411916Y-65294208D01*
X112840487Y-65008493D02*
X112650011Y-65008493D01*
X112554773Y-65056113D01*
X112507154Y-65103732D01*
X112411916Y-65246589D01*
X112364297Y-65437065D01*
X112364297Y-65818017D01*
X112411916Y-65913255D01*
X112459535Y-65960874D01*
X112554773Y-66008493D01*
X112745249Y-66008493D01*
X112840487Y-65960874D01*
X112888106Y-65913255D01*
X112935725Y-65818017D01*
X112935725Y-65579922D01*
X112888106Y-65484684D01*
X112840487Y-65437065D01*
X112745249Y-65389446D01*
X112554773Y-65389446D01*
X112459535Y-65437065D01*
X112411916Y-65484684D01*
X112364297Y-65579922D01*
X113554773Y-65008493D02*
X113650011Y-65008493D01*
X113745249Y-65056113D01*
X113792868Y-65103732D01*
X113840487Y-65198970D01*
X113888106Y-65389446D01*
X113888106Y-65627541D01*
X113840487Y-65818017D01*
X113792868Y-65913255D01*
X113745249Y-65960874D01*
X113650011Y-66008493D01*
X113554773Y-66008493D01*
X113459535Y-65960874D01*
X113411916Y-65913255D01*
X113364297Y-65818017D01*
X113316678Y-65627541D01*
X113316678Y-65389446D01*
X113364297Y-65198970D01*
X113411916Y-65103732D01*
X113459535Y-65056113D01*
X113554773Y-65008493D01*
%TO.C,Q3*%
X60010161Y-76608019D02*
X59914923Y-76560400D01*
X59819685Y-76465161D01*
X59676828Y-76322304D01*
X59581590Y-76274685D01*
X59486352Y-76274685D01*
X59533971Y-76512780D02*
X59438733Y-76465161D01*
X59343495Y-76369923D01*
X59295876Y-76179447D01*
X59295876Y-75846114D01*
X59343495Y-75655638D01*
X59438733Y-75560400D01*
X59533971Y-75512780D01*
X59724447Y-75512780D01*
X59819685Y-75560400D01*
X59914923Y-75655638D01*
X59962542Y-75846114D01*
X59962542Y-76179447D01*
X59914923Y-76369923D01*
X59819685Y-76465161D01*
X59724447Y-76512780D01*
X59533971Y-76512780D01*
X60295876Y-75512780D02*
X60914923Y-75512780D01*
X60581590Y-75893733D01*
X60724447Y-75893733D01*
X60819685Y-75941352D01*
X60867304Y-75988971D01*
X60914923Y-76084209D01*
X60914923Y-76322304D01*
X60867304Y-76417542D01*
X60819685Y-76465161D01*
X60724447Y-76512780D01*
X60438733Y-76512780D01*
X60343495Y-76465161D01*
X60295876Y-76417542D01*
%TO.C,R10*%
X43047142Y-56797380D02*
X42713809Y-56321190D01*
X42475714Y-56797380D02*
X42475714Y-55797380D01*
X42856666Y-55797380D01*
X42951904Y-55845000D01*
X42999523Y-55892619D01*
X43047142Y-55987857D01*
X43047142Y-56130714D01*
X42999523Y-56225952D01*
X42951904Y-56273571D01*
X42856666Y-56321190D01*
X42475714Y-56321190D01*
X43999523Y-56797380D02*
X43428095Y-56797380D01*
X43713809Y-56797380D02*
X43713809Y-55797380D01*
X43618571Y-55940238D01*
X43523333Y-56035476D01*
X43428095Y-56083095D01*
X44618571Y-55797380D02*
X44713809Y-55797380D01*
X44809047Y-55845000D01*
X44856666Y-55892619D01*
X44904285Y-55987857D01*
X44951904Y-56178333D01*
X44951904Y-56416428D01*
X44904285Y-56606904D01*
X44856666Y-56702142D01*
X44809047Y-56749761D01*
X44713809Y-56797380D01*
X44618571Y-56797380D01*
X44523333Y-56749761D01*
X44475714Y-56702142D01*
X44428095Y-56606904D01*
X44380476Y-56416428D01*
X44380476Y-56178333D01*
X44428095Y-55987857D01*
X44475714Y-55892619D01*
X44523333Y-55845000D01*
X44618571Y-55797380D01*
%TO.C,H3*%
X24318095Y-110072380D02*
X24318095Y-109072380D01*
X24318095Y-109548571D02*
X24889523Y-109548571D01*
X24889523Y-110072380D02*
X24889523Y-109072380D01*
X25270476Y-109072380D02*
X25889523Y-109072380D01*
X25556190Y-109453333D01*
X25699047Y-109453333D01*
X25794285Y-109500952D01*
X25841904Y-109548571D01*
X25889523Y-109643809D01*
X25889523Y-109881904D01*
X25841904Y-109977142D01*
X25794285Y-110024761D01*
X25699047Y-110072380D01*
X25413333Y-110072380D01*
X25318095Y-110024761D01*
X25270476Y-109977142D01*
%TO.C,R11*%
X77452142Y-72457380D02*
X77118809Y-71981190D01*
X76880714Y-72457380D02*
X76880714Y-71457380D01*
X77261666Y-71457380D01*
X77356904Y-71505000D01*
X77404523Y-71552619D01*
X77452142Y-71647857D01*
X77452142Y-71790714D01*
X77404523Y-71885952D01*
X77356904Y-71933571D01*
X77261666Y-71981190D01*
X76880714Y-71981190D01*
X78404523Y-72457380D02*
X77833095Y-72457380D01*
X78118809Y-72457380D02*
X78118809Y-71457380D01*
X78023571Y-71600238D01*
X77928333Y-71695476D01*
X77833095Y-71743095D01*
X79356904Y-72457380D02*
X78785476Y-72457380D01*
X79071190Y-72457380D02*
X79071190Y-71457380D01*
X78975952Y-71600238D01*
X78880714Y-71695476D01*
X78785476Y-71743095D01*
%TO.C,C5*%
X69739647Y-119541399D02*
X69692028Y-119589018D01*
X69549171Y-119636637D01*
X69453933Y-119636637D01*
X69311075Y-119589018D01*
X69215837Y-119493780D01*
X69168218Y-119398542D01*
X69120599Y-119208066D01*
X69120599Y-119065209D01*
X69168218Y-118874733D01*
X69215837Y-118779495D01*
X69311075Y-118684257D01*
X69453933Y-118636637D01*
X69549171Y-118636637D01*
X69692028Y-118684257D01*
X69739647Y-118731876D01*
X70644409Y-118636637D02*
X70168218Y-118636637D01*
X70120599Y-119112828D01*
X70168218Y-119065209D01*
X70263456Y-119017590D01*
X70501552Y-119017590D01*
X70596790Y-119065209D01*
X70644409Y-119112828D01*
X70692028Y-119208066D01*
X70692028Y-119446161D01*
X70644409Y-119541399D01*
X70596790Y-119589018D01*
X70501552Y-119636637D01*
X70263456Y-119636637D01*
X70168218Y-119589018D01*
X70120599Y-119541399D01*
X67952050Y-111947660D02*
X67999669Y-111900041D01*
X68094908Y-111852421D01*
X68333003Y-111852421D01*
X68428241Y-111900041D01*
X68475860Y-111947660D01*
X68523479Y-112042898D01*
X68523479Y-112138136D01*
X68475860Y-112280993D01*
X67904431Y-112852421D01*
X68523479Y-112852421D01*
X68904431Y-111947660D02*
X68952050Y-111900041D01*
X69047288Y-111852421D01*
X69285384Y-111852421D01*
X69380622Y-111900041D01*
X69428241Y-111947660D01*
X69475860Y-112042898D01*
X69475860Y-112138136D01*
X69428241Y-112280993D01*
X68856812Y-112852421D01*
X69475860Y-112852421D01*
X70333003Y-112185755D02*
X70333003Y-112852421D01*
X69904431Y-112185755D02*
X69904431Y-112709564D01*
X69952050Y-112804802D01*
X70047288Y-112852421D01*
X70190146Y-112852421D01*
X70285384Y-112804802D01*
X70333003Y-112757183D01*
X71142527Y-112328612D02*
X70809193Y-112328612D01*
X70809193Y-112852421D02*
X70809193Y-111852421D01*
X71285384Y-111852421D01*
%TO.C,R9*%
X78548333Y-104287380D02*
X78215000Y-103811190D01*
X77976904Y-104287380D02*
X77976904Y-103287380D01*
X78357857Y-103287380D01*
X78453095Y-103335000D01*
X78500714Y-103382619D01*
X78548333Y-103477857D01*
X78548333Y-103620714D01*
X78500714Y-103715952D01*
X78453095Y-103763571D01*
X78357857Y-103811190D01*
X77976904Y-103811190D01*
X79024523Y-104287380D02*
X79215000Y-104287380D01*
X79310238Y-104239761D01*
X79357857Y-104192142D01*
X79453095Y-104049285D01*
X79500714Y-103858809D01*
X79500714Y-103477857D01*
X79453095Y-103382619D01*
X79405476Y-103335000D01*
X79310238Y-103287380D01*
X79119761Y-103287380D01*
X79024523Y-103335000D01*
X78976904Y-103382619D01*
X78929285Y-103477857D01*
X78929285Y-103715952D01*
X78976904Y-103811190D01*
X79024523Y-103858809D01*
X79119761Y-103906428D01*
X79310238Y-103906428D01*
X79405476Y-103858809D01*
X79453095Y-103811190D01*
X79500714Y-103715952D01*
X81721909Y-101562619D02*
X81769528Y-101515000D01*
X81864766Y-101467380D01*
X82102862Y-101467380D01*
X82198100Y-101515000D01*
X82245719Y-101562619D01*
X82293338Y-101657857D01*
X82293338Y-101753095D01*
X82245719Y-101895952D01*
X81674290Y-102467380D01*
X82293338Y-102467380D01*
X82626671Y-101467380D02*
X83293338Y-101467380D01*
X82864766Y-102467380D01*
X83864766Y-101467380D02*
X83960005Y-101467380D01*
X84055243Y-101515000D01*
X84102862Y-101562619D01*
X84150481Y-101657857D01*
X84198100Y-101848333D01*
X84198100Y-102086428D01*
X84150481Y-102276904D01*
X84102862Y-102372142D01*
X84055243Y-102419761D01*
X83960005Y-102467380D01*
X83864766Y-102467380D01*
X83769528Y-102419761D01*
X83721909Y-102372142D01*
X83674290Y-102276904D01*
X83626671Y-102086428D01*
X83626671Y-101848333D01*
X83674290Y-101657857D01*
X83721909Y-101562619D01*
X83769528Y-101515000D01*
X83864766Y-101467380D01*
X85198100Y-102467380D02*
X84864766Y-101991190D01*
X84626671Y-102467380D02*
X84626671Y-101467380D01*
X85007624Y-101467380D01*
X85102862Y-101515000D01*
X85150481Y-101562619D01*
X85198100Y-101657857D01*
X85198100Y-101800714D01*
X85150481Y-101895952D01*
X85102862Y-101943571D01*
X85007624Y-101991190D01*
X84626671Y-101991190D01*
%TO.C,J2*%
X25551666Y-56147380D02*
X25551666Y-56861666D01*
X25504047Y-57004523D01*
X25408809Y-57099761D01*
X25265952Y-57147380D01*
X25170714Y-57147380D01*
X25980238Y-56242619D02*
X26027857Y-56195000D01*
X26123095Y-56147380D01*
X26361190Y-56147380D01*
X26456428Y-56195000D01*
X26504047Y-56242619D01*
X26551666Y-56337857D01*
X26551666Y-56433095D01*
X26504047Y-56575952D01*
X25932619Y-57147380D01*
X26551666Y-57147380D01*
%TO.C,J4*%
X28091666Y-38297380D02*
X28091666Y-39011666D01*
X28044047Y-39154523D01*
X27948809Y-39249761D01*
X27805952Y-39297380D01*
X27710714Y-39297380D01*
X28996428Y-38630714D02*
X28996428Y-39297380D01*
X28758333Y-38249761D02*
X28520238Y-38964047D01*
X29139285Y-38964047D01*
%TO.C,C6*%
X78808333Y-100022142D02*
X78760714Y-100069761D01*
X78617857Y-100117380D01*
X78522619Y-100117380D01*
X78379761Y-100069761D01*
X78284523Y-99974523D01*
X78236904Y-99879285D01*
X78189285Y-99688809D01*
X78189285Y-99545952D01*
X78236904Y-99355476D01*
X78284523Y-99260238D01*
X78379761Y-99165000D01*
X78522619Y-99117380D01*
X78617857Y-99117380D01*
X78760714Y-99165000D01*
X78808333Y-99212619D01*
X79665476Y-99117380D02*
X79475000Y-99117380D01*
X79379761Y-99165000D01*
X79332142Y-99212619D01*
X79236904Y-99355476D01*
X79189285Y-99545952D01*
X79189285Y-99926904D01*
X79236904Y-100022142D01*
X79284523Y-100069761D01*
X79379761Y-100117380D01*
X79570238Y-100117380D01*
X79665476Y-100069761D01*
X79713095Y-100022142D01*
X79760714Y-99926904D01*
X79760714Y-99688809D01*
X79713095Y-99593571D01*
X79665476Y-99545952D01*
X79570238Y-99498333D01*
X79379761Y-99498333D01*
X79284523Y-99545952D01*
X79236904Y-99593571D01*
X79189285Y-99688809D01*
%TO.C,R16*%
X65432142Y-94707380D02*
X65098809Y-94231190D01*
X64860714Y-94707380D02*
X64860714Y-93707380D01*
X65241666Y-93707380D01*
X65336904Y-93755000D01*
X65384523Y-93802619D01*
X65432142Y-93897857D01*
X65432142Y-94040714D01*
X65384523Y-94135952D01*
X65336904Y-94183571D01*
X65241666Y-94231190D01*
X64860714Y-94231190D01*
X66384523Y-94707380D02*
X65813095Y-94707380D01*
X66098809Y-94707380D02*
X66098809Y-93707380D01*
X66003571Y-93850238D01*
X65908333Y-93945476D01*
X65813095Y-93993095D01*
X67241666Y-93707380D02*
X67051190Y-93707380D01*
X66955952Y-93755000D01*
X66908333Y-93802619D01*
X66813095Y-93945476D01*
X66765476Y-94135952D01*
X66765476Y-94516904D01*
X66813095Y-94612142D01*
X66860714Y-94659761D01*
X66955952Y-94707380D01*
X67146428Y-94707380D01*
X67241666Y-94659761D01*
X67289285Y-94612142D01*
X67336904Y-94516904D01*
X67336904Y-94278809D01*
X67289285Y-94183571D01*
X67241666Y-94135952D01*
X67146428Y-94088333D01*
X66955952Y-94088333D01*
X66860714Y-94135952D01*
X66813095Y-94183571D01*
X66765476Y-94278809D01*
X61306428Y-92847380D02*
X60735000Y-92847380D01*
X61020714Y-92847380D02*
X61020714Y-91847380D01*
X60925476Y-91990238D01*
X60830238Y-92085476D01*
X60735000Y-92133095D01*
X61735000Y-92752142D02*
X61782619Y-92799761D01*
X61735000Y-92847380D01*
X61687380Y-92799761D01*
X61735000Y-92752142D01*
X61735000Y-92847380D01*
X62735000Y-92847380D02*
X62163571Y-92847380D01*
X62449285Y-92847380D02*
X62449285Y-91847380D01*
X62354047Y-91990238D01*
X62258809Y-92085476D01*
X62163571Y-92133095D01*
X63163571Y-92847380D02*
X63163571Y-91847380D01*
X63735000Y-92847380D02*
X63306428Y-92275952D01*
X63735000Y-91847380D02*
X63163571Y-92418809D01*
%TO.C,R1*%
X25426193Y-51639208D02*
X25092860Y-51163018D01*
X24854764Y-51639208D02*
X24854764Y-50639208D01*
X25235717Y-50639208D01*
X25330955Y-50686828D01*
X25378574Y-50734447D01*
X25426193Y-50829685D01*
X25426193Y-50972542D01*
X25378574Y-51067780D01*
X25330955Y-51115399D01*
X25235717Y-51163018D01*
X24854764Y-51163018D01*
X26378574Y-51639208D02*
X25807145Y-51639208D01*
X26092860Y-51639208D02*
X26092860Y-50639208D01*
X25997621Y-50782066D01*
X25902383Y-50877304D01*
X25807145Y-50924923D01*
%TO.C,R8*%
X92058644Y-112165261D02*
X91725311Y-111689071D01*
X91487215Y-112165261D02*
X91487215Y-111165261D01*
X91868168Y-111165261D01*
X91963406Y-111212881D01*
X92011025Y-111260500D01*
X92058644Y-111355738D01*
X92058644Y-111498595D01*
X92011025Y-111593833D01*
X91963406Y-111641452D01*
X91868168Y-111689071D01*
X91487215Y-111689071D01*
X92630072Y-111593833D02*
X92534834Y-111546214D01*
X92487215Y-111498595D01*
X92439596Y-111403357D01*
X92439596Y-111355738D01*
X92487215Y-111260500D01*
X92534834Y-111212881D01*
X92630072Y-111165261D01*
X92820549Y-111165261D01*
X92915787Y-111212881D01*
X92963406Y-111260500D01*
X93011025Y-111355738D01*
X93011025Y-111403357D01*
X92963406Y-111498595D01*
X92915787Y-111546214D01*
X92820549Y-111593833D01*
X92630072Y-111593833D01*
X92534834Y-111641452D01*
X92487215Y-111689071D01*
X92439596Y-111784309D01*
X92439596Y-111974785D01*
X92487215Y-112070023D01*
X92534834Y-112117642D01*
X92630072Y-112165261D01*
X92820549Y-112165261D01*
X92915787Y-112117642D01*
X92963406Y-112070023D01*
X93011025Y-111974785D01*
X93011025Y-111784309D01*
X92963406Y-111689071D01*
X92915787Y-111641452D01*
X92820549Y-111593833D01*
X91488710Y-118853208D02*
X90917282Y-118853208D01*
X91202996Y-118853208D02*
X91202996Y-117853208D01*
X91107758Y-117996066D01*
X91012520Y-118091304D01*
X90917282Y-118138923D01*
X92107758Y-117853208D02*
X92202996Y-117853208D01*
X92298234Y-117900828D01*
X92345853Y-117948447D01*
X92393472Y-118043685D01*
X92441091Y-118234161D01*
X92441091Y-118472256D01*
X92393472Y-118662732D01*
X92345853Y-118757970D01*
X92298234Y-118805589D01*
X92202996Y-118853208D01*
X92107758Y-118853208D01*
X92012520Y-118805589D01*
X91964901Y-118757970D01*
X91917282Y-118662732D01*
X91869663Y-118472256D01*
X91869663Y-118234161D01*
X91917282Y-118043685D01*
X91964901Y-117948447D01*
X92012520Y-117900828D01*
X92107758Y-117853208D01*
X92869663Y-118853208D02*
X92869663Y-117853208D01*
X93441091Y-118853208D02*
X93012520Y-118281780D01*
X93441091Y-117853208D02*
X92869663Y-118424637D01*
%TO.C,R5*%
X77998333Y-67617380D02*
X77665000Y-67141190D01*
X77426904Y-67617380D02*
X77426904Y-66617380D01*
X77807857Y-66617380D01*
X77903095Y-66665000D01*
X77950714Y-66712619D01*
X77998333Y-66807857D01*
X77998333Y-66950714D01*
X77950714Y-67045952D01*
X77903095Y-67093571D01*
X77807857Y-67141190D01*
X77426904Y-67141190D01*
X78903095Y-66617380D02*
X78426904Y-66617380D01*
X78379285Y-67093571D01*
X78426904Y-67045952D01*
X78522142Y-66998333D01*
X78760238Y-66998333D01*
X78855476Y-67045952D01*
X78903095Y-67093571D01*
X78950714Y-67188809D01*
X78950714Y-67426904D01*
X78903095Y-67522142D01*
X78855476Y-67569761D01*
X78760238Y-67617380D01*
X78522142Y-67617380D01*
X78426904Y-67569761D01*
X78379285Y-67522142D01*
%TO.C,H2*%
X30203095Y-25187380D02*
X30203095Y-24187380D01*
X30203095Y-24663571D02*
X30774523Y-24663571D01*
X30774523Y-25187380D02*
X30774523Y-24187380D01*
X31203095Y-24282619D02*
X31250714Y-24235000D01*
X31345952Y-24187380D01*
X31584047Y-24187380D01*
X31679285Y-24235000D01*
X31726904Y-24282619D01*
X31774523Y-24377857D01*
X31774523Y-24473095D01*
X31726904Y-24615952D01*
X31155476Y-25187380D01*
X31774523Y-25187380D01*
%TO.C,H1*%
X108343038Y-25152345D02*
X108343038Y-24152345D01*
X108343038Y-24628536D02*
X108914466Y-24628536D01*
X108914466Y-25152345D02*
X108914466Y-24152345D01*
X109914466Y-25152345D02*
X109343038Y-25152345D01*
X109628752Y-25152345D02*
X109628752Y-24152345D01*
X109533514Y-24295203D01*
X109438276Y-24390441D01*
X109343038Y-24438060D01*
%TO.C,R13*%
X29999155Y-37415874D02*
X29665822Y-36939684D01*
X29427727Y-37415874D02*
X29427727Y-36415874D01*
X29808679Y-36415874D01*
X29903917Y-36463494D01*
X29951536Y-36511113D01*
X29999155Y-36606351D01*
X29999155Y-36749208D01*
X29951536Y-36844446D01*
X29903917Y-36892065D01*
X29808679Y-36939684D01*
X29427727Y-36939684D01*
X30951536Y-37415874D02*
X30380108Y-37415874D01*
X30665822Y-37415874D02*
X30665822Y-36415874D01*
X30570584Y-36558732D01*
X30475346Y-36653970D01*
X30380108Y-36701589D01*
X31284870Y-36415874D02*
X31903917Y-36415874D01*
X31570584Y-36796827D01*
X31713441Y-36796827D01*
X31808679Y-36844446D01*
X31856298Y-36892065D01*
X31903917Y-36987303D01*
X31903917Y-37225398D01*
X31856298Y-37320636D01*
X31808679Y-37368255D01*
X31713441Y-37415874D01*
X31427727Y-37415874D01*
X31332489Y-37368255D01*
X31284870Y-37320636D01*
X28574367Y-34807783D02*
X29241033Y-34807783D01*
X28193414Y-35045878D02*
X28907700Y-35283974D01*
X28907700Y-34664926D01*
X29145795Y-34283974D02*
X29193414Y-34236354D01*
X29241033Y-34283974D01*
X29193414Y-34331593D01*
X29145795Y-34283974D01*
X29241033Y-34283974D01*
X28241033Y-33903021D02*
X28241033Y-33236354D01*
X29241033Y-33664926D01*
X29241033Y-32855402D02*
X28241033Y-32855402D01*
X29241033Y-32283974D02*
X28669605Y-32712545D01*
X28241033Y-32283974D02*
X28812462Y-32855402D01*
%TO.C,C7*%
X78638333Y-105812142D02*
X78590714Y-105859761D01*
X78447857Y-105907380D01*
X78352619Y-105907380D01*
X78209761Y-105859761D01*
X78114523Y-105764523D01*
X78066904Y-105669285D01*
X78019285Y-105478809D01*
X78019285Y-105335952D01*
X78066904Y-105145476D01*
X78114523Y-105050238D01*
X78209761Y-104955000D01*
X78352619Y-104907380D01*
X78447857Y-104907380D01*
X78590714Y-104955000D01*
X78638333Y-105002619D01*
X78971666Y-104907380D02*
X79638333Y-104907380D01*
X79209761Y-105907380D01*
X81910238Y-106120714D02*
X81910238Y-106787380D01*
X81672142Y-105739761D02*
X81434047Y-106454047D01*
X82053095Y-106454047D01*
X82434047Y-106692142D02*
X82481666Y-106739761D01*
X82434047Y-106787380D01*
X82386428Y-106739761D01*
X82434047Y-106692142D01*
X82434047Y-106787380D01*
X82815000Y-105787380D02*
X83481666Y-105787380D01*
X83053095Y-106787380D01*
X84291190Y-106120714D02*
X84291190Y-106787380D01*
X83862619Y-106120714D02*
X83862619Y-106644523D01*
X83910238Y-106739761D01*
X84005476Y-106787380D01*
X84148333Y-106787380D01*
X84243571Y-106739761D01*
X84291190Y-106692142D01*
X85100714Y-106263571D02*
X84767380Y-106263571D01*
X84767380Y-106787380D02*
X84767380Y-105787380D01*
X85243571Y-105787380D01*
%TO.C,R3*%
X42278333Y-71337380D02*
X41945000Y-70861190D01*
X41706904Y-71337380D02*
X41706904Y-70337380D01*
X42087857Y-70337380D01*
X42183095Y-70385000D01*
X42230714Y-70432619D01*
X42278333Y-70527857D01*
X42278333Y-70670714D01*
X42230714Y-70765952D01*
X42183095Y-70813571D01*
X42087857Y-70861190D01*
X41706904Y-70861190D01*
X42611666Y-70337380D02*
X43230714Y-70337380D01*
X42897380Y-70718333D01*
X43040238Y-70718333D01*
X43135476Y-70765952D01*
X43183095Y-70813571D01*
X43230714Y-70908809D01*
X43230714Y-71146904D01*
X43183095Y-71242142D01*
X43135476Y-71289761D01*
X43040238Y-71337380D01*
X42754523Y-71337380D01*
X42659285Y-71289761D01*
X42611666Y-71242142D01*
%TO.C,J1*%
X25551666Y-67577380D02*
X25551666Y-68291666D01*
X25504047Y-68434523D01*
X25408809Y-68529761D01*
X25265952Y-68577380D01*
X25170714Y-68577380D01*
X26551666Y-68577380D02*
X25980238Y-68577380D01*
X26265952Y-68577380D02*
X26265952Y-67577380D01*
X26170714Y-67720238D01*
X26075476Y-67815476D01*
X25980238Y-67863095D01*
%TO.C,SW1*%
X76715675Y-110356932D02*
X76858532Y-110404551D01*
X77096628Y-110404551D01*
X77191866Y-110356932D01*
X77239485Y-110309313D01*
X77287104Y-110214075D01*
X77287104Y-110118837D01*
X77239485Y-110023599D01*
X77191866Y-109975980D01*
X77096628Y-109928361D01*
X76906151Y-109880742D01*
X76810913Y-109833123D01*
X76763294Y-109785504D01*
X76715675Y-109690266D01*
X76715675Y-109595028D01*
X76763294Y-109499790D01*
X76810913Y-109452171D01*
X76906151Y-109404551D01*
X77144247Y-109404551D01*
X77287104Y-109452171D01*
X77620437Y-109404551D02*
X77858532Y-110404551D01*
X78049009Y-109690266D01*
X78239485Y-110404551D01*
X78477580Y-109404551D01*
X79382342Y-110404551D02*
X78810913Y-110404551D01*
X79096628Y-110404551D02*
X79096628Y-109404551D01*
X79001389Y-109547409D01*
X78906151Y-109642647D01*
X78810913Y-109690266D01*
X77096628Y-119104551D02*
X76763294Y-118628361D01*
X76525199Y-119104551D02*
X76525199Y-118104551D01*
X76906151Y-118104551D01*
X77001389Y-118152171D01*
X77049009Y-118199790D01*
X77096628Y-118295028D01*
X77096628Y-118437885D01*
X77049009Y-118533123D01*
X77001389Y-118580742D01*
X76906151Y-118628361D01*
X76525199Y-118628361D01*
X77525199Y-118580742D02*
X77858532Y-118580742D01*
X78001389Y-119104551D02*
X77525199Y-119104551D01*
X77525199Y-118104551D01*
X78001389Y-118104551D01*
X78382342Y-119056932D02*
X78525199Y-119104551D01*
X78763294Y-119104551D01*
X78858532Y-119056932D01*
X78906151Y-119009313D01*
X78953770Y-118914075D01*
X78953770Y-118818837D01*
X78906151Y-118723599D01*
X78858532Y-118675980D01*
X78763294Y-118628361D01*
X78572818Y-118580742D01*
X78477580Y-118533123D01*
X78429961Y-118485504D01*
X78382342Y-118390266D01*
X78382342Y-118295028D01*
X78429961Y-118199790D01*
X78477580Y-118152171D01*
X78572818Y-118104551D01*
X78810913Y-118104551D01*
X78953770Y-118152171D01*
X79382342Y-118580742D02*
X79715675Y-118580742D01*
X79858532Y-119104551D02*
X79382342Y-119104551D01*
X79382342Y-118104551D01*
X79858532Y-118104551D01*
X80144247Y-118104551D02*
X80715675Y-118104551D01*
X80429961Y-119104551D02*
X80429961Y-118104551D01*
D13*
%TO.C,R6*%
X77427936Y-77125000D02*
X78882064Y-77125000D01*
X77427936Y-78945000D02*
X78882064Y-78945000D01*
%TO.C,R2*%
X44469564Y-44965000D02*
X43015436Y-44965000D01*
X44469564Y-46785000D02*
X43015436Y-46785000D01*
%TO.C,ESP32-WROOM-32D1*%
X59770275Y-120031072D02*
X60150275Y-120031072D01*
X41530275Y-100706072D02*
X42530275Y-100706072D01*
X41530275Y-126451072D02*
X41530275Y-120031072D01*
X59770275Y-126451072D02*
X41530275Y-126451072D01*
X41530275Y-101486072D02*
X41530275Y-100706072D01*
X59770275Y-101486072D02*
X59770275Y-100706072D01*
X59770275Y-100706072D02*
X58770275Y-100706072D01*
X59770275Y-126451072D02*
X59770275Y-120031072D01*
%TO.C,SW2*%
X25065000Y-104465000D02*
X26565000Y-104465000D01*
X29065000Y-103215000D02*
X29065000Y-98715000D01*
X26565000Y-97465000D02*
X25065000Y-97465000D01*
X22565000Y-98715000D02*
X22565000Y-103215000D01*
%TO.C,C2*%
X88406248Y-56395000D02*
X89828752Y-56395000D01*
X88406248Y-54575000D02*
X89828752Y-54575000D01*
%TO.C,Q2*%
X43054000Y-65011600D02*
X42404000Y-65011600D01*
X43054000Y-61891600D02*
X43704000Y-61891600D01*
X43054000Y-65011600D02*
X43704000Y-65011600D01*
X43054000Y-61891600D02*
X41379000Y-61891600D01*
%TO.C,R12*%
X26907896Y-32995923D02*
X26907896Y-34450051D01*
X25087896Y-32995923D02*
X25087896Y-34450051D01*
D14*
%TO.C,J5*%
X44840000Y-28770000D02*
X44840000Y-33770000D01*
X44840000Y-33770000D02*
X96600000Y-33770000D01*
X96600000Y-33770000D02*
X96600000Y-30000000D01*
X95000000Y-28770000D02*
X44840000Y-28770000D01*
D13*
%TO.C,R4*%
X63982064Y-79493800D02*
X62527936Y-79493800D01*
X63982064Y-81313800D02*
X62527936Y-81313800D01*
%TO.C,C3*%
X88389587Y-115354465D02*
X88389587Y-113031961D01*
X84969587Y-115354465D02*
X84969587Y-113031961D01*
%TO.C,D1*%
X36252500Y-81710000D02*
X38712500Y-81710000D01*
X38712500Y-80240000D02*
X36252500Y-80240000D01*
X38712500Y-81710000D02*
X38712500Y-80240000D01*
%TO.C,J7*%
X115796370Y-69285645D02*
X115796370Y-72605645D01*
X110526370Y-74555645D02*
X113846370Y-74555645D01*
X108576370Y-69285645D02*
X108576370Y-72605645D01*
X110526370Y-67335645D02*
X113846370Y-67335645D01*
%TO.C,R14*%
X35692064Y-75705000D02*
X34237936Y-75705000D01*
X35692064Y-73885000D02*
X34237936Y-73885000D01*
%TO.C,C4*%
X67025000Y-114281248D02*
X67025000Y-116603752D01*
X63605000Y-114281248D02*
X63605000Y-116603752D01*
%TO.C,Q4*%
X42890000Y-53865000D02*
X43540000Y-53865000D01*
X42890000Y-53865000D02*
X42240000Y-53865000D01*
X42890000Y-50745000D02*
X43540000Y-50745000D01*
X42890000Y-50745000D02*
X41215000Y-50745000D01*
%TO.C,D2*%
X49552500Y-95110000D02*
X49552500Y-93640000D01*
X47092500Y-95110000D02*
X49552500Y-95110000D01*
X49552500Y-93640000D02*
X47092500Y-93640000D01*
%TO.C,C1*%
X88306248Y-51235000D02*
X89728752Y-51235000D01*
X88306248Y-53055000D02*
X89728752Y-53055000D01*
%TO.C,J3*%
X114595000Y-56695000D02*
X114845000Y-56195000D01*
X107045000Y-56195000D02*
X107045000Y-35895000D01*
X107695000Y-56745000D02*
X107995000Y-56195000D01*
X107045000Y-35895000D02*
X119645000Y-35895000D01*
X119645000Y-56695000D02*
X114595000Y-56695000D01*
X107995000Y-56195000D02*
X107045000Y-56195000D01*
X109745000Y-56745000D02*
X107695000Y-56745000D01*
X119645000Y-35895000D02*
X119645000Y-56695000D01*
X109445000Y-56195000D02*
X109745000Y-56745000D01*
X114845000Y-56195000D02*
X109445000Y-56195000D01*
%TO.C,R7*%
X76287936Y-84715000D02*
X77742064Y-84715000D01*
X76287936Y-86535000D02*
X77742064Y-86535000D01*
%TO.C,D3*%
X64022500Y-96950000D02*
X61562500Y-96950000D01*
X61562500Y-98420000D02*
X64022500Y-98420000D01*
X64022500Y-98420000D02*
X64022500Y-96950000D01*
%TO.C,R15*%
X49032064Y-93055000D02*
X47577936Y-93055000D01*
X49032064Y-91235000D02*
X47577936Y-91235000D01*
%TO.C,J8*%
X24468507Y-86273164D02*
X24468507Y-91413164D01*
X24468507Y-83673164D02*
X25798507Y-83673164D01*
X27128507Y-86273164D02*
X27128507Y-91413164D01*
X24468507Y-91413164D02*
X27128507Y-91413164D01*
X24468507Y-85003164D02*
X24468507Y-83673164D01*
X24468507Y-86273164D02*
X27128507Y-86273164D01*
%TO.C,J6*%
X76610218Y-65006018D02*
X79270218Y-65006018D01*
X76610218Y-59866018D02*
X76610218Y-65006018D01*
X76610218Y-57266018D02*
X77940218Y-57266018D01*
X76610218Y-58596018D02*
X76610218Y-57266018D01*
X76610218Y-59866018D02*
X79270218Y-59866018D01*
X79270218Y-59866018D02*
X79270218Y-65006018D01*
%TO.C,Q1*%
X44232500Y-43455000D02*
X43582500Y-43455000D01*
X44232500Y-43455000D02*
X44882500Y-43455000D01*
X44232500Y-40335000D02*
X42557500Y-40335000D01*
X44232500Y-40335000D02*
X44882500Y-40335000D01*
D15*
%TO.C,U1*%
X102665000Y-59005000D02*
X103965000Y-59005000D01*
X84965000Y-62205000D02*
X84965000Y-59005000D01*
X84965000Y-59005000D02*
X86265000Y-59005000D01*
X103965000Y-59005000D02*
X103965000Y-62205000D01*
X91865000Y-94605000D02*
X95665000Y-94605000D01*
D16*
X83055000Y-89825000D02*
G75*
G03*
X83055000Y-89825000I-150000J0D01*
G01*
D13*
%TO.C,FL1*%
X110621659Y-63776266D02*
X110961659Y-63776266D01*
X109141659Y-61706266D02*
X107911659Y-61706266D01*
X110621659Y-61956266D02*
X110961659Y-61956266D01*
X109141659Y-61956266D02*
X109481659Y-61956266D01*
X109141659Y-61956266D02*
X109141659Y-61706266D01*
X109141659Y-63776266D02*
X109481659Y-63776266D01*
%TO.C,Q3*%
X63255000Y-74475000D02*
X61580000Y-74475000D01*
X63255000Y-77595000D02*
X63905000Y-77595000D01*
X63255000Y-74475000D02*
X63905000Y-74475000D01*
X63255000Y-77595000D02*
X62605000Y-77595000D01*
%TO.C,R10*%
X42962936Y-59075000D02*
X44417064Y-59075000D01*
X42962936Y-57255000D02*
X44417064Y-57255000D01*
%TO.C,R11*%
X77367936Y-74735000D02*
X78822064Y-74735000D01*
X77367936Y-72915000D02*
X78822064Y-72915000D01*
%TO.C,C5*%
X71235000Y-113235000D02*
X68215000Y-113235000D01*
X71235000Y-117620000D02*
X71235000Y-113235000D01*
X68215000Y-113235000D02*
X68215000Y-117620000D01*
%TO.C,R9*%
X79442064Y-102925000D02*
X77987936Y-102925000D01*
X79442064Y-101105000D02*
X77987936Y-101105000D01*
%TO.C,J2*%
X24555000Y-60295000D02*
X27215000Y-60295000D01*
X24555000Y-65435000D02*
X27215000Y-65435000D01*
X24555000Y-60295000D02*
X24555000Y-65435000D01*
X24555000Y-59025000D02*
X24555000Y-57695000D01*
X24555000Y-57695000D02*
X25885000Y-57695000D01*
X27215000Y-60295000D02*
X27215000Y-65435000D01*
%TO.C,J4*%
X24262860Y-39985000D02*
X24262860Y-38655000D01*
X26922860Y-41255000D02*
X26922860Y-48935000D01*
X24262860Y-41255000D02*
X24262860Y-48935000D01*
X24262860Y-41255000D02*
X26922860Y-41255000D01*
X24262860Y-48935000D02*
X26922860Y-48935000D01*
X24262860Y-38655000D02*
X25592860Y-38655000D01*
%TO.C,C6*%
X79686252Y-96905000D02*
X78263748Y-96905000D01*
X79686252Y-98725000D02*
X78263748Y-98725000D01*
%TO.C,R16*%
X62962064Y-95125000D02*
X61507936Y-95125000D01*
X62962064Y-93305000D02*
X61507936Y-93305000D01*
%TO.C,R1*%
X24865796Y-53916828D02*
X26319924Y-53916828D01*
X24865796Y-52096828D02*
X26319924Y-52096828D01*
%TO.C,R8*%
X91269187Y-114352853D02*
X91269187Y-115806981D01*
X93089187Y-114352853D02*
X93089187Y-115806981D01*
%TO.C,R5*%
X77437936Y-68075000D02*
X78892064Y-68075000D01*
X77437936Y-69895000D02*
X78892064Y-69895000D01*
%TO.C,R13*%
X31518653Y-33056910D02*
X31518653Y-34511038D01*
X29698653Y-33056910D02*
X29698653Y-34511038D01*
%TO.C,C7*%
X79391802Y-108085205D02*
X77969298Y-108085205D01*
X79391802Y-106265205D02*
X77969298Y-106265205D01*
%TO.C,R3*%
X43172064Y-69975000D02*
X41717936Y-69975000D01*
X43172064Y-68155000D02*
X41717936Y-68155000D01*
%TO.C,J1*%
X24555000Y-70455000D02*
X24555000Y-69125000D01*
X24555000Y-79405000D02*
X27215000Y-79405000D01*
X24555000Y-71725000D02*
X27215000Y-71725000D01*
X27215000Y-71725000D02*
X27215000Y-79405000D01*
X24555000Y-69125000D02*
X25885000Y-69125000D01*
X24555000Y-71725000D02*
X24555000Y-79405000D01*
%TO.C,SW1*%
X75799009Y-117452171D02*
X80299009Y-117452171D01*
X74549009Y-113452171D02*
X74549009Y-114952171D01*
X81549009Y-114952171D02*
X81549009Y-113452171D01*
X80299009Y-110952171D02*
X75799009Y-110952171D01*
%TD*%
M02*
