M48
; DRILL file {KiCad 6.0.8-f2edbf62ab~116~ubuntu22.04.1} date Fri 21 Oct 2022 04:06:30 PM
; FORMAT={-:-/ absolute / inch / decimal}
; #@! TF.CreationDate,2022-10-21T16:06:30-07:00
; #@! TF.GenerationSoftware,Kicad,Pcbnew,6.0.8-f2edbf62ab~116~ubuntu22.04.1
; #@! TF.FileFunction,Plated,1,4,PTH
FMAT,2
INCH
; #@! TA.AperFunction,Plated,PTH,ViaDrill
T1C0.0118
; #@! TA.AperFunction,Plated,PTH,ComponentDrill
T2C0.0118
; #@! TA.AperFunction,Plated,PTH,ViaDrill
T3C0.0157
; #@! TA.AperFunction,Plated,PTH,ComponentDrill
T4C0.0236
; #@! TA.AperFunction,Plated,PTH,ComponentDrill
T5C0.0394
; #@! TA.AperFunction,Plated,PTH,ComponentDrill
T6C0.0433
; #@! TA.AperFunction,Plated,PTH,ComponentDrill
T7C0.0453
; #@! TA.AperFunction,Plated,PTH,ComponentDrill
T8C0.0520
; #@! TA.AperFunction,Plated,PTH,ComponentDrill
T9C0.0591
; #@! TA.AperFunction,Plated,PTH,ComponentDrill
T10C0.0669
; #@! TA.AperFunction,Plated,PTH,ComponentDrill
T11C0.1693
%
G90
G05
T1
X0.986Y-2.0167
X1.249Y-4.4045
X1.2726Y-4.373
X1.3156Y-3.764
X1.4104Y-4.2652
X1.4226Y-4.2242
X1.4722Y-4.6341
X1.4738Y-4.3175
X1.4892Y-4.2746
X1.5419Y-4.3604
X1.5502Y-4.3222
X1.6356Y-3.7006
X1.7045Y-3.6258
X1.7053Y-3.5203
X2.0553Y-3.7219
X2.1293Y-3.6911
X2.1581Y-3.8541
X2.3963Y-2.8002
X2.4077Y-4.5593
X2.4104Y-4.5073
X2.4337Y-2.777
X2.4644Y-4.4242
X2.5061Y-4.424
X2.5203Y-4.0675
X2.5467Y-4.424
X2.6274Y-4.1234
X2.6299Y-4.3843
X2.6699Y-4.3843
X2.71Y-4.3843
X2.778Y-4.5722
X2.778Y-4.6122
X2.778Y-4.6522
X2.9791Y-3.5438
X2.9809Y-3.588
X3.1915Y-2.9057
X3.1919Y-2.7136
X3.1931Y-3.073
X3.1998Y-3.3667
X3.2002Y-3.2545
X3.2049Y-3.1813
X3.2293Y-3.1478
X3.2293Y-3.2868
X3.3991Y-1.9638
X3.4391Y-1.9638
X3.4791Y-1.9638
X4.2057Y-3.2018
X4.2057Y-3.3774
X4.2494Y-3.2018
X4.251Y-3.3774
T2
X4.3327Y-2.4315
X4.3327Y-2.5186
T3
X1.3805Y-1.4423
X1.3817Y-1.2931
X1.4093Y-1.9754
X1.4116Y-2.664
X1.4549Y-3.8943
X1.5061Y-4.61
X1.547Y-3.814
X1.5813Y-4.66
X1.727Y-4.6549
X1.8166Y-3.0683
X1.8166Y-3.253
X1.8166Y-3.4262
X1.9404Y-1.9781
X1.9431Y-2.6695
X1.9443Y-2.3262
X1.9591Y-4.3058
X1.9951Y-4.4384
X2.0311Y-4.3798
X2.0326Y-4.3058
X2.04Y-3.6833
X2.0738Y-4.4396
X2.1061Y-4.3058
X2.1321Y-3.6431
X2.1691Y-3.8986
X2.2278Y-3.899
X2.2591Y-4.6538
X2.264Y-2.5737
X2.2701Y-2.1742
X2.29Y-2.4611
X2.2904Y-2.7372
X2.3024Y-2.0585
X2.4057Y-4.6557
X2.41Y-4.3451
X2.4108Y-4.2573
X2.4108Y-4.41
X2.4868Y-2.3274
X2.5281Y-4.2463
X2.5593Y-4.0923
X2.5648Y-1.7242
X2.6467Y-4.1632
X2.6577Y-2.8246
X2.6683Y-2.7494
X2.6888Y-2.1597
X2.7016Y-2.5807
X2.7163Y-2.0594
X2.7248Y-2.4685
X3.2207Y-4.1033
X3.2234Y-3.9844
X3.4663Y-4.349
X3.5891Y-2.2657
X3.6191Y-2.0518
X3.6211Y-2.1838
X3.6311Y-2.2657
X3.6722Y-2.2657
X3.6829Y-4.4281
X3.7691Y-2.2657
X3.8111Y-2.2657
X3.8514Y-2.2657
X4.1852Y-2.5171
X4.1856Y-2.4301
X4.2671Y-2.4069
X4.2675Y-2.5427
X4.3317Y-2.3809
X4.3323Y-2.5675
X4.3963Y-2.4069
X4.397Y-2.5435
X4.4136Y-2.6002
X4.4821Y-2.4754
X4.4919Y-2.5967
T4
X0.8604Y-0.9874
X0.8604Y-4.5244
X0.8976Y-0.8976
X0.8976Y-1.0772
X0.8976Y-4.4346
X0.8976Y-4.6142
X0.9874Y-0.8604
X0.9874Y-1.1144
X0.9874Y-4.3974
X0.9874Y-4.6514
X1.0772Y-0.8976
X1.0772Y-1.0772
X1.0772Y-4.4346
X1.0772Y-4.6142
X1.1144Y-0.9874
X1.1144Y-4.5244
X4.3974Y-0.9874
X4.3974Y-4.5244
X4.4346Y-0.8976
X4.4346Y-1.0772
X4.4346Y-4.4346
X4.4346Y-4.6142
X4.5244Y-0.8604
X4.5244Y-1.1144
X4.5244Y-4.3974
X4.5244Y-4.6514
X4.6142Y-0.8976
X4.6142Y-1.0772
X4.6142Y-4.4346
X4.6142Y-4.6142
X4.6514Y-0.9874
X4.6514Y-4.5244
T5
X1.0061Y-1.5746
X1.0061Y-1.6746
X1.0061Y-1.7746
X1.0061Y-1.8746
X1.0116Y-3.352
X1.0116Y-3.452
X1.0116Y-3.552
X1.0128Y-2.3217
X1.0128Y-2.4217
X1.0128Y-2.5217
X1.0191Y-2.7738
X1.0191Y-2.8738
X1.0191Y-2.9738
X1.0191Y-3.0738
X3.0685Y-2.3069
X3.0685Y-2.4069
X3.0685Y-2.5069
T6
X0.9278Y-3.847
X0.9278Y-4.103
X1.1049Y-3.847
X1.1049Y-4.103
X2.9448Y-4.4076
X2.9448Y-4.5847
X3.2007Y-4.4076
X3.2007Y-4.5847
T7
X1.8402Y-1.1811
X1.8402Y-1.2811
X1.9402Y-1.1811
X1.9402Y-1.2811
X2.0402Y-1.1811
X2.0402Y-1.2811
X2.1402Y-1.1811
X2.1402Y-1.2811
X2.2402Y-1.1811
X2.2402Y-1.2811
X2.3402Y-1.1811
X2.3402Y-1.2811
X2.4402Y-1.1811
X2.4402Y-1.2811
X2.5402Y-1.1811
X2.5402Y-1.2811
X2.6402Y-1.1811
X2.6402Y-1.2811
X2.7402Y-1.1811
X2.7402Y-1.2811
X2.8402Y-1.1811
X2.8402Y-1.2811
X2.9402Y-1.1811
X2.9402Y-1.2811
X3.0402Y-1.1811
X3.0402Y-1.2811
X3.1402Y-1.1811
X3.1402Y-1.2811
X3.2402Y-1.1811
X3.2402Y-1.2811
X3.3402Y-1.1811
X3.3402Y-1.2811
X3.4402Y-1.1811
X3.4402Y-1.2811
X3.5402Y-1.1811
X3.5402Y-1.2811
X3.6402Y-1.1811
X3.6402Y-1.2811
X3.7402Y-1.1811
X3.7402Y-1.2811
T8
X4.462Y-1.5266
X4.462Y-1.7234
X4.462Y-1.9203
X4.462Y-2.1171
T9
X4.4168Y-2.7931
T10
X4.3168Y-2.6931
X4.3168Y-2.8931
X4.5168Y-2.6931
X4.5168Y-2.8931
T11
X0.9874Y-0.9874
X0.9874Y-4.5244
X4.5244Y-0.9874
X4.5244Y-4.5244
T0
M30
