%TF.GenerationSoftware,KiCad,Pcbnew,6.0.5-a6ca702e91~116~ubuntu22.04.1*%
%TF.CreationDate,2022-06-15T11:28:33-07:00*%
%TF.ProjectId,aprs-esp32,61707273-2d65-4737-9033-322e6b696361,v1.0.0*%
%TF.SameCoordinates,Original*%
%TF.FileFunction,Copper,L4,Bot*%
%TF.FilePolarity,Positive*%
%FSLAX46Y46*%
G04 Gerber Fmt 4.6, Leading zero omitted, Abs format (unit mm)*
G04 Created by KiCad (PCBNEW 6.0.5-a6ca702e91~116~ubuntu22.04.1) date 2022-06-15 11:28:33*
%MOMM*%
%LPD*%
G01*
G04 APERTURE LIST*
%TA.AperFunction,ComponentPad*%
%ADD10C,2.000000*%
%TD*%
%TA.AperFunction,ComponentPad*%
%ADD11C,1.725000*%
%TD*%
%TA.AperFunction,ComponentPad*%
%ADD12R,1.725000X1.725000*%
%TD*%
%TA.AperFunction,ComponentPad*%
%ADD13C,2.050000*%
%TD*%
%TA.AperFunction,ComponentPad*%
%ADD14C,2.250000*%
%TD*%
%TA.AperFunction,ComponentPad*%
%ADD15R,3.960000X1.980000*%
%TD*%
%TA.AperFunction,ComponentPad*%
%ADD16O,3.960000X1.980000*%
%TD*%
%TA.AperFunction,ComponentPad*%
%ADD17R,1.700000X1.700000*%
%TD*%
%TA.AperFunction,ComponentPad*%
%ADD18O,1.700000X1.700000*%
%TD*%
%TA.AperFunction,ComponentPad*%
%ADD19C,0.900000*%
%TD*%
%TA.AperFunction,ComponentPad*%
%ADD20C,8.600000*%
%TD*%
%TA.AperFunction,ComponentPad*%
%ADD21C,0.610000*%
%TD*%
%TA.AperFunction,ViaPad*%
%ADD22C,0.800000*%
%TD*%
%TA.AperFunction,Conductor*%
%ADD23C,0.292100*%
%TD*%
G04 APERTURE END LIST*
D10*
%TO.P,SW2,2,2*%
%TO.N,ESP_PROG*%
X28065000Y-97715000D03*
X28065000Y-104215000D03*
%TO.P,SW2,1,1*%
%TO.N,GND*%
X23565000Y-97715000D03*
X23565000Y-104215000D03*
%TD*%
D11*
%TO.P,J5,40,40*%
%TO.N,GPS_RX*%
X46740000Y-32540000D03*
%TO.P,J5,39,39*%
%TO.N,GPS_TX*%
X46740000Y-30000000D03*
%TO.P,J5,38,38*%
%TO.N,GPIO23*%
X49280000Y-32540000D03*
%TO.P,J5,37,37*%
%TO.N,ONE_WIRE*%
X49280000Y-30000000D03*
%TO.P,J5,36,36*%
%TO.N,GPIO015*%
X51820000Y-32540000D03*
%TO.P,J5,35,35*%
%TO.N,I2C_SA*%
X51820000Y-30000000D03*
%TO.P,J5,34,34*%
%TO.N,GPIO012*%
X54360000Y-32540000D03*
%TO.P,J5,33,33*%
%TO.N,I2C_SCL*%
X54360000Y-30000000D03*
%TO.P,J5,32,32*%
%TO.N,GPIO27*%
X56900000Y-32540000D03*
%TO.P,J5,31,31*%
%TO.N,unconnected-(J5-Pad31)*%
X56900000Y-30000000D03*
%TO.P,J5,30,30*%
%TO.N,GPIO26*%
X59440000Y-32540000D03*
%TO.P,J5,29,29*%
%TO.N,GPIO35*%
X59440000Y-30000000D03*
%TO.P,J5,28,28*%
%TO.N,GPIO032*%
X61980000Y-32540000D03*
%TO.P,J5,27,27*%
%TO.N,AF_OUT*%
X61980000Y-30000000D03*
%TO.P,J5,26,26*%
%TO.N,GPIO34*%
X64520000Y-32540000D03*
%TO.P,J5,25,25*%
%TO.N,unconnected-(J5-Pad25)*%
X64520000Y-30000000D03*
%TO.P,J5,24,24*%
%TO.N,AUDIO_IN*%
X67060000Y-32540000D03*
%TO.P,J5,23,23*%
%TO.N,unconnected-(J5-Pad23)*%
X67060000Y-30000000D03*
%TO.P,J5,22,22*%
%TO.N,unconnected-(J5-Pad22)*%
X69600000Y-32540000D03*
%TO.P,J5,21,21*%
%TO.N,SQ*%
X69600000Y-30000000D03*
%TO.P,J5,20,20*%
%TO.N,4V_E*%
X72140000Y-32540000D03*
%TO.P,J5,19,19*%
X72140000Y-30000000D03*
%TO.P,J5,18,18*%
X74680000Y-32540000D03*
%TO.P,J5,17,17*%
X74680000Y-30000000D03*
%TO.P,J5,16,16*%
%TO.N,+3V3_E*%
X77220000Y-32540000D03*
%TO.P,J5,15,15*%
X77220000Y-30000000D03*
%TO.P,J5,14,14*%
X79760000Y-32540000D03*
%TO.P,J5,13,13*%
X79760000Y-30000000D03*
%TO.P,J5,12,12*%
%TO.N,+3V3*%
X82300000Y-32540000D03*
%TO.P,J5,11,11*%
X82300000Y-30000000D03*
%TO.P,J5,10,10*%
X84840000Y-32540000D03*
%TO.P,J5,9,9*%
X84840000Y-30000000D03*
%TO.P,J5,8,8*%
%TO.N,GND*%
X87380000Y-32540000D03*
%TO.P,J5,7,7*%
X87380000Y-30000000D03*
%TO.P,J5,6,6*%
X89920000Y-32540000D03*
%TO.P,J5,5,5*%
X89920000Y-30000000D03*
%TO.P,J5,4,4*%
%TO.N,+4V*%
X92460000Y-32540000D03*
%TO.P,J5,3,3*%
X92460000Y-30000000D03*
%TO.P,J5,2,2*%
X95000000Y-32540000D03*
D12*
%TO.P,J5,1,1*%
X95000000Y-30000000D03*
%TD*%
D13*
%TO.P,J7,1,In*%
%TO.N,/RF_OUT*%
X112186370Y-70945645D03*
D14*
%TO.P,J7,2,Ext*%
%TO.N,GND*%
X114726370Y-73485645D03*
X109646370Y-73485645D03*
X114726370Y-68405645D03*
X109646370Y-68405645D03*
%TD*%
D15*
%TO.P,J3,1,Pin_1*%
%TO.N,+4V*%
X113345000Y-38545000D03*
D16*
%TO.P,J3,2,Pin_2*%
%TO.N,GND*%
X113345000Y-43545000D03*
%TO.P,J3,3,Pin_3*%
X113345000Y-48545000D03*
%TO.P,J3,4,Pin_4*%
%TO.N,+3V3*%
X113345000Y-53545000D03*
%TD*%
D17*
%TO.P,J8,1,Pin_1*%
%TO.N,ESP_TX*%
X25798507Y-85003164D03*
D18*
%TO.P,J8,2,Pin_2*%
%TO.N,ESP_RX*%
X25798507Y-87543164D03*
%TO.P,J8,3,Pin_3*%
%TO.N,GND*%
X25798507Y-90083164D03*
%TD*%
D17*
%TO.P,J6,1,Pin_1*%
%TO.N,unconnected-(J6-Pad1)*%
X77940218Y-58596018D03*
D18*
%TO.P,J6,2,Pin_2*%
%TO.N,GND*%
X77940218Y-61136018D03*
%TO.P,J6,3,Pin_3*%
%TO.N,/RF_HI_ENA*%
X77940218Y-63676018D03*
%TD*%
D19*
%TO.P,H4,1,1*%
%TO.N,GND*%
X118145000Y-114920000D03*
D20*
X114920000Y-114920000D03*
D19*
X112639581Y-117200419D03*
X111695000Y-114920000D03*
X117200419Y-117200419D03*
X114920000Y-111695000D03*
X117200419Y-112639581D03*
X114920000Y-118145000D03*
X112639581Y-112639581D03*
%TD*%
D21*
%TO.P,FL1,4,GND*%
%TO.N,GND*%
X110051659Y-61761266D03*
%TO.P,FL1,2,GND*%
X110051659Y-63971266D03*
%TD*%
D20*
%TO.P,H3,1,1*%
%TO.N,GND*%
X25080000Y-114920000D03*
D19*
X21855000Y-114920000D03*
X25080000Y-118145000D03*
X27360419Y-112639581D03*
X27360419Y-117200419D03*
X22799581Y-117200419D03*
X22799581Y-112639581D03*
X28305000Y-114920000D03*
X25080000Y-111695000D03*
%TD*%
D17*
%TO.P,J2,1,Pin_1*%
%TO.N,+3V3*%
X25885000Y-59025000D03*
D18*
%TO.P,J2,2,Pin_2*%
%TO.N,GND*%
X25885000Y-61565000D03*
%TO.P,J2,3,Pin_3*%
%TO.N,ONE_WIRE*%
X25885000Y-64105000D03*
%TD*%
D17*
%TO.P,J4,1,Pin_1*%
%TO.N,+3V3*%
X25592860Y-39985000D03*
D18*
%TO.P,J4,2,Pin_2*%
%TO.N,I2C_SCL*%
X25592860Y-42525000D03*
%TO.P,J4,3,Pin_3*%
%TO.N,I2C_SA*%
X25592860Y-45065000D03*
%TO.P,J4,4,Pin_4*%
%TO.N,GND*%
X25592860Y-47605000D03*
%TD*%
D19*
%TO.P,H2,1,1*%
%TO.N,GND*%
X27360419Y-22799581D03*
D20*
X25080000Y-25080000D03*
D19*
X21855000Y-25080000D03*
X27360419Y-27360419D03*
X22799581Y-27360419D03*
X25080000Y-28305000D03*
X22799581Y-22799581D03*
X25080000Y-21855000D03*
X28305000Y-25080000D03*
%TD*%
%TO.P,H1,1,1*%
%TO.N,GND*%
X118145000Y-25080000D03*
X111695000Y-25080000D03*
D20*
X114920000Y-25080000D03*
D19*
X117200419Y-27360419D03*
X114920000Y-28305000D03*
X117200419Y-22799581D03*
X114920000Y-21855000D03*
X112639581Y-27360419D03*
X112639581Y-22799581D03*
%TD*%
D17*
%TO.P,J1,1,Pin_1*%
%TO.N,+3V3*%
X25885000Y-70455000D03*
D18*
%TO.P,J1,2,Pin_2*%
%TO.N,GPS_TX*%
X25885000Y-72995000D03*
%TO.P,J1,3,Pin_3*%
%TO.N,GPS_RX*%
X25885000Y-75535000D03*
%TO.P,J1,4,Pin_4*%
%TO.N,GND*%
X25885000Y-78075000D03*
%TD*%
D10*
%TO.P,SW1,1,1*%
%TO.N,GND*%
X81299009Y-111952171D03*
X74799009Y-111952171D03*
%TO.P,SW1,2,2*%
%TO.N,ESP_ENA*%
X74799009Y-116452171D03*
X81299009Y-116452171D03*
%TD*%
D22*
%TO.N,+3V3*%
X24105000Y-51365000D03*
X66245000Y-79465000D03*
X60905000Y-74815000D03*
%TO.N,GND*%
X43615000Y-118835000D03*
X81595000Y-102945000D03*
X81985000Y-97475000D03*
X95615000Y-57545000D03*
%TO.N,+3V3*%
X41535000Y-61135000D03*
X41485000Y-49855000D03*
X42745000Y-39505000D03*
X24125000Y-31305000D03*
X30585000Y-30395000D03*
X46865000Y-44735000D03*
X40685000Y-57675000D03*
X45485000Y-68605000D03*
%TO.N,AF_OUT*%
X63635000Y-52585000D03*
%TO.N,RADIO_RX_LOW*%
X54265000Y-83665000D03*
X32695000Y-91765000D03*
%TO.N,SQ*%
X63895000Y-90015000D03*
%TO.N,GPIO015*%
X53965000Y-52685000D03*
%TO.N,ONE_WIRE*%
X55095275Y-99024725D03*
%TO.N,PTT_LOW*%
X68845000Y-51045000D03*
%TO.N,+4V*%
X75185000Y-67445000D03*
%TO.N,GND*%
X56485000Y-99645000D03*
X46305000Y-90525000D03*
%TO.N,GPIO23*%
X37305000Y-99185000D03*
%TO.N,AUDIO_IN*%
X71755000Y-110595000D03*
%TO.N,PTT_LOW*%
X60759200Y-108707400D03*
%TO.N,GPIO27*%
X65005000Y-103945000D03*
%TO.N,ESP_PROG*%
X41205000Y-97295000D03*
%TO.N,GND*%
X60905000Y-92105000D03*
X51745000Y-114305000D03*
X98255000Y-57435000D03*
X92035000Y-51065000D03*
X93495000Y-57535000D03*
X53494800Y-109367800D03*
X65375000Y-118825000D03*
X92135000Y-53275000D03*
X66685000Y-118785000D03*
X91945000Y-52185000D03*
X97095000Y-57515000D03*
X51589800Y-111247400D03*
X51412000Y-109393200D03*
X91375000Y-57645000D03*
X71195000Y-118715000D03*
X87965000Y-110755000D03*
X63855000Y-118765000D03*
X92315000Y-55805000D03*
X49761000Y-109418600D03*
X32065000Y-74845000D03*
X68585000Y-118665000D03*
X52745000Y-114315000D03*
X60615000Y-118935000D03*
X92435000Y-57605000D03*
%TO.N,+4V*%
X85895000Y-55555000D03*
X85895000Y-52205000D03*
X85955000Y-50895000D03*
X75295000Y-84035000D03*
X85955000Y-54425000D03*
X85975000Y-53345000D03*
X74885000Y-78175000D03*
X86545000Y-57405000D03*
X88995000Y-57435000D03*
X87545000Y-57405000D03*
X85565000Y-56585000D03*
X74908800Y-73130400D03*
%TO.N,GPIO34*%
X60638928Y-112491072D03*
%TO.N,GPIO032*%
X60718928Y-109951072D03*
%TO.N,GPIO012*%
X56805000Y-52545000D03*
%TO.N,GPIO26*%
X67225000Y-105745000D03*
%TO.N,GPIO35*%
X60628928Y-111221072D03*
%TO.N,+3V3*%
X71285000Y-114185000D03*
X60675000Y-117545000D03*
X68145000Y-114195000D03*
X64185000Y-112055000D03*
X93345000Y-112635000D03*
X66335000Y-112045000D03*
%TO.N,GPIO23*%
X40495000Y-117325000D03*
%TD*%
D23*
%TO.N,GPIO26*%
X67875000Y-70615000D02*
X66155000Y-68895000D01*
X66155000Y-68895000D02*
X62335000Y-68895000D01*
X62335000Y-68895000D02*
X61455000Y-68015000D01*
X61455000Y-68015000D02*
X61455000Y-54285000D01*
X61455000Y-54285000D02*
X59475000Y-52305000D01*
X59475000Y-52305000D02*
X59475000Y-32575000D01*
X59475000Y-32575000D02*
X59440000Y-32540000D01*
%TO.N,PTT_LOW*%
X67955000Y-108195000D02*
X68835000Y-107315000D01*
X68835000Y-107315000D02*
X68845000Y-107315000D01*
%TO.N,SQ*%
X65902747Y-24665000D02*
X39315000Y-24665000D01*
%TO.N,AF_OUT*%
X61565000Y-52585000D02*
X60665000Y-51685000D01*
X60665000Y-31315000D02*
X61980000Y-30000000D01*
X63635000Y-52585000D02*
X61565000Y-52585000D01*
X60665000Y-51685000D02*
X60665000Y-31315000D01*
%TO.N,RADIO_RX_LOW*%
X54265000Y-83665000D02*
X54225000Y-83625000D01*
X54225000Y-83625000D02*
X33675000Y-83625000D01*
X33675000Y-83625000D02*
X32695000Y-84605000D01*
X32695000Y-84605000D02*
X32695000Y-91765000D01*
%TO.N,SQ*%
X39315000Y-24665000D02*
X38025000Y-25955000D01*
X38025000Y-25955000D02*
X38025000Y-35385000D01*
X57275000Y-87575000D02*
X59715000Y-90015000D01*
X38025000Y-35385000D02*
X40175000Y-37535000D01*
X50345000Y-39215000D02*
X50345000Y-52375000D01*
X55945000Y-56105000D02*
X57275000Y-57435000D01*
X40175000Y-37535000D02*
X48665000Y-37535000D01*
X50345000Y-52375000D02*
X54075000Y-56105000D01*
X48665000Y-37535000D02*
X50345000Y-39215000D01*
X59715000Y-90015000D02*
X63895000Y-90015000D01*
X54075000Y-56105000D02*
X55945000Y-56105000D01*
X57275000Y-57435000D02*
X57275000Y-87575000D01*
%TO.N,ONE_WIRE*%
X25885000Y-64105000D02*
X36545000Y-64105000D01*
X36545000Y-64105000D02*
X38015000Y-65575000D01*
X38015000Y-65575000D02*
X38015000Y-69895000D01*
X38015000Y-69895000D02*
X42825000Y-74705000D01*
X42825000Y-74705000D02*
X53735000Y-74705000D01*
X53735000Y-74705000D02*
X55245000Y-76215000D01*
X55245000Y-76215000D02*
X55245000Y-98875000D01*
X55245000Y-98875000D02*
X55095275Y-99024725D01*
%TO.N,SQ*%
X69600000Y-30000000D02*
X69600000Y-28362253D01*
X69600000Y-28362253D02*
X65902747Y-24665000D01*
%TO.N,AUDIO_IN*%
X67060000Y-32540000D02*
X67060000Y-33390000D01*
X67060000Y-33390000D02*
X72065000Y-38395000D01*
X72065000Y-38395000D02*
X72065000Y-110285000D01*
X72065000Y-110285000D02*
X71755000Y-110595000D01*
%TO.N,GPIO34*%
X71165000Y-108575000D02*
X71165000Y-39595000D01*
X64520000Y-32540000D02*
X71165000Y-39185000D01*
X71165000Y-39185000D02*
X71165000Y-39595000D01*
%TO.N,PTT_LOW*%
X68845000Y-51045000D02*
X68845000Y-107315000D01*
%TO.N,GPIO032*%
X60718928Y-109951072D02*
X61725000Y-108945000D01*
X61725000Y-108945000D02*
X68325000Y-108945000D01*
X68325000Y-108945000D02*
X69665000Y-107605000D01*
X69665000Y-107605000D02*
X69665000Y-42065000D01*
X69665000Y-42065000D02*
X61980000Y-34380000D01*
X61980000Y-34380000D02*
X61980000Y-32540000D01*
%TO.N,GPIO34*%
X60638928Y-112491072D02*
X62775000Y-110355000D01*
X62775000Y-110355000D02*
X69385000Y-110355000D01*
X69385000Y-110355000D02*
X71165000Y-108575000D01*
%TO.N,GPIO27*%
X56900000Y-32540000D02*
X55435000Y-34005000D01*
X55435000Y-34005000D02*
X55435000Y-49715000D01*
X62195000Y-69975000D02*
X66235000Y-69975000D01*
X55435000Y-49715000D02*
X60405000Y-54685000D01*
X66945000Y-102005000D02*
X65005000Y-103945000D01*
X60405000Y-54685000D02*
X60405000Y-68185000D01*
X66945000Y-70685000D02*
X66945000Y-102005000D01*
X60405000Y-68185000D02*
X62195000Y-69975000D01*
X66235000Y-69975000D02*
X66945000Y-70685000D01*
%TO.N,GPIO012*%
X54360000Y-32540000D02*
X53225000Y-33675000D01*
X55745000Y-52545000D02*
X56805000Y-52545000D01*
X53225000Y-33675000D02*
X53225000Y-50025000D01*
X53225000Y-50025000D02*
X55745000Y-52545000D01*
%TO.N,GPIO015*%
X53965000Y-52685000D02*
X53755000Y-52685000D01*
X53755000Y-52685000D02*
X51820000Y-50750000D01*
X51820000Y-50750000D02*
X51820000Y-32540000D01*
%TO.N,GPIO26*%
X67225000Y-105745000D02*
X67885000Y-105085000D01*
X67885000Y-105085000D02*
X67885000Y-70635000D01*
%TO.N,PTT_LOW*%
X61271600Y-108195000D02*
X60759200Y-108707400D01*
X67955000Y-108195000D02*
X61271600Y-108195000D01*
%TO.N,GPIO35*%
X60628928Y-111221072D02*
X62215000Y-109635000D01*
X62215000Y-109635000D02*
X68805000Y-109635000D01*
X68805000Y-109635000D02*
X70375000Y-108065000D01*
X62485000Y-28055000D02*
X60125000Y-28055000D01*
X70375000Y-108065000D02*
X70375000Y-40565000D01*
X70375000Y-40565000D02*
X63205000Y-33395000D01*
X63205000Y-33395000D02*
X63205000Y-28775000D01*
X59440000Y-28740000D02*
X59440000Y-30000000D01*
X63205000Y-28775000D02*
X62485000Y-28055000D01*
X60125000Y-28055000D02*
X59440000Y-28740000D01*
%TO.N,GPIO23*%
X37275000Y-99215000D02*
X37275000Y-116135000D01*
X37305000Y-99185000D02*
X37275000Y-99215000D01*
X40495000Y-117325000D02*
X37815000Y-117325000D01*
X37275000Y-116785000D02*
X37275000Y-116145000D01*
X37815000Y-117325000D02*
X37275000Y-116785000D01*
%TO.N,ESP_PROG*%
X41205000Y-97295000D02*
X40565000Y-96655000D01*
X40565000Y-96655000D02*
X29125000Y-96655000D01*
X29125000Y-96655000D02*
X28065000Y-97715000D01*
X28065000Y-97715000D02*
X28065000Y-104215000D01*
%TD*%
M02*
