M48
; DRILL file {KiCad 6.0.5-a6ca702e91~116~ubuntu22.04.1} date Tue 14 Jun 2022 09:35:31 PM
; FORMAT={-:-/ absolute / inch / decimal}
; #@! TF.CreationDate,2022-06-14T21:35:31-07:00
; #@! TF.GenerationSoftware,Kicad,Pcbnew,6.0.5-a6ca702e91~116~ubuntu22.04.1
; #@! TF.FileFunction,Plated,1,4,PTH
FMAT,2
INCH
; #@! TA.AperFunction,Plated,PTH,ViaDrill
T1C0.0118
; #@! TA.AperFunction,Plated,PTH,ComponentDrill
T2C0.0118
; #@! TA.AperFunction,Plated,PTH,ViaDrill
T3C0.0157
; #@! TA.AperFunction,Plated,PTH,ComponentDrill
T4C0.0236
; #@! TA.AperFunction,Plated,PTH,ComponentDrill
T5C0.0394
; #@! TA.AperFunction,Plated,PTH,ComponentDrill
T6C0.0433
; #@! TA.AperFunction,Plated,PTH,ComponentDrill
T7C0.0453
; #@! TA.AperFunction,Plated,PTH,ComponentDrill
T8C0.0520
; #@! TA.AperFunction,Plated,PTH,ComponentDrill
T9C0.0591
; #@! TA.AperFunction,Plated,PTH,ComponentDrill
T10C0.0669
; #@! TA.AperFunction,Plated,PTH,ComponentDrill
T11C0.1693
%
G90
G05
T1
X0.949Y-2.0222
T2
X4.3327Y-2.4315
X4.3327Y-2.5186
T3
X0.9498Y-1.2325
X1.2041Y-1.1967
X1.2624Y-2.9467
X1.2872Y-3.6128
X1.4687Y-3.9049
X1.5943Y-4.6191
X1.6018Y-2.2707
X1.6222Y-3.8305
X1.6333Y-1.9628
X1.6352Y-2.4069
X1.6829Y-1.5553
X1.7171Y-4.6785
X1.7907Y-2.701
X1.823Y-3.564
X1.8451Y-1.7612
X1.9591Y-4.3078
X2.0241Y-4.3068
X2.0311Y-4.3798
X2.0372Y-4.5002
X2.0766Y-4.5006
X2.1061Y-4.3058
X2.1246Y-2.0742
X2.1364Y-3.2939
X2.1691Y-3.8986
X2.2238Y-3.923
X2.2364Y-2.0687
X2.3864Y-4.6825
X2.387Y-4.3788
X2.3874Y-4.4288
X2.3888Y-4.6278
X2.3905Y-4.3288
X2.3921Y-4.2798
X2.3978Y-2.9455
X2.3978Y-3.6262
X2.5053Y-2.0703
X2.514Y-4.6758
X2.5156Y-3.5439
X2.527Y-4.4116
X2.5593Y-4.0923
X2.5738Y-4.6781
X2.6081Y-3.1285
X2.6116Y-4.4112
X2.6254Y-4.6766
X2.6467Y-4.1632
X2.6829Y-4.4959
X2.7002Y-4.6719
X2.7104Y-2.0096
X2.803Y-4.6738
X2.8065Y-4.4955
X2.825Y-4.3541
X2.9482Y-3.0778
X2.9492Y-2.8791
X2.96Y-2.6553
X2.9644Y-3.3085
X3.2124Y-4.053
X3.2278Y-3.8376
X3.3687Y-2.2278
X3.3817Y-2.0553
X3.3817Y-2.1872
X3.3841Y-2.0037
X3.3841Y-2.1427
X3.3848Y-2.1002
X3.4073Y-2.26
X3.4467Y-2.26
X3.4632Y-4.3604
X3.5037Y-2.2612
X3.5974Y-2.2695
X3.6199Y-2.0545
X3.6234Y-2.0104
X3.6274Y-2.0974
X3.6344Y-2.197
X3.6392Y-2.2679
X3.675Y-4.4344
X3.6809Y-2.2652
X3.7644Y-2.2656
X3.8226Y-2.2644
X3.8683Y-2.2612
T4
X0.8604Y-0.9874
X0.8604Y-4.5244
X0.8976Y-0.8976
X0.8976Y-1.0772
X0.8976Y-4.4346
X0.8976Y-4.6142
X0.9874Y-0.8604
X0.9874Y-1.1144
X0.9874Y-4.3974
X0.9874Y-4.6514
X1.0772Y-0.8976
X1.0772Y-1.0772
X1.0772Y-4.4346
X1.0772Y-4.6142
X1.1144Y-0.9874
X1.1144Y-4.5244
X4.3974Y-0.9874
X4.3974Y-4.5244
X4.4346Y-0.8976
X4.4346Y-1.0772
X4.4346Y-4.4346
X4.4346Y-4.6142
X4.5244Y-0.8604
X4.5244Y-1.1144
X4.5244Y-4.3974
X4.5244Y-4.6514
X4.6142Y-0.8976
X4.6142Y-1.0772
X4.6142Y-4.4346
X4.6142Y-4.6142
X4.6514Y-0.9874
X4.6514Y-4.5244
T5
X1.0076Y-1.5742
X1.0076Y-1.6742
X1.0076Y-1.7742
X1.0076Y-1.8742
X1.0157Y-3.3466
X1.0157Y-3.4466
X1.0157Y-3.5466
X1.0191Y-2.3238
X1.0191Y-2.4238
X1.0191Y-2.5238
X1.0191Y-2.7738
X1.0191Y-2.8738
X1.0191Y-2.9738
X1.0191Y-3.0738
X3.0685Y-2.3069
X3.0685Y-2.4069
X3.0685Y-2.5069
T6
X0.9278Y-3.847
X0.9278Y-4.103
X1.1049Y-3.847
X1.1049Y-4.103
X2.9448Y-4.4076
X2.9448Y-4.5847
X3.2007Y-4.4076
X3.2007Y-4.5847
T7
X1.8402Y-1.1811
X1.8402Y-1.2811
X1.9402Y-1.1811
X1.9402Y-1.2811
X2.0402Y-1.1811
X2.0402Y-1.2811
X2.1402Y-1.1811
X2.1402Y-1.2811
X2.2402Y-1.1811
X2.2402Y-1.2811
X2.3402Y-1.1811
X2.3402Y-1.2811
X2.4402Y-1.1811
X2.4402Y-1.2811
X2.5402Y-1.1811
X2.5402Y-1.2811
X2.6402Y-1.1811
X2.6402Y-1.2811
X2.7402Y-1.1811
X2.7402Y-1.2811
X2.8402Y-1.1811
X2.8402Y-1.2811
X2.9402Y-1.1811
X2.9402Y-1.2811
X3.0402Y-1.1811
X3.0402Y-1.2811
X3.1402Y-1.1811
X3.1402Y-1.2811
X3.2402Y-1.1811
X3.2402Y-1.2811
X3.3402Y-1.1811
X3.3402Y-1.2811
X3.4402Y-1.1811
X3.4402Y-1.2811
X3.5402Y-1.1811
X3.5402Y-1.2811
X3.6402Y-1.1811
X3.6402Y-1.2811
X3.7402Y-1.1811
X3.7402Y-1.2811
T8
X4.4624Y-1.5175
X4.4624Y-1.7144
X4.4624Y-1.9112
X4.4624Y-2.1081
T9
X4.4168Y-2.7931
T10
X4.3168Y-2.6931
X4.3168Y-2.8931
X4.5168Y-2.6931
X4.5168Y-2.8931
T11
X0.9874Y-0.9874
X0.9874Y-4.5244
X4.5244Y-0.9874
X4.5244Y-4.5244
T0
M30
