%TF.GenerationSoftware,KiCad,Pcbnew,6.0.5-a6ca702e91~116~ubuntu22.04.1*%
%TF.CreationDate,2022-06-14T21:35:23-07:00*%
%TF.ProjectId,aprs-esp32,61707273-2d65-4737-9033-322e6b696361,v1.0.0*%
%TF.SameCoordinates,Original*%
%TF.FileFunction,Copper,L1,Top*%
%TF.FilePolarity,Positive*%
%FSLAX46Y46*%
G04 Gerber Fmt 4.6, Leading zero omitted, Abs format (unit mm)*
G04 Created by KiCad (PCBNEW 6.0.5-a6ca702e91~116~ubuntu22.04.1) date 2022-06-14 21:35:23*
%MOMM*%
%LPD*%
G01*
G04 APERTURE LIST*
G04 Aperture macros list*
%AMRoundRect*
0 Rectangle with rounded corners*
0 $1 Rounding radius*
0 $2 $3 $4 $5 $6 $7 $8 $9 X,Y pos of 4 corners*
0 Add a 4 corners polygon primitive as box body*
4,1,4,$2,$3,$4,$5,$6,$7,$8,$9,$2,$3,0*
0 Add four circle primitives for the rounded corners*
1,1,$1+$1,$2,$3*
1,1,$1+$1,$4,$5*
1,1,$1+$1,$6,$7*
1,1,$1+$1,$8,$9*
0 Add four rect primitives between the rounded corners*
20,1,$1+$1,$2,$3,$4,$5,0*
20,1,$1+$1,$4,$5,$6,$7,0*
20,1,$1+$1,$6,$7,$8,$9,0*
20,1,$1+$1,$8,$9,$2,$3,0*%
G04 Aperture macros list end*
%TA.AperFunction,SMDPad,CuDef*%
%ADD10RoundRect,0.250000X-0.400000X-0.625000X0.400000X-0.625000X0.400000X0.625000X-0.400000X0.625000X0*%
%TD*%
%TA.AperFunction,SMDPad,CuDef*%
%ADD11RoundRect,0.250000X0.400000X0.625000X-0.400000X0.625000X-0.400000X-0.625000X0.400000X-0.625000X0*%
%TD*%
%TA.AperFunction,SMDPad,CuDef*%
%ADD12R,5.000000X5.000000*%
%TD*%
%TA.AperFunction,SMDPad,CuDef*%
%ADD13R,2.000000X0.900000*%
%TD*%
%TA.AperFunction,SMDPad,CuDef*%
%ADD14R,0.900000X2.000000*%
%TD*%
%TA.AperFunction,ComponentPad*%
%ADD15C,2.000000*%
%TD*%
%TA.AperFunction,SMDPad,CuDef*%
%ADD16RoundRect,0.250000X-0.412500X-0.650000X0.412500X-0.650000X0.412500X0.650000X-0.412500X0.650000X0*%
%TD*%
%TA.AperFunction,SMDPad,CuDef*%
%ADD17RoundRect,0.150000X-0.587500X-0.150000X0.587500X-0.150000X0.587500X0.150000X-0.587500X0.150000X0*%
%TD*%
%TA.AperFunction,SMDPad,CuDef*%
%ADD18RoundRect,0.250000X-0.625000X0.400000X-0.625000X-0.400000X0.625000X-0.400000X0.625000X0.400000X0*%
%TD*%
%TA.AperFunction,ComponentPad*%
%ADD19C,1.725000*%
%TD*%
%TA.AperFunction,ComponentPad*%
%ADD20R,1.725000X1.725000*%
%TD*%
%TA.AperFunction,SMDPad,CuDef*%
%ADD21RoundRect,0.250000X1.450000X-0.537500X1.450000X0.537500X-1.450000X0.537500X-1.450000X-0.537500X0*%
%TD*%
%TA.AperFunction,SMDPad,CuDef*%
%ADD22RoundRect,0.237500X0.287500X0.237500X-0.287500X0.237500X-0.287500X-0.237500X0.287500X-0.237500X0*%
%TD*%
%TA.AperFunction,ComponentPad*%
%ADD23C,2.050000*%
%TD*%
%TA.AperFunction,ComponentPad*%
%ADD24C,2.250000*%
%TD*%
%TA.AperFunction,SMDPad,CuDef*%
%ADD25RoundRect,0.250000X-1.450000X0.537500X-1.450000X-0.537500X1.450000X-0.537500X1.450000X0.537500X0*%
%TD*%
%TA.AperFunction,ComponentPad*%
%ADD26R,3.960000X1.980000*%
%TD*%
%TA.AperFunction,ComponentPad*%
%ADD27O,3.960000X1.980000*%
%TD*%
%TA.AperFunction,ComponentPad*%
%ADD28R,1.700000X1.700000*%
%TD*%
%TA.AperFunction,ComponentPad*%
%ADD29O,1.700000X1.700000*%
%TD*%
%TA.AperFunction,ComponentPad*%
%ADD30C,0.900000*%
%TD*%
%TA.AperFunction,ComponentPad*%
%ADD31C,8.600000*%
%TD*%
%TA.AperFunction,SMDPad,CuDef*%
%ADD32R,2.470000X1.880000*%
%TD*%
%TA.AperFunction,SMDPad,CuDef*%
%ADD33R,1.880000X2.470000*%
%TD*%
%TA.AperFunction,SMDPad,CuDef*%
%ADD34R,6.600000X1.800000*%
%TD*%
%TA.AperFunction,SMDPad,CuDef*%
%ADD35R,8.000000X1.800000*%
%TD*%
%TA.AperFunction,SMDPad,CuDef*%
%ADD36RoundRect,0.152500X-0.152500X-0.470000X0.152500X-0.470000X0.152500X0.470000X-0.152500X0.470000X0*%
%TD*%
%TA.AperFunction,ComponentPad*%
%ADD37C,0.610000*%
%TD*%
%TA.AperFunction,SMDPad,CuDef*%
%ADD38RoundRect,0.249600X-0.270400X-0.650400X0.270400X-0.650400X0.270400X0.650400X-0.270400X0.650400X0*%
%TD*%
%TA.AperFunction,SMDPad,CuDef*%
%ADD39RoundRect,0.250001X-0.924999X0.499999X-0.924999X-0.499999X0.924999X-0.499999X0.924999X0.499999X0*%
%TD*%
%TA.AperFunction,SMDPad,CuDef*%
%ADD40RoundRect,0.250000X0.412500X0.650000X-0.412500X0.650000X-0.412500X-0.650000X0.412500X-0.650000X0*%
%TD*%
%TA.AperFunction,ViaPad*%
%ADD41C,0.800000*%
%TD*%
%TA.AperFunction,Conductor*%
%ADD42C,0.292100*%
%TD*%
%TA.AperFunction,Conductor*%
%ADD43C,1.000000*%
%TD*%
%TA.AperFunction,Conductor*%
%ADD44C,0.230000*%
%TD*%
G04 APERTURE END LIST*
D10*
%TO.P,R6,1*%
%TO.N,+4V*%
X76605000Y-78035000D03*
%TO.P,R6,2*%
%TO.N,RADIO_TX_HIGH*%
X79705000Y-78035000D03*
%TD*%
D11*
%TO.P,R2,2*%
%TO.N,RADIO_ENA_LOW*%
X42192500Y-45875000D03*
%TO.P,R2,1*%
%TO.N,+3V3*%
X45292500Y-45875000D03*
%TD*%
D12*
%TO.P,ESP32-WROOM-32D1,39,GND*%
%TO.N,GND*%
X51650275Y-111341072D03*
D13*
%TO.P,ESP32-WROOM-32D1,38,GND*%
X42150275Y-118841072D03*
%TO.P,ESP32-WROOM-32D1,37,IO23*%
%TO.N,GPIO23*%
X42150275Y-117571072D03*
%TO.P,ESP32-WROOM-32D1,36,IO22*%
%TO.N,I2C_SCL*%
X42150275Y-116301072D03*
%TO.P,ESP32-WROOM-32D1,35,TXD0/IO1*%
%TO.N,ESP_TX*%
X42150275Y-115031072D03*
%TO.P,ESP32-WROOM-32D1,34,RXD0/IO3*%
%TO.N,ESP_RX*%
X42150275Y-113761072D03*
%TO.P,ESP32-WROOM-32D1,33,IO21*%
%TO.N,I2C_SA*%
X42150275Y-112491072D03*
%TO.P,ESP32-WROOM-32D1,32,NC*%
%TO.N,unconnected-(ESP32-WROOM-32D1-Pad32)*%
X42150275Y-111221072D03*
%TO.P,ESP32-WROOM-32D1,31,IO19*%
%TO.N,RADIO_RX_LOW*%
X42150275Y-109951072D03*
%TO.P,ESP32-WROOM-32D1,30,IO18*%
%TO.N,RADIO_TX_LOW*%
X42150275Y-108681072D03*
%TO.P,ESP32-WROOM-32D1,29,IO5*%
%TO.N,RADIO_ENA_LOW*%
X42150275Y-107411072D03*
%TO.P,ESP32-WROOM-32D1,28,IO17*%
%TO.N,GPS_TX*%
X42150275Y-106141072D03*
%TO.P,ESP32-WROOM-32D1,27,IO16*%
%TO.N,GPS_RX*%
X42150275Y-104871072D03*
%TO.P,ESP32-WROOM-32D1,26,IO4*%
%TO.N,GPIO04*%
X42150275Y-103601072D03*
%TO.P,ESP32-WROOM-32D1,25,IO0*%
%TO.N,ESP_PROG*%
X42150275Y-102331072D03*
D14*
%TO.P,ESP32-WROOM-32D1,24,IO2*%
%TO.N,GPIO02*%
X44935275Y-101331072D03*
%TO.P,ESP32-WROOM-32D1,23,IO15*%
%TO.N,GPIO015*%
X46205275Y-101331072D03*
%TO.P,ESP32-WROOM-32D1,22,SDI/SD1*%
%TO.N,unconnected-(ESP32-WROOM-32D1-Pad22)*%
X47475275Y-101331072D03*
%TO.P,ESP32-WROOM-32D1,21,SDO/SD0*%
%TO.N,unconnected-(ESP32-WROOM-32D1-Pad21)*%
X48745275Y-101331072D03*
%TO.P,ESP32-WROOM-32D1,20,SCK/CLK*%
%TO.N,unconnected-(ESP32-WROOM-32D1-Pad20)*%
X50015275Y-101331072D03*
%TO.P,ESP32-WROOM-32D1,19,SCS/CMD*%
%TO.N,unconnected-(ESP32-WROOM-32D1-Pad19)*%
X51285275Y-101331072D03*
%TO.P,ESP32-WROOM-32D1,18,SWP/SD3*%
%TO.N,unconnected-(ESP32-WROOM-32D1-Pad18)*%
X52555275Y-101331072D03*
%TO.P,ESP32-WROOM-32D1,17,SHD/SD2*%
%TO.N,unconnected-(ESP32-WROOM-32D1-Pad17)*%
X53825275Y-101331072D03*
%TO.P,ESP32-WROOM-32D1,16,IO13*%
%TO.N,ONE_WIRE*%
X55095275Y-101331072D03*
%TO.P,ESP32-WROOM-32D1,15,GND*%
%TO.N,GND*%
X56365275Y-101331072D03*
D13*
%TO.P,ESP32-WROOM-32D1,14,IO12*%
%TO.N,GPIO012*%
X59150275Y-102331072D03*
%TO.P,ESP32-WROOM-32D1,13,IO14*%
%TO.N,GPIO014*%
X59150275Y-103601072D03*
%TO.P,ESP32-WROOM-32D1,12,IO27*%
%TO.N,GPIO27*%
X59150275Y-104871072D03*
%TO.P,ESP32-WROOM-32D1,11,IO26*%
%TO.N,GPIO26*%
X59150275Y-106141072D03*
%TO.P,ESP32-WROOM-32D1,10,IO25*%
%TO.N,FSK_OUT*%
X59150275Y-107411072D03*
%TO.P,ESP32-WROOM-32D1,9,IO33*%
%TO.N,PTT_LOW*%
X59150275Y-108681072D03*
%TO.P,ESP32-WROOM-32D1,8,IO32*%
%TO.N,GPIO032*%
X59150275Y-109951072D03*
%TO.P,ESP32-WROOM-32D1,7,IO35*%
%TO.N,GPIO35*%
X59150275Y-111221072D03*
%TO.P,ESP32-WROOM-32D1,6,IO34*%
%TO.N,GPIO34*%
X59150275Y-112491072D03*
%TO.P,ESP32-WROOM-32D1,5,SENSOR_VN*%
%TO.N,unconnected-(ESP32-WROOM-32D1-Pad5)*%
X59150275Y-113761072D03*
%TO.P,ESP32-WROOM-32D1,4,SENSOR_VP*%
%TO.N,AUDIO_IN*%
X59150275Y-115031072D03*
%TO.P,ESP32-WROOM-32D1,3,EN*%
%TO.N,ESP_ENA*%
X59150275Y-116301072D03*
%TO.P,ESP32-WROOM-32D1,2,VDD*%
%TO.N,+3V3*%
X59150275Y-117571072D03*
%TO.P,ESP32-WROOM-32D1,1,GND*%
%TO.N,GND*%
X59150275Y-118841072D03*
%TD*%
D15*
%TO.P,SW2,2,2*%
%TO.N,ESP_PROG*%
X28065000Y-97715000D03*
X28065000Y-104215000D03*
%TO.P,SW2,1,1*%
%TO.N,GND*%
X23565000Y-97715000D03*
X23565000Y-104215000D03*
%TD*%
D16*
%TO.P,C2,1*%
%TO.N,+4V*%
X87555000Y-55485000D03*
%TO.P,C2,2*%
%TO.N,GND*%
X90680000Y-55485000D03*
%TD*%
D17*
%TO.P,Q2,1,G*%
%TO.N,+3V3*%
X42116500Y-62501600D03*
%TO.P,Q2,2,S*%
%TO.N,RADIO_TX_LOW*%
X42116500Y-64401600D03*
%TO.P,Q2,3,D*%
%TO.N,RADIO_TX_HIGH*%
X43991500Y-63451600D03*
%TD*%
D18*
%TO.P,R12,1*%
%TO.N,+3V3*%
X25997896Y-32172987D03*
%TO.P,R12,2*%
%TO.N,I2C_SCL*%
X25997896Y-35272987D03*
%TD*%
D19*
%TO.P,J5,40,40*%
%TO.N,GPS_RX*%
X46740000Y-32540000D03*
%TO.P,J5,39,39*%
%TO.N,GPS_TX*%
X46740000Y-30000000D03*
%TO.P,J5,38,38*%
%TO.N,GPIO23*%
X49280000Y-32540000D03*
%TO.P,J5,37,37*%
%TO.N,ONE_WIRE*%
X49280000Y-30000000D03*
%TO.P,J5,36,36*%
%TO.N,GPIO015*%
X51820000Y-32540000D03*
%TO.P,J5,35,35*%
%TO.N,I2C_SA*%
X51820000Y-30000000D03*
%TO.P,J5,34,34*%
%TO.N,GPIO012*%
X54360000Y-32540000D03*
%TO.P,J5,33,33*%
%TO.N,I2C_SCL*%
X54360000Y-30000000D03*
%TO.P,J5,32,32*%
%TO.N,GPIO27*%
X56900000Y-32540000D03*
%TO.P,J5,31,31*%
%TO.N,unconnected-(J5-Pad31)*%
X56900000Y-30000000D03*
%TO.P,J5,30,30*%
%TO.N,GPIO26*%
X59440000Y-32540000D03*
%TO.P,J5,29,29*%
%TO.N,GPIO35*%
X59440000Y-30000000D03*
%TO.P,J5,28,28*%
%TO.N,GPIO032*%
X61980000Y-32540000D03*
%TO.P,J5,27,27*%
%TO.N,AF_OUT*%
X61980000Y-30000000D03*
%TO.P,J5,26,26*%
%TO.N,GPIO34*%
X64520000Y-32540000D03*
%TO.P,J5,25,25*%
%TO.N,unconnected-(J5-Pad25)*%
X64520000Y-30000000D03*
%TO.P,J5,24,24*%
%TO.N,AUDIO_IN*%
X67060000Y-32540000D03*
%TO.P,J5,23,23*%
%TO.N,unconnected-(J5-Pad23)*%
X67060000Y-30000000D03*
%TO.P,J5,22,22*%
%TO.N,unconnected-(J5-Pad22)*%
X69600000Y-32540000D03*
%TO.P,J5,21,21*%
%TO.N,SQ*%
X69600000Y-30000000D03*
%TO.P,J5,20,20*%
%TO.N,4V_E*%
X72140000Y-32540000D03*
%TO.P,J5,19,19*%
X72140000Y-30000000D03*
%TO.P,J5,18,18*%
X74680000Y-32540000D03*
%TO.P,J5,17,17*%
X74680000Y-30000000D03*
%TO.P,J5,16,16*%
%TO.N,+3V3_E*%
X77220000Y-32540000D03*
%TO.P,J5,15,15*%
X77220000Y-30000000D03*
%TO.P,J5,14,14*%
X79760000Y-32540000D03*
%TO.P,J5,13,13*%
X79760000Y-30000000D03*
%TO.P,J5,12,12*%
%TO.N,+3V3*%
X82300000Y-32540000D03*
%TO.P,J5,11,11*%
X82300000Y-30000000D03*
%TO.P,J5,10,10*%
X84840000Y-32540000D03*
%TO.P,J5,9,9*%
X84840000Y-30000000D03*
%TO.P,J5,8,8*%
%TO.N,GND*%
X87380000Y-32540000D03*
%TO.P,J5,7,7*%
X87380000Y-30000000D03*
%TO.P,J5,6,6*%
X89920000Y-32540000D03*
%TO.P,J5,5,5*%
X89920000Y-30000000D03*
%TO.P,J5,4,4*%
%TO.N,+4V*%
X92460000Y-32540000D03*
%TO.P,J5,3,3*%
X92460000Y-30000000D03*
%TO.P,J5,2,2*%
X95000000Y-32540000D03*
D20*
%TO.P,J5,1,1*%
X95000000Y-30000000D03*
%TD*%
D11*
%TO.P,R4,1*%
%TO.N,+3V3*%
X64805000Y-80403800D03*
%TO.P,R4,2*%
%TO.N,RADIO_RX_LOW*%
X61705000Y-80403800D03*
%TD*%
D21*
%TO.P,C3,1*%
%TO.N,ESP_ENA*%
X86679587Y-116330713D03*
%TO.P,C3,2*%
%TO.N,GND*%
X86679587Y-112055713D03*
%TD*%
D22*
%TO.P,D1,1,K*%
%TO.N,Net-(D1-Pad1)*%
X37927500Y-80975000D03*
%TO.P,D1,2,A*%
%TO.N,GPIO04*%
X36177500Y-80975000D03*
%TD*%
D23*
%TO.P,J7,1,In*%
%TO.N,/RF_OUT*%
X112186370Y-70945645D03*
D24*
%TO.P,J7,2,Ext*%
%TO.N,GND*%
X114726370Y-73485645D03*
X109646370Y-73485645D03*
X114726370Y-68405645D03*
X109646370Y-68405645D03*
%TD*%
D11*
%TO.P,R14,1*%
%TO.N,Net-(D1-Pad1)*%
X36515000Y-74795000D03*
%TO.P,R14,2*%
%TO.N,GND*%
X33415000Y-74795000D03*
%TD*%
D25*
%TO.P,C4,2*%
%TO.N,GND*%
X65315000Y-117580000D03*
%TO.P,C4,1*%
%TO.N,+3V3*%
X65315000Y-113305000D03*
%TD*%
D17*
%TO.P,Q4,1,G*%
%TO.N,+3V3*%
X41952500Y-51355000D03*
%TO.P,Q4,2,S*%
%TO.N,PTT_LOW*%
X41952500Y-53255000D03*
%TO.P,Q4,3,D*%
%TO.N,PTT_HIGH*%
X43827500Y-52305000D03*
%TD*%
D22*
%TO.P,D2,1,K*%
%TO.N,Net-(D2-Pad1)*%
X48767500Y-94375000D03*
%TO.P,D2,2,A*%
%TO.N,GPIO02*%
X47017500Y-94375000D03*
%TD*%
D16*
%TO.P,C1,1*%
%TO.N,+4V*%
X87455000Y-52145000D03*
%TO.P,C1,2*%
%TO.N,GND*%
X90580000Y-52145000D03*
%TD*%
D26*
%TO.P,J3,1,Pin_1*%
%TO.N,+4V*%
X113345000Y-38545000D03*
D27*
%TO.P,J3,2,Pin_2*%
%TO.N,GND*%
X113345000Y-43545000D03*
%TO.P,J3,3,Pin_3*%
X113345000Y-48545000D03*
%TO.P,J3,4,Pin_4*%
%TO.N,+3V3*%
X113345000Y-53545000D03*
%TD*%
D10*
%TO.P,R7,1*%
%TO.N,+4V*%
X75465000Y-85625000D03*
%TO.P,R7,2*%
%TO.N,RADIO_RX_HIGH*%
X78565000Y-85625000D03*
%TD*%
D22*
%TO.P,D3,1,K*%
%TO.N,Net-(D3-Pad1)*%
X63237500Y-97685000D03*
%TO.P,D3,2,A*%
%TO.N,GPIO014*%
X61487500Y-97685000D03*
%TD*%
D11*
%TO.P,R15,1*%
%TO.N,Net-(D2-Pad1)*%
X49855000Y-92145000D03*
%TO.P,R15,2*%
%TO.N,GND*%
X46755000Y-92145000D03*
%TD*%
D28*
%TO.P,J8,1,Pin_1*%
%TO.N,ESP_TX*%
X25798507Y-85003164D03*
D29*
%TO.P,J8,2,Pin_2*%
%TO.N,ESP_RX*%
X25798507Y-87543164D03*
%TO.P,J8,3,Pin_3*%
%TO.N,GND*%
X25798507Y-90083164D03*
%TD*%
D28*
%TO.P,J6,1,Pin_1*%
%TO.N,unconnected-(J6-Pad1)*%
X77940218Y-58596018D03*
D29*
%TO.P,J6,2,Pin_2*%
%TO.N,GND*%
X77940218Y-61136018D03*
%TO.P,J6,3,Pin_3*%
%TO.N,/RF_HI_ENA*%
X77940218Y-63676018D03*
%TD*%
D17*
%TO.P,Q1,3,D*%
%TO.N,RADIO_ENA_HIGH*%
X45170000Y-41895000D03*
%TO.P,Q1,2,S*%
%TO.N,RADIO_ENA_LOW*%
X43295000Y-42845000D03*
%TO.P,Q1,1,G*%
%TO.N,+3V3*%
X43295000Y-40945000D03*
%TD*%
D30*
%TO.P,H4,1,1*%
%TO.N,GND*%
X118145000Y-114920000D03*
D31*
X114920000Y-114920000D03*
D30*
X112639581Y-117200419D03*
X111695000Y-114920000D03*
X117200419Y-117200419D03*
X114920000Y-111695000D03*
X117200419Y-112639581D03*
X114920000Y-118145000D03*
X112639581Y-112639581D03*
%TD*%
D32*
%TO.P,U1,1,SQ*%
%TO.N,SQ*%
X85640000Y-90155000D03*
%TO.P,U1,2*%
%TO.N,N/C*%
X85640000Y-85705000D03*
%TO.P,U1,3,AF_OUT*%
%TO.N,AF_OUT*%
X85640000Y-81255000D03*
%TO.P,U1,4*%
%TO.N,N/C*%
X85640000Y-76805000D03*
%TO.P,U1,5,PTT*%
%TO.N,PTT_HIGH*%
X85640000Y-72355000D03*
%TO.P,U1,6,PD*%
%TO.N,RADIO_ENA_HIGH*%
X85640000Y-67905000D03*
%TO.P,U1,7,H/L*%
%TO.N,/RF_HI_ENA*%
X85640000Y-63455000D03*
D33*
%TO.P,U1,8,VBAT*%
%TO.N,+4V*%
X87565000Y-59680000D03*
%TO.P,U1,9,GND*%
%TO.N,GND*%
X92165000Y-59680000D03*
%TO.P,U1,10,GND*%
X96765000Y-59680000D03*
%TO.P,U1,11*%
%TO.N,N/C*%
X101365000Y-59680000D03*
D32*
%TO.P,U1,12,ANT*%
%TO.N,/RF_OUT_NO_FILTER*%
X103290000Y-63455000D03*
%TO.P,U1,13*%
%TO.N,N/C*%
X103290000Y-67905000D03*
%TO.P,U1,14*%
X103290000Y-72355000D03*
%TO.P,U1,15*%
X103290000Y-76805000D03*
%TO.P,U1,16,RXD*%
%TO.N,RADIO_RX_HIGH*%
X103290000Y-81255000D03*
%TO.P,U1,17,TXD*%
%TO.N,RADIO_TX_HIGH*%
X103290000Y-85705000D03*
%TO.P,U1,18,MIC_IN*%
%TO.N,MIC_IN*%
X103290000Y-90155000D03*
D34*
%TO.P,U1,P2*%
%TO.N,N/C*%
X88265000Y-93930000D03*
D35*
%TO.P,U1,P3*%
X99965000Y-93930000D03*
%TD*%
D36*
%TO.P,FL1,4,GND*%
%TO.N,GND*%
X110051659Y-61938766D03*
D37*
X110051659Y-61761266D03*
D38*
%TO.P,FL1,3,OUT*%
%TO.N,/RF_OUT*%
X111676659Y-62866266D03*
D36*
%TO.P,FL1,2,GND*%
%TO.N,GND*%
X110051659Y-63793766D03*
D37*
X110051659Y-63971266D03*
D38*
%TO.P,FL1,1,IN*%
%TO.N,/RF_OUT_NO_FILTER*%
X108426659Y-62866266D03*
%TD*%
D17*
%TO.P,Q3,1,G*%
%TO.N,+3V3*%
X62317500Y-75085000D03*
%TO.P,Q3,2,S*%
%TO.N,RADIO_RX_LOW*%
X62317500Y-76985000D03*
%TO.P,Q3,3,D*%
%TO.N,RADIO_RX_HIGH*%
X64192500Y-76035000D03*
%TD*%
D10*
%TO.P,R10,1*%
%TO.N,+3V3*%
X42140000Y-58165000D03*
%TO.P,R10,2*%
%TO.N,PTT_LOW*%
X45240000Y-58165000D03*
%TD*%
D31*
%TO.P,H3,1,1*%
%TO.N,GND*%
X25080000Y-114920000D03*
D30*
X21855000Y-114920000D03*
X25080000Y-118145000D03*
X27360419Y-112639581D03*
X27360419Y-117200419D03*
X22799581Y-117200419D03*
X22799581Y-112639581D03*
X28305000Y-114920000D03*
X25080000Y-111695000D03*
%TD*%
D10*
%TO.P,R11,1*%
%TO.N,+4V*%
X76545000Y-73825000D03*
%TO.P,R11,2*%
%TO.N,PTT_HIGH*%
X79645000Y-73825000D03*
%TD*%
D39*
%TO.P,C5,1*%
%TO.N,+3V3*%
X69725000Y-114245000D03*
%TO.P,C5,2*%
%TO.N,GND*%
X69725000Y-117495000D03*
%TD*%
D11*
%TO.P,R9,1*%
%TO.N,GND*%
X80265000Y-102015000D03*
%TO.P,R9,2*%
%TO.N,FSK_OUT*%
X77165000Y-102015000D03*
%TD*%
D28*
%TO.P,J2,1,Pin_1*%
%TO.N,+3V3*%
X25885000Y-59025000D03*
D29*
%TO.P,J2,2,Pin_2*%
%TO.N,GND*%
X25885000Y-61565000D03*
%TO.P,J2,3,Pin_3*%
%TO.N,ONE_WIRE*%
X25885000Y-64105000D03*
%TD*%
D28*
%TO.P,J4,1,Pin_1*%
%TO.N,+3V3*%
X25592860Y-39985000D03*
D29*
%TO.P,J4,2,Pin_2*%
%TO.N,I2C_SCL*%
X25592860Y-42525000D03*
%TO.P,J4,3,Pin_3*%
%TO.N,I2C_SA*%
X25592860Y-45065000D03*
%TO.P,J4,4,Pin_4*%
%TO.N,GND*%
X25592860Y-47605000D03*
%TD*%
D40*
%TO.P,C6,1*%
%TO.N,GND*%
X80537500Y-97815000D03*
%TO.P,C6,2*%
%TO.N,FSK_OUT*%
X77412500Y-97815000D03*
%TD*%
D11*
%TO.P,R16,1*%
%TO.N,Net-(D3-Pad1)*%
X63785000Y-94215000D03*
%TO.P,R16,2*%
%TO.N,GND*%
X60685000Y-94215000D03*
%TD*%
D10*
%TO.P,R1,1*%
%TO.N,+3V3*%
X24042860Y-53006828D03*
%TO.P,R1,2*%
%TO.N,ONE_WIRE*%
X27142860Y-53006828D03*
%TD*%
D18*
%TO.P,R8,1*%
%TO.N,+3V3*%
X92179187Y-113529917D03*
%TO.P,R8,2*%
%TO.N,ESP_ENA*%
X92179187Y-116629917D03*
%TD*%
D10*
%TO.P,R5,1*%
%TO.N,+4V*%
X76615000Y-68985000D03*
%TO.P,R5,2*%
%TO.N,RADIO_ENA_HIGH*%
X79715000Y-68985000D03*
%TD*%
D30*
%TO.P,H2,1,1*%
%TO.N,GND*%
X27360419Y-22799581D03*
D31*
X25080000Y-25080000D03*
D30*
X21855000Y-25080000D03*
X27360419Y-27360419D03*
X22799581Y-27360419D03*
X25080000Y-28305000D03*
X22799581Y-22799581D03*
X25080000Y-21855000D03*
X28305000Y-25080000D03*
%TD*%
%TO.P,H1,1,1*%
%TO.N,GND*%
X118145000Y-25080000D03*
X111695000Y-25080000D03*
D31*
X114920000Y-25080000D03*
D30*
X117200419Y-27360419D03*
X114920000Y-28305000D03*
X117200419Y-22799581D03*
X114920000Y-21855000D03*
X112639581Y-27360419D03*
X112639581Y-22799581D03*
%TD*%
D18*
%TO.P,R13,1*%
%TO.N,+3V3*%
X30608653Y-32233974D03*
%TO.P,R13,2*%
%TO.N,I2C_SA*%
X30608653Y-35333974D03*
%TD*%
D40*
%TO.P,C7,1*%
%TO.N,MIC_IN*%
X80243050Y-107175205D03*
%TO.P,C7,2*%
%TO.N,FSK_OUT*%
X77118050Y-107175205D03*
%TD*%
D11*
%TO.P,R3,1*%
%TO.N,+3V3*%
X43995000Y-69065000D03*
%TO.P,R3,2*%
%TO.N,RADIO_TX_LOW*%
X40895000Y-69065000D03*
%TD*%
D28*
%TO.P,J1,1,Pin_1*%
%TO.N,+3V3*%
X25885000Y-70455000D03*
D29*
%TO.P,J1,2,Pin_2*%
%TO.N,GPS_TX*%
X25885000Y-72995000D03*
%TO.P,J1,3,Pin_3*%
%TO.N,GPS_RX*%
X25885000Y-75535000D03*
%TO.P,J1,4,Pin_4*%
%TO.N,GND*%
X25885000Y-78075000D03*
%TD*%
D15*
%TO.P,SW1,1,1*%
%TO.N,GND*%
X81299009Y-111952171D03*
X74799009Y-111952171D03*
%TO.P,SW1,2,2*%
%TO.N,ESP_ENA*%
X74799009Y-116452171D03*
X81299009Y-116452171D03*
%TD*%
D41*
%TO.N,+3V3*%
X24105000Y-51365000D03*
X66245000Y-79465000D03*
X60905000Y-74815000D03*
%TO.N,GND*%
X43615000Y-118835000D03*
X81595000Y-102945000D03*
X81985000Y-97475000D03*
X95615000Y-57545000D03*
%TO.N,+3V3*%
X41535000Y-61135000D03*
X41485000Y-49855000D03*
X42745000Y-39505000D03*
X24125000Y-31305000D03*
X30585000Y-30395000D03*
X46865000Y-44735000D03*
X40685000Y-57675000D03*
X45485000Y-68605000D03*
%TO.N,AF_OUT*%
X63635000Y-52585000D03*
%TO.N,RADIO_RX_LOW*%
X54265000Y-83665000D03*
X32695000Y-91765000D03*
%TO.N,SQ*%
X63895000Y-90015000D03*
%TO.N,GPIO015*%
X53965000Y-52685000D03*
%TO.N,ONE_WIRE*%
X55095275Y-99024725D03*
%TO.N,PTT_LOW*%
X68845000Y-51045000D03*
%TO.N,+4V*%
X75185000Y-67445000D03*
%TO.N,GND*%
X56485000Y-99645000D03*
X46305000Y-90525000D03*
%TO.N,GPIO23*%
X37305000Y-99185000D03*
%TO.N,AUDIO_IN*%
X71755000Y-110595000D03*
%TO.N,PTT_LOW*%
X60759200Y-108707400D03*
%TO.N,GPIO27*%
X65005000Y-103945000D03*
%TO.N,ESP_PROG*%
X41205000Y-97295000D03*
%TO.N,GND*%
X60905000Y-92105000D03*
X51745000Y-114305000D03*
X98255000Y-57435000D03*
X92035000Y-51065000D03*
X93495000Y-57535000D03*
X53494800Y-109367800D03*
X65375000Y-118825000D03*
X92135000Y-53275000D03*
X66685000Y-118785000D03*
X91945000Y-52185000D03*
X97095000Y-57515000D03*
X51589800Y-111247400D03*
X51412000Y-109393200D03*
X91375000Y-57645000D03*
X71195000Y-118715000D03*
X87965000Y-110755000D03*
X63855000Y-118765000D03*
X92315000Y-55805000D03*
X49761000Y-109418600D03*
X32065000Y-74845000D03*
X68585000Y-118665000D03*
X52745000Y-114315000D03*
X60615000Y-118935000D03*
X92435000Y-57605000D03*
%TO.N,+4V*%
X85895000Y-55555000D03*
X85895000Y-52205000D03*
X85955000Y-50895000D03*
X75295000Y-84035000D03*
X85955000Y-54425000D03*
X85975000Y-53345000D03*
X74885000Y-78175000D03*
X86545000Y-57405000D03*
X88995000Y-57435000D03*
X87545000Y-57405000D03*
X85565000Y-56585000D03*
X74908800Y-73130400D03*
%TO.N,GPIO34*%
X60638928Y-112491072D03*
%TO.N,GPIO032*%
X60718928Y-109951072D03*
%TO.N,GPIO012*%
X56805000Y-52545000D03*
%TO.N,GPIO26*%
X67225000Y-105745000D03*
%TO.N,GPIO35*%
X60628928Y-111221072D03*
%TO.N,+3V3*%
X71285000Y-114185000D03*
X60675000Y-117545000D03*
X68145000Y-114195000D03*
X64185000Y-112055000D03*
X93345000Y-112635000D03*
X66335000Y-112045000D03*
%TO.N,GPIO23*%
X40495000Y-117325000D03*
%TD*%
D42*
%TO.N,+3V3*%
X24105000Y-51365000D02*
X24105000Y-52944688D01*
X24105000Y-52944688D02*
X24042860Y-53006828D01*
X64805000Y-80403800D02*
X65306200Y-80403800D01*
X65306200Y-80403800D02*
X66245000Y-79465000D01*
X60905000Y-74815000D02*
X62047500Y-74815000D01*
X62047500Y-74815000D02*
X62317500Y-75085000D01*
%TO.N,GND*%
X43608928Y-118841072D02*
X42150275Y-118841072D01*
X43615000Y-118835000D02*
X43608928Y-118841072D01*
%TO.N,RADIO_ENA_HIGH*%
X45170000Y-41895000D02*
X72835000Y-41895000D01*
X72835000Y-41895000D02*
X75255000Y-44315000D01*
X75255000Y-44315000D02*
X75255000Y-65815000D01*
X75255000Y-65815000D02*
X76545000Y-65815000D01*
X76545000Y-65815000D02*
X79715000Y-68985000D01*
X79715000Y-68985000D02*
X80795000Y-67905000D01*
X80795000Y-67905000D02*
X85640000Y-67905000D01*
D43*
%TO.N,+4V*%
X92460000Y-32540000D02*
X92460000Y-30000000D01*
X95000000Y-32540000D02*
X92460000Y-32540000D01*
X95000000Y-30000000D02*
X95000000Y-32540000D01*
X92460000Y-30000000D02*
X95000000Y-30000000D01*
D42*
%TO.N,GND*%
X87380000Y-32540000D02*
X87380000Y-30000000D01*
X89920000Y-32540000D02*
X87380000Y-32540000D01*
X89920000Y-30000000D02*
X89920000Y-32540000D01*
X87380000Y-30000000D02*
X89920000Y-30000000D01*
%TO.N,+3V3*%
X82300000Y-32540000D02*
X82300000Y-30000000D01*
X84840000Y-32540000D02*
X82300000Y-32540000D01*
X84840000Y-30000000D02*
X84840000Y-32540000D01*
X82300000Y-30000000D02*
X84840000Y-30000000D01*
D44*
%TO.N,+3V3_E*%
X77220000Y-32540000D02*
X77220000Y-30000000D01*
X79760000Y-32540000D02*
X77220000Y-32540000D01*
X79760000Y-30000000D02*
X79760000Y-32540000D01*
X77220000Y-30000000D02*
X79760000Y-30000000D01*
D42*
%TO.N,4V_E*%
X72140000Y-32540000D02*
X72140000Y-30000000D01*
X74680000Y-32540000D02*
X72140000Y-32540000D01*
X74680000Y-30000000D02*
X74680000Y-32540000D01*
X72140000Y-30000000D02*
X74680000Y-30000000D01*
%TO.N,GND*%
X51650275Y-111341072D02*
X51650275Y-111307875D01*
X51650275Y-111307875D02*
X49761000Y-109418600D01*
X51412000Y-109393200D02*
X51412000Y-111102797D01*
X51412000Y-111102797D02*
X51650275Y-111341072D01*
X53494800Y-109367800D02*
X53494800Y-109496547D01*
X53494800Y-109496547D02*
X51650275Y-111341072D01*
X51650275Y-111341072D02*
X51650275Y-114210275D01*
X51650275Y-114210275D02*
X51745000Y-114305000D01*
X51650275Y-111341072D02*
X51650275Y-113220275D01*
X51650275Y-113220275D02*
X52745000Y-114315000D01*
X80265000Y-102015000D02*
X80665000Y-102015000D01*
X80665000Y-102015000D02*
X81595000Y-102945000D01*
X80537500Y-97815000D02*
X81645000Y-97815000D01*
X81645000Y-97815000D02*
X81985000Y-97475000D01*
%TO.N,RADIO_RX_LOW*%
X61705000Y-81885000D02*
X59925000Y-83665000D01*
X59925000Y-83665000D02*
X54265000Y-83665000D01*
%TO.N,GPS_RX*%
X25885000Y-75535000D02*
X28577400Y-75535000D01*
X42150275Y-104871072D02*
X38671072Y-104871072D01*
%TO.N,RADIO_RX_LOW*%
X61705000Y-81885000D02*
X61705000Y-80403800D01*
D43*
%TO.N,GND*%
X90680000Y-55870000D02*
X90745000Y-55805000D01*
X90745000Y-55805000D02*
X92315000Y-55805000D01*
%TO.N,+4V*%
X74885000Y-78175000D02*
X76465000Y-78175000D01*
X76465000Y-78175000D02*
X76605000Y-78035000D01*
D42*
%TO.N,GPIO014*%
X59150275Y-103601072D02*
X60442375Y-103601072D01*
X60442375Y-103601072D02*
X61510000Y-102533447D01*
X61510000Y-102533447D02*
X61510000Y-97707500D01*
X61510000Y-97707500D02*
X61487500Y-97685000D01*
%TO.N,RADIO_RX_HIGH*%
X78565000Y-85625000D02*
X80635000Y-83555000D01*
X80635000Y-83555000D02*
X100990000Y-83555000D01*
X100990000Y-83555000D02*
X103290000Y-81255000D01*
%TO.N,GND*%
X92125000Y-53195000D02*
X92125000Y-53495000D01*
X92125000Y-53495000D02*
X92155000Y-53525000D01*
D43*
X92125000Y-53195000D02*
X92125000Y-53725000D01*
X92125000Y-53725000D02*
X90680000Y-55170000D01*
%TO.N,+4V*%
X74908800Y-73130400D02*
X75850400Y-73130400D01*
X75850400Y-73130400D02*
X76545000Y-73825000D01*
D42*
%TO.N,I2C_SCL*%
X24185000Y-42525000D02*
X25592860Y-42525000D01*
D43*
%TO.N,+4V*%
X85895000Y-52205000D02*
X87395000Y-52205000D01*
X87395000Y-52205000D02*
X87455000Y-52145000D01*
X85975000Y-53345000D02*
X86255000Y-53345000D01*
X86255000Y-53345000D02*
X87455000Y-52145000D01*
X85955000Y-50895000D02*
X86205000Y-50895000D01*
X86205000Y-50895000D02*
X87455000Y-52145000D01*
%TO.N,GND*%
X91045000Y-52145000D02*
X92135000Y-53235000D01*
X92135000Y-53235000D02*
X92135000Y-53275000D01*
X91125000Y-52145000D02*
X92035000Y-51235000D01*
X92035000Y-51235000D02*
X92035000Y-51065000D01*
%TO.N,+4V*%
X85895000Y-55555000D02*
X87485000Y-55555000D01*
X87485000Y-55555000D02*
X87555000Y-55485000D01*
X85565000Y-56585000D02*
X86455000Y-56585000D01*
X86455000Y-56585000D02*
X87555000Y-55485000D01*
X85955000Y-54425000D02*
X86495000Y-54425000D01*
X86495000Y-54425000D02*
X87555000Y-55485000D01*
X87545000Y-57405000D02*
X87545000Y-59660000D01*
X87545000Y-59660000D02*
X87565000Y-59680000D01*
X89015000Y-57425000D02*
X89015000Y-58230000D01*
X89015000Y-58230000D02*
X87565000Y-59680000D01*
%TO.N,GND*%
X93495000Y-57535000D02*
X93495000Y-58350000D01*
X93495000Y-58350000D02*
X92165000Y-59680000D01*
X97095000Y-57515000D02*
X96925000Y-57685000D01*
X96925000Y-57685000D02*
X96925000Y-59520000D01*
X98255000Y-57435000D02*
X98255000Y-58190000D01*
X98255000Y-58190000D02*
X96765000Y-59680000D01*
X95615000Y-57515000D02*
X96045000Y-57945000D01*
X96045000Y-57945000D02*
X96045000Y-58960000D01*
D42*
%TO.N,+3V3*%
X41535000Y-61135000D02*
X41535000Y-61920100D01*
X41535000Y-61920100D02*
X42116500Y-62501600D01*
X41485000Y-49855000D02*
X41485000Y-50887500D01*
X41485000Y-50887500D02*
X41952500Y-51355000D01*
X42745000Y-39505000D02*
X42745000Y-40395000D01*
X42745000Y-40395000D02*
X43295000Y-40945000D01*
X30585000Y-30395000D02*
X30585000Y-32210321D01*
X30585000Y-32210321D02*
X30608653Y-32233974D01*
X24125000Y-31305000D02*
X25129909Y-31305000D01*
X25129909Y-31305000D02*
X25997896Y-32172987D01*
X45292500Y-45875000D02*
X45725000Y-45875000D01*
X45725000Y-45875000D02*
X46865000Y-44735000D01*
X40685000Y-57675000D02*
X41650000Y-57675000D01*
X41650000Y-57675000D02*
X42140000Y-58165000D01*
X43995000Y-69065000D02*
X45025000Y-69065000D01*
X45025000Y-69065000D02*
X45485000Y-68605000D01*
%TO.N,Net-(D3-Pad1)*%
X63785000Y-94215000D02*
X63785000Y-97137500D01*
X63785000Y-97137500D02*
X63237500Y-97685000D01*
%TO.N,AF_OUT*%
X85640000Y-81255000D02*
X82975000Y-81255000D01*
X82975000Y-81255000D02*
X81785000Y-80065000D01*
X81785000Y-80065000D02*
X70095000Y-80065000D01*
X70095000Y-80065000D02*
X66875000Y-76845000D01*
X66875000Y-76845000D02*
X66875000Y-55825000D01*
X66875000Y-55825000D02*
X63635000Y-52585000D01*
%TO.N,RADIO_TX_HIGH*%
X43991500Y-63451600D02*
X46508400Y-63451600D01*
X49065000Y-51025000D02*
X66175000Y-51025000D01*
X46508400Y-63451600D02*
X47355000Y-62605000D01*
X47355000Y-62605000D02*
X47355000Y-52735000D01*
X47355000Y-52735000D02*
X49065000Y-51025000D01*
X66175000Y-51025000D02*
X71695000Y-56545000D01*
X71695000Y-56545000D02*
X71695000Y-74965000D01*
X71695000Y-74965000D02*
X72475000Y-75745000D01*
X72475000Y-75745000D02*
X77415000Y-75745000D01*
X77415000Y-75745000D02*
X79705000Y-78035000D01*
X79705000Y-78035000D02*
X80975000Y-79305000D01*
X80975000Y-79305000D02*
X109595000Y-79305000D01*
X110285000Y-85035000D02*
X109605000Y-85715000D01*
X109595000Y-79305000D02*
X110285000Y-79995000D01*
X110285000Y-79995000D02*
X110285000Y-85035000D01*
X109605000Y-85715000D02*
X107805000Y-85715000D01*
X107805000Y-85715000D02*
X107795000Y-85705000D01*
X107795000Y-85705000D02*
X103290000Y-85705000D01*
%TO.N,RADIO_RX_HIGH*%
X64192500Y-76035000D02*
X69142500Y-80985000D01*
X76495000Y-80985000D02*
X78565000Y-83055000D01*
X69142500Y-80985000D02*
X76495000Y-80985000D01*
X78565000Y-83055000D02*
X78565000Y-85625000D01*
%TO.N,PTT_HIGH*%
X79645000Y-73825000D02*
X81115000Y-72355000D01*
X81115000Y-72355000D02*
X85640000Y-72355000D01*
%TO.N,GPIO012*%
X56805000Y-52545000D02*
X56805000Y-53805000D01*
X56805000Y-53805000D02*
X53135000Y-57475000D01*
X53135000Y-86094450D02*
X59150275Y-92109725D01*
X53135000Y-57475000D02*
X53135000Y-86094450D01*
X59150275Y-92109725D02*
X59150275Y-102331072D01*
%TO.N,GPIO015*%
X53965000Y-52685000D02*
X53965000Y-54945000D01*
X53965000Y-54945000D02*
X52235000Y-56675000D01*
X52235000Y-56675000D02*
X52235000Y-96675000D01*
X52235000Y-96675000D02*
X51575000Y-97335000D01*
X51575000Y-97335000D02*
X47995000Y-97335000D01*
X47995000Y-97335000D02*
X46205275Y-99124725D01*
X46205275Y-99124725D02*
X46205275Y-101331072D01*
%TO.N,RADIO_RX_LOW*%
X37131072Y-109951072D02*
X32745000Y-105565000D01*
X42150275Y-109951072D02*
X37131072Y-109951072D01*
X32745000Y-105565000D02*
X32695000Y-105515000D01*
X32695000Y-105515000D02*
X32695000Y-91765000D01*
%TO.N,GPS_TX*%
X25885000Y-72995000D02*
X23218000Y-75662000D01*
X23218000Y-75662000D02*
X23218000Y-80208600D01*
X23218000Y-80208600D02*
X23497400Y-80488000D01*
X23497400Y-80488000D02*
X29517200Y-80488000D01*
X37761072Y-106141072D02*
X42150275Y-106141072D01*
X29517200Y-80488000D02*
X33605000Y-84575800D01*
X33605000Y-84575800D02*
X33605000Y-101985000D01*
X33605000Y-101985000D02*
X37761072Y-106141072D01*
%TO.N,GND*%
X60905000Y-92105000D02*
X60685000Y-92325000D01*
X60685000Y-92325000D02*
X60685000Y-94215000D01*
%TO.N,SQ*%
X63895000Y-90015000D02*
X64035000Y-90155000D01*
X64035000Y-90155000D02*
X85640000Y-90155000D01*
%TO.N,ONE_WIRE*%
X55095275Y-99024725D02*
X55095275Y-101331072D01*
%TO.N,PTT_LOW*%
X45735000Y-56105000D02*
X45735000Y-51995000D01*
%TO.N,RADIO_TX_LOW*%
X44071400Y-80358600D02*
X44071400Y-108047000D01*
X40895000Y-69065000D02*
X40895000Y-71175000D01*
X40895000Y-71175000D02*
X44071400Y-74351400D01*
X44071400Y-74351400D02*
X44071400Y-80358600D01*
%TO.N,PTT_LOW*%
X45240000Y-58165000D02*
X45735000Y-57670000D01*
X48105000Y-49625000D02*
X67425000Y-49625000D01*
X45735000Y-57670000D02*
X45735000Y-56105000D01*
X45735000Y-51995000D02*
X48105000Y-49625000D01*
X67425000Y-49625000D02*
X68845000Y-51045000D01*
%TO.N,PTT_HIGH*%
X43827500Y-52305000D02*
X45575000Y-50557500D01*
X45575000Y-50557500D02*
X45575000Y-49125000D01*
X45575000Y-49125000D02*
X46765000Y-47935000D01*
X46765000Y-47935000D02*
X70865000Y-47935000D01*
X74805000Y-71755000D02*
X77575000Y-71755000D01*
X70865000Y-47935000D02*
X73395000Y-50465000D01*
X73395000Y-50465000D02*
X73395000Y-70345000D01*
X73395000Y-70345000D02*
X74805000Y-71755000D01*
X77575000Y-71755000D02*
X79645000Y-73825000D01*
%TO.N,GPIO23*%
X37305000Y-99185000D02*
X37305000Y-97715000D01*
X37305000Y-97715000D02*
X40045000Y-94975000D01*
X35385000Y-72065000D02*
X33915000Y-70595000D01*
X40045000Y-94975000D02*
X40045000Y-74085000D01*
X40045000Y-74085000D02*
X38025000Y-72065000D01*
X38025000Y-72065000D02*
X35385000Y-72065000D01*
X33915000Y-70595000D02*
X33915000Y-45905000D01*
X33915000Y-45905000D02*
X44780000Y-35040000D01*
X44780000Y-35040000D02*
X47040000Y-35040000D01*
X47040000Y-35040000D02*
X49280000Y-32800000D01*
%TO.N,RADIO_ENA_LOW*%
X41915000Y-96175000D02*
X40486620Y-94746620D01*
X38207925Y-71623381D02*
X35623381Y-71623381D01*
X35623381Y-71623381D02*
X34395000Y-70395000D01*
X40486620Y-94746620D02*
X40486619Y-73902075D01*
X38815000Y-45875000D02*
X42192500Y-45875000D01*
X40486619Y-73902075D02*
X38207925Y-71623381D01*
X34395000Y-70395000D02*
X34395000Y-50295000D01*
X34395000Y-50295000D02*
X38815000Y-45875000D01*
X42150275Y-107411072D02*
X43462728Y-107411072D01*
X43462728Y-107411072D02*
X43565000Y-107308800D01*
X43565000Y-107308800D02*
X43565000Y-97805000D01*
X43565000Y-97805000D02*
X41915000Y-96155000D01*
X42192500Y-45875000D02*
X42192500Y-43947500D01*
X42192500Y-43947500D02*
X43295000Y-42845000D01*
%TO.N,FSK_OUT*%
X59150275Y-107411072D02*
X61761072Y-107411072D01*
X64355000Y-110005000D02*
X71195000Y-110005000D01*
X61761072Y-107411072D02*
X64355000Y-110005000D01*
X71195000Y-110005000D02*
X74024795Y-107175205D01*
X74024795Y-107175205D02*
X77118050Y-107175205D01*
%TO.N,RADIO_TX_LOW*%
X44071400Y-108047000D02*
X43437328Y-108681072D01*
X43437328Y-108681072D02*
X42150275Y-108681072D01*
%TO.N,GPIO26*%
X67225000Y-105745000D02*
X66828928Y-106141072D01*
X66828928Y-106141072D02*
X59150275Y-106141072D01*
%TO.N,GPIO27*%
X65005000Y-103945000D02*
X64078928Y-104871072D01*
X64078928Y-104871072D02*
X59150275Y-104871072D01*
%TO.N,AUDIO_IN*%
X71755000Y-110595000D02*
X71325000Y-111025000D01*
X71325000Y-111025000D02*
X63305000Y-111025000D01*
X61195000Y-113135000D02*
X61195000Y-114795000D01*
X63305000Y-111025000D02*
X61195000Y-113135000D01*
X61195000Y-114795000D02*
X60958928Y-115031072D01*
X60958928Y-115031072D02*
X59150275Y-115031072D01*
%TO.N,PTT_LOW*%
X41952500Y-56037500D02*
X42020000Y-56105000D01*
X42020000Y-56105000D02*
X43180000Y-56105000D01*
X43180000Y-56105000D02*
X45240000Y-58165000D01*
X41952500Y-53255000D02*
X41952500Y-56037500D01*
%TO.N,I2C_SA*%
X30608653Y-35333974D02*
X32235000Y-33707627D01*
X47715000Y-25895000D02*
X51820000Y-30000000D01*
X32235000Y-33707627D02*
X32235000Y-29215000D01*
X32235000Y-29215000D02*
X35555000Y-25895000D01*
X35555000Y-25895000D02*
X47715000Y-25895000D01*
%TO.N,GPS_RX*%
X31540400Y-72512400D02*
X31540400Y-46669600D01*
X31540400Y-46669600D02*
X37255000Y-40955000D01*
X37255000Y-40955000D02*
X37255000Y-33515000D01*
X37255000Y-33515000D02*
X38230000Y-32540000D01*
X38230000Y-32540000D02*
X46740000Y-32540000D01*
%TO.N,GPS_TX*%
X25885000Y-72995000D02*
X28247200Y-72995000D01*
X28247200Y-72995000D02*
X29847400Y-71394800D01*
X29847400Y-71394800D02*
X29847400Y-45962600D01*
X29847400Y-45962600D02*
X35465000Y-40345000D01*
X35465000Y-40345000D02*
X35465000Y-31995000D01*
X35465000Y-31995000D02*
X38425000Y-29035000D01*
X38425000Y-29035000D02*
X45775000Y-29035000D01*
X45775000Y-29035000D02*
X46740000Y-30000000D01*
%TO.N,ONE_WIRE*%
X28495000Y-52705000D02*
X28495000Y-45015000D01*
X28495000Y-45015000D02*
X33815000Y-39695000D01*
X33815000Y-39695000D02*
X33815000Y-31315000D01*
X33815000Y-31315000D02*
X37700000Y-27430000D01*
X37700000Y-27430000D02*
X46710000Y-27430000D01*
X46710000Y-27430000D02*
X49280000Y-30000000D01*
D43*
%TO.N,+4V*%
X75185000Y-67445000D02*
X75185000Y-68606600D01*
X75185000Y-68606600D02*
X75517800Y-68939400D01*
X75465000Y-85625000D02*
X75295000Y-85455000D01*
X75295000Y-85455000D02*
X75295000Y-84035000D01*
D42*
%TO.N,GND*%
X56485000Y-99645000D02*
X56485000Y-101211347D01*
X56485000Y-101211347D02*
X56365275Y-101331072D01*
X46305000Y-90525000D02*
X46305000Y-91695000D01*
X46305000Y-91695000D02*
X46755000Y-92145000D01*
%TO.N,Net-(D2-Pad1)*%
X48767500Y-94375000D02*
X48767500Y-93232500D01*
X48767500Y-93232500D02*
X49855000Y-92145000D01*
%TO.N,GPIO02*%
X44935275Y-101331072D02*
X44935275Y-98214725D01*
X44935275Y-98214725D02*
X47017500Y-96132500D01*
X47017500Y-96132500D02*
X47017500Y-94375000D01*
%TO.N,Net-(D1-Pad1)*%
X36515000Y-74795000D02*
X37925000Y-76205000D01*
X37925000Y-76205000D02*
X37925000Y-78585000D01*
X37925000Y-78585000D02*
X37927500Y-78587500D01*
X37927500Y-78587500D02*
X37927500Y-80975000D01*
%TO.N,GPIO23*%
X40495000Y-117325000D02*
X40505000Y-117335000D01*
X40505000Y-117335000D02*
X41914203Y-117335000D01*
X41914203Y-117335000D02*
X42150275Y-117571072D01*
%TO.N,ESP_PROG*%
X41205000Y-97295000D02*
X41205000Y-101385797D01*
X41205000Y-101385797D02*
X42150275Y-102331072D01*
%TO.N,ONE_WIRE*%
X27142860Y-53006828D02*
X28193172Y-53006828D01*
X28193172Y-53006828D02*
X28495000Y-52705000D01*
%TO.N,ESP_RX*%
X42150275Y-113761072D02*
X37191072Y-113761072D01*
X37191072Y-113761072D02*
X30725000Y-107295000D01*
X30725000Y-107295000D02*
X30725000Y-92469657D01*
X30725000Y-92469657D02*
X25798507Y-87543164D01*
%TO.N,I2C_SA*%
X42150275Y-112491072D02*
X38301072Y-112491072D01*
X38301072Y-112491072D02*
X31715000Y-105905000D01*
X31715000Y-105905000D02*
X31715000Y-84362200D01*
X31715000Y-84362200D02*
X28597800Y-81245000D01*
X22405000Y-46122000D02*
X23462000Y-45065000D01*
X28597800Y-81245000D02*
X23215000Y-81245000D01*
X23215000Y-81245000D02*
X22405000Y-80435000D01*
X22405000Y-80435000D02*
X22405000Y-46122000D01*
X23462000Y-45065000D02*
X25592860Y-45065000D01*
%TO.N,I2C_SCL*%
X23887013Y-35272987D02*
X23425000Y-35735000D01*
X23425000Y-35735000D02*
X23425000Y-41765000D01*
X25997896Y-35272987D02*
X23887013Y-35272987D01*
X24185000Y-42525000D02*
X22825000Y-42525000D01*
X23425000Y-41765000D02*
X24185000Y-42525000D01*
X22825000Y-42525000D02*
X21585000Y-43765000D01*
X21585000Y-43765000D02*
X21585000Y-105795000D01*
X22695000Y-106905000D02*
X24855000Y-106905000D01*
X21585000Y-105795000D02*
X22695000Y-106905000D01*
X24855000Y-106905000D02*
X34248088Y-116298088D01*
X34248088Y-116298088D02*
X40654177Y-116298088D01*
%TO.N,ESP_TX*%
X25798507Y-85003164D02*
X24101640Y-86700031D01*
X24101640Y-86700031D02*
X24101640Y-91841640D01*
X24101640Y-91841640D02*
X26215000Y-93955000D01*
X26215000Y-93955000D02*
X26215000Y-106015000D01*
X26215000Y-106015000D02*
X35231072Y-115031072D01*
X35231072Y-115031072D02*
X42150275Y-115031072D01*
%TO.N,ESP_ENA*%
X86558129Y-116452171D02*
X86679587Y-116330713D01*
X62405000Y-119565000D02*
X71686180Y-119565000D01*
X74799009Y-116452171D02*
X81299009Y-116452171D01*
X86679587Y-116330713D02*
X91879983Y-116330713D01*
X91879983Y-116330713D02*
X92179187Y-116629917D01*
X81299009Y-116452171D02*
X86558129Y-116452171D01*
X61825000Y-116615000D02*
X61825000Y-118985000D01*
X59150275Y-116301072D02*
X61511072Y-116301072D01*
X61511072Y-116301072D02*
X61825000Y-116615000D01*
X61825000Y-118985000D02*
X62405000Y-119565000D01*
X71686180Y-119565000D02*
X74799009Y-116452171D01*
%TO.N,PTT_LOW*%
X60732872Y-108681072D02*
X59150275Y-108681072D01*
X60759200Y-108707400D02*
X60732872Y-108681072D01*
%TO.N,FSK_OUT*%
X77118050Y-101968050D02*
X77165000Y-102015000D01*
X77118050Y-97015205D02*
X77118050Y-101968050D01*
X77165000Y-102015000D02*
X77165000Y-107128255D01*
%TO.N,ONE_WIRE*%
X23827600Y-62047600D02*
X25885000Y-64105000D01*
X23827600Y-56322088D02*
X23827600Y-62047600D01*
X27142860Y-53006828D02*
X23827600Y-56322088D01*
%TO.N,GPS_RX*%
X34394000Y-100579400D02*
X38685672Y-104871072D01*
X34394000Y-81351600D02*
X34394000Y-100579400D01*
X28577400Y-75535000D02*
X31600000Y-72512400D01*
X28577400Y-75535000D02*
X34394000Y-81351600D01*
%TO.N,RADIO_TX_LOW*%
X40895000Y-65623100D02*
X42167300Y-64350800D01*
X40895000Y-69065000D02*
X40895000Y-65623100D01*
%TO.N,GND*%
X91375000Y-58890000D02*
X92165000Y-59680000D01*
D43*
X91375000Y-57645000D02*
X91375000Y-58890000D01*
D42*
X65375000Y-117640000D02*
X65315000Y-117580000D01*
X69725000Y-117495000D02*
X69975000Y-117495000D01*
X59150275Y-118841072D02*
X60521072Y-118841072D01*
X91905000Y-52145000D02*
X91945000Y-52185000D01*
X65375000Y-118825000D02*
X65375000Y-117640000D01*
X96925000Y-59520000D02*
X96765000Y-59680000D01*
X33365000Y-74845000D02*
X33415000Y-74795000D01*
D43*
X92435000Y-57605000D02*
X92435000Y-59410000D01*
D42*
X96045000Y-58960000D02*
X96765000Y-59680000D01*
X64130000Y-118765000D02*
X65315000Y-117580000D01*
X63855000Y-118765000D02*
X64130000Y-118765000D01*
X90680000Y-55485000D02*
X90680000Y-55870000D01*
X66520000Y-118785000D02*
X65315000Y-117580000D01*
X87965000Y-110770300D02*
X86679587Y-112055713D01*
X66685000Y-118785000D02*
X66520000Y-118785000D01*
X87965000Y-110755000D02*
X87965000Y-110770300D01*
X32065000Y-74845000D02*
X33365000Y-74845000D01*
X92435000Y-59410000D02*
X92165000Y-59680000D01*
X90580000Y-52145000D02*
X91125000Y-52145000D01*
X90680000Y-55485000D02*
X90680000Y-55170000D01*
X69975000Y-117495000D02*
X71195000Y-118715000D01*
X68585000Y-118665000D02*
X68585000Y-118635000D01*
D43*
X90580000Y-52145000D02*
X91905000Y-52145000D01*
D42*
X60521072Y-118841072D02*
X60615000Y-118935000D01*
X68585000Y-118635000D02*
X69725000Y-117495000D01*
X90580000Y-52145000D02*
X91045000Y-52145000D01*
D43*
%TO.N,+4V*%
X86545000Y-57405000D02*
X86545000Y-58660000D01*
X86545000Y-58660000D02*
X87565000Y-59680000D01*
D42*
%TO.N,RADIO_RX_LOW*%
X61451600Y-77863800D02*
X61451600Y-80150400D01*
X62317500Y-76997900D02*
X61451600Y-77863800D01*
X61451600Y-80150400D02*
X61705000Y-80403800D01*
X62317500Y-76985000D02*
X62317500Y-76997900D01*
%TO.N,/RF_OUT*%
X112186370Y-63375977D02*
X112186370Y-70945645D01*
X111676659Y-62866266D02*
X112186370Y-63375977D01*
%TO.N,MIC_IN*%
X108745000Y-90815000D02*
X108085000Y-90155000D01*
X107234795Y-107175205D02*
X108745000Y-105665000D01*
X108085000Y-90155000D02*
X103290000Y-90155000D01*
X108745000Y-105665000D02*
X108745000Y-90815000D01*
X80243050Y-107175205D02*
X107234795Y-107175205D01*
%TO.N,GPIO34*%
X59150275Y-112491072D02*
X60638928Y-112491072D01*
%TO.N,GPIO032*%
X59150275Y-109951072D02*
X60718928Y-109951072D01*
%TO.N,GPIO04*%
X42150275Y-103601072D02*
X39295272Y-103601072D01*
X39295272Y-103601072D02*
X38864400Y-103170200D01*
X35625000Y-81527500D02*
X36177500Y-80975000D01*
X38864400Y-103170200D02*
X35625000Y-99930800D01*
X35625000Y-99930800D02*
X35625000Y-81527500D01*
%TO.N,/RF_OUT_NO_FILTER*%
X107837925Y-63455000D02*
X108426659Y-62866266D01*
X103290000Y-63455000D02*
X107837925Y-63455000D01*
%TO.N,GPIO35*%
X59150275Y-111221072D02*
X60628928Y-111221072D01*
%TO.N,/RF_HI_ENA*%
X85418982Y-63676018D02*
X85640000Y-63455000D01*
X77940218Y-63676018D02*
X85418982Y-63676018D01*
%TO.N,+3V3*%
X59150275Y-117571072D02*
X60648928Y-117571072D01*
X69675000Y-114195000D02*
X69725000Y-114245000D01*
X93345000Y-112635000D02*
X93074104Y-112635000D01*
X60648928Y-117571072D02*
X60675000Y-117545000D01*
X66335000Y-112285000D02*
X65315000Y-113305000D01*
X64185000Y-112055000D02*
X64185000Y-112175000D01*
X66335000Y-112045000D02*
X66335000Y-112285000D01*
X68145000Y-114195000D02*
X69675000Y-114195000D01*
X93074104Y-112635000D02*
X92179187Y-113529917D01*
X71285000Y-114185000D02*
X69785000Y-114185000D01*
X64185000Y-112175000D02*
X65315000Y-113305000D01*
X69785000Y-114185000D02*
X69725000Y-114245000D01*
%TO.N,I2C_SA*%
X30608653Y-41601347D02*
X30608653Y-35333974D01*
X27145000Y-45065000D02*
X30608653Y-41601347D01*
X25592860Y-45065000D02*
X27145000Y-45065000D01*
%TO.N,I2C_SCL*%
X25997896Y-35272987D02*
X26365226Y-34905657D01*
X42150275Y-116301072D02*
X40657161Y-116301072D01*
X28425000Y-34098824D02*
X28425000Y-29815000D01*
X26365226Y-34905657D02*
X27618167Y-34905657D01*
X34775000Y-23465000D02*
X52555000Y-23465000D01*
X27618167Y-34905657D02*
X28425000Y-34098824D01*
X52555000Y-23465000D02*
X54360000Y-25270000D01*
X40657161Y-116301072D02*
X40654177Y-116298088D01*
X54360000Y-25270000D02*
X54360000Y-30000000D01*
X28425000Y-29815000D02*
X34775000Y-23465000D01*
%TD*%
M02*
